<?xml version="1.0" encoding="utf-8"?>
<!-- Generator: Adobe Illustrator 27.5.0, SVG Export Plug-In . SVG Version: 6.00 Build 0)  -->
<svg version="1.1" id="Capa_1" xmlns="http://www.w3.org/2000/svg" xmlns:xlink="http://www.w3.org/1999/xlink" x="0px" y="0px"
	 viewBox="0 0 2404 1873" style="enable-background:new 0 0 2404 1873;" xml:space="preserve">
<g>
	<rect x="0" style="opacity:0.6;fill:#D9E1EF;" width="2403.707" height="1872.108"/>
	<path style="opacity:0.6;fill:#D9D1E4;" d="M1816.78,225.315C1459.744,145.92,1115.653,153.077,754.981,201
		c-194.05,25.783-426.889,61.393-526.554,256.714c-69.844,136.874,12.538,174.194,56.967,284.652
		c43.217,107.448-46.233,175.623-95.32,258.34c-52.236,88.022-85.906,224.055-47.606,322.704
		c150.309,387.182,799.707,400.622,1132.136,375.753c289.966-21.695,858.181-4.567,982.062-349.916
		c65.729-183.26-43.454-371.181-43.163-556.042c0.188-120.156,30.173-238.919-37.686-348.418
		C2094.532,313.624,1960.352,257.248,1816.78,225.315z"/>
</g>
<path style="fill:#9A8DB6;" d="M2033.438,845.375v-43.83h-35.047c-0.615-3.895-1.404-7.726-2.316-11.512l32.713-12.916
	l-16.095-40.771l-33.106,13.074c-2.803-4.735-5.845-9.313-9.137-13.687l25.264-25.264l-30.993-30.993l-25.501,25.506
	c-3.685-2.694-7.491-5.225-11.421-7.573l13.853-33.361l-40.479-16.806l-13.917,33.519c-4.461-1.097-8.999-2.007-13.608-2.689
	v-36.317h-43.828v36.317c-3.752,0.554-7.444,1.275-11.095,2.106l-13.336-33.776l-40.766,16.094l13.277,33.628
	c-4.718,2.709-9.281,5.66-13.656,8.858l-25.501-25.506l-30.99,30.993l25.264,25.264c-2.778,3.693-5.381,7.518-7.81,11.463
	l-32.883-13.658l-16.809,40.479l32.479,13.484c-1.194,4.597-2.165,9.283-2.919,14.043h-35.046v43.83h34.624
	c0.546,3.969,1.248,7.894,2.103,11.764l-32.078,12.664l16.095,40.766l31.695-12.516c2.825,4.982,5.92,9.792,9.283,14.399
	l-23.996,23.993l30.99,30.993l23.759-23.762c3.908,2.941,7.961,5.704,12.158,8.255l-12.845,30.934l40.476,16.811l12.778-30.771
	c4.824,1.226,9.747,2.209,14.75,2.946v33.312h43.828v-33.312c4.123-0.608,8.178-1.414,12.185-2.358l12.244,31.018l40.768-16.094
	l-12.309-31.176c4.998-2.917,9.825-6.1,14.429-9.565l23.757,23.762l30.993-30.993l-23.999-23.993
	c2.852-3.905,5.514-7.953,7.981-12.135l31.445,13.06l16.809-40.479l-31.826-13.213c1.122-4.691,2.024-9.466,2.691-14.31H2033.438z
	 M1851.733,936.956c-61.85,0-111.99-50.142-111.99-111.991c0-61.853,50.14-111.99,111.99-111.99
	c61.851,0,111.99,50.138,111.99,111.99C1963.723,886.814,1913.583,936.956,1851.733,936.956z"/>
<path style="opacity:0.6;fill:#989ECC;" d="M863.848,846.671v-64.403H838.46c-1.139-7.969-2.666-15.808-4.609-23.49l23.462-9.629
	l-24.458-59.579l-23.566,9.673c-4.307-7.296-8.979-14.345-14.048-21.087l18.02-18.018l-45.541-45.54l-18.049,18.047
	c-6.359-4.765-12.993-9.185-19.842-13.277l9.849-23.568l-59.423-24.834l-9.839,23.544c-8.107-2.091-16.398-3.707-24.827-4.903
	V564.01h-64.403v25.596c-7.946,1.127-15.764,2.644-23.421,4.567l-9.701-23.628l-59.579,24.454l9.706,23.652
	c-7.291,4.291-14.347,8.942-21.087,13.994l-18.049-18.047l-45.541,45.54l18.02,18.018c-4.783,6.362-9.226,12.985-13.334,19.836
	l-23.485-9.817l-24.836,59.426l23.393,9.778c-2.111,8.126-3.752,16.435-4.958,24.888h-25.388v64.403h25.326
	c1.122,7.983,2.64,15.838,4.57,23.534l-23.361,9.59l24.456,59.579l23.344-9.579c4.31,7.33,8.981,14.424,14.061,21.201l-17.808,17.81
	l45.541,45.541l17.778-17.78c6.394,4.81,13.06,9.273,19.95,13.396l-9.689,23.183l59.424,24.834l9.661-23.114
	c8.163,2.115,16.514,3.747,25.007,4.953v25.116h64.403v-25.116c8.006-1.137,15.885-2.664,23.601-4.612l9.521,23.193l59.579-24.458
	l-9.547-23.258c7.333-4.33,14.424-9.021,21.198-14.117l17.78,17.78l45.541-45.541l-17.808-17.81
	c4.793-6.391,9.232-13.064,13.342-19.955l23.265,9.723l24.834-59.421l-23.269-9.728c2.098-8.141,3.707-16.475,4.898-24.943H863.848z
	 M613.387,954.494c-77.201,0-139.783-62.584-139.783-139.78c0-77.201,62.582-139.785,139.783-139.785
	c77.199,0,139.783,62.585,139.783,139.785C753.17,891.91,690.586,954.494,613.387,954.494z"/>
<path style="opacity:0.6;fill:#989ECC;" d="M1471.162,520.027v-44.883h-17.689c-0.796-5.551-1.861-11.018-3.213-16.366l16.349-6.713
	l-17.042-41.517l-16.424,6.737c-3.003-5.082-6.258-9.995-9.789-14.691l12.555-12.556l-31.734-31.734l-12.578,12.575
	c-4.432-3.322-9.053-6.401-13.828-9.253l6.866-16.426l-41.41-17.306l-6.859,16.411c-5.645-1.458-11.426-2.585-17.298-3.42V323.05
	h-44.881v17.835c-5.536,0.786-10.983,1.843-16.319,3.183l-6.759-16.466l-41.52,17.044l6.765,16.48
	c-5.081,2.99-9.997,6.233-14.696,9.752l-12.577-12.575l-31.735,31.734l12.558,12.556c-3.334,4.429-6.431,9.046-9.293,13.826
	l-16.366-6.841l-17.306,41.408l16.302,6.812c-1.471,5.665-2.615,11.458-3.455,17.345h-17.691v44.883h17.646
	c0.784,5.561,1.839,11.032,3.183,16.396l-16.278,6.683l17.044,41.517l16.265-6.678c3.005,5.111,6.258,10.055,9.8,14.78
	l-12.41,12.407l31.735,31.735l12.39-12.388c4.457,3.351,9.1,6.461,13.903,9.333l-6.752,16.154l41.411,17.311l6.732-16.109
	c5.688,1.473,11.508,2.61,17.424,3.45v17.503h44.881v-17.503c5.578-0.791,11.07-1.854,16.446-3.213l6.636,16.164l41.517-17.044
	l-6.653-16.208c5.111-3.015,10.052-6.288,14.772-9.837l12.39,12.388l31.734-31.735l-12.409-12.407
	c3.341-4.459,6.436-9.105,9.298-13.91l16.213,6.777l17.306-41.408l-16.216-6.782c1.461-5.67,2.583-11.478,3.414-17.375H1471.162z
	 M1296.63,595.162c-53.798,0-97.408-43.613-97.408-97.408c0-53.796,43.61-97.409,97.408-97.409
	c53.796,0,97.409,43.613,97.409,97.409C1394.038,551.549,1350.425,595.162,1296.63,595.162z"/>
<g>
	<g>
		<rect x="1129.729" y="1072.11" style="fill:#EB946F;" width="144.251" height="463.553"/>
		<rect x="920.511" y="954" style="opacity:0.7;fill:#916EA2;" width="144.251" height="581.663"/>
		<rect x="724.792" y="1102.48" style="fill:#EB946F;" width="144.251" height="433.182"/>
		<rect x="326.602" y="1389.307" style="fill:#EB946F;" width="144.251" height="146.355"/>
		<rect x="518.947" y="1240.832" style="opacity:0.7;fill:#976EA2;" width="144.251" height="294.83"/>
		<rect x="1338.945" y="1175.03" style="opacity:0.7;fill:#916EA2;" width="144.251" height="360.633"/>
		<rect x="1534.666" y="1097.419" style="fill:#EB946F;" width="144.251" height="438.244"/>
		<rect x="1932.854" y="1384.246" style="fill:#EB946F;" width="144.251" height="151.417"/>
		<rect x="1740.509" y="1235.771" style="opacity:0.7;fill:#976EA2;" width="144.251" height="299.892"/>
	</g>
</g>
<g>
	<g>
		<g>
			
				<rect x="878.972" y="537.901" transform="matrix(0.8522 -0.5232 0.5232 0.8522 -179.9328 694.66)" style="fill:#5470B4;" width="521.569" height="255.91"/>
			<path style="fill:#88ABD8;" d="M1295.078,483.285c-11.47,7.044-26.48,3.45-33.522-8.018c-0.726-1.181-1.31-2.412-1.814-3.653
				L912.05,685.047c1.211,1.256,2.316,2.645,3.265,4.192c7.044,11.473,3.453,26.48-8.02,33.524c-0.704,0.43-1.421,0.82-2.15,1.171
				l78.262,127.497c1.401-1.453,2.983-2.773,4.785-3.88c11.471-7.039,26.477-3.45,33.521,8.023c0.502,0.82,0.937,1.666,1.335,2.516
				l347.341-213.22c-0.882-1.013-1.71-2.086-2.437-3.267c-6.829-11.127-3.636-25.556,7.024-32.842l-77.875-126.859
				C1296.456,482.39,1295.782,482.855,1295.078,483.285z"/>
			<path style="fill:#5470B4;" d="M1216.092,618.997c25.88,42.16,12.682,97.315-29.476,123.192
				c-42.16,25.882-97.314,12.684-123.194-29.476c-25.877-42.155-12.682-97.31,29.475-123.191
				C1135.058,563.644,1190.213,576.838,1216.092,618.997z"/>
			<g>
				<path style="fill:#88ABD8;" d="M1099.653,608.968l11.465-7.039l5.811,9.461c9.792-4.805,19.97-6.204,30.526-4.187l-2.973,23.509
					c-6.98-1.038-12.333-1.082-16.057-0.128l12.256,19.965c20.825-5.428,35.674-0.915,44.552,13.544
					c4.466,7.281,5.991,14.775,4.577,22.491c-1.414,7.716-5.991,15.027-13.732,21.938l7.377,12.016l-11.26,6.916l-7.293-11.883
					l-1.866,1.142c-4.237,2.605-9.924,4.444-17.056,5.526c-7.133,1.082-13.413,0.722-18.833-1.088l2.803-22.55
					c8.361,2.16,16.34,1.829,23.927-0.989l-14.249-23.213c-9.681,3.03-18.333,3.267-25.953,0.717s-13.549-7.281-17.79-14.186
					c-4.496-7.326-6.162-14.815-4.998-22.471c1.164-7.657,5.994-14.379,14.491-20.163L1099.653,608.968z M1127.119,654.019
					l-10.433-16.989c-3.376,4.102-3.836,8.156-1.377,12.165C1117.967,653.52,1121.904,655.131,1127.119,654.019z M1153.527,671.478
					l11.026,17.963c4.009-4.113,4.558-8.537,1.646-13.282C1163.542,671.834,1159.316,670.272,1153.527,671.478z"/>
			</g>
			<g>
				<path style="fill:#5470B4;" d="M1299.694,567.678c7.041,11.473,3.45,26.48-8.02,33.519c-11.47,7.044-26.48,3.45-33.521-8.018
					c-7.042-11.473-3.451-26.48,8.02-33.524C1277.646,552.616,1292.653,556.205,1299.694,567.678z"/>
				<path style="fill:#5470B4;" d="M1021.362,738.536c7.041,11.468,3.453,26.48-8.02,33.519c-11.473,7.044-26.48,3.45-33.521-8.018
					c-7.041-11.473-3.451-26.48,8.02-33.524C999.313,723.474,1014.32,727.063,1021.362,738.536z"/>
			</g>
		</g>
		<g>
			
				<rect x="923.101" y="566.678" transform="matrix(0.9438 -0.3304 0.3304 0.9438 -163.0235 430.1772)" style="fill:#5470B4;" width="521.569" height="255.912"/>
			<path style="fill:#88ABD8;" d="M1374.406,549.181c-12.703,4.444-26.608-2.249-31.055-14.953c-0.46-1.31-0.771-2.63-0.999-3.954
				L957.292,665.072c0.917,1.483,1.7,3.075,2.301,4.79c4.449,12.704-2.247,26.609-14.95,31.058
				c-0.781,0.272-1.565,0.504-2.353,0.692l49.429,141.194c1.678-1.122,3.504-2.076,5.497-2.773
				c12.706-4.449,26.611,2.249,31.057,14.953c0.319,0.91,0.564,1.824,0.771,2.743l384.673-134.664
				c-0.648-1.177-1.228-2.407-1.685-3.712c-4.313-12.323,1.868-25.744,13.831-30.603l-49.184-140.498
				C1375.944,548.593,1375.187,548.904,1374.406,549.181z"/>
			<path style="fill:#5470B4;" d="M1268.422,665.042c16.347,46.687-8.253,97.784-54.942,114.131s-97.789-8.255-114.134-54.942
				c-16.344-46.692,8.255-97.789,54.945-114.136C1200.981,593.753,1252.078,618.35,1268.422,665.042z"/>
			<g>
				<path style="fill:#88ABD8;" d="M1156.765,630.534l12.699-4.449l3.668,10.479c10.591-2.615,20.83-1.824,30.721,2.388
					l-7.894,22.342c-6.599-2.496-11.822-3.677-15.665-3.534l7.741,22.111c21.503-0.885,35.057,6.678,40.662,22.694
					c2.822,8.057,2.721,15.704-0.297,22.946c-3.02,7.241-9.046,13.416-18.077,18.521l4.661,13.312l-12.471,4.365l-4.607-13.159
					l-2.066,0.722c-4.691,1.646-10.637,2.239-17.839,1.784c-7.2-0.46-13.26-2.145-18.173-5.062l7.523-21.443
					c7.714,3.885,15.578,5.255,23.593,4.108l-8.999-25.704c-10.104,0.904-18.608-0.697-25.514-4.81
					c-6.906-4.108-11.698-9.985-14.377-17.637c-2.837-8.106-2.876-15.783-0.113-23.02c2.761-7.237,8.907-12.778,18.438-16.629
					L1156.765,630.534z M1174.046,680.385l-6.589-18.818c-4.172,3.297-5.482,7.157-3.927,11.596
					C1165.208,677.958,1168.712,680.366,1174.046,680.385z M1196.149,703.05l6.962,19.891c4.79-3.164,6.265-7.37,4.426-12.625
					C1205.86,705.521,1202.061,703.099,1196.149,703.05z"/>
			</g>
			<g>
				<path style="fill:#5470B4;" d="M1361.013,632.625c4.447,12.708-2.246,26.614-14.953,31.057
					c-12.703,4.449-26.609-2.244-31.055-14.948c-4.449-12.704,2.246-26.608,14.95-31.057
					C1342.66,613.229,1356.564,619.922,1361.013,632.625z"/>
				<path style="fill:#5470B4;" d="M1052.765,740.538c4.446,12.704-2.246,26.609-14.95,31.058
					c-12.706,4.444-26.611-2.249-31.058-14.953c-4.449-12.704,2.244-26.609,14.951-31.058
					C1034.411,721.136,1048.316,727.829,1052.765,740.538z"/>
			</g>
		</g>
		<g>
			<rect x="986.412" y="651.098" style="fill:#5470B4;" width="521.572" height="255.908"/>
			<path style="fill:#88ABD8;" d="M1475.08,704.716c-13.46,0-24.372-10.91-24.372-24.37c0-1.389,0.143-2.738,0.365-4.063h-407.975
				c0.376,1.7,0.591,3.465,0.591,5.279c0,13.46-10.914,24.375-24.374,24.375c-0.826,0-1.644-0.044-2.449-0.123V855.41
				c1.955-0.505,3.994-0.801,6.105-0.801c13.46,0,24.374,10.91,24.374,24.37c0,0.964-0.072,1.908-0.18,2.842h407.564
				c-0.222-1.32-0.366-2.674-0.366-4.058c0-13.055,10.269-23.678,23.166-24.315V704.592
				C1476.724,704.671,1475.908,704.716,1475.08,704.716z"/>
			
				<ellipse transform="matrix(0.7071 -0.7071 0.7071 0.7071 -185.5786 1110.0825)" style="fill:#5470B4;" cx="1247.199" cy="779.054" rx="89.569" ry="89.569"/>
			<g>
				<path style="fill:#88ABD8;" d="M1242.782,709.589h13.453v11.102c10.862,1.028,20.264,5.16,28.207,12.402l-14.832,18.482
					c-5.405-4.538-9.945-7.375-13.618-8.512v23.426c20.588,6.268,30.882,17.889,30.882,34.854c0,8.537-2.623,15.724-7.862,21.562
					c-5.243,5.833-12.971,9.668-23.183,11.507v14.102h-13.21v-13.939h-2.19c-4.973,0-10.781-1.409-17.427-4.216
					c-6.646-2.808-11.806-6.401-15.482-10.776l14.187-17.755c5.996,6.214,12.968,10.109,20.912,11.676v-27.237
					c-9.837-2.486-17.333-6.812-22.493-12.971c-5.161-6.159-7.741-13.292-7.741-21.394c0-8.596,2.499-15.847,7.499-21.764
					c4.997-5.917,12.629-9.12,22.899-9.604V709.589z M1242.619,762.357v-19.941c-5.025,1.73-7.538,4.943-7.538,9.644
					C1235.081,757.142,1237.594,760.572,1242.619,762.357z M1255.993,791.046v21.078c5.566-1.404,8.349-4.889,8.349-10.454
					C1264.341,796.588,1261.558,793.048,1255.993,791.046z"/>
			</g>
			<g>
				<path style="fill:#5470B4;" d="M1434.865,779.054c0,13.46-10.912,24.369-24.372,24.369c-13.46,0-24.374-10.909-24.374-24.369
					c0-13.46,10.915-24.374,24.374-24.374C1423.953,754.68,1434.865,765.594,1434.865,779.054z"/>
				<path style="fill:#5470B4;" d="M1108.273,779.054c0,13.46-10.91,24.369-24.372,24.369c-13.46,0-24.372-10.909-24.372-24.369
					c0-13.46,10.912-24.374,24.372-24.374C1097.364,754.68,1108.273,765.594,1108.273,779.054z"/>
			</g>
		</g>
		<g>
			<g>
				<g>
					<g>
						<path style="fill:#EAB1B8;" d="M898.019,928.133c-3.235-5.462-10.195-23-3.994-30.039c5.197-5.902,9.029-5.206,9.018-5.206
							c43.138,0.465,77.982,6.6,109.569,12.126c31.062,5.432,9.449,18.146,9.449,18.146
							C987.121,927.46,954.534,934.386,898.019,928.133z"/>
					</g>
				</g>
			</g>
			<path style="fill:#EAB1B8;" d="M1028.227,900.308c-7.108,0.944-12.84,2.249-18.47,7.182l0.003,0.598
				c0.759,0.059-0.22,3.648,0.01,6.589c0.695,8.848,13.853,9.842,20.42,9.51c8.376-0.42,16.614-3.316,25.153-4.285
				c8.092-0.925,19.564-0.682,26.855-4.395c1.533-10.41-23.257-11.29-44.436-9.921c-7.338,0.628,8.653-3.262,9.024-5.936
				C1048.064,896.26,1032.946,899.166,1028.227,900.308z"/>
			<path style="fill:#EAB1B8;" d="M783.394,1382.466c0,0-17.288,44.201,18.359,186.453c2.854,11.389,11.728,10.662,16.475,6.994
				c3.183-2.457,3.201-7.103,3.201-7.103s16.796-162.069,12.565-182.068C829.765,1366.748,783.394,1382.466,783.394,1382.466z"/>
			<path style="fill:#5878B4;" d="M770.695,1510.873c-11.69-87.305,5.991-177.358,5.991-177.358s53.294,1.572,57.523,21.572
				c2.383,11.261,20.927,110.785,21.571,155.786H770.695z"/>
			<path style="fill:#5878B4;" d="M836.624,1339.921c-1.179,10.796-3.796,21.29-10.284,29.762
				c-9.605,12.546-26.745,12.348-38.183,2.303c-7.192-6.317-5.158,6.352-8.771-2.002c-3.559-8.225-28.385-162.568-30.36-196.532
				c-2.321-39.93-1.429-29.649-1.973-69.643c-0.215-15.808-0.328-31.621-0.385-47.429c-0.035-9.422-2.62-23.307,9.372-25.675
				c14.251-2.813,17.346-27.38,29.738-20.232c15.529,8.967,23.734,39.95,29.629,55.259c17.662,45.847,21.616,94.784,21.814,143.508
				c0.141,34.488,2.477,69.045,0.789,103.523C837.59,1321.335,837.625,1330.742,836.624,1339.921z"/>
			<path style="fill:#374D7E;" d="M869.597,1583.506c-5.628-0.821-7.375-0.045-13.013-0.969c-5.554-0.909-11.023-2.857-16.06-5.353
				c-4.98-2.477-12.236-7.528-16.512-10.949c-0.541-0.43-1.087-0.791-1.636-1.117c-7.612,3.514-11.97,3.282-20.123-0.168
				c-0.773-0.326-1.278-0.801-1.562-1.349c-0.232,0.188-0.447,0.4-0.638,0.647c-1.307,1.671-1.537,3.979-1.844,6.001
				c-0.573,3.771-2.346,19.446-1.575,23.158c1.093,5.25,29.673,11.507,39.051,12.09c12.627,0.786,22.261,1.315,34.73-0.707
				C882.57,1602.824,879.122,1584.9,869.597,1583.506z"/>
			<path style="fill:#4865A2;" d="M667.069,681.152c-2.801,8.141-4.036,16.658-2.927,25.432c1.71,13.505,7.222,25.911-3.492,37.148
				c-11.248,11.794-19.013,15.62-19.854,33.316c-0.645,13.648,4.202,28.24,19.772,29.594c13.556,1.181,27.192-6.851,40.363-1.587
				c11.498,4.597,12.687,17.78,22.064,24.518c11.992,8.621,33.732,6.431,47.243,4.018c11.246-2.012,27.719,0.959,37.352-5.378
				c15.311-10.079,11.317-29.891,5.969-43.761c-6.806-17.657,3.309-33.425,7.632-50.469c5.037-19.866,0.445-38.388-8.008-56.045
				c-4.827-10.089-3.018-20.43-8.799-30.316c-6.263-10.717-11.547-20.385-22.464-27.187c-23.104-14.395-60.13-7.786-78.919,10.628
				C689.162,644.627,673.712,661.839,667.069,681.152z"/>
			<g>
				<g>
					<path style="fill:#9CD4F0;" d="M910.177,883.586c-16.29-13.792-39.545-28.601-45.469-34.543
						c-34.513-34.612-68.563-65.985-84.799-50.469c-18.393,17.578,13.544,60.765,44.582,89.183
						c26.989,24.715,50.234,35.6,83.019,55.61C914.505,929.566,916.489,900.091,910.177,883.586z"/>
				</g>
			</g>
			<g>
				<g>
					<path style="fill:#EAB1B8;" d="M721.295,707.054c1.567,7.845,12.926,18.324,15.788,11.616
						c1.752-4.108,3.297-13.144,1.73-20.988c-1.567-7.845-0.257-8.848-7.407-7.419C724.253,691.69,719.727,699.209,721.295,707.054z
						"/>
				</g>
			</g>
			<path style="fill:#EAB1B8;" d="M735.918,733.197c1.209-15.818,47.575,13.584,47.575,13.584l-4.962,60.345
				c0,0-0.482-2.427-23.287-1.883c-13.895,0.321-22.545,4.701-21.853-8.284C733.82,788.935,735.501,738.664,735.918,733.197z"/>
			<path style="fill:#E5958A;" d="M735.221,748.452c6.562,21.196,25.395,36.475,45.116,34.903l3.156-36.574
				c0,0-46.366-29.401-47.575-13.584c-0.129,1.671,0.171-3.272-0.531,3.643C735.669,737.181,735.066,747.948,735.221,748.452z"/>
			<path style="fill:#EAB1B8;" d="M786.664,759.737c-15.306,7.266-39.948-1.617-48.375-15.669
				c-5.097-8.497-7.059-17.103-6.404-26.624c0.737-10.726,3.868-20.276,4.696-31.047c0.356-4.646,0.826-9.318,2.148-13.801
				c2.113-7.168,6.438-13.727,12.274-18.606c5.739-4.8,13.275-6.139,20.264-8.448c5.917-1.947,12.632-4.498,18.976-4.108
				c4.377,0.267,6.607,3.44,9.568,6.426c16.07,16.218,19.204,45.165,14.639,66.687C811.051,730.573,802.415,752.258,786.664,759.737
				z"/>
			<path style="fill:#EAB1B8;" d="M723.785,1377.676c0,0,17.291,44.196-18.358,186.448c-2.852,11.389-11.725,10.667-16.473,6.994
				c-3.183-2.456-3.201-7.098-3.201-7.098s-16.797-162.074-12.568-182.068C677.415,1361.953,723.785,1377.676,723.785,1377.676z"/>
			<path style="fill:#5878B4;" d="M736.487,1506.083c11.691-87.304-5.991-177.362-5.991-177.362s-53.294,1.572-57.522,21.572
				c-2.383,11.26-20.927,110.784-21.572,155.791H736.487z"/>
			<path style="fill:#5878B4;" d="M670.558,1335.126c1.179,10.801,3.796,21.29,10.284,29.762
				c9.604,12.546,26.745,12.353,38.182,2.303c7.192-6.312,5.158,6.352,8.772-1.997c3.559-8.225,28.385-162.573,30.36-196.537
				c2.321-39.93,1.429-29.648,1.972-69.638c0.215-15.813,0.329-31.621,0.386-47.434c0.034-9.421,2.617-23.302-9.375-25.675
				c-14.248-2.812-17.343-27.38-29.738-20.232c-15.526,8.966-23.731,39.95-29.629,55.263
				c-17.659,45.842-21.614,94.779-21.811,143.503c-0.141,34.488-2.476,69.045-0.788,103.523
				C669.592,1316.545,669.558,1325.947,670.558,1335.126z"/>
			<path style="fill:#EAB1B8;" d="M800.893,1037.672c3.577-71.398,17.459-176.439,8.458-186.602
				c-15.84-17.879,6.607-4.429-4.856-18.759c-17.141-21.428-70.449-43.796-91.875-12.783c-7.267,10.514-0.937,33.346-2.652,41.22
				c-3.801,17.449-5.24,104.388-9.545,174.412L800.893,1037.672z"/>
			<path style="fill:#CFE5F3;" d="M791.909,794.565c-3.957-1.393-8.311-2.476-12.966-3.316c-11.09,10.024-33.059,7.577-44.063-0.974
				c-0.328-0.257-0.591-0.529-0.843-0.801c-4.145,0.227-8.354,0.524-12.632,0.894c-5.964,3.12-2.064,1.533-7.81,9.145
				c-6.379,8.453-6.713,18.887-10.568,28.368c-4.741,11.661-3.369,19.866-2.593,32.773c1.656,27.568,1.241,55.2,1.122,82.802
				c-0.131,30.054,2.566,62.48-2.419,92.257c0,0,101.746,1.958,101.756,1.958c3.02-2.635,2.22-20.959,2.615-24.75
				c1.782-17.029,3.591-34.058,5.517-51.067c3.947-34.903,10.538-69.831,11.201-104.956
				C820.628,835.519,814.812,802.618,791.909,794.565z"/>
			<g>
				<g>
					<g>
						<path style="fill:#EAB1B8;" d="M589.104,919.22c0.922-6.283,6.545-24.29,15.796-25.862c7.751-1.32,10.291,1.631,10.284,1.626
							c33.237,27.503,61.425,54.947,82.502,79.109c20.726,23.766-9.034,19.298-9.034,19.298
							C658.786,974.756,629.101,959.635,589.104,919.22z"/>
					</g>
				</g>
			</g>
			<g>
				<g>
					<g>
						<path style="fill:#EAB1B8;" d="M591.632,921.751c-2.518-1.038-21.149-18.992-13.828-26.683
							c29.636-31.132,50.021-48.951,73.437-69.1c31.903-27.449,76.657-46.643,89.789-24.854
							c11.594,19.234-41.342,49.579-82.661,75.688c-8.786,5.551-17.501,15.719-45.182,35.032
							C613.186,911.835,598.896,922.947,591.632,921.751z"/>
					</g>
				</g>
			</g>
			<g>
				<g>
					<path style="fill:#D2E6F3;" d="M630.062,907.589c17.017-12.881,58.287-41.235,65.38-45.718
						c41.317-26.109,57.641-43.578,46.05-62.816c-13.134-21.789-62.261-0.064-96.775,24.008
						c-30.014,20.939-45.719,41.24-72.409,68.857C584.248,901.767,612.574,910.14,630.062,907.589z"/>
				</g>
			</g>
			<path style="fill:#4865A2;" d="M768.607,616.897c2.541,1.661,4.486,4.201,7.454,7.048c5.956,5.714,11.636,11.992,14.063,20.069
				c1.56,5.185,2.326,11.433,2.798,16.816c0.878,10.025-2.773,19.14-10.719,25.156c-6.15,4.656-12.922,6.856-20.413,8.003
				c-3.87,0.593-8.739,1.582-11.903,4.053c-2.291,1.784-2.632,5.022-4.802,6.658c-7.422,5.591-7.39-6.352-8.085-10.178
				c0.363,2.007-0.064,0.504-1.283-4.513c-2.654-10.989-2.595-19.96-8.979-29.52c-5.605-8.393-7.805-23.668-1.933-32.511
				c6.634-9.98,25.16-13.025,36.097-13.099C764.324,614.855,766.644,615.616,768.607,616.897z"/>
			<path style="fill:#4865A2;" d="M818.087,677.588c-2.229-12.951-5.62-26.989-13.094-38.027
				c-5.314-7.85-13.623-16.885-22.367-20.682c-4.778-2.071-12.002-5.052-17.111-4.335c-6.451,12.724,5.635,30.672,11.337,42.238
				c3.868,7.845,10.578,9.827,16.265,15.358c4.342,4.221,7.328,9.51,11.006,14.271c3.93,5.086,8.554,8.729,11.325,14.705
				C820.65,698.729,818.851,682.026,818.087,677.588z"/>
			<path style="fill:#EAB1B8;" d="M709.945,1000.608c-0.922-7.113-2.205-12.847-7.113-18.497h-0.601
				c-0.064,0.756-0.13,1.523-0.197,2.288c0,0-0.504-2.254-0.077,0.895c-0.02,0.227-0.037,0.46-0.057,0.692
				c-1.354-2.456-3.314-4.113-6.258-3.89c-8.85,0.662-9.891,13.816-9.587,20.385c0.391,8.373,3.258,16.624,4.197,25.165
				c0.89,8.097,0.606,19.57,4.293,26.871c10.403,1.572,11.374-23.213,10.084-44.394c-0.598-7.341,3.23,8.665,5.902,9.046
				C713.917,1020.46,711.069,1005.329,709.945,1000.608z"/>
			<path style="fill:#374D7E;" d="M637.586,1578.717c5.628-0.826,7.375-0.045,13.013-0.969c5.553-0.91,11.023-2.857,16.06-5.358
				c4.98-2.476,12.234-7.528,16.51-10.944c0.542-0.435,1.088-0.796,1.639-1.122c7.61,3.519,11.969,3.282,20.123-0.168
				c0.774-0.326,1.278-0.801,1.56-1.349c0.234,0.188,0.449,0.4,0.64,0.647c1.307,1.671,1.537,3.979,1.844,6.001
				c0.573,3.777,2.346,19.446,1.574,23.158c-1.092,5.25-29.673,11.507-39.05,12.091c-12.629,0.786-22.264,1.315-34.73-0.702
				C624.61,1598.029,628.06,1580.105,637.586,1578.717z"/>
		</g>
	</g>
	<g>
		<path style="fill:#E76C63;" d="M1707.291,659.827c1.204,2.837,2.16,5.684,2.81,8.517c4.209,18.334-2.771,45.59-5.865,64.142
			c-4.918,23.346,32.847,42.328,48.274,54.097c20.645,15.754,28.944,37.745,26.806,64.755
			c-1.871,23.638-18.151,50.563-40.533,60.473c-14.528,6.436-30.838,1.785-43.447,13.297
			c-13.117,11.972-13.838,38.769-38.425,26.515c-16.276-8.117-27.815-35.432-37.308-50.024
			c-15.213-23.381-18.549-52.55-34.461-75.412c-17.227-24.755-40.911-26.129-27.11-61.927c6.807-17.661-3.312-33.425-7.632-50.469
			c-5.037-19.871-0.445-38.388,8.005-56.044c4.829-10.089,3.018-20.43,8.799-30.321c6.263-10.712,11.549-20.385,22.467-27.182
			c23.104-14.399,60.128-7.785,78.919,10.628C1681.471,623.491,1699.533,641.533,1707.291,659.827z"/>
		<g>
			<g>
				<g>
					<path style="fill:#EAB1B8;" d="M1448.834,849.543c4.993-3.925,17.827-17.751,14.594-26.559
						c-2.708-7.385-6.532-8.122-6.525-8.117c-20.531-7.716-41.351-14.686-62.443-20.711c-6.673-1.903-22.002-9.165-28.709-7.464
						c-8.446,2.145-13.443,15.13-17.333,21.908c5.776-0.43,14.016,6.495,19.285,9.263c7.395,3.89,14.876,7.612,22.491,11.048
						C1409.115,837.457,1428.78,844.204,1448.834,849.543z"/>
				</g>
			</g>
		</g>
		<g>
			<g>
				<path style="fill:#9CD4F0;" d="M1462.369,810.166c20.909-4.286,48.415-6.12,56.464-8.493
					c46.885-13.811,91.813-25.007,98.618-3.603c7.703,24.251-41.038,46.821-81.905,56.865c-35.536,8.734-61.153,7.138-99.519,8.962
					C1436.511,848.43,1448.911,821.619,1462.369,810.166z"/>
			</g>
		</g>
		<g>
			<g>
				<path style="fill:#EAB1B8;" d="M1650.297,686.861c-1.567,7.845-12.929,18.324-15.788,11.616
					c-1.752-4.108-3.297-13.143-1.73-20.988c1.567-7.845,0.255-8.848,7.407-7.42
					C1647.339,671.498,1651.864,679.016,1650.297,686.861z"/>
			</g>
		</g>
		<path style="fill:#EAB1B8;" d="M1635.673,713.005c-1.209-15.818-47.575,13.584-47.575,13.584l4.963,60.34
			c0,0,0.482-2.423,23.287-1.883c13.895,0.326,25.684-0.341,24.992-13.322C1640.91,763.696,1636.091,718.472,1635.673,713.005z"/>
		<path style="fill:#E5958A;" d="M1636.37,728.259c-6.562,21.191-25.395,36.475-45.116,34.903l-3.157-36.573
			c0,0,46.367-29.401,47.575-13.584c0.128,1.67,0.67,7.078,1.369,13.999C1636.761,727.345,1636.526,727.755,1636.37,728.259z"/>
		<path style="fill:#EAB1B8;" d="M1584.928,739.544c15.306,7.267,39.947-1.621,48.375-15.67c5.096-8.502,7.059-17.103,6.404-26.628
			c-0.739-10.722-3.868-20.272-4.696-31.042c-0.356-4.647-0.825-9.318-2.148-13.801c-2.116-7.172-6.438-13.727-12.276-18.606
			c-5.737-4.805-13.272-6.144-20.262-8.448c-5.917-1.953-12.632-4.498-18.977-4.113c-4.377,0.267-6.606,3.445-9.567,6.431
			c-16.07,16.213-19.206,45.165-14.642,66.687C1560.541,710.38,1569.176,732.065,1584.928,739.544z"/>
		<path style="fill:#EAB1B8;" d="M1570.953,1117.7c1.446,30.143,10.472,49.945,17.022,67.102
			c34.118,89.361,58.848,174.105,73.294,198.425c15.806,26.599,62.401-21.206,62.401-21.206s-64.292-266.368-79.116-283.491
			C1629.729,1061.418,1569.794,1093.528,1570.953,1117.7z"/>
		<path style="fill:#3F578E;" d="M1570.953,1117.7c1.446,30.143,10.472,49.945,17.022,67.102
			c34.118,89.361,58.848,174.105,73.294,198.425c15.806,26.599,66.312-10.385,66.312-10.385s-57.063-275.572-71.887-292.69
			C1640.871,1063.039,1569.794,1093.528,1570.953,1117.7z"/>
		<path style="fill:#EAB1B8;" d="M1669.622,1419.337c0,0,11.789,38.26,104.166,152.158c12.353,15.229,17.283-6.802,17.283-6.802
			s-71.988-169.953-84.264-186.295C1694.528,1362.056,1669.622,1419.337,1669.622,1419.337z"/>
		<path style="fill:#3F578E;" d="M1702.014,1513.448c-32.474-58.912-43.942-135.015-43.942-135.015s55.632-24.33,67.911-7.988
			c6.196,8.25,28.583,57.276,49.532,104.66C1759.213,1483.201,1702.175,1513.379,1702.014,1513.448z"/>
		<path style="fill:#EAB1B8;" d="M1573.271,1103.82c-16.88,25.012-21.502,46.282-26.522,63.949
			c-26.149,92.006-39.327,162.622-42.308,190.754c-3.258,30.771,44.957,32.431,44.957,32.431s107.908-251.875,106.276-274.46
			C1654.042,1093.909,1586.806,1083.766,1573.271,1103.82z"/>
		<path style="fill:#EAB1B8;" d="M1505.396,1418.6c0,0-6.599,40.894,29.05,183.146c4.765,19.026,19.673-0.104,19.673-0.104
			s6.108-158.772,1.878-178.767C1551.767,1402.876,1505.396,1418.6,1505.396,1418.6z"/>
		<path style="fill:#4865A2;" d="M1492.697,1547.007c-11.691-87.305,5.991-177.363,5.991-177.363s53.294,1.577,57.522,21.572
			c2.383,11.261,20.927,110.785,21.572,155.792H1492.697z"/>
		<path style="fill:#4865A2;" d="M1506.088,1314.039c7.034-39.238,16.233-78.086,27.538-116.311
			c12.837-43.405,23.695-81.472,41.5-122.989c4.57-10.657-1.47-55.946,5.497-60.562c16.23-10.761,57.718,2.367,79.848,6.737
			c5.277,1.043,8.631,3.722,13.183,6.589c7.434,4.686,17.254,29.93,19.772,38.353c6.854,22.886,1.693,51.428-10.499,70.889
			c-9.763,15.581-18.971,31.498-27.941,47.543c-7.704,13.786-17.242,26.09-25.153,39.95c-17.639,30.894-29.12,64.502-41.994,97.724
			c-4.358,11.241-32.021,64.542-32.15,72.342c-0.675,41.25-37.552-17.365-50.212-21.062c-7.291-2.13-6.869-3.48-6.428-11.33
			c0.339-5.996,1.206-11.957,2.098-17.889C1502.655,1334.009,1504.301,1324.014,1506.088,1314.039z"/>
		<path style="fill:#EAB1B8;" d="M1577.291,1035.457c-3.577-71.403-17.459-176.443-8.458-186.606
			c15.84-17.88,16.586-56.94,28.05-71.269c17.14-21.428,31.952-31.492,53.378-0.48c7.264,10.514,16.24,73.553,17.956,81.428
			c3.798,17.449,5.239,104.388,9.545,174.417L1577.291,1035.457z"/>
		<path style="fill:#CFE5F3;" d="M1577.291,1035.457c-3.703-52.293-7.227-95.545-11.764-126.449
			c-1.377-9.362-4.229-18.428-5.781-27.652c-1.436-8.537,2.612-20.286,6.045-27.992c3.502-7.85,7.177-15.71,10.509-23.653
			c3.279-7.81,5.833-15.897,8.391-23.964c0.798-2.516,5.042-20.791,7.565-21.003c0.277-0.025,9.829-0.84,13.609-1.656
			c6.782-1.463,13.104-4.093,19.058-7.637c1.626-0.969,14.535-11.498,14.938-11.078c20.857,21.937,32.797,53.643,36.139,81.783
			c1.206,10.163-0.611,165.494,3.047,187.343L1577.291,1035.457z"/>
		<path style="fill:#9CD4F0;" d="M1586.371,940.011c-0.944-31.745,0.025-63.89,9.4-94.472c8.072-26.342,20.123-50.687,34.473-74.122
			c4.219-3.282,9.365-7.306,9.617-7.044c20.857,21.937,32.797,53.643,36.139,81.783c1.206,10.163,23.158,197.254,26.813,219.097
			l-99.865,19.174C1597.599,1051.334,1587.359,973.312,1586.371,940.011z"/>
		<g>
			<g>
				<g>
					<path style="fill:#EAB1B8;" d="M1592.095,993.722c5.467-3.227,20.012-15.249,17.968-24.404
						c-1.713-7.677-5.405-8.913-5.398-8.908c-38.032-20.365-74.097-36.075-104.44-46.445c-29.837-10.197-14.446,15.66-14.446,15.66
						C1514.328,950.223,1539.557,971.983,1592.095,993.722z"/>
				</g>
			</g>
		</g>
		<g>
			<g>
				<g>
					<path style="fill:#EAB1B8;" d="M1588.795,992.338c1.918,1.938,25.581,12.393,29.931,2.709
						c17.612-39.214,26.396-64.819,36.188-94.122c13.342-39.91,14.184-88.6-10.956-92.515
						c-22.192-3.455-30.257,57.023-38.798,105.149c-1.817,10.232-7.929,22.145-15.338,55.076
						C1589.821,968.636,1584.942,986.066,1588.795,992.338z"/>
				</g>
			</g>
		</g>
		<g>
			<g>
				<path style="fill:#D2E6F3;" d="M1587.369,951.41c5.487-20.628,16.11-46.065,17.575-54.329
					c8.542-48.126,18.554-93.33,40.746-89.875c25.141,3.915,23.61,57.607,14.382,98.664c-8.028,35.704-20.88,57.923-36.352,93.073
					C1610.093,991.617,1591.623,968.562,1587.369,951.41z"/>
			</g>
		</g>
		<path style="fill:#E76C63;" d="M1602.984,596.704c-2.54,1.661-4.486,4.202-7.454,7.049c-5.957,5.709-11.636,11.987-14.066,20.069
			c-1.557,5.185-2.323,11.433-2.796,16.817c-0.877,10.02,2.773,19.139,10.719,25.155c6.149,4.656,12.921,6.851,20.412,8.003
			c3.868,0.588,8.74,1.582,11.901,4.048c2.291,1.789,2.635,5.027,4.805,6.663c7.422,5.591,7.39-6.352,8.082-10.183
			c-0.363,2.012,0.067,0.509,1.285-4.508c2.654-10.988,2.595-19.96,8.979-29.52c5.606-8.393,7.805-23.668,1.931-32.51
			c-6.631-9.98-25.158-13.025-36.095-13.104C1607.266,594.663,1604.947,595.419,1602.984,596.704z"/>
		<path style="fill:#374D7E;" d="M1485.618,1613.926c5.626-0.826,7.375-0.045,13.01-0.969c5.556-0.91,11.023-2.857,16.06-5.358
			c4.983-2.472,12.237-7.524,16.512-10.944c0.541-0.435,1.088-0.796,1.638-1.122c7.61,3.514,11.968,3.282,20.124-0.168
			c0.774-0.326,1.276-0.801,1.559-1.349c0.235,0.188,0.447,0.4,0.64,0.647c1.305,1.671,1.537,3.979,1.844,6
			c0.57,3.772,2.345,19.446,1.572,23.158c-1.092,5.25-29.671,11.508-39.048,12.091c-12.63,0.786-22.264,1.315-34.73-0.702
			C1472.643,1633.239,1476.093,1615.315,1485.618,1613.926z"/>
		<path style="fill:#374D7E;" d="M1729.669,1594.856c4.99-2.724,6.901-2.605,11.863-5.428c4.891-2.788,9.342-6.515,13.193-10.613
			c3.811-4.048,8.858-11.309,11.675-16.001c0.358-0.593,0.744-1.122,1.147-1.621c8.358,0.652,12.363-1.087,18.808-7.153
			c0.613-0.578,0.919-1.201,0.994-1.809c0.286,0.094,0.561,0.222,0.826,0.381c1.804,1.117,2.825,3.198,3.816,4.987
			c1.849,3.342,8.959,17.415,9.528,21.167c0.803,5.304-23.818,21.112-32.409,24.918c-11.567,5.126-20.415,8.972-32.805,11.414
			C1724.221,1617.48,1721.221,1599.473,1729.669,1594.856z"/>
		<path style="fill:#E76C63;" d="M1553.505,657.395c2.229-12.956,5.62-26.989,13.094-38.027c5.314-7.849,13.623-16.885,22.37-20.682
			c4.775-2.076,11.999-5.052,17.108-4.335c6.451,12.723-5.635,30.672-11.337,42.238c-3.868,7.84-10.578,9.827-16.265,15.358
			c-4.343,4.221-7.331,9.51-11.006,14.271c-3.929,5.086-8.554,8.729-11.326,14.706
			C1550.941,678.532,1552.741,661.834,1553.505,657.395z"/>
		<g>
			<g>
				<path style="fill:#EA958F;" d="M1480.841,924.623c-2.746-45.19-40.254-80.987-86.13-80.987
					c-45.877,0-83.387,35.798-86.131,80.987H1480.841z"/>
				<path style="fill:#E76C63;" d="M1420.797,847.654c3.067,11.656,2.828,23.831-5.049,33.929
					c-14.493,18.586-43.618,20.904-65.261,20.039c-11.617-0.465-23.762-1.848-35.576-4.582c-3.542,8.586-5.744,17.864-6.332,27.582
					h172.261C1478.639,888.391,1454.089,858.203,1420.797,847.654z"/>
				<path style="fill:#EA958F;" d="M1491.629,919.971c0,4.034-3.27,7.301-7.303,7.301h-179.234c-4.034,0-7.301-3.267-7.301-7.301
					l0,0c0-4.033,3.267-7.3,7.301-7.3h179.234C1488.359,912.671,1491.629,915.938,1491.629,919.971L1491.629,919.971z"/>
			</g>
			<path style="fill:#EA958F;" d="M1355.457,855.489h78.506l7.486-3.006c0,0-32.699-93.77-4.375-134.491h-84.732
				c28.326,40.721-4.372,134.491-4.372,134.491L1355.457,855.489z"/>
			<g>
				<path style="fill:#E76C63;" d="M1444.356,856.023c0,2.931-1.676,5.309-3.742,5.309h-91.81c-2.066,0-3.739-2.378-3.739-5.309l0,0
					c0-2.936,1.673-5.309,3.739-5.309h91.81C1442.68,850.714,1444.356,853.087,1444.356,856.023L1444.356,856.023z"/>
			</g>
			<path style="fill:#EA958F;" d="M1448.595,664.765c-17.259-14.602-54.11-20.089-54.11-20.089s-36.991,5.487-54.253,20.089
				c-17.259,14.602,12.553,49.248,12.553,49.248l36.156,3.974l-0.091,1.211l5.563-0.613l5.563,0.613l-0.089-1.211l36.154-3.974
				C1436.042,714.013,1465.856,679.367,1448.595,664.765z"/>
			<path style="fill:#E7736A;" d="M1448.595,664.765c-8.186-6.925-20.781-11.804-31.759-15.012
				c6.88,5.581,13.599,12.61,11.031,20.701c-3.561,11.235-18.354,17.845-28.732,21.028c-20.175,6.184-45.659,5.665-63.244-7.187
				c3.813,14.508,16.895,29.718,16.895,29.718l36.156,3.974l-0.091,1.211l5.563-0.613l5.563,0.613l-0.089-1.211l36.154-3.974
				C1436.042,714.013,1465.856,679.367,1448.595,664.765z"/>
			<path style="fill:#EA958F;" d="M1409.384,639.882c0,8.27-6.703,14.972-14.973,14.972s-14.975-6.703-14.975-14.972
				c0-8.27,6.705-14.978,14.975-14.978S1409.384,631.612,1409.384,639.882z"/>
			<g>
				<path style="fill:#E76C63;" d="M1445.241,718.823c0,2.936-1.676,5.309-3.742,5.309h-91.811c-2.064,0-3.739-2.372-3.739-5.309
					l0,0c0-2.931,1.675-5.309,3.739-5.309h91.811C1443.565,713.514,1445.241,715.892,1445.241,718.823L1445.241,718.823z"/>
			</g>
			<path style="fill:#FFFFFF;" d="M1392.281,628.869c0.924,1.389-0.277,3.816-2.687,5.417c-2.407,1.602-5.111,1.77-6.035,0.381
				c-0.925-1.389,0.276-3.816,2.686-5.418C1388.655,627.648,1391.356,627.475,1392.281,628.869z"/>
		</g>
		<path style="fill:#EAB1B8;" d="M1409.006,923.239c13.905,2.472,22.854,3.594,22.854,3.594l9.869-6.06c0,0-2.635-3.45-14.419-4.992
			c-4.585-0.598-16.624-2.694-14.402-6.638c2.224-3.945,22.071-0.406,33.356-1.577c4.347-0.45,9.283,0.776,13.354,2.219h0.005
			l35.65,3.015l-4.103,16.446l-55.442,10.612l-34.718-11.71C1401.01,928.148,1395.101,920.763,1409.006,923.239z"/>
		<path style="fill:#EAB1B8;" d="M1344.138,794.294c1.93-9.431,8.166-18.027,18.559-17.879c8.727,0.129,11.225,9.6,12.627,16.54
			c2.351,11.651,0.699,17.38-10.954,23.059C1347.865,824.061,1341.283,808.263,1344.138,794.294z"/>
	</g>
</g>
</svg>
