<?xml version="1.0" encoding="utf-8"?>
<!-- Generator: Adobe Illustrator 27.5.0, SVG Export Plug-In . SVG Version: 6.00 Build 0)  -->
<svg version="1.1" id="Illustration" xmlns="http://www.w3.org/2000/svg" xmlns:xlink="http://www.w3.org/1999/xlink" x="0px"
	 y="0px" viewBox="0 0 1200 800" style="enable-background:new 0 0 1200 800;" xml:space="preserve">
<g>
	<linearGradient id="SVGID_1_" gradientUnits="userSpaceOnUse" x1="180.723" y1="414.3316" x2="1174.6266" y2="414.3316">
		<stop  offset="0" style="stop-color:#B37CFF"/>
		<stop  offset="1" style="stop-color:#F895E7"/>
	</linearGradient>
	<path style="opacity:0.5;fill:url(#SVGID_1_);" d="M1146.504,447.757c-17.232-18.902-37.61-37.338-42.924-63.002
		c-9.196-44.41,30.125-82.277,42.996-125.651c8.9-29.991,4.308-64.139-12.144-90.307c-16.452-26.168-44.43-43.826-73.992-46.698
		c-50.865-4.942-100.643,31.355-150.748,20.843c-40.119-8.417-71.823-45.547-112.549-49.524
		c-47.923-4.68-87.685,37.214-133.449,52.988c-54.739,18.867-114.086-0.851-167.903-22.488
		C441.975,102.28,385.352,78.14,328.624,88.495c-63.145,11.527-116.089,69.796-124.534,137.061
		c-8.37,66.663,61.827,120.175,2.073,200.218c-18.673,25.014-31.094,59.84-22.839,90.505c8.021,29.794,42.152,48.638,42.4,79.619
		c0.196,24.457-21.579,43.917-23.333,68.304c-1.505,20.933,12.71,40.285,30.181,50.205c17.47,9.92,37.741,12.346,57.45,14.595
		l-5.81,6.614c99.275,9.437,199.168,7.336,298.822,5.228c157.156-3.326,314.311-6.651,471.467-9.977
		c16.151-0.342,32.695-0.762,47.745-6.982s28.547-19.533,30.839-36.468c3.901-28.821-24.545-53.832-21.916-82.814
		c3.357-37.007,52.565-51.285,61.929-87.116C1179.715,492.165,1163.736,466.659,1146.504,447.757z"/>
	
		<linearGradient id="SVGID_00000048471072412853610110000014227488094532095931_" gradientUnits="userSpaceOnUse" x1="33.8551" y1="376.8251" x2="1027.7585" y2="376.8251">
		<stop  offset="0" style="stop-color:#B37CFF"/>
		<stop  offset="1" style="stop-color:#F895E7"/>
	</linearGradient>
	<path style="opacity:0.5;fill:url(#SVGID_00000048471072412853610110000014227488094532095931_);" d="M999.636,410.25
		c-17.232-18.902-37.61-37.338-42.924-63.002c-9.196-44.41,30.125-82.277,42.996-125.651c8.9-29.991,4.308-64.139-12.144-90.307
		c-16.452-26.168-44.43-43.826-73.992-46.698c-50.865-4.942-100.643,31.355-150.748,20.843
		c-40.119-8.417-71.823-45.547-112.549-49.524c-47.923-4.68-87.685,37.214-133.449,52.988
		c-54.739,18.867-114.086-0.85-167.903-22.488c-53.817-21.637-110.439-45.778-167.167-35.422
		C118.611,62.516,65.668,120.785,57.222,188.05c-8.37,66.662,61.827,120.175,2.073,200.218
		c-18.673,25.014-31.094,59.84-22.839,90.505c8.021,29.794,42.152,48.639,42.4,79.619c0.196,24.457-21.579,43.917-23.333,68.304
		c-1.506,20.933,12.71,40.285,30.181,50.205c17.47,9.92,37.741,12.346,57.45,14.595l-5.81,6.614
		c99.275,9.437,199.168,7.336,298.822,5.228c157.156-3.326,314.311-6.651,471.467-9.977c16.151-0.342,32.695-0.762,47.745-6.982
		c15.049-6.22,28.547-19.533,30.839-36.468c3.901-28.821-24.545-53.832-21.916-82.814c3.357-37.007,52.565-51.285,61.929-87.116
		C1032.847,454.659,1016.868,429.153,999.636,410.25z"/>
	<g style="opacity:0.72;">
		
			<linearGradient id="SVGID_00000153680707123137466070000001466289030037262464_" gradientUnits="userSpaceOnUse" x1="5572.2896" y1="1909.6106" x2="5849.0684" y2="1909.6106" gradientTransform="matrix(-0.558 -0.8298 -0.8298 0.558 5628.771 3961.0439)">
			<stop  offset="0" style="stop-color:#A737D5"/>
			<stop  offset="1" style="stop-color:#EF497A"/>
		</linearGradient>
		<path style="fill:url(#SVGID_00000153680707123137466070000001466289030037262464_);" d="M928.834,79.251
			c14.741,44.122,90.038,304.39-141.501,418.918c0,0-93.679-158.583,134.808-420.271C924.14,75.609,927.871,76.368,928.834,79.251z"
			/>
		<path style="opacity:0.86;fill:#FFFFFF;" d="M914.476,123.681c-1.157,14.831-2.618,29.615-4.207,44.395
			c-1.596,14.776-3.363,29.535-5.302,44.271c-3.877,29.472-8.413,58.865-13.853,88.104c-5.462,29.23-11.777,58.328-19.677,87.038
			c-3.904,14.366-8.331,28.6-13.3,42.657c-4.989,14.046-10.542,27.927-17.194,41.338c-0.491,0.99-1.691,1.394-2.68,0.903
			c-0.99-0.491-1.394-1.691-0.903-2.681l0.006-0.011l0.004-0.008c6.64-13.171,12.233-26.886,17.274-40.794
			c5.022-13.919,9.517-28.046,13.496-42.324c8.05-28.533,14.538-57.514,20.177-86.648c5.618-29.143,10.337-58.465,14.4-87.876
			c2.032-14.706,3.892-29.437,5.582-44.187c1.683-14.749,3.239-29.523,4.488-44.305l0.001-0.008
			c0.039-0.466,0.449-0.813,0.916-0.773C914.167,122.81,914.512,123.217,914.476,123.681z"/>
	</g>
	<g>
		
			<linearGradient id="SVGID_00000137100577041166616950000002552388379320953733_" gradientUnits="userSpaceOnUse" x1="5303.9307" y1="1239.8019" x2="5550.833" y2="1239.8019" gradientTransform="matrix(0.9783 -0.2074 0.1576 0.7438 -4457.0054 466.9127)">
			<stop  offset="0" style="stop-color:#CB236D"/>
			<stop  offset="1" style="stop-color:#4C246D"/>
		</linearGradient>
		<path style="fill:url(#SVGID_00000137100577041166616950000002552388379320953733_);" d="M1106.587,41.2
			c-1.607-3.161-7.875-2.052-8.445,1.498c-5.507,34.32-23.537,124.277-67.688,179.026
			c-71.888,89.144-106.252,217.195-39.371,266.344C991.084,488.069,1281.683,385.617,1106.587,41.2z"/>
		<path style="opacity:0.43;fill:#FFFFFF;" d="M1106.975,88.502c0.098,1.136,0.054,2.053,0.073,3.061l-0.036,2.958
			c-0.047,1.969-0.084,3.94-0.16,5.908c-0.136,3.936-0.339,7.87-0.558,11.801c-0.432,7.865-1.057,15.715-1.712,23.564
			c-1.41,15.688-3.281,31.335-5.51,46.931c-4.404,31.204-10.723,62.132-18.604,92.656c-3.945,15.265-8.571,30.348-13.544,45.309
			l-3.876,11.174c-1.304,3.72-2.749,7.39-4.117,11.087l-2.08,5.536l-2.228,5.479c-1.504,3.645-2.922,7.325-4.524,10.929
			c-6.254,14.482-13.232,28.641-20.74,42.507c-3.946,6.829-7.794,13.711-12.11,20.313c-4.077,6.75-8.734,13.123-13.205,19.604
			c-0.157,0.227-0.468,0.284-0.695,0.127c-0.225-0.155-0.283-0.463-0.131-0.69l0.01-0.016c8.76-13.049,16.924-26.472,24.313-40.327
			c7.292-13.901,14.053-28.078,20.087-42.569c5.98-14.51,11.602-29.173,16.516-44.086c4.911-14.911,9.36-29.972,13.402-45.146
			c3.99-15.188,7.568-30.485,10.737-45.87l2.293-11.556l2.122-11.589c1.366-7.735,2.704-15.477,3.889-23.243
			c2.412-15.526,4.404-31.119,6.055-46.748c0.797-7.817,1.564-15.64,2.14-23.477c0.294-3.918,0.556-7.838,0.781-11.76
			c0.123-1.96,0.208-3.922,0.304-5.883l0.108-2.94c0.013-0.958,0.053-2.009,0.021-2.837l-0.006-0.146
			c-0.011-0.272,0.201-0.501,0.473-0.512C1106.728,88.041,1106.952,88.242,1106.975,88.502z"/>
	</g>
	<g>
		
			<linearGradient id="SVGID_00000026855344960051427770000011601796989026451093_" gradientUnits="userSpaceOnUse" x1="6046.249" y1="2202.917" x2="6175.8247" y2="2202.917" gradientTransform="matrix(0.6668 0.7453 -0.6941 0.621 -1520.8936 -5368.0723)">
			<stop  offset="0" style="stop-color:#A737D5"/>
			<stop  offset="1" style="stop-color:#EF497A"/>
		</linearGradient>
		<path style="fill:url(#SVGID_00000026855344960051427770000011601796989026451093_);" d="M855.533,717.819
			c0,0,2.028-61.487,64.522-118.687c57.984-53.071,200.409-175.158,233.757-246.551c1.477-3.163,6.316-1.788,6.309,1.801
			c-0.074,38.498-7.797,134.368-75.125,224.7C998.173,695.57,855.533,717.819,855.533,717.819z"/>
		<path style="opacity:0.45;fill:#FFFFFF;" d="M1130.645,419.575c-1.143,8.147-3.319,16.122-5.93,23.921l-0.957,2.936l-1.072,2.895
			l-2.162,5.787c-0.765,1.911-1.599,3.794-2.396,5.694c-0.82,1.889-1.578,3.809-2.485,5.659l-2.713,5.553l-1.357,2.777
			c-0.445,0.93-0.903,1.854-1.415,2.747c-1.991,3.607-3.946,7.238-5.971,10.829l-6.476,10.539l-0.81,1.318l-0.872,1.277l-1.749,2.55
			l-3.5,5.102c-9.586,13.41-19.986,26.297-31.562,38.055l-4.289,4.46l-2.145,2.23c-0.717,0.742-1.495,1.419-2.24,2.132l-9.034,8.452
			c-1.511,1.402-3.001,2.832-4.529,4.211l-4.651,4.045l-9.302,8.089c-3.106,2.69-6.264,5.319-9.394,7.982
			c-3.145,2.644-6.252,5.335-9.435,7.933c-6.329,5.241-12.684,10.451-19.105,15.576c-6.386,5.17-12.856,10.23-19.3,15.324
			l-19.495,15.055c-13.004,10.017-26.022,20.004-38.655,30.423c-3.198,2.562-6.253,5.278-9.355,7.947
			c-1.57,1.315-3.041,2.732-4.542,4.119c-1.487,1.4-3.016,2.762-4.471,4.195c-2.835,2.934-5.798,5.763-8.406,8.902l-2.021,2.3
			c-0.331,0.388-0.688,0.757-0.998,1.161l-0.923,1.219l-3.696,4.882l-0.017,0.022c-0.167,0.221-0.481,0.264-0.701,0.097
			c-0.211-0.16-0.259-0.457-0.115-0.675c4.562-6.886,9.901-13.219,15.627-19.154c1.431-1.483,2.933-2.892,4.397-4.342
			c1.477-1.436,2.927-2.905,4.47-4.266c3.05-2.764,6.06-5.581,9.203-8.232c12.454-10.761,25.405-20.877,38.24-31.108
			c12.852-10.214,25.703-20.407,38.424-30.755c12.734-10.333,25.296-20.869,37.753-31.527l9.272-8.075l4.636-4.037l4.505-4.151
			l8.995-8.318c0.742-0.702,1.518-1.368,2.231-2.098l2.135-2.195l4.27-4.39l4.271-4.39l2.136-2.195
			c0.697-0.746,1.351-1.53,2.032-2.29l8.099-9.188l2.021-2.301l1.902-2.399l3.805-4.798l3.806-4.799
			c0.651-0.788,1.241-1.62,1.829-2.455l1.787-2.486l3.58-4.971l1.791-2.486l0.893-1.245l0.831-1.286l6.654-10.291
			c2.086-3.51,4.105-7.063,6.163-10.595c0.528-0.876,1.003-1.78,1.465-2.691l1.408-2.722l2.817-5.446
			c0.941-1.815,1.729-3.702,2.621-5.542c0.858-1.855,1.754-3.695,2.583-5.565l2.353-5.666l1.17-2.838l1.055-2.881
			c0.683-1.928,1.455-3.829,2.066-5.782c0.617-1.951,1.268-3.893,1.859-5.854c1.12-3.935,2.259-7.883,2.965-11.922
			c0.004-0.034,0.035-0.058,0.069-0.054C1130.624,419.509,1130.648,419.543,1130.645,419.575z"/>
	</g>
	<g style="opacity:0.72;">
		
			<linearGradient id="SVGID_00000072277573709462517260000011192774229628641941_" gradientUnits="userSpaceOnUse" x1="2781.3218" y1="-2064.4255" x2="3058.1011" y2="-2064.4255" gradientTransform="matrix(0.558 -0.8298 0.8298 0.558 271.5933 3961.0439)">
			<stop  offset="0" style="stop-color:#A737D5"/>
			<stop  offset="1" style="stop-color:#EF497A"/>
		</linearGradient>
		<path style="fill:url(#SVGID_00000072277573709462517260000011192774229628641941_);" d="M116.515,177.684
			c-14.741,44.122-90.038,304.39,141.501,418.918c0,0,93.679-158.583-134.808-420.271
			C121.21,174.042,117.478,174.801,116.515,177.684z"/>
		<path style="opacity:0.86;fill:#FFFFFF;" d="M132.563,221.984c1.249,14.781,2.805,29.556,4.488,44.305
			c1.69,14.751,3.55,29.481,5.582,44.187c4.063,29.412,8.782,58.733,14.4,87.876c5.639,29.134,12.127,58.116,20.177,86.648
			c3.979,14.278,8.474,28.405,13.496,42.324c5.041,13.908,10.634,27.623,17.274,40.794l0.004,0.008
			c0.497,0.986,0.101,2.189-0.886,2.686c-0.986,0.497-2.189,0.101-2.686-0.886l-0.006-0.011
			c-6.652-13.412-12.205-27.293-17.195-41.339c-4.969-14.057-9.396-28.29-13.3-42.656c-7.9-28.71-14.215-57.808-19.677-87.039
			c-5.44-29.238-9.976-58.631-13.853-88.104c-1.939-14.736-3.705-29.495-5.302-44.271c-1.589-14.779-3.05-29.564-4.207-44.395
			c-0.036-0.466,0.312-0.874,0.779-0.911c0.465-0.036,0.871,0.31,0.91,0.773L132.563,221.984z"/>
	</g>
	<g>
		
			<linearGradient id="SVGID_00000158715958996485634200000016065126365753221513_" gradientUnits="userSpaceOnUse" x1="9308.3896" y1="-1081.6931" x2="9437.9688" y2="-1081.6931" gradientTransform="matrix(-0.6825 0.7309 0.7309 0.6825 7350.9507 -5564.6128)">
			<stop  offset="0" style="stop-color:#A737D5"/>
			<stop  offset="1" style="stop-color:#EF497A"/>
		</linearGradient>
		<path style="fill:url(#SVGID_00000158715958996485634200000016065126365753221513_);" d="M341.675,726.717
			c0,0-3.01-63.657-68.839-126.438C211.758,542.028,61.854,407.496,26.128,331.761c-1.582-3.355-6.594-2.219-6.535,1.49
			c0.641,39.786,10.079,139.307,81.42,236.61C193.011,695.34,341.675,726.717,341.675,726.717z"/>
		<path style="opacity:0.45;fill:#FFFFFF;" d="M51.327,402.339c0.803,4.315,2.08,8.525,3.315,12.727l2.054,6.247
			c0.701,2.075,1.519,4.112,2.272,6.168c0.389,1.024,0.757,2.055,1.163,3.072l1.277,3.028l2.556,6.052l2.807,5.94
			c0.963,1.966,1.803,3.989,2.853,5.912c7.87,15.637,17.009,30.637,27.404,44.712c10.332,14.105,21.4,27.701,33.554,40.289
			l4.495,4.777l2.255,2.382l2.363,2.275l9.452,9.102c1.586,1.508,3.126,3.055,4.75,4.53l4.866,4.432l9.732,8.863
			c13.082,11.699,26.259,23.294,39.619,34.683c13.347,11.404,26.821,22.662,40.297,33.938
			c13.459,11.294,27.032,22.478,40.093,34.292c3.296,2.915,6.452,5.996,9.655,9.018c1.619,1.492,3.139,3.093,4.692,4.656
			c1.538,1.58,3.116,3.117,4.619,4.731c6.021,6.447,11.647,13.286,16.496,20.67c0.152,0.232,0.087,0.542-0.144,0.693
			c-0.222,0.146-0.518,0.092-0.675-0.119l-0.016-0.022l-3.915-5.262l-0.977-1.314c-0.328-0.436-0.704-0.837-1.053-1.257
			l-2.132-2.492c-2.756-3.393-5.868-6.483-8.854-9.674c-1.527-1.565-3.135-3.056-4.698-4.587c-1.579-1.515-3.122-3.065-4.77-4.513
			c-3.258-2.931-6.462-5.913-9.817-8.74c-13.252-11.48-26.898-22.538-40.53-33.622l-20.437-16.655
			c-6.756-5.625-13.541-11.214-20.237-16.915c-6.732-5.656-13.402-11.388-20.036-17.161c-3.337-2.863-6.604-5.807-9.9-8.719
			l-9.859-8.766l-9.76-8.876l-4.88-4.439c-1.629-1.477-3.175-3.06-4.766-4.584l-9.483-9.231l-2.37-2.308l-2.262-2.414l-4.51-4.844
			l-4.509-4.844c-1.491-1.625-3.046-3.192-4.426-4.918l-8.5-10.147c-2.91-3.319-5.452-6.937-8.149-10.427
			c-2.641-3.534-5.417-6.968-7.814-10.679c-10.177-14.417-19.065-29.736-26.651-45.649c-1.015-1.956-1.825-4.013-2.717-6.027
			l-2.62-6.068l-2.365-6.173l-1.18-3.085c-0.373-1.036-0.709-2.086-1.065-3.128c-2.893-8.313-5.33-16.815-6.686-25.515
			c-0.005-0.034,0.018-0.065,0.052-0.07C51.289,402.281,51.321,402.306,51.327,402.339z"/>
	</g>
	<g>
		
			<linearGradient id="SVGID_00000098187440685695018660000006075333944050525356_" gradientUnits="userSpaceOnUse" x1="665.9093" y1="797.7871" x2="655.2772" y2="587.2723">
			<stop  offset="0" style="stop-color:#2B3582"/>
			<stop  offset="1" style="stop-color:#150E42"/>
		</linearGradient>
		<polygon style="fill:url(#SVGID_00000098187440685695018660000006075333944050525356_);" points="577.06,558.797 559.401,717.17 
			764.274,717.17 737.589,558.797 		"/>
		
			<linearGradient id="SVGID_00000077291304660241462370000010011147404761917069_" gradientUnits="userSpaceOnUse" x1="196.2395" y1="383.2926" x2="1087.3729" y2="383.2926">
			<stop  offset="0" style="stop-color:#2B3582"/>
			<stop  offset="1" style="stop-color:#150E42"/>
		</linearGradient>
		<path style="fill:url(#SVGID_00000077291304660241462370000010011147404761917069_);" d="M196.24,172.229V567.47
			c0,32.514,25.91,59.102,58.413,59.941c144.361,3.723,649.268,12.749,786.69,10.723c23.619-0.348,42.753-19.249,43.434-42.861
			c2.65-91.82,6.954-312.616-8.973-415.123c-3.354-21.587-21.575-37.729-43.41-38.428c-120.957-3.869-656.191-16.156-793.549-13.071
			C215.156,129.182,196.24,148.533,196.24,172.229z"/>
		
			<linearGradient id="SVGID_00000044159841772326841810000014500582832444539024_" gradientUnits="userSpaceOnUse" x1="692.1322" y1="22.8534" x2="561.9434" y2="849.2667">
			<stop  offset="0" style="stop-color:#FDF53F"/>
			<stop  offset="1" style="stop-color:#D93C65"/>
		</linearGradient>
		<path style="fill:url(#SVGID_00000044159841772326841810000014500582832444539024_);" d="M221.04,170.305v375.507
			c0,18.983,15.239,34.451,34.22,34.735l766.313,9.467c18.819,0.281,34.244-14.859,34.314-33.68l1.282-372.151
			c0.05-13.457-10.671-24.483-24.124-24.811l-784.562-15.85C233.435,143.156,221.04,155.254,221.04,170.305z"/>
		<path style="opacity:0.65;fill:#FFFFFF;" d="M1061.656,605.341c-0.006,0-0.012,0-0.018,0l-840.616-14.322
			c-0.552-0.01-0.992-0.465-0.983-1.017c0.009-0.553,0.442-0.957,1.017-0.983l840.616,14.322c0.552,0.01,0.992,0.465,0.983,1.017
			C1062.646,604.904,1062.2,605.341,1061.656,605.341z"/>
		
			<linearGradient id="SVGID_00000157297831982793472870000002681986824571089842_" gradientUnits="userSpaceOnUse" x1="692.1322" y1="22.8534" x2="561.9434" y2="849.2667">
			<stop  offset="0" style="stop-color:#FDF53F"/>
			<stop  offset="1" style="stop-color:#D93C65"/>
		</linearGradient>
		<path style="fill:url(#SVGID_00000157297831982793472870000002681986824571089842_);" d="M221.04,170.305v375.507
			c0,18.983,15.239,34.451,34.22,34.735l766.313,9.467c18.819,0.281,34.244-14.859,34.314-33.68l1.282-372.151
			c0.05-13.457-10.671-24.483-24.124-24.811l-784.562-15.85C233.435,143.156,221.04,155.254,221.04,170.305z"/>
		<path style="opacity:0.65;fill:#FFFFFF;" d="M649.64,622.834c-5.375,0-9.747-4.372-9.747-9.746c0-5.375,4.372-9.747,9.747-9.747
			c5.374,0,9.746,4.372,9.746,9.747C659.386,618.462,655.014,622.834,649.64,622.834z M649.64,605.341
			c-4.271,0-7.747,3.476-7.747,7.747s3.475,7.746,7.747,7.746c4.271,0,7.746-3.475,7.746-7.746S653.911,605.341,649.64,605.341z"/>
		<path style="fill:#FFFFFF;" d="M526.826,708.276c-0.413,0-0.799-0.257-0.944-0.669
			c-37.027-105.556-108.823-166.631-109.543-167.235c-0.423-0.355-0.478-0.986-0.124-1.409c0.354-0.423,0.984-0.479,1.409-0.124
			c0.725,0.608,72.928,62.011,110.146,168.106c0.183,0.521-0.092,1.092-0.613,1.274
			C527.047,708.259,526.935,708.276,526.826,708.276z"/>
		<path style="fill:#FFFFFF;" d="M799.023,695.969c-0.101,0-0.203-0.015-0.304-0.048c-0.526-0.167-0.816-0.73-0.648-1.256
			c28.615-89.639,20.508-194.564,20.423-195.613c-0.045-0.551,0.365-1.033,0.916-1.078c0.565-0.049,1.033,0.366,1.078,0.916
			c0.086,1.054,8.223,106.373-20.511,196.383C799.84,695.698,799.447,695.969,799.023,695.969z"/>
		
			<linearGradient id="SVGID_00000118391701947627072230000004041042783827330208_" gradientUnits="userSpaceOnUse" x1="593.1507" y1="1366.3557" x2="187.198" y2="1801.0125" gradientTransform="matrix(0.8647 -0.5023 0.5023 0.8647 -357.6431 -390.8318)">
			<stop  offset="0" style="stop-color:#FDF53F"/>
			<stop  offset="1" style="stop-color:#D93C65"/>
		</linearGradient>
		<path style="opacity:0.79;fill:url(#SVGID_00000118391701947627072230000004041042783827330208_);" d="M788.988,746.028
			c-38.164-82.535-47.305-171.471,30.595-279.605C819.583,466.422,940.498,654.379,788.988,746.028z"/>
		
			<linearGradient id="SVGID_00000061450746278674705870000009559382570473719717_" gradientUnits="userSpaceOnUse" x1="-6.0221" y1="2920.5352" x2="-411.9715" y2="3355.1882" gradientTransform="matrix(0.3594 -0.9332 0.9332 0.3594 -2300.9602 -547.4449)">
			<stop  offset="0" style="stop-color:#FDF53F"/>
			<stop  offset="1" style="stop-color:#D93C65"/>
		</linearGradient>
		<path style="opacity:0.53;fill:url(#SVGID_00000061450746278674705870000009559382570473719717_);" d="M539.999,738.214
			c-81.448-40.431-144.281-104.034-151.291-237.12C388.708,501.093,600.696,571.868,539.999,738.214z"/>
		
			<linearGradient id="SVGID_00000069366989796923291750000004735071805943961490_" gradientUnits="userSpaceOnUse" x1="-1176.1686" y1="3455.9775" x2="-1432.8279" y2="3730.7847" gradientTransform="matrix(-0.1841 -0.9829 0.9829 -0.1841 -3221.4458 130.2087)">
			<stop  offset="0" style="stop-color:#A737D5"/>
			<stop  offset="1" style="stop-color:#EF497A"/>
		</linearGradient>
		<path style="opacity:0.53;fill:url(#SVGID_00000069366989796923291750000004735071805943961490_);" d="M531.77,734.924
			c-57.246,5.283-112.169-8.08-160.121-77.363C371.65,657.561,509.208,625.27,531.77,734.924z"/>
		<path style="fill:#FFFFFF;" d="M499.29,716.548c-0.284,0-0.565-0.12-0.763-0.354c-32.328-38.106-104.639-50.4-105.365-50.52
			c-0.545-0.09-0.914-0.604-0.824-1.148c0.09-0.545,0.597-0.925,1.149-0.824c0.734,0.12,73.767,12.539,106.565,51.2
			c0.357,0.421,0.305,1.052-0.116,1.409C499.748,716.47,499.518,716.548,499.29,716.548z"/>
		
			<linearGradient id="SVGID_00000167391396184398641500000008573029241038183576_" gradientUnits="userSpaceOnUse" x1="666.571" y1="718.3514" x2="568.7559" y2="933.1193">
			<stop  offset="0" style="stop-color:#2B3582"/>
			<stop  offset="1" style="stop-color:#150E42"/>
		</linearGradient>
		<path style="fill:url(#SVGID_00000167391396184398641500000008573029241038183576_);" d="M808.404,749.572H508.558
			c-8.146,0-14.263-5.799-12.688-12.028l3.848-15.216c1.157-4.576,6.191-7.935,12.171-8.122l289.062-9.02
			c6.247-0.195,11.778,3.121,13.139,7.877l6.936,24.236C822.828,743.596,816.681,749.572,808.404,749.572z"/>
		<path style="fill:#FFFFFF;" d="M669.97,718.351c-0.545,0-0.991-0.438-0.999-0.985c-0.008-0.553,0.433-1.007,0.985-1.015
			l12.387-0.181c0.537-0.016,1.006,0.434,1.015,0.985c0.008,0.553-0.433,1.007-0.985,1.015l-12.387,0.181
			C669.98,718.351,669.975,718.351,669.97,718.351z"/>
		<path style="fill:#FFFFFF;" d="M506.971,741.206c-0.052,0-0.105-0.004-0.159-0.013c-0.545-0.087-0.917-0.6-0.83-1.145
			l1.767-11.067c0.951-5.959,6.021-10.347,12.053-10.435l131.38-1.921c0.564,0.039,1.006,0.433,1.015,0.985
			c0.008,0.553-0.433,1.007-0.985,1.015l-131.38,1.921c-5.059,0.074-9.31,3.754-10.108,8.75l-1.767,11.067
			C507.878,740.856,507.454,741.206,506.971,741.206z"/>
		<g>
			
				<linearGradient id="SVGID_00000134939461287292877620000007232129220773866922_" gradientUnits="userSpaceOnUse" x1="-2830.0457" y1="-180.0326" x2="-3452.2883" y2="753.3304" gradientTransform="matrix(-1 0 0 1 -2270.5884 0)">
				<stop  offset="0" style="stop-color:#53D8FF"/>
				<stop  offset="1" style="stop-color:#3840F7"/>
			</linearGradient>
			<path style="fill:url(#SVGID_00000134939461287292877620000007232129220773866922_);" d="M979.003,69.598l-390.074-1.875
				c-4.701-0.043-8.519,5.157-8.483,11.555l0.864,154.332c0.036,6.434,3.954,11.568,8.68,11.375l387.851-8.307
				c4.512-0.184,8.115-5.174,8.173-11.315l1.359-144.15C987.433,74.852,983.678,69.641,979.003,69.598z"/>
			<path style="fill:#FFFFFF;" d="M589.743,235.086c-0.722,0-1.282-0.683-1.288-1.554l-0.864-154.33
				c-0.002-0.405,0.107-0.761,0.323-1.058c0.313-0.429,0.697-0.519,0.963-0.519l390.077,1.876c0.266,0.002,0.644,0.096,0.955,0.525
				c0.215,0.299,0.322,0.653,0.319,1.056l-1.359,144.149c-0.008,0.854-0.54,1.518-1.238,1.546h-0.009L589.743,235.086z
				 M588.875,78.626c-0.024,0-0.074,0-0.153,0.108c-0.089,0.122-0.132,0.273-0.131,0.462l0.864,154.33
				c0.002,0.342,0.183,0.56,0.277,0.56l387.869-8.308c0.102-0.008,0.266-0.23,0.268-0.556l1.359-144.148
				c0.002-0.188-0.041-0.338-0.13-0.462c-0.079-0.109-0.129-0.11-0.151-0.11L588.875,78.626z"/>
			<g style="opacity:0.6;">
				<rect x="604.746" y="149.347" style="fill:#FFFFFF;" width="18.983" height="72.542"/>
				<rect x="636.464" y="174.279" style="fill:#FFFFFF;" width="18.983" height="47.61"/>
				<rect x="668.183" y="112.662" style="fill:#FFFFFF;" width="18.983" height="109.227"/>
				<rect x="699.902" y="195.648" style="fill:#FFFFFF;" width="18.983" height="26.24"/>
				<rect x="731.621" y="127.265" style="fill:#FFFFFF;" width="18.983" height="94.624"/>
				<rect x="763.34" y="143.648" style="fill:#FFFFFF;" width="18.983" height="78.24"/>
				<rect x="795.059" y="161.457" style="fill:#FFFFFF;" width="18.983" height="60.432"/>
				<rect x="826.777" y="90.58" style="fill:#FFFFFF;" width="18.983" height="131.309"/>
				<rect x="858.496" y="104.47" style="fill:#FFFFFF;" width="18.983" height="117.418"/>
				<rect x="890.215" y="125.484" style="fill:#FFFFFF;" width="18.983" height="96.405"/>
				<rect x="921.934" y="198.084" style="fill:#FFFFFF;" width="18.983" height="23.805"/>
				<rect x="953.653" y="151.84" style="fill:#FFFFFF;" width="18.983" height="70.049"/>
			</g>
		</g>
		<g>
			
				<linearGradient id="SVGID_00000096055939288469442150000007213329433594530211_" gradientUnits="userSpaceOnUse" x1="766.2054" y1="298.2912" x2="857.0345" y2="632.5423">
				<stop  offset="0" style="stop-color:#FDF53F"/>
				<stop  offset="1" style="stop-color:#D93C65"/>
			</linearGradient>
			<path style="fill:url(#SVGID_00000096055939288469442150000007213329433594530211_);" d="M979.003,277.337l-390.074-1.875
				c-4.701-0.043-8.519,5.157-8.483,11.555l0.864,154.332c0.036,6.434,3.954,11.568,8.68,11.375l387.851-8.306
				c4.512-0.185,8.115-5.174,8.173-11.315l1.359-144.15C987.433,282.591,983.678,277.38,979.003,277.337z"/>
			<path style="fill:#FFFFFF;" d="M589.743,442.825c-0.722,0-1.282-0.683-1.288-1.554l-0.864-154.33
				c-0.002-0.404,0.107-0.76,0.322-1.058c0.315-0.429,0.698-0.519,0.964-0.519l390.077,1.876c0.266,0.002,0.644,0.096,0.955,0.525
				c0.215,0.299,0.322,0.653,0.319,1.056l-1.359,144.149c-0.008,0.853-0.54,1.518-1.238,1.546h-0.009L589.743,442.825z
				 M588.875,286.365c-0.024,0-0.074,0-0.153,0.108c-0.088,0.121-0.131,0.273-0.13,0.462l0.864,154.33
				c0.002,0.342,0.183,0.56,0.277,0.56l387.869-8.308c0.101-0.007,0.266-0.23,0.268-0.556l1.359-144.148
				c0.002-0.188-0.041-0.338-0.13-0.462c-0.079-0.109-0.129-0.11-0.151-0.11L588.875,286.365z"/>
			<g>
				<circle style="fill:#FFFFFF;" cx="658.088" cy="343.922" r="40.385"/>
				<circle style="fill:#FFFFFF;" cx="758.111" cy="343.922" r="40.385"/>
				<circle style="fill:#FFFFFF;" cx="858.481" cy="345.244" r="40.385"/>
				<g>
					
						<linearGradient id="SVGID_00000042717013762506871260000005747247742111306940_" gradientUnits="userSpaceOnUse" x1="713.0868" y1="293.0492" x2="572.2839" y2="426.675">
						<stop  offset="0" style="stop-color:#FDF53F"/>
						<stop  offset="1" style="stop-color:#D93C65"/>
					</linearGradient>
					<path style="fill:url(#SVGID_00000042717013762506871260000005747247742111306940_);" d="M682.085,335.387
						c1.25,3.04,1.944,6.367,1.944,9.857c0,14.327-11.614,25.941-25.941,25.941c-14.327,0-25.941-11.614-25.941-25.941
						c0-14.327,11.614-25.941,25.941-25.941c0.439,0,0.875,0.012,1.309,0.033v-6.576c-0.434-0.017-0.87-0.028-1.309-0.028
						c-17.956,0-32.512,14.556-32.512,32.512c0,17.956,14.556,32.512,32.512,32.512S690.6,363.2,690.6,345.244
						c0-4.421-0.884-8.635-2.483-12.478L682.085,335.387z"/>
					
						<linearGradient id="SVGID_00000003802133389760302610000012047389070646562467_" gradientUnits="userSpaceOnUse" x1="803.9559" y1="301.1748" x2="678.9641" y2="419.7954">
						<stop  offset="0" style="stop-color:#FDF53F"/>
						<stop  offset="1" style="stop-color:#D93C65"/>
					</linearGradient>
					<path style="fill:url(#SVGID_00000003802133389760302610000012047389070646562467_);" d="M771.839,367.192
						c-4.002,2.526-8.739,3.993-13.822,3.993c-14.327,0-25.941-11.614-25.941-25.941c0-14.327,11.614-25.941,25.941-25.941
						c0.439,0,0.875,0.012,1.309,0.033v-6.576c-0.434-0.017-0.87-0.028-1.309-0.028c-17.956,0-32.512,14.556-32.512,32.512
						c0,17.956,14.556,32.512,32.512,32.512c6.267,0,12.118-1.775,17.082-4.846L771.839,367.192z"/>
					
						<linearGradient id="SVGID_00000158728960578214389200000000866382405866733975_" gradientUnits="userSpaceOnUse" x1="905.1957" y1="301.4229" x2="780.204" y2="420.0434">
						<stop  offset="0" style="stop-color:#FDF53F"/>
						<stop  offset="1" style="stop-color:#D93C65"/>
					</linearGradient>
					<path style="fill:url(#SVGID_00000158728960578214389200000000866382405866733975_);" d="M880.475,359.829
						c-4.669,6.854-12.534,11.356-21.453,11.356c-14.327,0-25.941-11.614-25.941-25.941c0-14.327,11.614-25.941,25.941-25.941
						c0.439,0,0.875,0.012,1.308,0.033v-6.576c-0.434-0.017-0.87-0.028-1.308-0.028c-17.956,0-32.512,14.556-32.512,32.512
						c0,17.956,14.556,32.512,32.512,32.512c11.108,0,20.913-5.572,26.777-14.072L880.475,359.829z"/>
				</g>
				<g>
					<path style="opacity:0.5;fill:#FFFFFF;" d="M691.282,401.415h-65.812c-4.131,0-7.48,3.349-7.48,7.48
						c0,4.131,3.349,7.479,7.48,7.479h65.812c4.131,0,7.48-3.349,7.48-7.479C698.762,404.764,695.413,401.415,691.282,401.415z"/>
					<path style="opacity:0.5;fill:#FFFFFF;" d="M791.652,401.415H725.84c-4.131,0-7.48,3.349-7.48,7.48
						c0,4.131,3.349,7.479,7.48,7.479h65.812c4.131,0,7.48-3.349,7.48-7.479C799.131,404.764,795.783,401.415,791.652,401.415z"/>
					<path style="opacity:0.5;fill:#FFFFFF;" d="M825.575,416.374h65.812c4.131,0,7.479-3.349,7.479-7.479
						c0-4.131-3.349-7.48-7.479-7.48h-65.812c-4.131,0-7.48,3.349-7.48,7.48C818.095,413.025,821.444,416.374,825.575,416.374z"/>
				</g>
			</g>
		</g>
		<g>
			
				<linearGradient id="SVGID_00000005267281378278562550000016779490981734936454_" gradientUnits="userSpaceOnUse" x1="528.6431" y1="-46.4205" x2="198.0266" y2="814.6357">
				<stop  offset="0" style="stop-color:#53D8FF"/>
				<stop  offset="1" style="stop-color:#3840F7"/>
			</linearGradient>
			<path style="fill:url(#SVGID_00000005267281378278562550000016779490981734936454_);" d="M308.527,421.061h218.657
				c6.973,0,12.625-5.652,12.625-12.625V80.94c0-6.959-5.632-12.606-12.591-12.625l-220.405-0.592
				c-7.012-0.019-12.696,5.68-12.659,12.692l1.749,328.088C295.939,415.45,301.581,421.061,308.527,421.061z"/>
			<path style="opacity:0.6;fill:#FFFFFF;" d="M319.242,83.883l195.514,1.204c7.067,0.043,12.764,5.802,12.731,12.869l-1.364,293.94
				c-0.032,6.961-5.617,12.622-12.576,12.749l-189.966,3.466c-7.095,0.129-12.943-5.533-13.043-12.629l-4.184-298.61
				C306.253,89.697,312.066,83.839,319.242,83.883z"/>
			<path style="opacity:0.6;fill:#FFFFFF;" d="M327.191,100.351v1.348c0,2.117,1.716,3.832,3.832,3.832h150.643
				c2.117,0,3.832-1.716,3.832-3.832v-1.348c0-2.117-1.716-3.832-3.832-3.832H331.023
				C328.907,96.518,327.191,98.234,327.191,100.351z"/>
			<path style="opacity:0.6;fill:#FFFFFF;" d="M343.999,117.305L343.999,117.305c0.109,2.006,1.748,3.588,3.757,3.624L479.5,123.33
				c2.144,0.039,3.902-1.688,3.902-3.832v-0.313c0-2.093-1.679-3.799-3.772-3.832l-131.745-2.088
				C345.665,113.23,343.879,115.086,343.999,117.305z"/>
			<path style="opacity:0.61;fill:#FFFFFF;" d="M330.552,398.252c-6.027,0-10.993-4.864-11.1-10.905l-4.275-240.407
				c-0.109-6.109,4.774-11.178,10.884-11.297l177.881-3.463c2.98-0.037,5.777,1.043,7.914,3.101s3.346,4.823,3.402,7.789
				l4.585,241.73c0.057,2.98-1.055,5.8-3.129,7.939c-2.074,2.14-4.858,3.337-7.837,3.373l-178.192,2.139
				C330.642,398.251,330.596,398.252,330.552,398.252z M504.162,136.178c-0.047,0-0.094,0.001-0.142,0.002l-177.881,3.463
				c-3.909,0.075-7.033,3.317-6.963,7.227l0,0l4.275,240.407c0.069,3.863,3.246,6.976,7.102,6.976c0.028,0,0.057,0,0.085-0.001
				l178.191-2.139c1.906-0.022,3.686-0.789,5.014-2.157c1.327-1.369,2.038-3.173,2.002-5.079l-4.585-241.731
				c-0.036-1.897-0.809-3.667-2.176-4.982C507.75,136.88,506.007,136.178,504.162,136.178z"/>
			<path style="opacity:0.61;fill:#FFFFFF;" d="M513.549,160.366H319.485c-1.104,0-2-0.895-2-2c0-1.104,0.896-2,2-2h194.064
				c1.104,0,2,0.896,2,2C515.549,159.471,514.653,160.366,513.549,160.366z"/>
			<g>
				<path style="opacity:0.73;fill:#FFFFFF;" d="M421.971,351.72c-42.049,0-76.258-34.209-76.258-76.259
					c0-42.049,34.209-76.258,76.258-76.258c42.049,0,76.259,34.209,76.259,76.258C498.23,317.511,464.02,351.72,421.971,351.72z
					 M421.971,223.118c-28.862,0-52.343,23.481-52.343,52.343c0,28.862,23.481,52.344,52.343,52.344
					c28.862,0,52.344-23.481,52.344-52.344C474.315,246.599,450.834,223.118,421.971,223.118z"/>
				
					<linearGradient id="SVGID_00000112624785162734320860000011351461714872701853_" gradientUnits="userSpaceOnUse" x1="495.5935" y1="255.9581" x2="482.5635" y2="290.0365">
					<stop  offset="0" style="stop-color:#FDF53F"/>
					<stop  offset="1" style="stop-color:#D93C65"/>
				</linearGradient>
				<path style="fill:url(#SVGID_00000112624785162734320860000011351461714872701853_);" d="M498.017,269.756l-23.848,1.789
					c0.096,1.293,0.146,2.599,0.146,3.916c0,6.237-1.098,12.221-3.109,17.773l22.495,8.12c2.929-8.088,4.529-16.807,4.529-25.893
					C498.23,273.542,498.157,271.64,498.017,269.756z"/>
				
					<linearGradient id="SVGID_00000011728970321464017780000010160761300788061575_" gradientUnits="userSpaceOnUse" x1="473.5926" y1="219.5724" x2="319.4634" y2="386.4393">
					<stop  offset="0" style="stop-color:#FDF53F"/>
					<stop  offset="1" style="stop-color:#D93C65"/>
				</linearGradient>
				<path style="fill:url(#SVGID_00000011728970321464017780000010160761300788061575_);" d="M421.971,327.805
					c-28.862,0-52.343-23.481-52.343-52.344c0-28.862,23.481-52.343,52.343-52.343c4.397,0,8.668,0.548,12.752,1.574l5.826-23.196
					c-5.949-1.495-12.172-2.293-18.578-2.293c-42.049,0-76.258,34.209-76.258,76.258c0,42.05,34.209,76.259,76.258,76.259
					c32.963,0,61.105-21.024,71.73-50.366l-22.495-8.12C463.913,313.374,444.597,327.805,421.971,327.805z"/>
				
					<linearGradient id="SVGID_00000106837174393767234420000010157140576040241811_" gradientUnits="userSpaceOnUse" x1="521.8198" y1="199.5356" x2="452.6607" y2="310.7913">
					<stop  offset="0" style="stop-color:#FDF53F"/>
					<stop  offset="1" style="stop-color:#D93C65"/>
				</linearGradient>
				<path style="fill:url(#SVGID_00000106837174393767234420000010157140576040241811_);" d="M474.168,271.546l23.848-1.789
					c-0.733-9.866-3.353-19.214-7.498-27.687l-21.497,10.472C471.867,258.357,473.665,264.774,474.168,271.546z"/>
			</g>
		</g>
		<g>
			<defs>
				<path id="SVGID_00000080929068507158391090000005265031652632494748_" d="M221.04,170.305v375.507
					c0,18.983,15.239,34.451,34.22,34.735l766.313,9.467c18.819,0.281,34.244-14.859,34.314-33.68l1.282-372.151
					c0.05-13.457-10.671-24.483-24.124-24.811l-784.562-15.85C233.435,143.156,221.04,155.254,221.04,170.305z"/>
			</defs>
			<clipPath id="SVGID_00000172402103714886360680000017181090494516124095_">
				<use xlink:href="#SVGID_00000080929068507158391090000005265031652632494748_"  style="overflow:visible;"/>
			</clipPath>
			<g style="clip-path:url(#SVGID_00000172402103714886360680000017181090494516124095_);">
				
					<linearGradient id="SVGID_00000016054468094483128110000009058487725004331945_" gradientUnits="userSpaceOnUse" x1="535.3683" y1="332.6283" x2="204.7518" y2="1193.6847">
					<stop  offset="0" style="stop-color:#FDF53F"/>
					<stop  offset="1" style="stop-color:#D93C65"/>
				</linearGradient>
				<path style="fill:url(#SVGID_00000016054468094483128110000009058487725004331945_);" d="M315.252,800.11h218.657
					c6.973,0,12.625-5.652,12.625-12.625V459.988c0-6.959-5.632-12.606-12.591-12.625l-220.405-0.592
					c-7.012-0.019-12.696,5.68-12.659,12.692l1.749,328.088C302.664,794.499,308.306,800.11,315.252,800.11z"/>
				<path style="opacity:0.6;fill:#FFFFFF;" d="M325.967,462.932l195.514,1.204c7.067,0.044,12.764,5.802,12.731,12.87
					l-1.364,293.94c-0.032,6.961-5.617,12.622-12.576,12.749l-189.966,3.466c-7.095,0.129-12.943-5.533-13.043-12.629
					l-4.184-298.609C312.978,468.746,318.791,462.888,325.967,462.932z"/>
				<path style="opacity:0.6;fill:#FFFFFF;" d="M333.916,479.4v1.348c0,2.117,1.716,3.832,3.832,3.832h150.643
					c2.117,0,3.832-1.716,3.832-3.832V479.4c0-2.116-1.716-3.832-3.832-3.832H337.749
					C335.632,475.567,333.916,477.283,333.916,479.4z"/>
				<path style="opacity:0.6;fill:#FFFFFF;" d="M350.724,496.354L350.724,496.354c0.109,2.006,1.748,3.588,3.757,3.624
					l131.744,2.401c2.143,0.039,3.902-1.688,3.902-3.832v-0.313c0-2.093-1.679-3.799-3.772-3.832l-131.745-2.088
					C352.39,492.279,350.604,494.135,350.724,496.354z"/>
				<path style="opacity:0.61;fill:#FFFFFF;" d="M337.275,777.301c-6.025,0-10.991-4.864-11.098-10.904l-4.275-240.408
					c-0.109-6.109,4.774-11.178,10.884-11.297l177.881-3.463c2.974-0.03,5.777,1.043,7.914,3.101s3.346,4.823,3.402,7.789
					l4.585,241.73c0.057,2.981-1.055,5.8-3.129,7.94c-2.074,2.14-4.858,3.337-7.837,3.373L337.411,777.3
					C337.366,777.3,337.32,777.301,337.275,777.301z M510.887,515.227c-0.047,0-0.094,0.001-0.142,0.002l-177.881,3.463
					c-3.909,0.075-7.033,3.317-6.963,7.227l0,0l4.275,240.407c0.07,3.892,3.311,7.016,7.186,6.975l178.192-2.139
					c1.906-0.022,3.686-0.789,5.014-2.157c1.327-1.369,2.038-3.173,2.002-5.079l-4.585-241.731
					c-0.036-1.897-0.809-3.667-2.176-4.982C514.475,515.929,512.732,515.227,510.887,515.227z"/>
				<path style="opacity:0.61;fill:#FFFFFF;" d="M520.274,539.415H326.21c-1.104,0-2-0.896-2-2s0.896-2,2-2h194.064
					c1.104,0,2,0.896,2,2S521.378,539.415,520.274,539.415z"/>
			</g>
			<g style="clip-path:url(#SVGID_00000172402103714886360680000017181090494516124095_);">
				
					<linearGradient id="SVGID_00000144337764603023353380000002817310809319138239_" gradientUnits="userSpaceOnUse" x1="-2830.0457" y1="225.3722" x2="-3452.2883" y2="1158.7351" gradientTransform="matrix(-1 0 0 1 -2270.5884 0)">
					<stop  offset="0" style="stop-color:#53D8FF"/>
					<stop  offset="1" style="stop-color:#3840F7"/>
				</linearGradient>
				<path style="fill:url(#SVGID_00000144337764603023353380000002817310809319138239_);" d="M979.003,475.003l-390.074-1.875
					c-4.701-0.043-8.519,5.157-8.483,11.555l0.864,154.332c0.036,6.434,3.954,11.568,8.68,11.375l387.851-8.306
					c4.512-0.185,8.115-5.174,8.173-11.315l1.359-144.15C987.433,480.257,983.678,475.045,979.003,475.003z"/>
				<path style="fill:#FFFFFF;" d="M589.743,640.49c-0.722,0-1.282-0.683-1.288-1.554l-0.864-154.33
					c-0.002-0.405,0.107-0.761,0.323-1.058c0.314-0.428,0.697-0.517,0.963-0.517l390.077,1.875c0.265,0.002,0.644,0.096,0.955,0.526
					c0.215,0.297,0.322,0.651,0.319,1.055l-1.359,144.15c-0.008,0.854-0.54,1.518-1.238,1.546h-0.009L589.743,640.49z
					 M588.875,484.031c-0.024,0-0.074,0-0.153,0.108c-0.087,0.119-0.131,0.275-0.13,0.461l0.864,154.33
					c0.002,0.342,0.183,0.559,0.277,0.559l387.869-8.307c0.102-0.008,0.266-0.23,0.268-0.556l1.359-144.149
					c0.002-0.185-0.042-0.339-0.129-0.46c-0.081-0.111-0.133-0.112-0.152-0.112L588.875,484.031z"/>
				<g style="opacity:0.6;">
					
						<rect x="726.984" y="575.595" transform="matrix(6.123234e-17 -1 1 6.123234e-17 109.4508 1350.7817)" style="fill:#FFFFFF;" width="6.264" height="90.142"/>
					
						<rect x="742.474" y="580.618" transform="matrix(6.123234e-17 -1 1 6.123234e-17 135.4079 1355.8051)" style="fill:#FFFFFF;" width="6.264" height="59.161"/>
					
						<rect x="704.192" y="531.868" transform="matrix(6.123234e-17 -1 1 6.123234e-17 107.5919 1307.0553)" style="fill:#FFFFFF;" width="6.264" height="135.727"/>
					
						<rect x="755.752" y="572.961" transform="matrix(6.123234e-17 -1 1 6.123234e-17 169.619 1348.1486)" style="fill:#FFFFFF;" width="6.264" height="32.607"/>
					
						<rect x="713.264" y="520.007" transform="matrix(6.123234e-17 -1 1 6.123234e-17 137.5986 1295.1942)" style="fill:#FFFFFF;" width="6.264" height="117.581"/>
					
						<rect x="723.444" y="519.719" transform="matrix(6.123234e-17 -1 1 6.123234e-17 158.2448 1294.9066)" style="fill:#FFFFFF;" width="6.264" height="97.223"/>
					
						<rect x="734.508" y="520.317" transform="matrix(6.123234e-17 -1 1 6.123234e-17 179.7761 1295.5042)" style="fill:#FFFFFF;" width="6.264" height="75.094"/>
					
						<rect x="690.472" y="465.814" transform="matrix(6.123234e-17 -1 1 6.123234e-17 146.2067 1241.0007)" style="fill:#FFFFFF;" width="6.264" height="163.167"/>
					
						<rect x="699.102" y="463.977" transform="matrix(6.123234e-17 -1 1 6.123234e-17 165.3039 1239.1641)" style="fill:#FFFFFF;" width="6.264" height="145.906"/>
					
						<rect x="712.158" y="466.566" transform="matrix(6.123234e-17 -1 1 6.123234e-17 188.8268 1241.7532)" style="fill:#FFFFFF;" width="6.264" height="119.794"/>
					
						<rect x="757.265" y="501.206" transform="matrix(6.123234e-17 -1 1 6.123234e-17 244.4005 1276.3932)" style="fill:#FFFFFF;" width="6.264" height="29.581"/>
					
						<rect x="728.533" y="462.008" transform="matrix(6.123234e-17 -1 1 6.123234e-17 226.136 1237.1947)" style="fill:#FFFFFF;" width="6.264" height="87.044"/>
				</g>
				<g style="opacity:0.6;">
					
						<rect x="838.905" y="575.595" transform="matrix(6.123234e-17 -1 1 6.123234e-17 221.3717 1462.7026)" style="fill:#FFFFFF;" width="6.264" height="90.142"/>
					
						<rect x="823.415" y="580.618" transform="matrix(6.123234e-17 -1 1 6.123234e-17 216.3484 1436.7456)" style="fill:#FFFFFF;" width="6.264" height="59.161"/>
					
						<rect x="861.698" y="531.868" transform="matrix(6.123234e-17 -1 1 6.123234e-17 265.0981 1464.5615)" style="fill:#FFFFFF;" width="6.264" height="135.727"/>
					
						<rect x="810.138" y="572.961" transform="matrix(6.123234e-17 -1 1 6.123234e-17 224.005 1402.5344)" style="fill:#FFFFFF;" width="6.264" height="32.607"/>
					
						<rect x="852.625" y="520.007" transform="matrix(6.123234e-17 -1 1 6.123234e-17 276.9592 1434.5548)" style="fill:#FFFFFF;" width="6.264" height="117.581"/>
					
						<rect x="842.446" y="519.719" transform="matrix(6.123234e-17 -1 1 6.123234e-17 277.2469 1413.9087)" style="fill:#FFFFFF;" width="6.264" height="97.223"/>
					
						<rect x="831.381" y="520.317" transform="matrix(6.123234e-17 -1 1 6.123234e-17 276.6494 1392.3773)" style="fill:#FFFFFF;" width="6.264" height="75.094"/>
					
						<rect x="875.418" y="465.814" transform="matrix(6.123234e-17 -1 1 6.123234e-17 331.1527 1425.9468)" style="fill:#FFFFFF;" width="6.264" height="163.167"/>
					
						<rect x="866.787" y="463.977" transform="matrix(6.123234e-17 -1 1 6.123234e-17 332.9894 1406.8496)" style="fill:#FFFFFF;" width="6.264" height="145.906"/>
					
						<rect x="853.731" y="466.566" transform="matrix(6.123234e-17 -1 1 6.123234e-17 330.4003 1383.3267)" style="fill:#FFFFFF;" width="6.264" height="119.794"/>
					
						<rect x="808.625" y="501.206" transform="matrix(6.123234e-17 -1 1 6.123234e-17 295.7603 1327.7529)" style="fill:#FFFFFF;" width="6.264" height="29.581"/>
					
						<rect x="837.356" y="462.007" transform="matrix(6.123234e-17 -1 1 6.123234e-17 334.9588 1346.0175)" style="fill:#FFFFFF;" width="6.264" height="87.044"/>
				</g>
			</g>
		</g>
		<g>
			<g>
				
					<linearGradient id="SVGID_00000030486596274997841980000004758898568608976063_" gradientUnits="userSpaceOnUse" x1="958.9548" y1="338.9082" x2="938.7679" y2="358.5525" gradientTransform="matrix(1 0.0066 -0.0066 1 -3.6858 -31.5622)">
					<stop  offset="0" style="stop-color:#53D8FF"/>
					<stop  offset="1" style="stop-color:#3840F7"/>
				</linearGradient>
				<path style="fill:url(#SVGID_00000030486596274997841980000004758898568608976063_);" d="M948.822,324.104
					c-0.024,3.647-3,6.585-6.648,6.56c-3.647-0.024-6.584-3-6.56-6.647c0.024-3.647,3-6.585,6.648-6.56
					C945.909,317.48,948.846,320.456,948.822,324.104z"/>
				
					<linearGradient id="SVGID_00000050665016691026128880000005446953382025865638_" gradientUnits="userSpaceOnUse" x1="953.0364" y1="342.0728" x2="926.843" y2="381.6436" gradientTransform="matrix(1 0.0066 -0.0066 1 -3.6858 -31.5622)">
					<stop  offset="0" style="stop-color:#53D8FF"/>
					<stop  offset="1" style="stop-color:#3840F7"/>
				</linearGradient>
				<path style="fill:url(#SVGID_00000050665016691026128880000005446953382025865638_);" d="M948.603,324.102
					c-0.023,3.526-2.901,6.366-6.426,6.342c-3.526-0.023-6.366-2.901-6.342-6.427c0.023-3.526,2.901-6.366,6.427-6.342
					C945.786,317.699,948.626,320.576,948.603,324.102z"/>
				<path style="fill:#FFFFFF;" d="M936.336,324.709c-0.02,0-0.041-0.001-0.061-0.002c-0.551-0.033-0.971-0.507-0.938-1.058
					c0.018-0.295,0.053-0.582,0.106-0.865c0.102-0.542,0.626-0.897,1.167-0.798c0.543,0.102,0.9,0.624,0.799,1.167
					c-0.038,0.201-0.063,0.406-0.076,0.615C937.301,324.3,936.861,324.709,936.336,324.709z"/>
				<path style="fill:#FFFFFF;" d="M936.97,322.373c-0.153,0-0.31-0.035-0.456-0.11c-0.491-0.252-0.685-0.854-0.433-1.347
					c1.196-2.33,3.57-3.771,6.183-3.749c0.417,0.002,0.835,0.043,1.242,0.12c0.543,0.103,0.899,0.627,0.796,1.169
					c-0.104,0.543-0.627,0.896-1.169,0.796c-0.289-0.055-0.585-0.083-0.881-0.085c-0.011,0-0.023,0-0.034,0
					c-1.846,0-3.513,1.018-4.357,2.663C937.684,322.175,937.333,322.373,936.97,322.373z"/>
			</g>
			<g>
				
					<linearGradient id="SVGID_00000080184516773300205830000007617142588277570485_" gradientUnits="userSpaceOnUse" x1="959.219" y1="378.9414" x2="939.0321" y2="398.5857" gradientTransform="matrix(1 0.0066 -0.0066 1 -3.6858 -31.5622)">
					<stop  offset="0" style="stop-color:#53D8FF"/>
					<stop  offset="1" style="stop-color:#3840F7"/>
				</linearGradient>
				<path style="fill:url(#SVGID_00000080184516773300205830000007617142588277570485_);" d="M948.822,364.139
					c-0.024,3.647-3,6.585-6.648,6.56c-3.647-0.024-6.584-3-6.56-6.647c0.024-3.647,3-6.585,6.648-6.561
					C945.909,357.515,948.846,360.491,948.822,364.139z"/>
				
					<linearGradient id="SVGID_00000062154466845749848310000000521218592201832846_" gradientUnits="userSpaceOnUse" x1="953.3007" y1="382.106" x2="927.1072" y2="421.6767" gradientTransform="matrix(1 0.0066 -0.0066 1 -3.6858 -31.5622)">
					<stop  offset="0" style="stop-color:#53D8FF"/>
					<stop  offset="1" style="stop-color:#3840F7"/>
				</linearGradient>
				<path style="fill:url(#SVGID_00000062154466845749848310000000521218592201832846_);" d="M948.603,364.137
					c-0.023,3.526-2.901,6.366-6.426,6.342c-3.526-0.023-6.366-2.9-6.342-6.426c0.023-3.526,2.901-6.366,6.427-6.342
					C945.786,357.734,948.626,360.611,948.603,364.137z"/>
				<path style="fill:#FFFFFF;" d="M936.336,364.743c-0.021,0-0.041-0.001-0.061-0.002c-0.551-0.033-0.971-0.507-0.938-1.059
					c0.018-0.293,0.053-0.582,0.106-0.863c0.102-0.542,0.622-0.896,1.168-0.798c0.542,0.101,0.9,0.625,0.798,1.167
					c-0.038,0.201-0.063,0.406-0.076,0.615C937.301,364.334,936.861,364.743,936.336,364.743z"/>
				<path style="fill:#FFFFFF;" d="M936.97,362.408c-0.153,0-0.31-0.035-0.456-0.11c-0.491-0.252-0.685-0.855-0.433-1.347
					c1.189-2.316,3.538-3.75,6.137-3.75c0.015,0,0.03,0,0.045,0c0.42,0.003,0.838,0.044,1.243,0.121
					c0.543,0.104,0.899,0.627,0.796,1.169c-0.104,0.543-0.627,0.895-1.169,0.796c-0.288-0.055-0.585-0.084-0.884-0.086
					c-0.01,0-0.021,0-0.032,0c-1.844,0-3.512,1.018-4.357,2.664C937.684,362.21,937.333,362.408,936.97,362.408z"/>
			</g>
			<g>
				
					<linearGradient id="SVGID_00000022547397465838683650000002233020279650493876_" gradientUnits="userSpaceOnUse" x1="959.4832" y1="418.9747" x2="939.2963" y2="438.6189" gradientTransform="matrix(1 0.0066 -0.0066 1 -3.6858 -31.5622)">
					<stop  offset="0" style="stop-color:#53D8FF"/>
					<stop  offset="1" style="stop-color:#3840F7"/>
				</linearGradient>
				<path style="fill:url(#SVGID_00000022547397465838683650000002233020279650493876_);" d="M948.822,404.174
					c-0.024,3.647-3,6.584-6.648,6.56c-3.647-0.024-6.584-3-6.56-6.648c0.024-3.647,3-6.584,6.648-6.56
					C945.909,397.55,948.846,400.526,948.822,404.174z"/>
				
					<linearGradient id="SVGID_00000132766660944654178240000012599113677950036649_" gradientUnits="userSpaceOnUse" x1="953.5649" y1="422.1392" x2="927.3716" y2="461.7097" gradientTransform="matrix(1 0.0066 -0.0066 1 -3.6858 -31.5622)">
					<stop  offset="0" style="stop-color:#53D8FF"/>
					<stop  offset="1" style="stop-color:#3840F7"/>
				</linearGradient>
				<path style="fill:url(#SVGID_00000132766660944654178240000012599113677950036649_);" d="M948.603,404.172
					c-0.023,3.526-2.901,6.366-6.426,6.342c-3.526-0.023-6.366-2.901-6.342-6.427c0.023-3.526,2.901-6.365,6.427-6.342
					C945.786,397.769,948.626,400.646,948.603,404.172z"/>
				<path style="fill:#FFFFFF;" d="M936.336,404.778c-0.021,0-0.041-0.001-0.061-0.002c-0.551-0.033-0.971-0.507-0.938-1.059
					c0.018-0.293,0.053-0.582,0.106-0.863c0.102-0.542,0.622-0.897,1.168-0.798c0.542,0.102,0.9,0.625,0.798,1.167
					c-0.038,0.201-0.063,0.406-0.076,0.615C937.301,404.369,936.861,404.778,936.336,404.778z"/>
				<path style="fill:#FFFFFF;" d="M936.97,402.443c-0.153,0-0.31-0.035-0.456-0.11c-0.491-0.252-0.685-0.855-0.433-1.346
					c1.196-2.331,3.597-3.739,6.182-3.751c0.417,0.003,0.834,0.044,1.24,0.119c0.543,0.103,0.9,0.625,0.799,1.167
					c-0.102,0.544-0.626,0.896-1.167,0.8c-0.29-0.055-0.588-0.084-0.887-0.086c-0.01,0-0.021,0-0.032,0
					c-1.845,0-3.512,1.019-4.357,2.663C937.684,402.245,937.333,402.443,936.97,402.443z"/>
			</g>
			<path style="opacity:0.62;fill:#FFFFFF;" d="M958.982,323.76l0.03,1.125c0.082,3.045,1.984,5.461,4.308,5.473l176.88,0.268
				c2.4,0.012,4.349-2.537,4.345-5.683l0,0c-0.004-3.085-1.888-5.601-4.24-5.663l-176.911-1.393
				C960.91,317.821,958.894,320.505,958.982,323.76z"/>
			<path style="opacity:0.62;fill:#FFFFFF;" d="M958.982,363.6l0.03,1.125c0.082,3.045,1.984,5.461,4.308,5.473l176.88,0.268
				c2.4,0.012,4.349-2.538,4.345-5.684l0,0c-0.004-3.085-1.888-5.601-4.24-5.663l-176.911-1.393
				C960.91,357.66,958.894,360.344,958.982,363.6z"/>
			<path style="opacity:0.62;fill:#FFFFFF;" d="M958.982,403.439l0.03,1.125c0.082,3.045,1.984,5.461,4.308,5.473l176.88,0.268
				c2.4,0.012,4.349-2.537,4.345-5.683l0,0c-0.004-3.085-1.888-5.601-4.24-5.663l-176.911-1.393
				C960.91,397.5,958.894,400.184,958.982,403.439z"/>
		</g>
	</g>
	<g>
		
			<linearGradient id="SVGID_00000176764696109299115580000011448362759851744148_" gradientUnits="userSpaceOnUse" x1="4642.7344" y1="482.779" x2="4579.8667" y2="560.0665" gradientTransform="matrix(-0.9922 -0.1247 -0.1247 0.9922 5582.8755 547.5703)">
			<stop  offset="0" style="stop-color:#F9B776"/>
			<stop  offset="1" style="stop-color:#F47960"/>
		</linearGradient>
		<path style="fill:url(#SVGID_00000176764696109299115580000011448362759851744148_);" d="M922.142,469.519
			c0.409-0.782,1.567-0.659,1.804,0.192c0.875,3.149,2.993,8.645,7.436,10.597c0.224,0.098,0.436,0.198,0.641,0.298
			c0.202-0.604,0.204-1.306-0.278-2.044c-1.382-2.111,1.112-4.995,1.112-4.995s0.165,2.54,2.096,4.139
			c1.663,1.378,2.461,4.443,1.325,6.957c-2.405,9.342-6.006,21.697,8.022,30.723c14.028,9.026,33.784-17.035,33.784-17.035
			l-9.805,31.085c0,0-15.135,11.168-32.739-4.536c-17.604-15.705-5.936-38.557-5.936-38.557S916.177,480.925,922.142,469.519z"/>
		
			<linearGradient id="SVGID_00000063612009035287118370000013429339786893229746_" gradientUnits="userSpaceOnUse" x1="-7271.4292" y1="1438.3252" x2="-7312.6548" y2="1487.311" gradientTransform="matrix(0.9602 0.2794 -0.2794 0.9602 8446.4531 1090.4124)">
			<stop  offset="0" style="stop-color:#2B3582"/>
			<stop  offset="1" style="stop-color:#150E42"/>
		</linearGradient>
		<path style="fill:url(#SVGID_00000063612009035287118370000013429339786893229746_);" d="M980.54,452.678
			c0,0-4.064-18.231,16.819-13.405c0,0,10.137-1.656,10.652,7.911c0,0,6.534,4.306,1.75,12.586c0,0,19.419-7.501,27.88,9.52
			c8.461,17.021,0.684,26.387-7.469,28.826c0,0,6.605,3.317,3.479,10.805c-3.127,7.489-18.961,12.768-28.314,3.661
			c0,0-26.615,3.517-26.082-15.282c0,0-12.379-7.994,0.623-23.53C992.879,458.234,980.54,452.678,980.54,452.678z"/>
		
			<linearGradient id="SVGID_00000057847391904099129640000016916187829397313461_" gradientUnits="userSpaceOnUse" x1="4641.9995" y1="439.8597" x2="4561.2075" y2="553.2289" gradientTransform="matrix(-0.9922 -0.1247 -0.1247 0.9922 5582.8755 547.5703)">
			<stop  offset="0" style="stop-color:#CB236D"/>
			<stop  offset="1" style="stop-color:#4C246D"/>
		</linearGradient>
		<path style="fill:url(#SVGID_00000057847391904099129640000016916187829397313461_);" d="M979.393,494.936
			c4.196-1.258,16.415-3.581,28.037,7.144c1.971,1.819,2.776,4.583,2.074,7.171c-3.122,11.492-11.358,45.445-4.136,60.136
			c0,0-12.726,14.029-26.609,2.722c0,0-6.229-27.149-14.388-39.067c-5.633-8.228,8.982-30.899,12.68-36.376
			C977.61,495.837,978.435,495.223,979.393,494.936z"/>
		
			<linearGradient id="SVGID_00000163770525752058111260000000427264679631270566_" gradientUnits="userSpaceOnUse" x1="-7331.126" y1="1524.6909" x2="-7327.7676" y2="1500.8439" gradientTransform="matrix(0.9602 0.2794 -0.2794 0.9602 8446.4531 1090.4124)">
			<stop  offset="0" style="stop-color:#F9B776"/>
			<stop  offset="1" style="stop-color:#F47960"/>
		</linearGradient>
		<path style="fill:url(#SVGID_00000163770525752058111260000000427264679631270566_);" d="M990.98,472.104
			c0,0,6.206,17.554,6.673,25.299c0,0-6.859,3.119-13.322-2.145c0,0-0.678-17.534-1.658-20.674L990.98,472.104z"/>
		
			<linearGradient id="SVGID_00000016778388199140177020000017797483715545809820_" gradientUnits="userSpaceOnUse" x1="-7346.5244" y1="1473.5934" x2="-7315.1196" y2="1509.7008" gradientTransform="matrix(0.9602 0.2794 -0.2794 0.9602 8446.4531 1090.4124)">
			<stop  offset="0" style="stop-color:#F9B776"/>
			<stop  offset="1" style="stop-color:#F47960"/>
		</linearGradient>
		<path style="fill:url(#SVGID_00000016778388199140177020000017797483715545809820_);" d="M982.36,448.169
			c0,0-16.232,22.716-6.529,29.315s21.259-9.545,21.259-9.545s3.767-12.434-0.172-16.651
			C992.979,447.069,982.36,448.169,982.36,448.169z"/>
		
			<linearGradient id="SVGID_00000180349787419785815320000003843410651911794816_" gradientUnits="userSpaceOnUse" x1="-7291.1738" y1="1421.7087" x2="-7332.4004" y2="1470.6956" gradientTransform="matrix(0.9602 0.2794 -0.2794 0.9602 8446.4531 1090.4124)">
			<stop  offset="0" style="stop-color:#2B3582"/>
			<stop  offset="1" style="stop-color:#150E42"/>
		</linearGradient>
		<path style="fill:url(#SVGID_00000180349787419785815320000003843410651911794816_);" d="M989.873,442.74
			c0,0-7.457,1.767-8.502,5.141c-1.045,3.374,10.575,6.503,13.831,6.656l2.624,13.615c0,0,7.755-12.808,4.683-20.205
			C999.436,440.55,989.873,442.74,989.873,442.74z"/>
		
			<linearGradient id="SVGID_00000032634497011029642450000012334493867861483189_" gradientUnits="userSpaceOnUse" x1="-7338.6782" y1="1466.7683" x2="-7307.2734" y2="1502.8752" gradientTransform="matrix(0.9602 0.2794 -0.2794 0.9602 8446.4531 1090.4124)">
			<stop  offset="0" style="stop-color:#F9B776"/>
			<stop  offset="1" style="stop-color:#F47960"/>
		</linearGradient>
		<path style="fill:url(#SVGID_00000032634497011029642450000012334493867861483189_);" d="M993.942,466.267
			c0,0,6.318-7.317,8.831-2.547c2.513,4.77-5.687,8.352-8.526,6.01L993.942,466.267z"/>
		
			<linearGradient id="SVGID_00000137113225970886706160000006703568789100236186_" gradientUnits="userSpaceOnUse" x1="4440.6245" y1="776.7339" x2="4515.5498" y2="644.4747" gradientTransform="matrix(-1 -0.0095 -0.0095 1 5484.5967 45.0221)">
			<stop  offset="0" style="stop-color:#F9B776"/>
			<stop  offset="1" style="stop-color:#F47960"/>
		</linearGradient>
		<path style="fill:url(#SVGID_00000137113225970886706160000006703568789100236186_);" d="M962.551,629.11
			c0.048,1.232-2.116,11.008-3.294,16.223c-0.474,2.098-0.144,4.294,0.924,6.161l40.785,68.644c0.493,0.83,0.853,1.73,1.071,2.671
			c0.747,3.221,2.298,11.116,1.488,18.298l-2.11,4.382l9.125-2.072l1.985-24.505l-2.583-1.575c-2.232-1.361-3.969-3.395-4.964-5.812
			c-3.688-8.958-12.846-31.762-15.207-42.875c-2.683-12.63-16.708-22.888-16.708-22.888l2.464-5.825L962.551,629.11z"/>
		
			<linearGradient id="SVGID_00000092455157243678990260000013113247948089428643_" gradientUnits="userSpaceOnUse" x1="4456.958" y1="729.9728" x2="4478.8589" y2="729.9728" gradientTransform="matrix(-1 -0.0095 -0.0095 1 5484.5967 45.0221)">
			<stop  offset="0" style="stop-color:#2B3582"/>
			<stop  offset="1" style="stop-color:#150E42"/>
		</linearGradient>
		<path style="fill:url(#SVGID_00000092455157243678990260000013113247948089428643_);" d="M1020.682,734.984
			c0,0-4.928-7.812-5.507-10.853c-0.58-3.041-2.194-8.411-5.232-6.794c0,0-1.432,14.772-0.938,20.545
			c0.493,5.772-6.525,5.586-6.525,5.586s-1.934,0.272-3.351,1.688c-0.978,0.978-0.279,2.675,1.102,2.764
			c2.297,0.148,5.945,0.187,9.776-0.554c1.339-0.259,2.331-1.398,2.412-2.759l1.011-17.002l6.216,7.849L1020.682,734.984z"/>
		
			<linearGradient id="SVGID_00000160891006341318147520000010377676792322524067_" gradientUnits="userSpaceOnUse" x1="4525.5337" y1="678.8919" x2="4413.48" y2="714.723" gradientTransform="matrix(-1 -0.0095 -0.0095 1 5484.5967 45.0221)">
			<stop  offset="0" style="stop-color:#F9B776"/>
			<stop  offset="1" style="stop-color:#F47960"/>
		</linearGradient>
		<path style="fill:url(#SVGID_00000160891006341318147520000010377676792322524067_);" d="M986.915,640.044
			c0,0,1.438,61.401,1.633,70.122c0.195,8.721-1.377,28.046-10.119,33.823l3.804,2.816c0,0,4.754-4.04,9.398-11.817
			c5.217-8.736,6.795-10.332,6.795-10.332l-1.731-3.545c-0.758-1.552-0.981-3.308-0.632-5c1.886-9.143,8.189-39.556,9.908-46.105
			c2.029-7.731,2.174-18.055-4.886-26.697C994.026,634.667,986.915,640.044,986.915,640.044z"/>
		
			<linearGradient id="SVGID_00000061431165637518124920000003287781707748808322_" gradientUnits="userSpaceOnUse" x1="4477.2627" y1="733.9282" x2="4503.3706" y2="733.9282" gradientTransform="matrix(-1 -0.0095 -0.0095 1 5484.5967 45.0221)">
			<stop  offset="0" style="stop-color:#2B3582"/>
			<stop  offset="1" style="stop-color:#150E42"/>
		</linearGradient>
		<path style="fill:url(#SVGID_00000061431165637518124920000003287781707748808322_);" d="M994.988,749.572
			c0.271,0.003,0.502-0.192,0.54-0.46c0.291-2.047,1.502-10.254,2.493-12.379c1.135-2.434,4.844-12.677-0.002-13.546
			c0,0-12.046,17.6-14.359,19.973c-2.312,2.373-5.231,0.829-5.231,0.829s-2.253,0.666-3.952,2.837
			c-0.809,1.033-0.055,2.55,1.257,2.563l8.114,0.077c2.357,0.023,4.476-1.409,5.352-3.597c1.428-3.567,3.882-8.8,6.741-11.121
			l-1.486,14.227C994.422,749.292,994.669,749.569,994.988,749.572L994.988,749.572z"/>
		
			<linearGradient id="SVGID_00000134248831815772903760000000369963847427242431_" gradientUnits="userSpaceOnUse" x1="4512.9121" y1="558.3424" x2="4450.3657" y2="697.769" gradientTransform="matrix(-1 -0.0095 -0.0095 1 5484.5967 45.0221)">
			<stop  offset="0" style="stop-color:#CB236D"/>
			<stop  offset="1" style="stop-color:#4C246D"/>
		</linearGradient>
		<path style="fill:url(#SVGID_00000134248831815772903760000000369963847427242431_);" d="M976.838,565.488
			c0,0,1.828,5.828-0.981,15.427l-17.425,60.85c-0.274,0.956,0.242,1.957,1.178,2.293c5.212,1.871,22.347,7.158,45.737,5.546
			c1.178-0.081,2.165-0.915,2.421-2.067c1.541-6.937,6.8-30.606,7.882-35.469c4.125-18.531,8.732-38.515-11.533-50.599
			C994.779,565.469,986.068,567.827,976.838,565.488z"/>
		
			<linearGradient id="SVGID_00000083067297398968702110000016718461442521568675_" gradientUnits="userSpaceOnUse" x1="4514.4434" y1="594.441" x2="4638.7354" y2="452.269" gradientTransform="matrix(-0.9922 -0.1247 -0.1247 0.9922 5582.8755 547.5703)">
			<stop  offset="0" style="stop-color:#F9B776"/>
			<stop  offset="1" style="stop-color:#F47960"/>
		</linearGradient>
		<path style="fill:url(#SVGID_00000083067297398968702110000016718461442521568675_);" d="M1009.093,504.373
			c0,0,19.826,16.476,24.746,38.991c4.92,22.515-28.971,24.907-28.971,24.907s-4.601-5.138-10.063-3.305
			c-5.462,1.832-0.423-8.967,5.968-8.938c6.391,0.028,3.43,5.082,12.471,0.987c8.807-3.989,14.25-16.327-8.22-35.029
			c-1.302-1.084-2.342-2.466-2.968-4.041C997.691,506.956,1001.154,499.753,1009.093,504.373z"/>
	</g>
	<g>
		
			<linearGradient id="SVGID_00000158713494396824338540000002667526964094192032_" gradientUnits="userSpaceOnUse" x1="314.5543" y1="525.5729" x2="200.3636" y2="649.7805">
			<stop  offset="0" style="stop-color:#CB236D"/>
			<stop  offset="1" style="stop-color:#4C246D"/>
		</linearGradient>
		<path style="fill:url(#SVGID_00000158713494396824338540000002667526964094192032_);" d="M278.458,534.826
			c0,0-1.183,6.695-1.762,13.322c-0.227,2.59,1.77,4.839,4.368,4.947c8.825,0.368,27.703,1.082,34.477,0.78
			c1.018-0.045,1.684-1.088,1.307-2.035l0,0c-0.316-0.794-0.925-1.435-1.701-1.792l-31.183-14.332L278.458,534.826z"/>
		
			<linearGradient id="SVGID_00000087386868376657953260000005578642780365997733_" gradientUnits="userSpaceOnUse" x1="277.4897" y1="534.7981" x2="287.6327" y2="534.7981">
			<stop  offset="0" style="stop-color:#C4421B"/>
			<stop  offset="1" style="stop-color:#5C0E16"/>
		</linearGradient>
		<path style="fill:url(#SVGID_00000087386868376657953260000005578642780365997733_);" d="M277.49,530.892l0.95,8.008
			c0,0,5.463,2.543,9.193-0.32l-2.262-8.924L277.49,530.892z"/>
		
			<linearGradient id="SVGID_00000028292677386933677190000002872844529551056054_" gradientUnits="userSpaceOnUse" x1="232.5957" y1="503.7652" x2="396.4367" y2="301.2946">
			<stop  offset="0" style="stop-color:#53D8FF"/>
			<stop  offset="1" style="stop-color:#3840F7"/>
		</linearGradient>
		<path style="fill:url(#SVGID_00000028292677386933677190000002872844529551056054_);" d="M278.204,380.341
			c-0.41,2.091-2.203,104.356,8.728,150.185c0.178,0.748-0.201,1.518-0.912,1.809c-1.677,0.685-4.964,1.677-8.903,1.809
			c-1.22,0.041-2.314-0.752-2.658-1.923c-3.125-10.633-18.098-63.907-20.051-114.798c-2.183-56.866,0-1.936,0-1.936l1.28-35.151
			L278.204,380.341z"/>
		
			<linearGradient id="SVGID_00000102509064494710425090000008748299003592459418_" gradientUnits="userSpaceOnUse" x1="288.9373" y1="502.0222" x2="174.7469" y2="626.2294">
			<stop  offset="0" style="stop-color:#CB236D"/>
			<stop  offset="1" style="stop-color:#4C246D"/>
		</linearGradient>
		<path style="fill:url(#SVGID_00000102509064494710425090000008748299003592459418_);" d="M242.588,538.318
			c0,0-1.883,3.38-3.705,12.361c-0.329,1.622,0.804,3.174,2.451,3.336c2.914,0.286,7.4,0.655,10.994,0.63
			c1.657-0.011,2.949-1.454,2.75-3.098c-0.398-3.278-1.638-8.657-5.469-12.848L242.588,538.318z"/>
		
			<linearGradient id="SVGID_00000020399720791065389380000008694631983930934960_" gradientUnits="userSpaceOnUse" x1="240.9344" y1="534.278" x2="249.6919" y2="534.278">
			<stop  offset="0" style="stop-color:#C4421B"/>
			<stop  offset="1" style="stop-color:#5C0E16"/>
		</linearGradient>
		<path style="fill:url(#SVGID_00000020399720791065389380000008694631983930934960_);" d="M240.934,528.018l2.22,12.11
			c0,0,2.195,1.633,6.537,0.449l-1.06-13.03L240.934,528.018z"/>
		
			<linearGradient id="SVGID_00000013876847938638521790000004763497838864826553_" gradientUnits="userSpaceOnUse" x1="216.5305" y1="490.7649" x2="380.3708" y2="288.2953">
			<stop  offset="0" style="stop-color:#53D8FF"/>
			<stop  offset="1" style="stop-color:#3840F7"/>
		</linearGradient>
		<path style="fill:url(#SVGID_00000013876847938638521790000004763497838864826553_);" d="M234.937,383.479
			c-8.94,53.956,1.939,133.357,5.609,148.897c0.225,0.951,0.993,1.68,1.957,1.84c1.638,0.272,4.334,0.493,6.993-0.279
			c0.916-0.266,1.559-1.092,1.597-2.045c0.492-12.564-0.394-89.696,7.936-120.179c0.422-1.545,1.366-2.892,2.671-3.82l16.169-11.495
			l1.24-18.58L234.937,383.479z"/>
		<g>
			
				<linearGradient id="SVGID_00000183215690069687415970000004203389327001679507_" gradientUnits="userSpaceOnUse" x1="217.9559" y1="364.8328" x2="377.5562" y2="249.9738">
				<stop  offset="0" style="stop-color:#CB236D"/>
				<stop  offset="1" style="stop-color:#4C246D"/>
			</linearGradient>
			<path style="fill:url(#SVGID_00000183215690069687415970000004203389327001679507_);" d="M291.906,281.243
				c-26.793-0.443-56.355,7.035-56.355,7.035c-7.986,46.6-1.396,100.35-1.396,100.35c20.742,5.439,44.141-3.326,44.141-3.326
				c3.447-19.478,19.533-74.295,19.533-74.295c13.091-1.625,23.875-5.402,32.756-10.395c-6.774-7.852-9.968-17.844-11.354-23.75
				C309.755,279.807,300.169,281.38,291.906,281.243z"/>
			
				<linearGradient id="SVGID_00000117663676443682061590000000833641730312969879_" gradientUnits="userSpaceOnUse" x1="319.228" y1="270.1805" x2="371.0465" y2="270.1805">
				<stop  offset="0" style="stop-color:#C4421B"/>
				<stop  offset="1" style="stop-color:#5C0E16"/>
			</linearGradient>
			<path style="fill:url(#SVGID_00000117663676443682061590000000833641730312969879_);" d="M371.046,241.779
				c-2.632-3.179-5.963-1.675-5.963-1.675c-3.943,16.655-24.616,30.159-45.855,36.76c1.387,5.906,4.58,15.898,11.354,23.75
				C365.831,280.794,371.046,241.779,371.046,241.779z"/>
		</g>
		<g>
			
				<linearGradient id="SVGID_00000011015888622333841890000014296956663588570268_" gradientUnits="userSpaceOnUse" x1="9278.2754" y1="261.4945" x2="9313.0469" y2="340.6078" gradientTransform="matrix(-1 0 0 1 9637.7783 0)">
				<stop  offset="0" style="stop-color:#C4421B"/>
				<stop  offset="1" style="stop-color:#5C0E16"/>
			</linearGradient>
			<path style="fill:url(#SVGID_00000011015888622333841890000014296956663588570268_);" d="M370.408,242.587
				c0.275,0.876-2.914,2.208-4.792-1.372c-0.066-1.716-1.109-9.068-0.084-10.466c5.462-7.446,16.05-16.78,16.05-16.78
				c1.79,1.766,0.315,3.5,0.315,3.5l-5.137,5.351c1.075,1.942,2.385,3.581,2.999,5.929c0.465,1.779,0.181,3.679-0.717,5.298
				c-0.902,1.624-2.132,3.736-3.295,5.389C373.547,242.564,370.408,242.587,370.408,242.587z"/>
			
				<linearGradient id="SVGID_00000013190187806756271280000015955889428987698585_" gradientUnits="userSpaceOnUse" x1="370.7978" y1="235.147" x2="385.3065" y2="212.8397">
				<stop  offset="0" style="stop-color:#C4421B"/>
				<stop  offset="1" style="stop-color:#5C0E16"/>
			</linearGradient>
			<path style="fill:url(#SVGID_00000013190187806756271280000015955889428987698585_);" d="M374.514,226.293l-4.681,3.968
				l-1.469,3.951l4.173,4.63c0,0,1.403-7.839,2.446-9.536C376.026,227.609,375.486,226.789,374.514,226.293z"/>
		</g>
		
			<linearGradient id="SVGID_00000124854387860146871170000009652385638976754610_" gradientUnits="userSpaceOnUse" x1="196.9248" y1="335.6096" x2="356.5254" y2="220.7504">
			<stop  offset="0" style="stop-color:#CB236D"/>
			<stop  offset="1" style="stop-color:#4C246D"/>
		</linearGradient>
		<path style="fill:url(#SVGID_00000124854387860146871170000009652385638976754610_);" d="M245.827,314.221l-10.277-25.943
			c0,0-25.026,17.004-29.142,38.563c4.729,0.348,13.333,1.578,21.755,5.831C230.015,322.492,245.827,314.221,245.827,314.221z"/>
		
			<linearGradient id="SVGID_00000132767448559804428310000017053495587571236535_" gradientUnits="userSpaceOnUse" x1="205.838" y1="343.5802" x2="271.415" y2="343.5802">
			<stop  offset="0" style="stop-color:#C4421B"/>
			<stop  offset="1" style="stop-color:#5C0E16"/>
		</linearGradient>
		<path style="fill:url(#SVGID_00000132767448559804428310000017053495587571236535_);" d="M267.696,338.633
			c0,0-28.098,15.88-37.578,2.32c-1.969-2.816-2.439-5.614-1.954-8.281c-8.422-4.253-17.027-5.482-21.755-5.831
			c-1.241,6.499-0.585,13.412,3.234,20.398c16.607,30.379,61.772-1.679,61.772-1.679L267.696,338.633z"/>
		<g>
			
				<linearGradient id="SVGID_00000123402035104581117140000004094483864350976413_" gradientUnits="userSpaceOnUse" x1="291.2543" y1="296.9571" x2="327.3127" y2="447.2008">
				<stop  offset="0" style="stop-color:#2B3582"/>
				<stop  offset="1" style="stop-color:#150E42"/>
			</linearGradient>
			<path style="fill:url(#SVGID_00000123402035104581117140000004094483864350976413_);" d="M264.32,358.722l15.335-53.552
				c0.174-0.608,0.693-1.051,1.321-1.125c2.778-0.324,10.829-1.234,20.124-2.02c11.197-0.947,24.199-1.715,31.969-1.062
				c1.104,0.093,1.772,1.261,1.281,2.255c-4.418,8.939-22.593,45.301-31.694,57.212c-0.301,0.395-0.768,0.625-1.264,0.621
				l-35.579-0.331C264.777,360.711,264.035,359.717,264.32,358.722z"/>
			
				<linearGradient id="SVGID_00000079477645516403884970000012805886678071687065_" gradientUnits="userSpaceOnUse" x1="313.8304" y1="273.2746" x2="306.1509" y2="306.9975">
				<stop  offset="0" style="stop-color:#53D8FF"/>
				<stop  offset="1" style="stop-color:#3840F7"/>
			</linearGradient>
			<path style="fill:url(#SVGID_00000079477645516403884970000012805886678071687065_);" d="M302.691,297.382l11.118-1.853
				c0.592-0.099,1.077,0.467,0.889,1.037l-1.101,3.335c-0.096,0.29-0.349,0.5-0.652,0.541l-10.699,1.429
				c-0.553,0.074-1.01-0.429-0.882-0.973l0.681-2.911C302.119,297.674,302.373,297.435,302.691,297.382z"/>
			
				<linearGradient id="SVGID_00000168113331791599162060000002309605516146568611_" gradientUnits="userSpaceOnUse" x1="309.8112" y1="287.4203" x2="306.1384" y2="309.457">
				<stop  offset="0" style="stop-color:#53D8FF"/>
				<stop  offset="1" style="stop-color:#3840F7"/>
			</linearGradient>
			<path style="fill:url(#SVGID_00000168113331791599162060000002309605516146568611_);" d="M294.366,306.794l0.916-4.771
				c0.092-0.479,0.487-0.84,0.971-0.889l22.456-2.279c0.756-0.077,1.361,0.616,1.184,1.355l-1.428,5.945
				c-0.114,0.476-0.528,0.819-1.017,0.844l-21.944,1.105C294.79,308.14,294.231,307.497,294.366,306.794z"/>
			
				<linearGradient id="SVGID_00000134968375170455425960000017520374439110864524_" gradientUnits="userSpaceOnUse" x1="266.5462" y1="336.7045" x2="286.976" y2="336.7045">
				<stop  offset="0" style="stop-color:#C4421B"/>
				<stop  offset="1" style="stop-color:#5C0E16"/>
			</linearGradient>
			<path style="fill:url(#SVGID_00000134968375170455425960000017520374439110864524_);" d="M268.025,345.784
				c0,0-2.136-8.784-1.274-11.9c0.862-3.116,2.531-7.123,8.096-6.233c5.565,0.89,12.129,3.235,12.129,3.235s-0.332,4.059-4.561,2.75
				l2.623,2.029c0,0-0.375,3.25-3.947,1.514l2.439,2.691c0,0-1.534,2.669-4.162,0.957
				C276.739,339.115,275.479,346.842,268.025,345.784z"/>
		</g>
		
			<linearGradient id="SVGID_00000067936836787715506310000000859364326341876614_" gradientUnits="userSpaceOnUse" x1="256.192" y1="273.4745" x2="282.1188" y2="273.4745">
			<stop  offset="0" style="stop-color:#C4421B"/>
			<stop  offset="1" style="stop-color:#5C0E16"/>
		</linearGradient>
		<path style="fill:url(#SVGID_00000067936836787715506310000000859364326341876614_);" d="M264.767,259.492l-8.525,24.654
			c-0.141,0.408,0.027,0.861,0.405,1.07c2.324,1.285,10.696,4.999,20.786-1.398c1.051-0.666,1.767-1.753,1.926-2.987l2.76-21.338
			H264.767z"/>
		<g>
			
				<linearGradient id="SVGID_00000092438712510950346080000014702541983727553975_" gradientUnits="userSpaceOnUse" x1="-7118.6465" y1="-3191.0112" x2="-7128.335" y2="-3222.9663" gradientTransform="matrix(0.746 -0.6659 0.6659 0.746 7723.6899 -2102.8323)">
				<stop  offset="0" style="stop-color:#C4421B"/>
				<stop  offset="1" style="stop-color:#5C0E16"/>
			</linearGradient>
			<path style="fill:url(#SVGID_00000092438712510950346080000014702541983727553975_);" d="M283.316,236.661
				c0,0,9.361,17.622,8.161,24.74c-1.2,7.118-12.802,6.607-22.933,0.826l-7.079-19.028L283.316,236.661z"/>
			
				<linearGradient id="SVGID_00000000213492092816074420000005348000366958270628_" gradientUnits="userSpaceOnUse" x1="-5611.8027" y1="-2020.3577" x2="-5603.6982" y2="-1974.1322" gradientTransform="matrix(0.746 -0.6659 0.6659 0.746 5776.4497 -2008.4471)">
				<stop  offset="0" style="stop-color:#2B3582"/>
				<stop  offset="1" style="stop-color:#150E42"/>
			</linearGradient>
			<path style="fill:url(#SVGID_00000000213492092816074420000005348000366958270628_);" d="M268.992,252.883
				c0.412-0.182,0.564-0.686,0.317-1.063c-0.75-1.146-2.156-3.483-2.604-5.53c0,0-1.683-1.078,4.283-2.506
				c5.966-1.428,14.863-3.645,16.733-8.723c1.823-4.951-2.967-17.403-10.61-7.482c-0.291,0.378-0.861,0.386-1.151,0.008
				c-1.253-1.631-4.547-5.016-9.12-2.964c-4.28,1.92-4.762,5.056-4.703,6.637c0.017,0.465-0.398,0.826-0.856,0.739
				c-2.164-0.413-7.356-0.767-9.78,4.559c-1.996,4.387-0.699,6.871,0.483,8.086c0.383,0.393,0.215,1.042-0.31,1.202
				c-1.422,0.435-3.259,1.641-3.075,4.973c0.254,4.606,5.404,4.2,6.87,3.99c0.24-0.034,0.482,0.048,0.645,0.228
				c1.257,1.391,6.921,7.299,13.052,8.011c0.531,0.062,0.942-0.463,0.768-0.968l-2.653-7.712c-0.123-0.358,0.048-0.751,0.394-0.905
				L268.992,252.883z"/>
			
				<linearGradient id="SVGID_00000022541536344531047810000018339451433910263433_" gradientUnits="userSpaceOnUse" x1="-7128.5503" y1="-3191.1599" x2="-7137.2676" y2="-3219.9106" gradientTransform="matrix(0.746 -0.6659 0.6659 0.746 7723.6899 -2102.8323)">
				<stop  offset="0" style="stop-color:#C4421B"/>
				<stop  offset="1" style="stop-color:#5C0E16"/>
			</linearGradient>
			<path style="fill:url(#SVGID_00000022541536344531047810000018339451433910263433_);" d="M270.059,253.978
				c0,0-6.665-4.573-7.152-0.722c-0.487,3.851,6.002,5.578,9.216,4.143L270.059,253.978z"/>
		</g>
	</g>
	<g>
		
			<linearGradient id="SVGID_00000173859692677844865920000008262670752178886562_" gradientUnits="userSpaceOnUse" x1="338.8919" y1="454.3932" x2="114.7587" y2="1038.1248">
			<stop  offset="0" style="stop-color:#53D8FF"/>
			<stop  offset="1" style="stop-color:#3840F7"/>
		</linearGradient>
		<path style="fill:url(#SVGID_00000173859692677844865920000008262670752178886562_);" d="M136.667,749.572h254.956
			c8.13,0,14.721-3.131,14.721-6.993V561.182c0-3.855-6.567-6.982-14.681-6.993l-256.995-0.328c-8.176-0.01-14.804,3.146-14.76,7.03
			l2.039,181.725C121.99,746.464,128.568,749.572,136.667,749.572z"/>
		
			<linearGradient id="SVGID_00000046298951772263754390000009872346150055109790_" gradientUnits="userSpaceOnUse" x1="134.1321" y1="652.6064" x2="391.978" y2="652.6064">
			<stop  offset="0" style="stop-color:#53D8FF"/>
			<stop  offset="1" style="stop-color:#3840F7"/>
		</linearGradient>
		<path style="fill:url(#SVGID_00000046298951772263754390000009872346150055109790_);" d="M149.161,562.813l227.972,0.667
			c8.24,0.024,14.883,3.214,14.845,7.128l-1.591,162.81c-0.038,3.855-6.549,6.991-14.664,7.061l-221.503,1.92
			c-8.273,0.072-15.092-3.065-15.208-6.995l-4.878-165.397C134.016,566.033,140.794,562.788,149.161,562.813z"/>
		<path style="opacity:0.6;fill:#FFFFFF;" d="M158.43,571.934v0.747c0,1.172,2.001,2.123,4.468,2.123H338.55
			c2.468,0,4.469-0.95,4.469-2.123v-0.747c0-1.172-2.001-2.123-4.469-2.123H162.899C160.431,569.811,158.43,570.762,158.43,571.934z
			"/>
		<path style="opacity:0.6;fill:#FFFFFF;" d="M178.029,581.325L178.029,581.325c0.127,1.111,2.038,1.987,4.38,2.007l153.616,1.33
			c2.499,0.022,4.55-0.935,4.55-2.122v-0.173c0-1.159-1.958-2.104-4.398-2.122l-153.616-1.157
			C179.971,579.068,177.888,580.096,178.029,581.325z"/>
		<path style="opacity:0.61;fill:#FFFFFF;" d="M162.336,737.83c-7.159,0-12.447-2.879-12.597-6.876l-4.984-133.159
			c-0.049-1.298,0.467-2.551,1.492-3.625c2.067-2.165,6.241-3.537,10.893-3.58l207.412-1.918c7.182-0.096,12.675,2.885,12.835,6.865
			l5.346,133.892c0.052,1.304-0.465,2.561-1.495,3.639c-2.083,2.181-6.29,3.552-10.977,3.578l-207.773,1.185
			C162.438,737.83,162.387,737.83,162.336,737.83z M148.752,597.644l4.984,133.159c0.041,1.076,3.335,3.026,8.607,3.026
			c0.041,0,0.081,0,0.122,0l207.773-1.185c4.077-0.023,7.01-1.192,8.108-2.342c0.149-0.156,0.399-0.458,0.389-0.716l-5.346-133.891
			c-0.043-1.096-3.443-3.1-8.801-3.025l-207.412,1.918c-4.043,0.037-6.949,1.203-8.036,2.342
			C148.991,597.088,148.743,597.389,148.752,597.644L148.752,597.644z"/>
		<path style="opacity:0.61;fill:#FFFFFF;" d="M375.726,606.068H149.445c-1.104,0-2-0.896-2-2s0.896-2,2-2h226.281
			c1.104,0,2,0.896,2,2S376.83,606.068,375.726,606.068z"/>
	</g>
	<g>
		<g>
			
				<linearGradient id="SVGID_00000073691312612355656640000002220424469462546562_" gradientUnits="userSpaceOnUse" x1="562.658" y1="-85.6054" x2="536.096" y2="-30.8552" gradientTransform="matrix(0.987 0.1608 -0.1608 0.987 -123.2953 540.1338)">
				<stop  offset="0" style="stop-color:#2B3582"/>
				<stop  offset="1" style="stop-color:#150E42"/>
			</linearGradient>
			<path style="fill:url(#SVGID_00000073691312612355656640000002220424469462546562_);" d="M394.79,592.189
				c-0.136,0.257-8.678,6.543-8.678,6.543s1.886,13.495,9.547,18.824c8.422,5.859,20.316-4.826,20.316-4.826
				s9.465,2.25,14.499-17.453c1.155-4.521-5.511-4.903-13.557-4.07C406.542,592.281,394.79,592.189,394.79,592.189z"/>
			
				<linearGradient id="SVGID_00000170267921060364245360000001641378642194627489_" gradientUnits="userSpaceOnUse" x1="406.6393" y1="629.9339" x2="415.094" y2="885.6881">
				<stop  offset="0" style="stop-color:#FDF53F"/>
				<stop  offset="1" style="stop-color:#D93C65"/>
			</linearGradient>
			<path style="fill:url(#SVGID_00000170267921060364245360000001641378642194627489_);" d="M378.824,638.231
				c3.342-2.298,7.036-4.03,10.953-5.096c1.471-0.4,9.415,1.908,14.326,1.796c6.741-0.155,13.602-3.223,19.159-1.838
				c5.519,1.375,10.037,3.172,12.645,5.027c7.807,5.553,12.391,15.907,15.185,26.163c-5.29,5.43-11.946,7.843-11.946,7.843
				l-1.23,49.852l-29.478,15.082l-33.646-16.892l1.205-48.717c0,0-10.684-4.976-11.468-6.785
				C363.744,662.855,369.397,644.712,378.824,638.231z"/>
			
				<linearGradient id="SVGID_00000067942449056046283310000010387775950848607654_" gradientUnits="userSpaceOnUse" x1="357.7102" y1="653.7747" x2="413.7273" y2="789.0888">
				<stop  offset="0" style="stop-color:#F9B776"/>
				<stop  offset="1" style="stop-color:#F47960"/>
			</linearGradient>
			<path style="fill:url(#SVGID_00000067942449056046283310000010387775950848607654_);" d="M365.025,664.447
				c0,0-14.317,39.694,18.332,56.008c6.779-0.901,4.172-12.159,4.172-12.159s-14.186-3.139-9.926-36.252
				C373.681,668.817,365.025,664.447,365.025,664.447z"/>
			
				<linearGradient id="SVGID_00000018212147710815371820000017851584653767709604_" gradientUnits="userSpaceOnUse" x1="-7134.0898" y1="653.4839" x2="-7078.0728" y2="788.798" gradientTransform="matrix(-1 0 0 1 -6677.0742 0)">
				<stop  offset="0" style="stop-color:#F9B776"/>
				<stop  offset="1" style="stop-color:#F47960"/>
			</linearGradient>
			<path style="fill:url(#SVGID_00000018212147710815371820000017851584653767709604_);" d="M450.403,664.447
				c0,0,9.852,41.435-18.332,56.008c-6.779-0.901-4.172-12.159-4.172-12.159s11.433-5.631,9.926-36.252
				C441.747,668.817,450.403,664.447,450.403,664.447z"/>
			
				<linearGradient id="SVGID_00000102525765169343828550000003042202238173979046_" gradientUnits="userSpaceOnUse" x1="407.4633" y1="671.4732" x2="404.5718" y2="788.5813">
				<stop  offset="0" style="stop-color:#2B3582"/>
				<stop  offset="1" style="stop-color:#150E42"/>
			</linearGradient>
			<path style="fill:url(#SVGID_00000102525765169343828550000003042202238173979046_);" d="M430.711,723.243h-47.974
				c-4.584,0-8.334-3.75-8.334-8.334v-26.987c0-4.584,3.75-8.334,8.334-8.334h47.974c4.584,0,8.334,3.75,8.334,8.334v26.987
				C439.045,719.493,435.295,723.243,430.711,723.243z"/>
			<g>
				
					<linearGradient id="SVGID_00000182488520084185301180000011033864137748004793_" gradientUnits="userSpaceOnUse" x1="468.3221" y1="718.6843" x2="498.9335" y2="718.6843" gradientTransform="matrix(1 0.0077 -0.0077 1 -21.6988 19.9322)">
					<stop  offset="0" style="stop-color:#2C759E"/>
					<stop  offset="1" style="stop-color:#051042"/>
				</linearGradient>
				<path style="fill:url(#SVGID_00000182488520084185301180000011033864137748004793_);" d="M467.398,736.185
					c-7.398-1.698-24.496-0.785-24.496-0.785l-0.695,1.883l-1.152,9.361c0,0,16.283,2.935,24.309,2.928
					c0.819-0.001,1.568-0.124,2.252-0.337c0.245-0.22,0.484-0.447,0.71-0.694C471.732,744.823,470.748,739.359,467.398,736.185z"/>
				
					<linearGradient id="SVGID_00000083066540470296859570000010743783021682127249_" gradientUnits="userSpaceOnUse" x1="482.6235" y1="712.6738" x2="455.7457" y2="712.3513" gradientTransform="matrix(1 0.0077 -0.0077 1 -1.6788 26.4772)">
					<stop  offset="0" style="stop-color:#53EAC9"/>
					<stop  offset="0.9964" style="stop-color:#45AED8"/>
				</linearGradient>
				<path style="fill:url(#SVGID_00000083066540470296859570000010743783021682127249_);" d="M468.131,736.371
					c-0.232-0.065-0.477-0.127-0.733-0.186c3.35,3.174,4.333,8.637,0.928,12.356c-0.226,0.247-0.465,0.475-0.71,0.694
					C473.638,747.362,474.35,738.12,468.131,736.371z"/>
				
					<linearGradient id="SVGID_00000134229750318148360110000017732025589435582638_" gradientUnits="userSpaceOnUse" x1="461.2939" y1="687.0291" x2="428.9816" y2="774.5505">
					<stop  offset="0" style="stop-color:#F9B776"/>
					<stop  offset="1" style="stop-color:#F47960"/>
				</linearGradient>
				<path style="fill:url(#SVGID_00000134229750318148360110000017732025589435582638_);" d="M437.99,734.873l2.895,0.123
					c1.555,0.067,3.021,0.824,4.068,2.103c1.046,1.279,1.584,2.97,1.492,4.694c-0.073,1.374-0.637,2.659-1.567,3.571
					c-0.93,0.912-2.149,1.375-3.388,1.287l-4.43-0.315L437.99,734.873z"/>
				<g>
					
						<linearGradient id="SVGID_00000137092210041664473210000010370860185133427350_" gradientUnits="userSpaceOnUse" x1="482.689" y1="711.5239" x2="455.806" y2="711.2014" gradientTransform="matrix(1 0.0077 -0.0077 1 -1.6788 26.4772)">
						<stop  offset="0" style="stop-color:#53EAC9"/>
						<stop  offset="0.9964" style="stop-color:#45AED8"/>
					</linearGradient>
					<path style="fill:url(#SVGID_00000137092210041664473210000010370860185133427350_);" d="M453.496,744.817
						c-0.187-0.002-0.357-0.139-0.41-0.349c-0.74-2.96-3.614-5.937-3.643-5.966c-0.174-0.178-0.184-0.479-0.023-0.672
						c0.161-0.193,0.432-0.204,0.606-0.026c0.125,0.129,3.081,3.188,3.887,6.41c0.063,0.253-0.07,0.515-0.299,0.586
						C453.575,744.812,453.535,744.817,453.496,744.817z"/>
					
						<linearGradient id="SVGID_00000173152487409893036920000016490353974260550847_" gradientUnits="userSpaceOnUse" x1="482.5779" y1="711.3412" x2="455.8224" y2="711.0201" gradientTransform="matrix(1 0.0077 -0.0077 1 -1.6788 26.4772)">
						<stop  offset="0" style="stop-color:#53EAC9"/>
						<stop  offset="0.9964" style="stop-color:#45AED8"/>
					</linearGradient>
					<path style="fill:url(#SVGID_00000173152487409893036920000016490353974260550847_);" d="M449.583,744.575
						c-0.041,0-0.083-0.008-0.125-0.022c-0.226-0.078-0.352-0.345-0.282-0.596c0.969-3.443,4.616-6.195,4.771-6.311
						c0.196-0.146,0.463-0.089,0.595,0.129c0.132,0.218,0.08,0.513-0.116,0.66c-0.036,0.027-3.553,2.683-4.431,5.805
						C449.938,744.446,449.767,744.577,449.583,744.575z"/>
					
						<linearGradient id="SVGID_00000002361617123450506490000010278732966168401049_" gradientUnits="userSpaceOnUse" x1="521.5594" y1="530.1791" x2="494.4993" y2="529.8544" gradientTransform="matrix(0.9984 0.0564 -0.0564 0.9984 -15.2515 183.9575)">
						<stop  offset="0" style="stop-color:#53EAC9"/>
						<stop  offset="0.9964" style="stop-color:#45AED8"/>
					</linearGradient>
					<path style="fill:url(#SVGID_00000002361617123450506490000010278732966168401049_);" d="M461.352,745.279
						c-0.195-0.002-0.37-0.151-0.415-0.371c-0.609-2.996-3.349-6.125-3.376-6.156c-0.166-0.188-0.163-0.489,0.006-0.673
						c0.169-0.184,0.441-0.181,0.606,0.007c0.12,0.135,2.937,3.351,3.601,6.613c0.052,0.256-0.093,0.511-0.324,0.569
						C461.417,745.275,461.384,745.279,461.352,745.279z"/>
					
						<linearGradient id="SVGID_00000064313133105455929000000002462000454903855540_" gradientUnits="userSpaceOnUse" x1="521.3039" y1="529.9963" x2="494.6812" y2="529.6768" gradientTransform="matrix(0.9984 0.0564 -0.0564 0.9984 -15.2515 183.9575)">
						<stop  offset="0" style="stop-color:#53EAC9"/>
						<stop  offset="0.9964" style="stop-color:#45AED8"/>
					</linearGradient>
					<path style="fill:url(#SVGID_00000064313133105455929000000002462000454903855540_);" d="M457.454,744.826
						c-0.048,0-0.097-0.01-0.144-0.029c-0.223-0.091-0.337-0.364-0.255-0.611c1.119-3.387,4.883-5.938,5.043-6.045
						c0.202-0.136,0.466-0.064,0.589,0.161c0.122,0.225,0.058,0.517-0.145,0.653c-0.036,0.025-3.666,2.488-4.681,5.558
						C457.796,744.708,457.63,744.828,457.454,744.826z"/>
				</g>
			</g>
			<g>
				
					<linearGradient id="SVGID_00000151544555590162424110000000200136636809038722_" gradientUnits="userSpaceOnUse" x1="-6086.6343" y1="680.2254" x2="-6056.0103" y2="680.2254" gradientTransform="matrix(-0.9998 -0.02 -0.02 0.9998 -5705.0151 -59.7506)">
					<stop  offset="0" style="stop-color:#2C759E"/>
					<stop  offset="1" style="stop-color:#051042"/>
				</linearGradient>
				<path style="fill:url(#SVGID_00000151544555590162424110000000200136636809038722_);" d="M340.636,735.285
					c7.437-1.471,24.506-0.033,24.506-0.033l0.648,1.904l0.918,9.393c0,0-16.35,2.434-24.373,2.181
					c-0.819-0.026-1.564-0.172-2.243-0.405c-0.239-0.227-0.473-0.462-0.692-0.716C336.089,743.786,337.208,738.355,340.636,735.285z
					"/>
				
					<linearGradient id="SVGID_00000044152099656923703980000013360015597480673446_" gradientUnits="userSpaceOnUse" x1="-7700.0894" y1="664.1023" x2="-7726.8794" y2="663.7808" gradientTransform="matrix(-0.9998 -0.02 -0.02 0.9998 -7352.8452 -76.2306)">
					<stop  offset="0" style="stop-color:#53EAC9"/>
					<stop  offset="0.9964" style="stop-color:#45AED8"/>
				</linearGradient>
				<path style="fill:url(#SVGID_00000044152099656923703980000013360015597480673446_);" d="M339.898,735.448
					c0.233-0.058,0.48-0.112,0.738-0.163c-3.428,3.07-4.547,8.501-1.236,12.323c0.22,0.254,0.453,0.489,0.692,0.716
					C334.12,746.266,333.638,737.006,339.898,735.448z"/>
				
					<linearGradient id="SVGID_00000091697660006686261780000007589707196213548724_" gradientUnits="userSpaceOnUse" x1="396.5556" y1="660.6539" x2="364.226" y2="748.222">
					<stop  offset="0" style="stop-color:#F9B776"/>
					<stop  offset="1" style="stop-color:#F47960"/>
				</linearGradient>
				<path style="fill:url(#SVGID_00000091697660006686261780000007589707196213548724_);" d="M370.066,734.875l-2.897,0.035
					c-1.556,0.019-3.041,0.731-4.118,1.978c-1.077,1.246-1.657,2.92-1.609,4.646c0.039,1.376,0.57,2.678,1.477,3.618
					c0.907,0.94,2.114,1.44,3.354,1.39l4.436-0.179L370.066,734.875z"/>
				<g>
					
						<linearGradient id="SVGID_00000035489281655455260470000000092136674145058959_" gradientUnits="userSpaceOnUse" x1="-7700.0972" y1="662.999" x2="-7726.8848" y2="662.6776" gradientTransform="matrix(-0.9998 -0.02 -0.02 0.9998 -7352.8452 -76.2306)">
						<stop  offset="0" style="stop-color:#53EAC9"/>
						<stop  offset="0.9964" style="stop-color:#45AED8"/>
					</linearGradient>
					<path style="fill:url(#SVGID_00000035489281655455260470000000092136674145058959_);" d="M354.317,744.339
						c0.187,0.004,0.361-0.128,0.418-0.336c0.814-2.936,3.761-5.823,3.79-5.852c0.178-0.173,0.196-0.474,0.04-0.671
						c-0.156-0.198-0.427-0.218-0.605-0.045c-0.129,0.125-3.159,3.092-4.046,6.289c-0.07,0.251,0.057,0.517,0.284,0.595
						C354.239,744.332,354.278,744.339,354.317,744.339z"/>
					
						<linearGradient id="SVGID_00000078737786987190913720000013378322242182494889_" gradientUnits="userSpaceOnUse" x1="-7700.0483" y1="662.8174" x2="-7726.8887" y2="662.4953" gradientTransform="matrix(-0.9998 -0.02 -0.02 0.9998 -7352.8452 -76.2306)">
						<stop  offset="0" style="stop-color:#53EAC9"/>
						<stop  offset="0.9964" style="stop-color:#45AED8"/>
					</linearGradient>
					<path style="fill:url(#SVGID_00000078737786987190913720000013378322242182494889_);" d="M358.235,744.218
						c0.041,0.001,0.083-0.005,0.125-0.018c0.228-0.071,0.361-0.334,0.297-0.587c-0.882-3.471-4.46-6.334-4.612-6.455
						c-0.193-0.152-0.461-0.103-0.598,0.111c-0.138,0.214-0.093,0.511,0.1,0.664c0.035,0.027,3.484,2.791,4.284,5.938
						C357.883,744.078,358.051,744.214,358.235,744.218z"/>
					
						<linearGradient id="SVGID_00000165940940322011024530000010199057249273385151_" gradientUnits="userSpaceOnUse" x1="-7653.5317" y1="879.8365" x2="-7680.4902" y2="879.5131" gradientTransform="matrix(-0.9996 0.0288 0.0288 0.9996 -7343.4497 82.534)">
						<stop  offset="0" style="stop-color:#53EAC9"/>
						<stop  offset="0.9964" style="stop-color:#45AED8"/>
					</linearGradient>
					<path style="fill:url(#SVGID_00000165940940322011024530000010199057249273385151_);" d="M346.453,744.56
						c0.195,0.004,0.374-0.14,0.424-0.358c0.684-2.976,3.5-6.02,3.528-6.05c0.17-0.182,0.175-0.484,0.01-0.673
						c-0.164-0.189-0.436-0.195-0.606-0.012c-0.123,0.132-3.02,3.259-3.764,6.5c-0.059,0.255,0.08,0.514,0.31,0.579
						C346.388,744.555,346.421,744.56,346.453,744.56z"/>
					
						<linearGradient id="SVGID_00000083079733152093819870000015099134959040412575_" gradientUnits="userSpaceOnUse" x1="-7653.6846" y1="879.6542" x2="-7680.3799" y2="879.3338" gradientTransform="matrix(-0.9996 0.0288 0.0288 0.9996 -7343.4497 82.534)">
						<stop  offset="0" style="stop-color:#53EAC9"/>
						<stop  offset="0.9964" style="stop-color:#45AED8"/>
					</linearGradient>
					<path style="fill:url(#SVGID_00000083079733152093819870000015099134959040412575_);" d="M350.361,744.227
						c0.048,0.001,0.097-0.007,0.145-0.025c0.225-0.084,0.346-0.353,0.27-0.603c-1.034-3.42-4.733-6.086-4.89-6.197
						c-0.199-0.142-0.464-0.078-0.593,0.143c-0.128,0.221-0.07,0.516,0.129,0.658c0.036,0.026,3.603,2.6,4.54,5.7
						C350.022,744.099,350.184,744.224,350.361,744.227z"/>
				</g>
			</g>
			
				<linearGradient id="SVGID_00000050632768043850996960000004692118757982797750_" gradientUnits="userSpaceOnUse" x1="474.9897" y1="685.3396" x2="390.9893" y2="748.4404">
				<stop  offset="0" style="stop-color:#7C27DD"/>
				<stop  offset="1" style="stop-color:#2B41D9"/>
			</linearGradient>
			<path style="fill:url(#SVGID_00000050632768043850996960000004692118757982797750_);" d="M469.467,706.839
				c-3.355-7.721-11.56-8.975-18.544-5.365c-0.121,0.159-44.351,22.828-83.357,32.763c1.117,3.58,1.691,7.389,1.816,11.133
				c0.023,0.834,0.009,1.657-0.04,2.469c29.911-1.536,62.374-11.512,90.27-20.278C468.262,724.771,473.186,715.397,469.467,706.839z
				"/>
			
				<linearGradient id="SVGID_00000076594128677440014070000011422585145626647949_" gradientUnits="userSpaceOnUse" x1="399.0277" y1="741.9349" x2="377.0123" y2="685.7957">
				<stop  offset="0" style="stop-color:#7C27DD"/>
				<stop  offset="1" style="stop-color:#2B41D9"/>
			</linearGradient>
			<path style="fill:url(#SVGID_00000076594128677440014070000011422585145626647949_);" d="M438.202,745.957
				c-0.117-4.316,0.722-8.333,2.517-12.052c0.051-0.17,0.113-0.334,0.167-0.502c-2.227-0.69-5.105-1.625-8.885-2.907
				c-27.698-9.479-48.828-19.05-68.994-30.068c-7.834-4.28-16.742-1.412-19.25,7.858c-2.239,8.275,2.677,15.341,10.139,17.824
				c22.323,7.428,10.7,5.365,17.991,7.711c19.58,6.055,43.944,11.57,66.361,13.075C438.232,746.583,438.213,746.269,438.202,745.957
				z"/>
			
				<linearGradient id="SVGID_00000161609938171508424320000006000217474042185367_" gradientUnits="userSpaceOnUse" x1="406.8853" y1="664.9472" x2="406.1399" y2="600.098">
				<stop  offset="0" style="stop-color:#F9B776"/>
				<stop  offset="1" style="stop-color:#F47960"/>
			</linearGradient>
			<path style="fill:url(#SVGID_00000161609938171508424320000006000217474042185367_);" d="M389.777,633.135
				c0,0,2.979,12.909,17.441,12.641c14.73-0.268,16.043-12.683,16.043-12.683l-9.622-2.059l-0.804-10.721l-14.474,1.072
				l-0.268,10.185L389.777,633.135z"/>
			
				<linearGradient id="SVGID_00000071531555666652192040000013458059520928613780_" gradientUnits="userSpaceOnUse" x1="535.423" y1="2.7555" x2="537.7449" y2="-53.6747" gradientTransform="matrix(0.987 0.1608 -0.1608 0.987 -123.2953 540.1338)">
				<stop  offset="0" style="stop-color:#F9B776"/>
				<stop  offset="1" style="stop-color:#F47960"/>
			</linearGradient>
			<path style="fill:url(#SVGID_00000071531555666652192040000013458059520928613780_);" d="M400.393,589.935
				c0,0-16.587,32.13,3.089,39.925c13.879,5.498,22.58-21.337,19.985-28.605c-4.013-11.238-6.656-9.905-6.656-9.905L400.393,589.935
				z"/>
			
				<linearGradient id="SVGID_00000171715779392819800890000010810684421715188659_" gradientUnits="userSpaceOnUse" x1="562.8525" y1="-93.3108" x2="532.9647" y2="-31.7051" gradientTransform="matrix(0.987 0.1608 -0.1608 0.987 -123.2953 540.1338)">
				<stop  offset="0" style="stop-color:#2B3582"/>
				<stop  offset="1" style="stop-color:#150E42"/>
			</linearGradient>
			<path style="fill:url(#SVGID_00000171715779392819800890000010810684421715188659_);" d="M427.459,587.012
				c8.194,2.252,1.191,20.024-11.146,15.821c-12.337-4.203-17.185-4.141-19.107-0.754c-1.923,3.388-2.335,15.418-6.507,9.472
				c-4.573-6.519-7.123-19.604-1.516-23.822c5.011-3.77,6.181-9.615,12.191-9.412c7.978,0.269,14.148-3.267,17.749-0.717
				C423.258,580.529,421.429,585.355,427.459,587.012z"/>
			
				<linearGradient id="SVGID_00000104707625804009610800000003572467972996050363_" gradientUnits="userSpaceOnUse" x1="101.6856" y1="1055.2037" x2="105.3241" y2="966.7728" gradientTransform="matrix(0.9911 -0.1329 0.1329 0.9911 156.1746 -396.0011)">
				<stop  offset="0" style="stop-color:#F9B776"/>
				<stop  offset="1" style="stop-color:#F47960"/>
			</linearGradient>
			<path style="fill:url(#SVGID_00000104707625804009610800000003572467972996050363_);" d="M396.447,604.842
				c0,0-3.538-3.806-4.104,0.781c-0.566,4.588,1.252,10.496,3.381,7.257C397.854,609.642,396.447,604.842,396.447,604.842z"/>
		</g>
		
			<linearGradient id="SVGID_00000003802957163302731420000000680786177923522440_" gradientUnits="userSpaceOnUse" x1="407.1402" y1="662.2396" x2="405.2578" y2="752.3254">
			<stop  offset="0" style="stop-color:#53D8FF"/>
			<stop  offset="1" style="stop-color:#3840F7"/>
		</linearGradient>
		<path style="fill:url(#SVGID_00000003802957163302731420000000680786177923522440_);" d="M410.537,691.41
			c0.343,2.316-0.898,4.419-3.214,4.761c-2.316,0.343-4.471-1.257-4.814-3.573c-0.343-2.316,0.718-4.616,3.034-4.959
			C407.858,687.296,410.194,689.094,410.537,691.41z"/>
	</g>
</g>
</svg>
