<?xml version="1.0" encoding="utf-8"?>
<!-- Generator: Adobe Illustrator 27.5.0, SVG Export Plug-In . SVG Version: 6.00 Build 0)  -->
<svg version="1.1" xmlns="http://www.w3.org/2000/svg" xmlns:xlink="http://www.w3.org/1999/xlink" x="0px" y="0px"
	 viewBox="0 0 1870 1122" style="enable-background:new 0 0 1870 1122;" xml:space="preserve">
<g id="BG">
	<rect style="fill:#FFFFFF;" width="1870" height="1122"/>
</g>
<g id="Objects">
	<g>
		<path style="fill:#3F6FA4;" d="M307.026,174.857c0,21.175-10.768,39.783-26.921,50.691l9.977,22.298h-23.913l-6.176-13.636
			c-4.117,0.963-8.551,1.444-12.985,1.444c-33.098,0-60.02-27.27-60.02-60.797s26.923-60.798,60.02-60.798
			S307.026,141.33,307.026,174.857z M269.97,202.929c7.918-6.738,12.987-16.844,12.987-28.073c0-20.052-16.153-36.415-35.949-36.415
			c-19.954,0-36.107,16.363-36.107,36.415c0,20.212,16.153,36.575,36.107,36.575c0.949,0,1.9-0.161,2.85-0.161l-5.225-11.711h23.912
			L269.97,202.929z"/>
		<path style="fill:#3F6FA4;" d="M367.844,235.654c-25.339,0-45.768-20.694-45.768-46.36v-75.235h23.913v75.235
			c0,12.192,9.819,22.138,21.855,22.138c12.036,0,21.855-9.946,21.855-22.138v-75.235h23.912v75.235
			C413.61,214.96,393.181,235.654,367.844,235.654z"/>
		<path style="fill:#3F6FA4;" d="M507.527,235.654l-12.194-34.008h-36.9l-12.194,34.008h-25.496l43.391-121.596h25.497
			l43.391,121.596H507.527z M476.803,149.832l-9.659,27.431h19.478L476.803,149.832z"/>
		<path style="fill:#3F6FA4;" d="M544.908,114.059h23.913v97.212h43.707v24.383h-67.621V114.059z"/>
		<path style="fill:#3F6FA4;" d="M627.578,114.059h23.913v121.596h-23.913V114.059z"/>
		<path style="fill:#3F6FA4;" d="M724.338,138.442v97.212h-24.072v-97.212h-33.732v-24.383h91.534v24.383H724.338z"/>
		<path style="fill:#3F6FA4;" d="M804.476,177.744l-31.357-63.685h26.763l16.629,33.688l16.47-33.688h26.763l-31.355,63.685v57.91
			h-23.913V177.744z"/>
		<path style="fill:#3F6FA4;" d="M1027.613,130.902l-16.944,17.325c-6.334-6.095-15.045-9.786-24.388-9.786
			c-19.954,0-36.107,16.363-36.107,36.415c0,20.212,16.153,36.414,36.107,36.414c9.342,0,18.054-3.689,24.388-9.625l16.944,17.164
			c-10.768,10.427-25.339,16.844-41.332,16.844c-33.099,0-60.02-27.27-60.02-60.797s26.921-60.798,60.02-60.798
			C1002.274,114.059,1016.845,120.475,1027.613,130.902z"/>
		<path style="fill:#3F6FA4;" d="M1154.786,174.857c0,33.527-26.921,60.797-60.019,60.797c-33.099,0-60.02-27.27-60.02-60.797
			s26.921-60.798,60.02-60.798C1127.864,114.059,1154.786,141.33,1154.786,174.857z M1058.66,174.857
			c0,20.212,16.153,36.575,36.107,36.575c19.794,0,35.947-16.363,35.947-36.575c0-20.052-16.153-36.415-35.947-36.415
			C1074.813,138.442,1058.66,154.805,1058.66,174.857z"/>
		<path style="fill:#3F6FA4;" d="M1245.85,114.059h23.913v121.596h-27.871l-48.143-81.01v81.01h-23.913V114.059h28.031
			l47.983,81.171V114.059z"/>
		<path style="fill:#3F6FA4;" d="M1342.615,138.442v97.212h-24.071v-97.212h-33.732v-24.383h91.534v24.383H1342.615z"/>
		<path style="fill:#3F6FA4;" d="M1391.396,114.059h35.949c19.954,0,35.947,16.363,35.947,36.576c0,13.795-7.6,25.987-18.845,32.083
			l23.597,52.937h-26.288l-21.696-48.606h-4.75v48.606h-23.913V114.059z M1427.344,162.665c6.651,0,12.036-5.455,12.036-12.031
			c0-6.738-5.385-12.192-12.036-12.192h-12.036v24.223H1427.344z"/>
		<path style="fill:#3F6FA4;" d="M1592.837,174.857c0,33.527-26.921,60.797-60.019,60.797c-33.099,0-60.021-27.27-60.021-60.797
			s26.921-60.798,60.021-60.798C1565.915,114.059,1592.837,141.33,1592.837,174.857z M1496.71,174.857
			c0,20.212,16.153,36.575,36.107,36.575c19.794,0,35.947-16.363,35.947-36.575c0-20.052-16.153-36.415-35.947-36.415
			C1512.864,138.442,1496.71,154.805,1496.71,174.857z"/>
		<path style="fill:#3F6FA4;" d="M1607.887,114.059h23.913v97.212h43.708v24.383h-67.621V114.059z"/>
	</g>
	<g>
		<path style="fill:#3F6FA4;" d="M357.274,479.439l-27.592-30.357c-0.714-0.786-1.953-0.778-2.657,0.017l-0.784,0.885
			c-0.181,0.205-0.362,0.411-0.546,0.611c-1.066,1.15-2.029,2.112-2.947,2.942c-0.852,0.773-1.815,1.568-3.033,2.504
			c-0.219,0.169-0.447,0.335-0.678,0.503l-0.751,0.543c-0.862,0.624-0.99,1.859-0.274,2.647l27.493,30.245
			c0.553,0.571,1.393,0.873,2.426,0.873c0.267,0,0.511-0.019,0.696-0.042c1.795-0.213,3.795-1.187,5.455-2.646l0.29-0.248
			C357.428,485.132,358.73,481.329,357.274,479.439z M347.93,488.405L347.93,488.405L347.93,488.405L347.93,488.405z"/>
		<path style="fill:#3F6FA4;" d="M325.277,443.148c13.507-17.936,12.352-43.046-2.747-59.704
			c-8.875-9.792-21.566-15.408-34.818-15.408c-1.836,0-3.696,0.11-5.53,0.327c-9.706,1.155-18.674,5.245-25.932,11.827
			c-9.288,8.411-14.743,19.941-15.359,32.464c-0.616,12.522,3.681,24.532,12.099,33.818c8.874,9.788,21.559,15.402,34.803,15.402
			c1.835,0,3.694-0.11,5.527-0.327c6.874-0.816,13.332-3.079,19.191-6.725c2.423-1.505,4.698-3.22,6.76-5.092
			C321.446,447.764,323.467,445.549,325.277,443.148z M316.684,416.381c-0.377,7.648-3.708,14.691-9.38,19.83
			c-4.436,4.019-9.912,6.515-15.836,7.219c-9.196,1.089-18.468-2.402-24.641-9.214c-10.609-11.707-9.716-29.865,1.99-40.474
			c4.44-4.022,9.918-6.519,15.841-7.223c1.116-0.132,2.252-0.2,3.376-0.2c8.095,0,15.843,3.431,21.261,9.413
			C314.434,401.402,317.058,408.735,316.684,416.381z"/>
	</g>
	<g>
		<path style="fill:#3F6FA4;" d="M460.315,910.399c0.197,0.203,0.465,0.312,0.737,0.312c0.129,0,0.26-0.025,0.384-0.075
			c0.387-0.157,0.639-0.533,0.639-0.951v-41.373c0-0.566-0.458-1.025-1.025-1.025c-11.061,0-21.534,4.246-29.492,11.953
			c-0.407,0.394-0.417,1.043-0.023,1.45L460.315,910.399z"/>
		<path style="fill:#3F6FA4;" d="M460.248,921.01c0.028-0.298-0.077-0.593-0.284-0.808l-28.779-29.709
			c-0.189-0.196-0.449-0.307-0.72-0.312c-0.277,0.013-0.535,0.099-0.731,0.289c-8.322,8.064-12.905,18.877-12.905,30.446
			c0,8.836,2.701,17.312,7.815,24.511c0.2,0.282,0.516,0.432,0.837,0.432c0.204,0,0.412-0.061,0.592-0.189l33.747-23.918
			C460.065,921.579,460.221,921.308,460.248,921.01z M427.629,938.752c-3.667-5.447-5.601-11.782-5.601-18.375
			c0-8.72,3.347-16.887,9.444-23.092l22.252,22.972L427.629,938.752z"/>
		<path style="fill:#3F6FA4;" d="M511.593,922.691c-0.005-1.806-0.134-3.68-0.384-5.57c-0.091-0.692-0.199-1.378-0.323-2.058
			c-0.267-1.47-0.611-2.928-1.022-4.335c-0.177-0.61-0.368-1.213-0.573-1.814c-0.447-1.308-0.957-2.599-1.518-3.838
			c-0.246-0.545-0.501-1.083-0.769-1.617c-0.596-1.185-1.244-2.341-1.924-3.432c-0.304-0.487-0.611-0.974-0.935-1.448
			c-0.797-1.168-1.658-2.309-2.56-3.392c-0.359-0.43-0.728-0.856-1.105-1.276c-0.816-0.905-1.711-1.813-2.661-2.699
			c-0.411-0.381-0.829-0.754-1.256-1.122c-0.956-0.825-1.964-1.62-2.992-2.362c-0.463-0.333-0.93-0.66-1.406-0.975
			c-1.115-0.738-2.242-1.415-3.349-2.011c-0.517-0.28-1.042-0.549-1.574-0.808c-1.356-0.66-2.763-1.257-4.184-1.771
			c-0.588-0.212-1.18-0.416-1.777-0.602c-1.386-0.434-2.819-0.805-4.261-1.1c-0.669-0.136-1.342-0.256-2.021-0.363
			c-1.573-0.241-3.218-0.399-4.893-0.464c-0.576-0.023-1.152-0.044-1.734-0.044c-1.018,0-1.847,0.829-1.847,1.847v40.42
			l-32.966,23.365c-0.398,0.28-0.674,0.716-0.757,1.2c-0.079,0.477,0.035,0.979,0.319,1.381l0.159,0.209
			c0.702,0.978,1.478,1.955,2.372,2.989c0.368,0.426,0.738,0.849,1.122,1.258c0.842,0.904,1.753,1.796,2.705,2.65
			c0.419,0.377,0.844,0.744,1.279,1.106c1.188,0.985,2.296,1.825,3.388,2.563c0.423,0.286,0.858,0.556,1.294,0.825l0.163,0.101
			c1.122,0.697,2.277,1.345,3.434,1.927c0.533,0.265,1.066,0.529,1.607,0.772c1.192,0.537,2.452,1.03,3.853,1.508
			c0.598,0.203,1.199,0.397,1.804,0.573c1.518,0.444,2.931,0.785,4.32,1.04c0.684,0.125,1.376,0.224,2.063,0.314
			c1.876,0.252,3.749,0.383,5.53,0.385c0.015,0.002,0.143,0.005,0.158,0.005c0.779,0,1.553-0.022,2.323-0.064
			c2.05-0.109,4.113-0.368,6.129-0.772c0.999-0.198,2.025-0.444,3.138-0.753c3.146-0.878,6.17-2.099,8.99-3.631
			c2.824-1.537,5.506-3.417,7.968-5.589c1.363-1.202,2.663-2.502,3.864-3.864c2.175-2.467,4.055-5.149,5.588-7.97
			c1.53-2.812,2.752-5.836,3.632-8.988c0.308-1.109,0.555-2.135,0.754-3.138c0.403-2.027,0.663-4.088,0.772-6.13
			c0.04-0.769,0.063-1.542,0.063-2.321C511.596,922.808,511.593,922.692,511.593,922.691z"/>
	</g>
	<g>
		<path style="fill:#3F6FA4;" d="M886.735,565.516c-1.109,1.603-2.935,2.621-4.891,2.722c-1.909,0.111-3.872-0.729-5.132-2.186
			c-18.8-21.73-41.604-34.59-67.779-38.224c-2.86-0.399-5.801-0.688-8.74-0.861c-0.749-0.042-1.414,0.374-1.706,1.044
			c-0.294,0.672-0.138,1.456,0.391,1.963c18.632,17.911,53.282,56.422,76.001,113.102c0.241,0.604,0.797,1.023,1.443,1.09
			c0.06,0.006,0.121,0.009,0.181,0.009c0.581,0,1.129-0.289,1.454-0.778c39.376-58.964,92.069-133.139,150.523-183.778
			c0.65-0.564,0.794-1.518,0.338-2.249c-0.456-0.729-1.371-1.019-2.17-0.682C937.742,494.544,891.694,558.363,886.735,565.516z"/>
		<path style="fill:#3F6FA4;" d="M1059.606,776.79l-74.092-103.266c-0.289-0.404-0.738-0.666-1.231-0.72
			c-0.5-0.055-0.989,0.105-1.358,0.436c-0.447,0.4-0.899,0.796-1.351,1.189c-0.464,0.403-0.928,0.807-1.392,1.223l-0.895,0.809
			c-0.658,0.591-1.315,1.185-1.998,1.764c-3.719,3.183-7.068,5.834-10.24,8.1c-2.955,2.117-6.243,4.246-10.356,6.705
			c-0.731,0.443-1.478,0.863-2.227,1.285l-0.977,0.549c-0.5,0.284-0.992,0.573-1.484,0.862c-0.413,0.244-0.827,0.486-1.243,0.723
			c-0.43,0.246-0.736,0.663-0.842,1.147c-0.105,0.484-0.001,0.99,0.288,1.392l74.011,103.183c1.041,1.449,2.928,2.37,5.461,2.666
			c0.577,0.066,1.185,0.1,1.805,0.1c0.002,0,0.034,0,0.036,0c4.978-0.015,11.061-2.171,16.25-5.756l0.773-0.519
			C1058.943,791.195,1062.72,781.143,1059.606,776.79z M1031.487,803.188L1031.487,803.188v0.001V803.188z"/>
		<path style="fill:#3F6FA4;" d="M984.215,658.66c21.169-22.227,34.308-50.128,37.997-80.684
			c3.663-30.339-2.309-60.389-17.268-86.903c-0.265-0.47-0.733-0.792-1.269-0.871c-0.541-0.079-1.076,0.095-1.466,0.468
			c-7.692,7.371-15.604,15.668-23.514,24.659c-0.456,0.518-0.565,1.256-0.278,1.884c8.728,19.079,11.508,40.203,8.043,61.088
			c-4.634,27.866-19.838,52.26-42.809,68.684c-17.961,12.839-39.094,19.658-61.114,19.718h-0.281c-4.057,0-8.152-0.237-12.174-0.704
			c-29.652-3.442-56.594-19.312-73.919-43.54c-33.901-47.419-22.907-113.582,24.507-147.487
			c17.976-12.847,39.113-19.67,61.128-19.731h0.281c4.057,0,8.152,0.237,12.174,0.704c24.248,2.814,46.957,14.04,63.945,31.611
			c0.583,0.601,1.513,0.709,2.216,0.247c9.11-5.969,18.689-11.446,28.471-16.28c0.484-0.239,0.83-0.687,0.938-1.215
			c0.109-0.529-0.032-1.076-0.381-1.487c-23.414-27.498-56.074-44.935-91.964-49.1c-5.403-0.628-10.901-0.946-16.34-0.946
			l-0.402,0.001c-29.579,0.08-57.968,9.248-82.097,26.512c-30.859,22.048-51.283,54.809-57.507,92.245
			c-6.22,37.435,2.51,75.044,24.579,105.901c23.264,32.526,59.448,53.831,99.271,58.453c5.406,0.628,10.909,0.945,16.353,0.945
			h0.376c20.952-0.057,41.154-4.606,60.046-13.522c7.82-3.688,15.258-8.048,22.105-12.955
			C971.068,671.216,977.916,665.263,984.215,658.66z"/>
	</g>
	<path style="fill:#DAAA49;" d="M1401.786,976.774c-70.729,0-128.272-57.543-128.272-128.274
		c0-70.729,57.543-128.272,128.272-128.272c70.731,0,128.274,57.543,128.274,128.272
		C1530.06,919.231,1472.517,976.774,1401.786,976.774z M1401.786,745.377c-56.863,0-103.123,46.261-103.123,103.123
		s46.261,103.125,103.123,103.125c56.863,0,103.125-46.262,103.125-103.125S1458.649,745.377,1401.786,745.377z"/>
	<path style="fill:#89BBE1;" d="M1583.005,477.907c-56.241,0-101.995-45.755-101.995-101.996
		c0-56.24,45.754-101.995,101.995-101.995S1685,319.671,1685,375.911C1685,432.152,1639.246,477.907,1583.005,477.907z
		 M1583.005,299.065c-42.373,0-76.846,34.473-76.846,76.846c0,42.373,34.474,76.847,76.846,76.847s76.846-34.474,76.846-76.847
		C1659.851,333.538,1625.377,299.065,1583.005,299.065z"/>
	<path style="fill:#8BC3B6;" d="M302.929,550.81C237.902,550.81,185,497.908,185,432.881c0-65.026,52.902-117.929,117.929-117.929
		c65.025,0,117.928,52.902,117.928,117.929C420.857,497.908,367.954,550.81,302.929,550.81z M302.929,340.101
		c-51.159,0-92.78,41.621-92.78,92.78s41.621,92.78,92.78,92.78s92.779-41.621,92.779-92.78S354.087,340.101,302.929,340.101z"/>
	<path style="fill:#D16E52;" d="M465.834,1007.941c-47.923,0-86.911-38.988-86.911-86.911c0-47.923,38.988-86.911,86.911-86.911
		s86.911,38.988,86.911,86.911C552.745,968.953,513.757,1007.941,465.834,1007.941z M465.834,859.268
		c-34.056,0-61.762,27.706-61.762,61.762c0,34.056,27.706,61.762,61.762,61.762c34.056,0,61.762-27.706,61.762-61.762
		C527.596,886.974,499.89,859.268,465.834,859.268z"/>
	<path style="fill:#DAAA49;" d="M568.871,762.581c-23.578,0-42.761-19.182-42.761-42.761c0-23.578,19.182-42.761,42.761-42.761
		c23.579,0,42.761,19.182,42.761,42.761C611.632,743.398,592.449,762.581,568.871,762.581z M568.871,702.208
		c-9.712,0-17.612,7.9-17.612,17.612c0,9.712,7.9,17.612,17.612,17.612c9.712,0,17.612-7.901,17.612-17.612
		C586.483,710.108,578.582,702.208,568.871,702.208z"/>
	
		<ellipse transform="matrix(0.7185 -0.6955 0.6955 0.7185 -373.4709 340.2227)" style="fill:#89BBE1;" cx="233.58" cy="631.502" rx="23.901" ry="23.901"/>
	
		<ellipse transform="matrix(0.9727 -0.2321 0.2321 0.9727 -189.3468 232.9224)" style="fill:#D16E52;" cx="895.057" cy="921.031" rx="23.901" ry="23.901"/>
	<circle style="fill:#DAAA49;" cx="1504.998" cy="611.856" r="23.901"/>
	
		<ellipse transform="matrix(0.7071 -0.7071 0.7071 0.7071 -401.3336 562.679)" style="fill:#8BC3B6;" cx="478.547" cy="765.792" rx="23.901" ry="23.901"/>
	<path style="fill:#8BC3B6;" d="M1054.625,993.978c-23.578,0-42.761-19.182-42.761-42.761s19.182-42.761,42.761-42.761
		c23.579,0,42.761,19.182,42.761,42.761S1078.204,993.978,1054.625,993.978z M1054.625,933.605c-9.712,0-17.612,7.901-17.612,17.612
		c0,9.712,7.9,17.612,17.612,17.612s17.612-7.9,17.612-17.612C1072.237,941.505,1064.337,933.605,1054.625,933.605z"/>
	
		<rect x="1217.534" y="658.417" transform="matrix(0.5051 -0.863 0.863 0.5051 -33.2042 1429.7209)" style="fill:#DAAA49;" width="25.149" height="170.794"/>
	
		<rect x="1144.328" y="456.965" transform="matrix(0.9495 -0.3138 0.3138 0.9495 -80.4927 439.0944)" style="fill:#89BBE1;" width="358.305" height="25.149"/>
	
		<rect x="527.978" y="357.679" transform="matrix(0.2874 -0.9578 0.9578 0.2874 -92.7759 873.369)" style="fill:#8BC3B6;" width="25.149" height="282.71"/>
	
		<rect x="593.855" y="683.01" transform="matrix(0.9775 -0.2111 0.2111 0.9775 -132.5376 149.8271)" style="fill:#DAAA49;" width="83.025" height="25.148"/>
	
		<rect x="516.838" y="818.209" transform="matrix(0.8757 -0.4829 0.4829 0.8757 -323.0251 406.835)" style="fill:#D16E52;" width="223.578" height="25.15"/>
	
		<rect x="1014.062" y="844.822" transform="matrix(0.9079 -0.4192 0.4192 0.9079 -276.3179 511.8023)" style="fill:#8BC3B6;" width="25.15" height="79.886"/>
	<path style="fill:#3F6FA4;" d="M1641.636,362.983c0-1.631-1.11-3.018-2.696-3.368l-12.269-2.747l6.742-10.639
		c0.872-1.375,0.675-3.141-0.475-4.289l-15.954-15.984c-1.123-1.122-2.983-1.317-4.292-0.474l-10.608,6.747l-2.742-12.289
		c-0.354-1.59-1.738-2.702-3.368-2.702h-22.557c-1.63,0-3.016,1.111-3.367,2.7l-2.742,12.293l-10.601-6.743
		c-1.331-0.858-3.179-0.654-4.301,0.468l-15.953,15.988c-1.144,1.149-1.339,2.909-0.47,4.286l6.74,10.638l-12.269,2.747
		c-1.59,0.354-2.7,1.739-2.7,3.371l0.005,22.603c0,1.63,1.11,3.018,2.696,3.37l12.269,2.747l-6.74,10.64
		c-0.872,1.374-0.679,3.135,0.471,4.288l15.952,15.978c1.115,1.126,2.963,1.326,4.294,0.48l10.61-6.749l2.742,12.291
		c0.349,1.57,1.765,2.708,3.367,2.708h0.001l22.557-0.006c1.633,0,3.019-1.113,3.367-2.7l2.742-12.293l10.611,6.751
		c1.336,0.848,3.186,0.637,4.291-0.478l15.943-15.98c1.136-1.128,1.338-2.934,0.48-4.292l-6.741-10.638l12.267-2.751
		c1.591-0.354,2.702-1.739,2.702-3.369L1641.636,362.983z M1584.612,399.498c-0.007,0-0.014,0-0.022,0l-0.322-0.015
		c-12.821-0.228-23.251-10.862-23.251-23.705c0-12.841,10.425-23.476,23.239-23.707c0.143-0.002,0.286-0.008,0.421-0.017
		l0.082-0.006c13.029,0.034,23.618,10.666,23.618,23.729C1608.377,388.857,1597.766,399.498,1584.612,399.498z"/>
	<path style="fill:#D16E52;" d="M1154.424,568.984l28.362-2.008c-11.968-70.575-51.663-131.83-107.442-172.143l-14.881,24.141
		C1108.764,454.507,1143.297,507.717,1154.424,568.984z"/>
	<path style="fill:#8BC3B6;" d="M918.958,372.538c52.902,0,101.844,17.259,141.504,46.436l14.881-24.141
		c-44.016-31.813-98.046-50.587-156.386-50.587c-57.492,0-110.805,18.227-154.472,49.202l18.229,21.774
		C821.409,388.329,868.371,372.538,918.958,372.538z"/>
	<path style="fill:#DAAA49;" d="M782.715,415.221l-18.229-21.774c-28.498,20.214-52.865,45.874-71.623,75.428l24.511,14.18
		C734.485,456.376,756.724,433.285,782.715,415.221z"/>
	<path style="fill:#89BBE1;" d="M1182.785,566.977l-28.362,2.008c2.527,13.914,3.853,28.241,3.853,42.873
		c0,131.961-107.358,239.317-239.319,239.317S679.64,743.818,679.64,611.857c0-47.393,13.871-91.593,37.735-128.802l-24.511-14.18
		c-26.27,41.39-41.516,90.434-41.516,142.982c0,147.56,120.049,267.61,267.61,267.61c147.562,0,267.611-120.049,267.611-267.61
		C1186.569,596.565,1185.261,581.575,1182.785,566.977z"/>
	<g>
		<path style="fill:#3F6FA4;" d="M1365.922,805.402h-23.932c-4.223,0-7.646,3.423-7.646,7.646v74.567
			c0,4.223,3.423,7.646,7.646,7.646h23.932c4.223,0,7.646-3.423,7.646-7.646v-74.567
			C1373.569,808.825,1370.145,805.402,1365.922,805.402L1365.922,805.402z"/>
		<path style="fill:#3F6FA4;" d="M1411.922,836.07h-23.934c-4.223,0-7.646,3.423-7.646,7.646v43.899
			c0,4.223,3.423,7.646,7.646,7.646h23.934c4.223,0,7.646-3.423,7.646-7.646v-43.899
			C1419.568,839.493,1416.145,836.07,1411.922,836.07L1411.922,836.07z"/>
		<path style="fill:#3F6FA4;" d="M1457.922,774.735h-23.934c-4.223,0-7.646,3.423-7.646,7.646v105.234
			c0,4.223,3.423,7.646,7.646,7.646h23.934c4.223,0,7.646-3.423,7.646-7.646V782.381
			C1465.568,778.158,1462.145,774.735,1457.922,774.735L1457.922,774.735z"/>
		<path style="fill:#3F6FA4;" d="M1474.124,904.927v-0.071c0-1.949-1.58-3.529-3.529-3.529h-140.567
			c-1.949,0-3.529,1.58-3.529,3.529v0.071c0,1.949,1.58,3.529,3.529,3.529h140.567
			C1472.544,908.456,1474.124,906.876,1474.124,904.927z"/>
	</g>
</g>
</svg>
