<?xml version="1.0" encoding="utf-8"?>
<!-- Generator: Adobe Illustrator 27.5.0, SVG Export Plug-In . SVG Version: 6.00 Build 0)  -->
<svg version="1.1" xmlns="http://www.w3.org/2000/svg" xmlns:xlink="http://www.w3.org/1999/xlink" x="0px" y="0px"
	 viewBox="0 0 750 500" style="enable-background:new 0 0 750 500;" xml:space="preserve">
<g id="BACKGROUND">
	<rect style="fill:#FFFFFF;" width="750" height="500"/>
</g>
<g id="OBJECTS">
	<g>
		<path style="fill:#F7EDFF;" d="M408.838,294.681c3.915-1.02,7.797-2.152,11.633-3.411c31.442-10.315,59.918-28.617,80.68-54.458
			c11.939-14.858,21.401-32.342,23.489-51.288c2.088-18.946-4.158-39.434-18.957-51.445c-15.862-12.873-38.121-14.17-56.169-23.74
			c-24.052-12.753-37.844-38.184-61.064-51.998c-1.878-1.117-3.771-2.096-5.678-2.954c-7.412-4.115-15.492-6.768-24.236-6.757
			c-19.297,0.024-38.068,11.497-52.604,23.31c-8.781,7.136-16.671,15.291-23.761,24.096c-21.217,24.157-36.447,53.596-43.56,84.963
			c-5.413,23.871-5.888,50.219,6.302,71.445c13.581,23.647,40.352,36.657,66.838,43.148c29.105,7.133,60.074,7.33,89.403,0.929
			c0.093-0.02,0.185-0.042,0.277-0.062c0.933-0.203,1.865-0.414,2.795-0.632c0.629-0.148,1.256-0.303,1.884-0.457
			c0.527-0.129,1.055-0.257,1.581-0.391C408.074,294.883,408.456,294.78,408.838,294.681z"/>
		<path style="fill:#DDD2F7;" d="M501.008,334c-0.991-18.253-5.775-35.727-16.913-50.102c-8.98-11.59-21.523-20.282-29.221-32.76
			c-16.806-27.242-6.024-63.818-18.198-93.421c-14.22-34.58-57.707-50.018-94.283-42.257c-28.722,6.094-56.649,23.677-85.314,17.316
			c-30.941-6.866-49.752-38.998-78.724-51.848c-59.747-26.5-108.058,36.403-98.781,91.923c2.347,14.046,7.767,28.611,3.088,42.061
			c-5.907,16.98-26.333,26.715-29.432,44.423c-2.159,12.34,4.977,24.402,5.595,36.915c0.776,15.694-8.583,29.827-13.802,44.648
			c-11.719,33.278,0.095,74.294,29.574,93.678c24.453,16.08,55.713,16.161,84.974,15.693c87.949-1.408,175.898-2.815,263.846-4.223
			c14.234-0.228,29.147-0.631,41.544-7.63c19.1-10.782,26.975-33.974,31.478-55.44C499.765,367.127,501.89,350.255,501.008,334z"/>
		<path style="fill:#F0CAD6;" d="M723.47,321.394c-1.313-8.198-3.546-16.241-6.728-23.928
			c-11.212-27.087-33.44-49.377-39.965-77.957c-7.604-33.306,7.631-69.074-1.844-101.897c-5.921-20.51-21.217-37.533-39.608-48.371
			c-18.392-10.838-39.695-15.935-60.956-17.85c-25.952-2.338-52.818,0.021-76.546,10.79c-23.729,10.768-44.007,30.668-51.553,55.609
			c-5.912,19.54-3.836,40.59-7.537,60.667c-11.775,63.873-77.83,104.774-97.75,166.593c-6.386,19.819-7.674,41.257-3.706,61.698
			c1.91,9.839,5.167,19.718,11.666,27.347c15.325,17.987,42.515,18.014,66.139,17.492c63.094-1.392,126.196,3.763,189.273,0.736
			c24.694-1.185,53.381-0.182,73.702-16.32c16.212-12.875,29.452-32.263,37.554-51.215
			C724.091,364.951,726.875,342.652,723.47,321.394z"/>
		<g>
			<g>
				<path style="fill:#212950;" d="M315.413,241.269c-1.211-5.392-4.232-9.98-7.618-14.252c-3.677-4.639-8.002-8.98-10.532-14.404
					c-2.918-6.255-1.064-12.947-2.47-19.477c-2.26-10.493-11.343-18.992-21.664-21.445c-7.008-1.666-14.294-0.681-20.712,2.262
					c-6.382-4.906-14.599-6.884-22.672-5.83c-9.305,1.215-16.976,6.445-21.904,14.363c-5.447,8.752-7.49,19.089-12.483,28.061
					c-2.645,4.754-6.172,8.751-10.962,11.42c-5.242,2.922-11.173,4.246-16.87,5.97c-10.769,3.259-20.147,8.953-26.918,18.096
					c-3.532,4.769-5.52,10.201-8.199,15.437c-2.867,5.603-7.097,9.359-12.474,12.502c-4.868,2.845-10.035,5.183-14.543,8.611
					c-4.089,3.109-7.627,6.89-10.494,11.151c-5.448,8.096-8.344,18.338-6.031,28c1.395,5.825,5.456,10.668,6.631,16.519
					c1.396,6.953-2.715,13.445-5.961,19.243c-5.843,10.437-9.562,22.108-8.081,34.185c1.278,10.423,6.664,20.094,15.257,26.233
					c4.067,2.906,8.778,4.772,13.733,5.412c5.729,0.74,11.968-0.211,17.438,1.972c5.61,2.238,8.375,8.211,13.084,11.693
					c4.316,3.191,9.537,4.752,14.812,5.397c11.412,1.394,24.144-0.368,34.942-4.205c10.466-3.72,19.234-10.267,25.578-19.396
					c6.193-8.912,9.819-19.438,12.379-29.902c5.597-22.876,5.88-49.003,21.294-68.165c6.944-8.632,15.826-13.914,24.778-20.137
					c15.152-10.534,32.634-22.065,39.131-40.205C316.055,254.308,316.835,247.601,315.413,241.269z"/>
				<path style="opacity:0.3;fill:#4A1E43;" d="M315.413,241.269c-1.211-5.392-4.232-9.98-7.618-14.252
					c-3.677-4.639-8.002-8.98-10.532-14.404c-2.918-6.255-1.064-12.947-2.47-19.477c-1.79-8.311-7.862-15.367-15.438-19.163
					c5.664,11.858,7.718,25.518,7.049,39.071c-1.06,21.461-7.978,42.775-18.124,61.619c-12.387,23.005-31.223,42.788-51.179,59.395
					c-20.864,17.363-44.266,31.876-69.635,41.639c-12.539,4.825-25.556,8.688-38.871,10.626c-9.028,1.314-18.421,1.908-27.455,0.399
					c0.015,1.645,0.111,3.298,0.315,4.96c1.278,10.423,6.664,20.094,15.257,26.233c4.067,2.906,8.778,4.772,13.733,5.412
					c5.729,0.74,11.968-0.211,17.438,1.972c5.61,2.238,8.375,8.211,13.084,11.693c4.316,3.191,9.537,4.752,14.812,5.397
					c11.412,1.394,24.144-0.368,34.942-4.205c10.466-3.72,19.234-10.267,25.578-19.396c6.193-8.912,9.819-19.438,12.379-29.902
					c5.597-22.876,5.88-49.003,21.294-68.165c6.944-8.632,15.826-13.914,24.778-20.137c15.152-10.534,32.634-22.065,39.131-40.205
					C316.055,254.308,316.835,247.601,315.413,241.269z"/>
			</g>
			<g>
				<path style="fill:#BE1347;" d="M361.287,306.894c-11.151-19.121-28.794-33.802-49.301-41.99
					c-16.218-6.473-33.505-7.212-50.746-7.423c-26.194-0.317-54.355-2.092-79.085,7.423c-20.507,8.188-38.144,22.869-49.294,41.99
					c-11.705,20.072-16.363,44.253-12.431,67.189c3.728,21.754,17.934,39.318,36.474,50.673
					c11.164,6.836,23.687,11.236,36.448,13.962c19.926,4.262,40.38,5.899,60.736,5.338c19.544-0.535,39.826-2.382,58.538-8.274
					c8.597-2.705,16.924-6.314,24.611-11.025c18.541-11.355,32.753-28.92,36.474-50.673
					C377.643,351.147,372.992,326.966,361.287,306.894z M316.492,411.296c-1.682,1.366-3.411,2.6-5.173,3.735
					c0.297-2.098,0.587-4.196,0.877-6.295c1.102-8.07,2.098-16.146,2.996-24.241c0.944-8.577,1.841-17.175,2.521-25.779
					c0.264-3.293,0.508-6.585,0.726-9.884c1.01,0.594,1.993,1.241,2.956,1.979c4.012,3.081,7.324,7.014,9.475,11.613
					C339.044,379.935,330.645,399.802,316.492,411.296z M163.271,362.424c2.151-4.599,5.463-8.531,9.481-11.613
					c0.957-0.739,1.947-1.386,2.949-1.979c0.224,3.299,0.469,6.591,0.726,9.884c0.686,8.604,1.577,17.201,2.527,25.779
					c0.891,8.096,1.887,16.172,2.989,24.241c0.29,2.098,0.581,4.196,0.884,6.295c-1.768-1.135-3.49-2.369-5.173-3.735
					C163.502,399.802,155.096,379.935,163.271,362.424z"/>
				<path style="opacity:0.3;fill:#4A1E43;" d="M163.06,322.261c-17.461,12.517-25.377,37.008-20.558,57.61
					c1.928,8.241,6.067,16.269,13.048,21.323c5.211,3.772,10.933,5.014,16.908,5.22c-10.857-11.736-16.3-28.754-9.187-43.991
					c2.151-4.599,5.463-8.531,9.481-11.613c0.957-0.739,1.947-1.386,2.949-1.979c0.224,3.299,0.469,6.591,0.726,9.884
					c0.686,8.604,1.577,17.201,2.527,25.779c0.007,0.061,0.014,0.122,0.021,0.183c0.075-1.243,0.153-2.484,0.23-3.722
					c0.547-8.8,1.266-17.587,2.001-26.373c1.148-13.713,2.017-27.425,2.453-41.166C176.374,313.294,168.482,318.375,163.06,322.261z
					"/>
				<path style="opacity:0.3;fill:#4A1E43;" d="M361.287,306.894c-10.939-18.758-28.128-33.238-48.138-41.512
					c2.734,3.459,5.117,7.221,7.17,11.104c11.627,21.99,15.693,48.271,18.047,72.752c2.386,24.815,2.204,50.139-0.447,75.09
					c18.205-11.366,32.117-28.76,35.793-50.246C377.643,351.147,372.992,326.966,361.287,306.894z"/>
			</g>
			<path style="fill:#A89BC9;" d="M277.963,416.678c1.633-27.5,2.808-55.058,3.878-82.585c0.533-13.712,1.385-27.406,2.063-41.111
				c0.344-6.96,0.683-13.919,0.977-20.882c0.188-4.465,0.246-8.958,0.449-13.436c-7.965-0.861-16.031-1.083-24.089-1.182
				c-16.004-0.193-32.741-0.927-48.982,0.698c0.724,4.503,1.273,9.044,1.892,13.532c1.018,7.383,1.917,14.779,2.763,22.183
				c3.126,27.361,4.23,54.856,6.039,82.321c0.897,13.616,1.88,27.227,2.922,40.833c0.676,8.829,1.507,17.648,2.046,26.481
				c8.708,0.6,17.447,0.767,26.168,0.526c7.347-0.201,14.798-0.588,22.231-1.305C276.399,434.032,277.455,425.226,277.963,416.678z"
				/>
			<g>
				<path style="fill:#080927;" d="M249.831,263.833c0.004-0.849-1.316-0.85-1.32,0c-0.254,54.994,0.051,109.989,0.916,164.976
					c0.013,0.848,1.333,0.851,1.32,0C249.882,373.822,249.577,318.826,249.831,263.833z"/>
				<g>
					<path style="fill:#080927;" d="M254.938,292.589c-1.364,0-2.474-1.11-2.474-2.474c0-1.364,1.11-2.474,2.474-2.474
						s2.474,1.11,2.474,2.474C257.413,291.479,256.303,292.589,254.938,292.589z M254.938,288.96c-0.637,0-1.155,0.518-1.155,1.155
						c0,0.637,0.518,1.155,1.155,1.155s1.155-0.518,1.155-1.155C256.093,289.478,255.575,288.96,254.938,288.96z"/>
				</g>
				<g>
					<path style="fill:#080927;" d="M254.938,305.126c-1.364,0-2.474-1.11-2.474-2.474c0-1.364,1.11-2.474,2.474-2.474
						s2.474,1.11,2.474,2.474C257.413,304.016,256.303,305.126,254.938,305.126z M254.938,301.497c-0.637,0-1.155,0.518-1.155,1.155
						s0.518,1.155,1.155,1.155s1.155-0.518,1.155-1.155S255.575,301.497,254.938,301.497z"/>
				</g>
				<g>
					<path style="fill:#080927;" d="M254.938,317.662c-1.364,0-2.474-1.11-2.474-2.474s1.11-2.474,2.474-2.474
						s2.474,1.11,2.474,2.474S256.303,317.662,254.938,317.662z M254.938,314.033c-0.637,0-1.155,0.518-1.155,1.155
						s0.518,1.155,1.155,1.155s1.155-0.518,1.155-1.155S255.575,314.033,254.938,314.033z"/>
				</g>
			</g>
			<path style="fill:#F9F2FF;" d="M249.612,261.158c-0.066-0.1-0.139-0.193-0.217-0.278c-0.824-0.895-2.277-1.001-3.538-1.009
				c-8.294-0.053-16.595-0.301-24.888-0.157c-1.39,0.024-3.011,0.182-3.755,1.356c-0.613,0.968-0.355,2.231-0.021,3.327
				c1.835,6.026,5.385,11.518,10.127,15.664c1.121,0.98,2.391,1.922,3.871,2.081c2.007,0.216,3.852-1.04,5.418-2.313
				c3.613-2.936,6.88-6.295,9.715-9.988c1.251-1.63,2.428-3.342,3.206-5.244C249.981,263.492,250.272,262.155,249.612,261.158z"/>
			<path style="fill:#F9F2FF;" d="M248.9,261.158c0.066-0.1,0.139-0.193,0.217-0.278c0.824-0.895,2.277-1.001,3.538-1.009
				c8.294-0.053,16.595-0.301,24.888-0.157c1.39,0.024,3.011,0.182,3.755,1.356c0.613,0.968,0.355,2.231,0.021,3.327
				c-1.835,6.026-5.385,11.518-10.127,15.664c-1.121,0.98-2.391,1.922-3.871,2.081c-2.007,0.216-3.852-1.04-5.418-2.313
				c-3.613-2.936-6.881-6.295-9.715-9.988c-1.251-1.63-2.428-3.342-3.206-5.244C248.531,263.492,248.241,262.155,248.9,261.158z"/>
			<g>
				<path style="fill:#F5AE84;" d="M207.084,221.047c2.687-1.307,5.852-1.654,8.775-0.978c1.321-11.09,4.754-22.566,12.998-30.101
					c6.978-6.378,17.035-9.18,26.327-7.444c25.231,4.714,28.957,32.789,29.281,53.921c0.103,6.739,0.085,13.481-0.054,20.219
					c-0.026,1.278-0.079,2.63-0.775,3.702c-1.246,1.918-3.919,2.135-6.205,2.152c-20.076,0.148-40.152,0.297-60.228,0.445
					c-0.476,0.004-0.975,0.002-1.397-0.219c-0.948-0.496-1.059-1.784-1.048-2.854c0.058-5.388,0.116-10.776,0.174-16.164
					c-6.338-0.106-13.039-4.053-14.26-10.273c-0.772-3.93,0.849-8.182,3.902-10.773C205.338,222.03,206.184,221.485,207.084,221.047
					z"/>
				<path style="opacity:0.3;fill:#4A1E43;" d="M284.465,236.445c-0.307-20.002-3.674-46.211-25.427-52.956
					c9.423,14.439,9.577,34.414,10.114,50.885c0.307,9.406,0.852,18.801,1.304,28.195c2.324-0.017,4.649-0.034,6.974-0.051
					c2.287-0.017,4.96-0.234,6.205-2.152c0.696-1.072,0.749-2.424,0.775-3.702C284.55,249.926,284.568,243.185,284.465,236.445z"/>
			</g>
			<path style="fill:#080927;" d="M215.176,428.183c-11.552-1.684-22.337-6.182-31.662-13.207c-0.678-0.511-1.337,0.634-0.666,1.139
				c9.406,7.087,20.323,11.641,31.977,13.34C215.656,429.576,216.015,428.305,215.176,428.183z"/>
			<path style="fill:#F9F2FF;" d="M238.278,238.485c0,8.017,6.499,14.516,14.516,14.516c8.017,0,14.516-6.499,14.516-14.516H238.278
				z"/>
		</g>
		<g>
			<g>
				<path style="fill:#212950;" d="M668.705,270.415c-5.186-30.378-23.167-57.225-48.373-74.741
					c-12.119-8.421-25.836-14.645-40.223-17.973c-16.026-3.707-33.796-3.639-50.201-4.21c-10.623-0.37-21.255-0.46-31.883-0.271
					c-9.95,0.177-20.307-0.165-29.936,2.681c-7.79,1.913-15.413,4.863-22.182,9.204c-6.894,4.421-12.257,10.447-18.266,15.917
					c-6.726,6.122-14.478,10.501-23.834,9.521c-8.507-0.891-16.41-5.616-22.074-11.894c-7.223-8.006-10.217-18.443-10.68-29.036
					c-0.092-2.101-0.088-4.204-0.017-6.305c1.525-1.206,3.172-2.282,4.28-3.881c1.062-1.534,2.075-4.987-0.516-5.66
					c-1.067-0.277-2.165,0.307-3.162,1.165c0.033-0.313,0.063-0.627,0.098-0.94c0.235-2.13,2.894-11.236,0.18-12.094
					c-2.756-0.872-11.562,10.793-13.179,12.82c-16.093,20.166-23.678,48.313-15.746,73.352
					c9.074,28.644,34.547,48.905,64.325,51.915c10.051,1.016,20.37,0.197,30.176-2.438c0.453,18.557,1.212,37.107,1.669,55.668
					c0.601,24.397,0.976,48.806,1.116,73.21c0.082,14.265,0.038,28.529,0.042,42.794c0,0.321,0.006,0.645,0.02,0.967
					c3.579-0.064,7.194-0.41,10.703-0.433c6.53-0.043,13.057,0.068,19.584,0.271c5.179,0.161,10.359,0.332,15.538,0.443
					c0.001-0.011,0.002-0.022,0.003-0.033c0.382-4.73,2.492-9.047,5.529-12.64c3.719-4.4,8.771-7.572,14.204-9.493
					c12.091-4.276,27.413-2.422,37.228,6.178c4.287,3.756,7.395,9.006,9.093,14.452c7.605-0.092,15.206-0.204,22.815-0.498
					c6.748-0.261,13.899-0.965,20.914-0.875c0.69-27.66,1.938-55.225,2.875-82.885c0.744-21.964,1.311-43.934,1.707-65.907
					c0.128-7.088,0.427-14.268,0.534-21.441c2.596,0.737,5.167,1.685,7.72,2.924c9.092,4.412,16.853,11.221,22.556,19.551
					c5.461,7.978,9.075,17.135,10.863,26.621c0.876,4.649,1.221,9.358,1.391,14.077c-0.347,0.472-0.677,0.949-0.999,1.396
					c-1.622,2.249-3.036,4.648-4.376,7.073c-0.73,1.321,0.587,2.67,1.936,2.074c1.289-0.57,2.465-1.306,3.582-2.129
					c-0.075,5.035-0.131,16.902,4.356,10.904C666.958,334.584,673.979,301.314,668.705,270.415z"/>
				<path style="opacity:0.3;fill:#4A1E43;" d="M435.908,249.873c-4.802,0.883-9.69,1.365-14.649,1.422
					c-21.272,0.246-40.966-7.946-56.73-22.035c-7.84-7.007-15.105-14.786-20.803-23.656c-1.224-1.906-2.414-3.923-3.522-6.016
					c-0.954,9.544-0.147,19.224,2.784,28.479c9.075,28.644,34.547,48.905,64.325,51.915c9.24,0.934,18.705,0.313,27.792-1.84
					c-0.096-6.396-0.034-12.792,0.279-19.184C435.531,255.974,435.689,252.931,435.908,249.873z"/>
				<path style="opacity:0.3;fill:#4A1E43;" d="M588.622,237.316c-0.879,14.559-1.651,29.119-2.175,43.709
					c-2.009,55.891-6.862,111.595-10.655,167.369c6.525-0.281,13.401-0.927,20.155-0.84c0.69-27.66,1.938-55.225,2.875-82.885
					c0.744-21.964,1.311-43.934,1.707-65.907c0.128-7.088,0.426-14.268,0.534-21.441c2.596,0.737,5.167,1.685,7.72,2.924
					c9.092,4.412,16.853,11.221,22.556,19.551c1.522,2.224,2.895,4.542,4.131,6.93c-1.617-10.509-4.634-20.767-9.418-30.308
					C618.221,260.802,605.382,244.178,588.622,237.316z"/>
				<path style="opacity:0.3;fill:#4A1E43;" d="M510.272,410.115c-11.63-3.407-24.738,1.467-33.585,9.176
					c-8.814,7.681-14.637,18.945-15.216,30.514c3.051,0.048,6.102,0.12,9.153,0.215c5.179,0.161,10.359,0.332,15.538,0.443
					c0.001-0.011,0.002-0.022,0.003-0.033c0.382-4.73,2.492-9.048,5.529-12.64c3.719-4.401,8.771-7.572,14.203-9.493
					c8.067-2.853,17.571-2.973,25.92-0.185C526.65,420.174,519.576,412.841,510.272,410.115z"/>
			</g>
			<path style="fill:#F9F2FF;" d="M350.12,184.07c3.929,1.078,7.962,1.743,12.045,1.707c3.812-0.033,7.659-0.689,11.304-1.879
				c-1.447-4.583-2.204-9.416-2.417-14.285c-0.092-2.101-0.088-4.204-0.017-6.305c1.525-1.206,3.172-2.282,4.28-3.881
				c1.062-1.534,2.075-4.987-0.516-5.66c-1.067-0.277-2.165,0.307-3.162,1.165c0.033-0.313,0.063-0.627,0.098-0.94
				c0.235-2.13,2.894-11.236,0.18-12.094c-2.756-0.872-11.562,10.793-13.179,12.82c-6.427,8.054-11.492,17.383-14.759,27.277
				C345.973,182.897,348.133,183.524,350.12,184.07z"/>
			<path style="fill:#F9F2FF;" d="M656.38,313.911c-4.482,0.038-8.937,0.541-13.343,1.351c-1.182,0.217-2.366,0.534-3.553,0.865
				c1.152,3.357,2.059,6.8,2.716,10.288c0.876,4.649,1.221,9.358,1.391,14.077c-0.347,0.472-0.677,0.949-0.999,1.396
				c-1.622,2.249-3.036,4.648-4.376,7.073c-0.73,1.321,0.587,2.67,1.936,2.074c1.289-0.57,2.465-1.306,3.582-2.129
				c-0.075,5.035-0.131,16.902,4.356,10.904c9.906-13.244,16.541-28.707,19.852-44.878
				C664.156,314.247,660.311,313.878,656.38,313.911z"/>
			<path style="fill:#F5AE84;" d="M355.142,176.982c3.97,0.573,7.975,0.478,11.911-0.295c1.571-0.309,3.076-0.725,4.536-1.219
				c-0.272-1.937-0.451-3.892-0.537-5.855c-0.092-2.101-0.088-4.204-0.017-6.305c1.525-1.206,3.172-2.282,4.28-3.881
				c1.062-1.534,2.075-4.987-0.516-5.66c-1.067-0.277-2.165,0.307-3.162,1.165c0.033-0.313,0.063-0.627,0.098-0.94
				c0.235-2.13,2.894-11.236,0.18-12.094c-2.756-0.872-11.562,10.793-13.179,12.82c-4.807,6.024-8.852,12.761-11.952,19.914
				C349.501,175.615,352.214,176.559,355.142,176.982z"/>
			<path style="fill:#F5AE84;" d="M655.289,322.67c-4.123-0.412-9.288-0.579-13.762,0.595c0.245,1.046,0.474,2.096,0.673,3.151
				c0.876,4.649,1.221,9.358,1.391,14.077c-0.347,0.472-0.677,0.949-0.999,1.396c-1.622,2.249-3.036,4.648-4.376,7.073
				c-0.73,1.321,0.587,2.67,1.936,2.074c1.289-0.57,2.465-1.306,3.582-2.129c-0.075,5.035-0.131,16.902,4.356,10.904
				c7.908-10.572,13.724-22.561,17.436-35.192C662.168,323.729,658.746,323.016,655.289,322.67z"/>
			<g>
				<path style="fill:#A89BC9;" d="M570.246,124.731c3.51-2.05,6.505-5.082,8.465-8.483c4.138-7.182,3.962-16.591-0.374-23.647
					c-4.24-6.9-12.151-11.311-20.256-11.318c-2.106-0.002-4.37,0.304-6.6,0.909c0.732-6.098-0.564-12.349-4.276-17.522
					c-4.89-6.814-13.231-9.825-21.432-8.994c-9.681,0.981-16.59,6.782-23.703,12.804c-4.534,3.839-9.938,6.199-15.612,3.104
					c-4.362-2.378-7.337-7.149-9-11.704c-0.997-2.729-5.709,2.914-6.768,4.129c-2.179,2.5-4.042,5.266-5.752,8.103
					c-3.128,5.186-6.002,11.157-6.712,17.227c-0.7,5.974,0.849,11.994,3.282,17.417c0.59,1.314,1.246,2.635,1.979,3.919
					c-2.781,3.646-4.002,8.996-4.311,13.142c-0.47,6.301,1.209,12.824,4.983,17.924c3.773,5.1,9.739,8.994,16.223,9.146
					c1.898,0.044,3.736-0.217,5.521-0.689c-0.058,2.67,0.061,5.357,0.143,7.945c0.092,2.911-0.119,6.422,0.233,9.649
					c-0.324,2.227-0.617,4.974,0.775,6.262c0.79,0.731,1.896,0.703,2.897,0.752c2.369,0.117,4.747,0.146,7.117,0.215
					c9.49,0.274,18.982,0.516,28.474,0.702c4.746,0.093,9.493,0.152,14.239,0.263c2.156,0.05,4.314,0.097,6.47,0.156
					c1.156,0.032,3.073,0.481,4.127-0.3c2.012-1.492,0.56-6.981,0.436-9.081c-0.05-0.85-0.089-1.704-0.127-2.558
					c3.394,1.779,7.667,2.422,10.872,2.008c7.066-0.913,13.002-6.113,15.724-12.566
					C581.146,144.493,577.811,131.639,570.246,124.731z"/>
				<path style="opacity:0.3;fill:#4A1E43;" d="M570.246,124.731c3.51-2.05,6.505-5.082,8.465-8.483
					c4.138-7.182,3.962-16.591-0.374-23.647c-3.693-6.009-10.17-10.127-17.134-11.096c-1.11,5.871-3.123,11.573-5.999,16.953
					c-9.984,18.675-28.458,31.683-47.422,40.115c-10.493,4.665-21.694,8.102-33.054,9.84c-0.803,0.123-1.61,0.233-2.42,0.336
					c2.499,1.287,5.237,2.07,8.074,2.137c1.898,0.044,3.736-0.217,5.521-0.689c-0.058,2.67,0.061,5.357,0.143,7.945
					c0.092,2.911-0.119,6.421,0.233,9.649c-0.324,2.227-0.617,4.974,0.775,6.262c0.79,0.731,1.896,0.703,2.897,0.752
					c2.369,0.117,4.746,0.146,7.117,0.215c9.49,0.274,18.982,0.516,28.474,0.701c4.746,0.093,9.493,0.152,14.239,0.263
					c2.156,0.05,4.314,0.097,6.47,0.156c1.156,0.032,3.073,0.481,4.127-0.3c2.012-1.492,0.56-6.981,0.436-9.081
					c-0.05-0.85-0.089-1.704-0.127-2.558c3.394,1.778,7.667,2.422,10.872,2.008c7.066-0.913,13.002-6.113,15.724-12.566
					C581.146,144.493,577.811,131.639,570.246,124.731z"/>
			</g>
			<path style="fill:#F9F2FF;" d="M557.292,206.698c0.004-0.01,0.008-0.02,0.011-0.03c0.744-1.984-1.84-6.936-2.522-8.868
				c-2.355-6.67-5.199-13.247-9.337-19.022c-3.276-4.575-11.679-2.75-16.578-2.95c-8.687-0.354-17.378-0.33-26.066-0.629
				c-4.258-0.084-7.264-0.919-9.868,3.099c-5.063,7.815-8.904,16.135-12.611,24.647c-1.571,3.606,4.547,2.018,6.246,1.776
				c3.709-0.529,7.39-1.263,11.063-1.995c6.54-1.303,13.399-3.425,20.088-3.718c0.424-0.019,0.856-0.065,1.278,0.007
				c6.656,1.138,13.16,2.981,19.662,4.776c3.15,0.87,6.27,1.831,9.445,2.618C550.1,206.905,556.176,209.541,557.292,206.698z"/>
			<g>
				<path style="fill:#A89BC9;" d="M596.621,396.201c-9.082,11.431-24.302,15.066-38.266,13.028
					c-7.793-1.138-15.323-3.868-22.383-7.298c-6.223-3.024-12.116-6.72-16.467-12.182c-0.024-0.079-0.061-0.154-0.108-0.22
					c0.147-37.408,0.295-74.817,0.442-112.225c0.003-0.91-1.315-0.96-1.319-0.045c-0.148,37.522-0.295,75.045-0.443,112.568
					c0,0.007,0.003,0.012,0.003,0.019c-4.699,5.068-10.777,8.315-17.135,10.88c-7.279,2.937-14.979,5.143-22.832,5.742
					c-14.071,1.073-29.005-3.6-37.279-15.629c-0.477-0.693-1.643-0.074-1.162,0.626c8.283,12.042,22.996,17.2,37.206,16.4
					c8.114-0.457,16.037-2.582,23.58-5.535c6.778-2.654,13.329-5.998,18.357-11.344c4.649,5.679,10.954,9.465,17.533,12.579
					c7.322,3.465,15.08,6.13,23.143,7.144c14.121,1.775,29.154-2.359,38.245-13.803C598.266,396.24,597.144,395.543,596.621,396.201
					z"/>
				<g>
					<g>
						<g>
							<g>
								<path style="fill:#A89BC9;" d="M509.082,296.734c-1.364,0.002-2.476-1.106-2.478-2.47c-0.002-1.364,1.106-2.476,2.47-2.478
									c1.364-0.002,2.476,1.106,2.478,2.47C511.555,295.62,510.447,296.732,509.082,296.734z M509.077,293.105
									c-0.637,0.001-1.154,0.52-1.153,1.156c0.001,0.637,0.52,1.154,1.156,1.153c0.637-0.001,1.154-0.52,1.153-1.156
									S509.713,293.104,509.077,293.105z"/>
							</g>
						</g>
					</g>
				</g>
				<g>
					<g>
						<g>
							<g>
								<path style="fill:#A89BC9;" d="M509.103,309.271c-1.364,0.002-2.476-1.106-2.478-2.47s1.106-2.476,2.47-2.478
									s2.476,1.106,2.478,2.47S510.467,309.268,509.103,309.271z M509.097,305.642c-0.637,0.001-1.154,0.52-1.153,1.156
									c0.001,0.637,0.52,1.154,1.156,1.153s1.154-0.52,1.153-1.156S509.733,305.641,509.097,305.642z"/>
							</g>
						</g>
					</g>
				</g>
				<g>
					<g>
						<g>
							<g>
								<path style="fill:#A89BC9;" d="M509.123,321.807c-1.364,0.002-2.476-1.106-2.478-2.47c-0.002-1.364,1.106-2.476,2.47-2.478
									s2.476,1.106,2.478,2.47C511.595,320.693,510.487,321.805,509.123,321.807z M509.117,318.178
									c-0.637,0.001-1.154,0.52-1.153,1.156s0.52,1.154,1.156,1.153s1.154-0.52,1.153-1.156S509.754,318.177,509.117,318.178z"/>
							</g>
						</g>
					</g>
				</g>
				<g>
					<g>
						<g>
							<g>
								<path style="fill:#A89BC9;" d="M509.143,334.343c-1.364,0.002-2.476-1.106-2.478-2.47c-0.002-1.364,1.106-2.476,2.47-2.478
									c1.364-0.002,2.476,1.106,2.478,2.47C511.616,333.229,510.508,334.341,509.143,334.343z M509.137,330.714
									c-0.637,0.001-1.154,0.52-1.153,1.157s0.52,1.154,1.156,1.153c0.637-0.001,1.154-0.52,1.153-1.157
									C510.293,331.23,509.774,330.713,509.137,330.714z"/>
							</g>
						</g>
					</g>
				</g>
				<g>
					<g>
						<g>
							<g>
								<path style="fill:#A89BC9;" d="M509.163,346.88c-1.364,0.002-2.476-1.106-2.478-2.47c-0.002-1.364,1.106-2.476,2.47-2.478
									s2.476,1.106,2.478,2.47S510.528,346.878,509.163,346.88z M509.157,343.251c-0.637,0.001-1.154,0.52-1.153,1.157
									c0.001,0.637,0.52,1.154,1.157,1.153c0.637-0.001,1.154-0.52,1.153-1.157C510.313,343.767,509.794,343.25,509.157,343.251z"
									/>
							</g>
						</g>
					</g>
				</g>
				<g>
					<g>
						<g>
							<g>
								<path style="fill:#A89BC9;" d="M509.184,359.416c-1.364,0.002-2.476-1.106-2.478-2.47s1.106-2.476,2.47-2.478
									c1.364-0.002,2.476,1.106,2.478,2.47C511.656,358.302,510.548,359.414,509.184,359.416z M509.178,355.787
									c-0.637,0.001-1.154,0.52-1.153,1.156c0.001,0.637,0.52,1.154,1.157,1.153c0.637-0.001,1.154-0.52,1.153-1.156
									C510.333,356.303,509.814,355.786,509.178,355.787z"/>
							</g>
						</g>
					</g>
				</g>
			</g>
			<g>
				<path style="fill:#BE1347;" d="M534.709,249.342c-2.653-15.629-6.151-31.116-10.473-46.368c-0.323-1.14-0.713-2.35-1.482-3.21
					c1.174-0.697,2.278-1.551,3.28-2.311c1.358-1.031,3.019-1.998,3.982-3.451c1.004-1.517,1.13-3.478,1.315-5.23
					c0.26-2.453,0.408-4.983,0.249-7.45c-0.173-2.684-1.537-3.75-4.164-3.959c-3.607-0.287-7.226-0.392-10.844-0.431
					c-2.405-0.026-7.076-0.953-9.055,0.783c-0.836,0.733-0.951,1.703-1.09,2.742c-0.328,2.45-0.354,4.984-0.264,7.45
					c0.065,1.761,0.055,3.726,0.952,5.308c0.86,1.516,2.451,2.595,3.735,3.717c1.063,0.929,2.246,1.985,3.529,2.809
					c-0.615,0.687-0.987,1.59-1.323,2.463c-5.676,14.736-9.725,30.038-13.688,45.324c-0.666,2.571-1.335,5.251-0.804,7.853
					c0.439,2.15,1.658,4.046,2.854,5.885c3.65,5.613,7.299,11.226,10.949,16.84c1.199,1.844,2.885,3.893,5.138,2.407
					c1.867-1.232,3.029-3.407,4.346-5.153c3.357-4.169,6.577-8.75,9.818-13.109c1.312-1.764,2.649-3.587,3.21-5.714
					c0.212-0.803,0.306-1.621,0.321-2.447C535.23,252.509,534.974,250.906,534.709,249.342z"/>
				<path style="opacity:0.3;fill:#4A1E43;" d="M534.709,249.342c-2.653-15.629-6.151-31.116-10.473-46.368
					c-0.323-1.14-0.713-2.35-1.482-3.21c1.174-0.697,2.278-1.551,3.28-2.311c1.358-1.031,3.019-1.998,3.982-3.451
					c1.004-1.517,1.13-3.478,1.315-5.23c0.26-2.453,0.408-4.983,0.249-7.45c-0.173-2.684-1.537-3.75-4.164-3.959
					c-2.902-0.231-5.811-0.342-8.722-0.397c-0.063,10.785-0.469,21.592-0.509,32.359c-0.088,23.542,0.171,47.12-0.016,70.684
					c1.493-1.266,2.528-3.124,3.681-4.652c3.357-4.169,6.577-8.75,9.818-13.109c1.312-1.764,2.649-3.587,3.21-5.714
					c0.212-0.803,0.306-1.621,0.321-2.447C535.23,252.509,534.974,250.906,534.709,249.342z"/>
			</g>
			<g>
				<path style="fill:#F5AE84;" d="M561.058,136.216c-2.676-1.329-5.838-1.703-8.767-1.051c-1.229-11.1-4.567-22.605-12.748-30.207
					c-6.925-6.435-16.958-9.321-26.265-7.662c-25.269,4.505-29.228,32.548-29.727,53.676c-0.159,6.738-0.197,13.479-0.113,20.219
					c0.016,1.278,0.057,2.631,0.745,3.708c1.23,1.928,3.901,2.167,6.187,2.203c20.074,0.315,40.148,0.63,60.222,0.945
					c0.476,0.008,0.975,0.01,1.399-0.207c0.952-0.488,1.074-1.776,1.072-2.846c-0.013-5.388-0.027-10.776-0.04-16.165
					c6.339-0.053,13.072-3.945,14.345-10.155c0.804-3.923-0.782-8.188-3.813-10.805
					C562.795,137.213,561.954,136.661,561.058,136.216z"/>
				<path style="opacity:0.3;fill:#4A1E43;" d="M563.555,137.869c-0.76-0.656-1.602-1.208-2.498-1.653
					c-2.677-1.329-5.838-1.703-8.767-1.051c-1.229-11.1-4.567-22.605-12.748-30.207c-4.708-4.375-10.853-7.105-17.23-7.886
					c2.754,3.462,5.134,7.23,7.118,11.213c7.972,16.009,10.059,34.328,10.505,51.987c0.148,5.87,0.106,11.74-0.03,17.608
					c3.562,0.056,7.124,0.112,10.687,0.168c0.476,0.008,0.975,0.01,1.399-0.207c0.952-0.488,1.074-1.776,1.071-2.846
					c-0.013-5.388-0.027-10.776-0.04-16.165c6.339-0.053,13.072-3.945,14.345-10.155
					C568.172,144.751,566.587,140.486,563.555,137.869z"/>
			</g>
			<path style="fill:#080927;" d="M528.413,153.63c-0.946,7.727-6.512,13.039-14.474,12.741c-7.445-0.279-12.84-6.46-12.823-13.766
				c0.002-0.847-1.317-0.897-1.319-0.045c-0.018,7.95,5.906,14.9,14.096,15.13c8.747,0.246,14.799-5.518,15.839-14.014
				C529.835,152.833,528.515,152.792,528.413,153.63z"/>
		</g>
		<path style="fill:#080927;" d="M669.852,455.19H89.763c-2.155,0-3.901-1.747-3.901-3.901v-9.268c0-2.155,1.746-3.901,3.901-3.901
			h580.089c2.155,0,3.901,1.747,3.901,3.901v9.268C673.753,453.444,672.006,455.19,669.852,455.19z"/>
		<g>
			<g>
				<path style="fill:#A89BC9;" d="M358.421,444.346H186.755c-2.155,0-3.901-1.747-3.901-3.901v-6.714
					c0-2.154,1.747-3.901,3.901-3.901h171.666c2.155,0,3.901,1.747,3.901,3.901v6.714
					C362.323,442.599,360.576,444.346,358.421,444.346z"/>
				<path style="opacity:0.3;fill:#4A1E43;" d="M343.085,435.328c-35.758,1.144-71.462,3.395-107.161,5.684
					c-14.297,0.917-28.566,1.624-42.801,3.236c-0.294,0.033-0.589,0.066-0.884,0.099h167.51c1.422,0,2.574-1.152,2.574-2.574v-6.964
					C355.909,434.95,349.496,435.123,343.085,435.328z"/>
			</g>
			<g>
				<path style="fill:#ECE6F2;" d="M347.865,438.408H204.57c-2.154,0-3.901-1.747-3.901-3.901V332.78
					c0-2.155,1.747-3.901,3.901-3.901h143.294c2.155,0,3.901,1.747,3.901,3.901v101.726
					C351.766,436.661,350.019,438.408,347.865,438.408z"/>
				<path style="opacity:0.3;fill:#4A1E43;" d="M287.88,392.349c-28.919,10.195-58.16,19.406-87.211,29.189v14.295
					c0,1.422,1.152,2.574,2.574,2.574h145.949c1.422,0,2.574-1.152,2.574-2.574v-66.191
					C330.456,377.17,309.193,384.835,287.88,392.349z"/>
			</g>
			<path style="fill:#212950;" d="M300.529,382.105c-0.125-1.544-0.226-5.19-2.328-5.445c-1.657-0.202-3.896,1.004-5.362,1.71
				c-0.024,0.012-0.048,0.026-0.073,0.039c-0.244-0.755-0.542-1.496-0.895-2.218c1.537-0.527,3.714-1.243,4.674-2.47
				c0.554-0.705,0.428-1.495,0.029-2.23c-1.172-2.179-2.788-4.107-4.674-5.706c-1.18-1.004-3.829-3.51-5.497-2.204
				c-1.191,0.932-1.9,3.012-2.423,4.539c-0.633-0.311-1.29-0.583-1.965-0.814c0.714-1.459,1.747-3.505,1.559-5.051
				c-0.107-0.891-0.754-1.36-1.556-1.598c-2.37-0.713-4.876-0.932-7.34-0.73c-1.544,0.125-5.19,0.226-5.445,2.328
				c-0.191,1.569,0.876,3.652,1.59,5.116c-0.868,0.31-1.703,0.688-2.498,1.129c-0.009,0.004-0.018,0.008-0.027,0.012
				c-0.038-0.113-0.067-0.235-0.105-0.349c-0.538-1.537-1.268-3.972-2.582-5.001c-1.667-1.306-4.317,1.201-5.497,2.204
				c-1.885,1.6-3.502,3.527-4.674,5.707c-0.399,0.735-0.525,1.524,0.029,2.23c1.029,1.314,3.464,2.045,5.001,2.582
				c0.092,0.034,0.189,0.055,0.281,0.088c-0.409,0.8-0.75,1.627-1.023,2.47c-0.044-0.025-0.089-0.049-0.133-0.072
				c-1.467-0.707-3.706-1.912-5.362-1.71c-2.102,0.255-2.203,3.901-2.328,5.445c-0.202,2.464,0.018,4.97,0.73,7.34
				c0.237,0.802,0.707,1.449,1.597,1.556c1.657,0.202,3.896-1.004,5.362-1.71c0.079-0.037,0.154-0.082,0.232-0.121
				c0.258,0.754,0.567,1.495,0.935,2.213c-1.533,0.525-3.662,1.238-4.608,2.447c-1.306,1.667,1.201,4.317,2.204,5.497
				c1.6,1.885,3.527,3.502,5.707,4.674c0.735,0.399,1.524,0.525,2.23-0.029c1.227-0.96,1.942-3.137,2.47-4.674
				c0.641,0.313,1.297,0.586,1.965,0.813c-0.71,1.45-1.679,3.422-1.496,4.923c0.255,2.102,3.901,2.203,5.445,2.328
				c2.464,0.202,4.97-0.018,7.34-0.73c0.802-0.238,1.449-0.707,1.556-1.597c0.188-1.546-0.845-3.592-1.559-5.051
				c0.652-0.224,1.288-0.483,1.901-0.782c0.019,0.064,0.037,0.127,0.06,0.189c0.537,1.537,1.268,3.973,2.582,5.001
				c0.705,0.554,1.495,0.428,2.23,0.03c2.18-1.172,4.107-2.788,5.707-4.674c1.003-1.18,3.51-3.829,2.204-5.496
				c-1.029-1.314-3.464-2.045-5.001-2.582c-0.031-0.01-0.063-0.019-0.094-0.028c0.226-0.444,0.433-0.899,0.619-1.365
				c0.153-0.357,0.297-0.718,0.424-1.083c0.063,0.034,0.125,0.069,0.19,0.099c1.467,0.707,3.706,1.912,5.362,1.71
				c0.891-0.107,1.36-0.754,1.597-1.556C300.511,387.076,300.73,384.569,300.529,382.105z M276.514,393.548
				c-3.966,0-7.398-2.26-9.098-5.559c-1.206-2.553-1.304-5.496-0.281-8.108c1.124-2.571,3.275-4.583,5.934-5.535
				c2.864-0.915,6.048-0.542,8.646,1.126c1.335,0.907,2.442,2.121,3.224,3.54c1.97,3.851,1.351,8.684-1.868,11.904
				c-0.638,0.638-1.344,1.163-2.089,1.597C279.63,393.169,278.118,393.548,276.514,393.548z"/>
		</g>
		<g>
			<g>
				<path style="fill:#212950;" d="M364.01,291.626c6.21-3.071,14.127-1.761,19.493,2.62c5.366,4.382,8.206,11.451,8.115,18.378
					c-0.043,3.297-0.645,6.834,0.972,9.708c1.89,3.358,6.066,4.536,9.147,6.849c4.76,3.573,6.759,10.409,4.672,15.984
					c-0.625,1.671-1.587,3.286-1.603,5.07c-0.034,3.861,4.051,6.195,6.739,8.967c4.753,4.9,5.469,12.958,2.375,19.043
					c-3.094,6.086-9.489,10.134-16.227,11.233c-12.747,2.078-33.932-6.85-28.071-23.062c0.867-2.398,2.357-4.757,2.008-7.282
					c-0.479-3.472-4.063-5.443-6.921-7.47c-4.366-3.096-7.972-8.025-7.548-13.361c0.368-4.626,3.663-8.716,3.644-13.356
					c-0.017-4.048-2.517-7.529-4.222-11.249c-0.33-0.72-0.63-1.449-0.877-2.192C353.24,304.072,356.987,295.098,364.01,291.626z"/>
				<path style="opacity:0.3;fill:#4A1E43;" d="M411.547,359.203c-2.688-2.772-6.773-5.106-6.739-8.967
					c0.016-1.784,0.977-3.399,1.603-5.07c2.086-5.575,0.088-12.411-4.673-15.984c-3.081-2.313-7.258-3.491-9.147-6.849
					c-1.617-2.874-1.015-6.411-0.972-9.708c0.085-6.49-2.402-13.105-7.13-17.517c2.251,16.465,2.981,33.215,3.614,49.758
					c0.568,14.843,0.831,29.694,1.053,44.545c2.996,0.458,5.943,0.492,8.539,0.069c6.738-1.098,13.133-5.147,16.227-11.233
					C417.016,372.161,416.3,364.103,411.547,359.203z"/>
			</g>
			<g>
				<path style="fill:#A89BC9;" d="M449.329,306.927c-5.743-2.84-13.064-1.629-18.027,2.423c-4.963,4.052-7.588,10.589-7.505,16.996
					c0.04,3.049,0.596,6.32-0.899,8.978c-1.747,3.105-5.61,4.195-8.459,6.334c-4.402,3.305-6.25,9.626-4.321,14.782
					c0.578,1.545,1.467,3.039,1.482,4.689c0.032,3.57-3.746,5.729-6.232,8.292c-4.396,4.532-5.058,11.983-2.196,17.611
					c2.861,5.628,8.775,9.372,15.006,10.388c11.788,1.922,31.379-6.335,25.96-21.327c-0.802-2.217-2.18-4.399-1.857-6.734
					c0.443-3.21,3.757-5.033,6.401-6.908c4.038-2.863,7.372-7.421,6.98-12.356c-0.34-4.278-3.388-8.06-3.37-12.351
					c0.016-3.743,2.328-6.963,3.904-10.403c0.305-0.666,0.583-1.34,0.811-2.027C459.289,318.436,455.824,310.138,449.329,306.927z"
					/>
				<path style="opacity:0.3;fill:#4A1E43;" d="M452.292,337.743c0.005-1.255,0.272-2.45,0.679-3.616
					c-5.364,7.046-10.814,14.013-16.168,20.979c-6.721,8.745-13.441,17.48-20.054,26.307c-2.872,3.833-5.796,7.68-8.907,11.361
					c2.93,2.418,6.572,4.033,10.336,4.646c11.788,1.922,31.379-6.335,25.96-21.327c-0.802-2.217-2.18-4.399-1.857-6.734
					c0.443-3.21,3.757-5.033,6.401-6.908c4.038-2.863,7.372-7.421,6.98-12.356C455.322,345.816,452.274,342.034,452.292,337.743z"/>
			</g>
			<path style="fill:#080927;" d="M442.595,320.181c-7.787,15.072-13.549,31.034-18.953,47.084
				c-5.733,17.03-11.469,34.077-16.396,51.362c-0.233,0.818,1.04,1.167,1.272,0.351c4.816-16.894,10.417-33.554,16.007-50.204
				c5.483-16.332,11.287-32.591,19.209-47.926C444.124,320.093,442.986,319.425,442.595,320.181z"/>
			<path style="fill:#ECE6F2;" d="M372.695,308.839c-0.388-0.756-1.527-0.089-1.14,0.666c18.363,35.741,29.89,74.758,33.884,114.743
				c0.084,0.837,1.404,0.846,1.32,0C402.741,384.021,391.169,344.799,372.695,308.839z"/>
			<g>
				<path style="fill:#BE1347;" d="M428.122,406.073c-3.306-3.445-9.415-1.818-13.591-1.618c-6.195,0.296-12.387,0.004-18.592-0.159
					c-2.079-0.054-4.341-0.053-5.988,1.217c-2.926,2.257-2.479,7.677-2.45,11.014c0.072,8.41,2.03,18.062,8.882,23.645
					c3.601,2.934,7.925,3.93,12.286,3.604c4.362,0.326,8.685-0.67,12.286-3.604c4.862-3.962,7.301-10.03,8.207-16.089
					c0.549-3.67,0.615-7.391,0.606-11.096C429.762,410.673,429.854,407.877,428.122,406.073z"/>
				<path style="opacity:0.3;fill:#4A1E43;" d="M428.122,406.073c-3.306-3.445-9.415-1.818-13.591-1.618
					c-0.737,0.035-1.473,0.061-2.21,0.081c0.127,11.736,0.203,23.473,0.482,35.207c0.031,1.302,0.063,2.605,0.095,3.907
					c2.874-0.405,5.63-1.499,8.057-3.477c4.862-3.962,7.301-10.03,8.207-16.089c0.549-3.67,0.615-7.391,0.606-11.096
					C429.762,410.673,429.854,407.877,428.122,406.073z"/>
			</g>
			<g>
				<path style="fill:#212950;" d="M425.642,434.202c-8.739-0.251-17.483-0.316-26.225-0.19c-3.752,0.054-7.517,0.054-11.265,0.162
					c-2.617,0.075-4.47,0.982-3.352,3.896c1.691,4.412,4.117,5.792,8.62,6.283c8.224,0.896,16.525,0.867,24.775,0.4
					c5.922-0.335,11.659-0.372,14.079-6.682C434.112,433.273,428.971,434.298,425.642,434.202z"/>
				<path style="opacity:0.3;fill:#4A1E43;" d="M425.642,434.202c-3.052-0.088-6.105-0.144-9.158-0.186
					c0.034,3.175,0.01,6.352,0.087,9.525c0.01,0.43,0.018,0.86,0.028,1.29c0.532-0.026,1.064-0.049,1.596-0.079
					c5.923-0.335,11.659-0.372,14.079-6.682C434.112,433.273,428.971,434.298,425.642,434.202z"/>
			</g>
		</g>
		<g>
			<g>
				<path style="fill:#A89BC9;" d="M169.423,201.281c10.336-9.434,16.73-22.47,16.73-36.87c0-28.788-25.553-52.125-57.074-52.125
					c-31.521,0-57.074,23.337-57.074,52.125c0,28.788,25.553,52.125,57.074,52.125c9.384,0,18.23-2.081,26.039-5.746
					c5.023,3.261,10.381,6.1,15.607,8.979c1.036,0.571,2.032-0.366,1.858-1.428C171.645,212.635,170.568,206.949,169.423,201.281z"
					/>
				<path style="opacity:0.3;fill:#4A1E43;" d="M186.153,164.411c0-6.492-1.308-12.701-3.686-18.431
					c-10.532,8.75-21.345,17.19-31.799,25.936c-10.471,8.76-20.676,17.833-30.983,26.785c-4.966,4.313-9.964,8.59-14.987,12.837
					c7.395,3.199,15.656,4.999,24.381,4.999c9.384,0,18.23-2.081,26.039-5.746c5.023,3.261,10.381,6.1,15.607,8.979
					c1.036,0.571,2.032-0.366,1.858-1.428c-0.938-5.705-2.015-11.391-3.16-17.06C179.759,191.847,186.153,178.811,186.153,164.411z"
					/>
			</g>
			<g>
				<path style="fill:#F9F2FF;" d="M105.563,141.465H94.312c-1.566,0-2.835-1.269-2.835-2.835l0,0c0-1.566,1.269-2.835,2.835-2.835
					h11.251c1.566,0,2.835,1.269,2.835,2.835l0,0C108.398,140.196,107.129,141.465,105.563,141.465z"/>
				<path style="fill:#F9F2FF;" d="M160.713,141.465h-45.72c-1.566,0-2.835-1.269-2.835-2.835l0,0c0-1.566,1.269-2.835,2.835-2.835
					h45.72c1.566,0,2.835,1.269,2.835,2.835l0,0C163.549,140.196,162.279,141.465,160.713,141.465z"/>
				<path style="fill:#F9F2FF;" d="M153.193,154.547H88.672c-1.566,0-2.835-1.269-2.835-2.835l0,0c0-1.566,1.269-2.835,2.835-2.835
					h64.521c1.566,0,2.835,1.269,2.835,2.835l0,0C156.028,153.278,154.759,154.547,153.193,154.547z"/>
				<path style="fill:#F9F2FF;" d="M168.861,154.547h-6.864c-1.566,0-2.835-1.269-2.835-2.835l0,0c0-1.566,1.269-2.835,2.835-2.835
					h6.864c1.566,0,2.835,1.269,2.835,2.835l0,0C171.696,153.278,170.426,154.547,168.861,154.547z"/>
				<path style="fill:#F9F2FF;" d="M126.871,167.629H94.312c-1.566,0-2.835-1.269-2.835-2.835l0,0c0-1.566,1.269-2.835,2.835-2.835
					h32.559c1.566,0,2.835,1.269,2.835,2.835l0,0C129.706,166.36,128.437,167.629,126.871,167.629z"/>
				<path style="fill:#F9F2FF;" d="M169.487,167.629h-32.559c-1.566,0-2.835-1.269-2.835-2.835l0,0c0-1.566,1.269-2.835,2.835-2.835
					h32.559c1.566,0,2.835,1.269,2.835,2.835l0,0C172.322,166.36,171.053,167.629,169.487,167.629z"/>
				<path style="fill:#F9F2FF;" d="M153.193,180.711H88.672c-1.566,0-2.835-1.269-2.835-2.835l0,0c0-1.566,1.269-2.835,2.835-2.835
					h64.521c1.566,0,2.835,1.269,2.835,2.835l0,0C156.028,179.442,154.759,180.711,153.193,180.711z"/>
				<path style="fill:#F9F2FF;" d="M165.1,180.711h-1.85c-1.566,0-2.835-1.269-2.835-2.835l0,0c0-1.566,1.269-2.835,2.835-2.835
					h1.85c1.566,0,2.835,1.269,2.835,2.835l0,0C167.936,179.442,166.666,180.711,165.1,180.711z"/>
				<path style="fill:#F9F2FF;" d="M158.833,193.793h-29.425c-1.566,0-2.835-1.269-2.835-2.835l0,0c0-1.566,1.269-2.835,2.835-2.835
					h29.425c1.566,0,2.835,1.269,2.835,2.835l0,0C161.669,192.524,160.399,193.793,158.833,193.793z"/>
				<path style="fill:#F9F2FF;" d="M120.604,193.793h-15.011c-1.566,0-2.835-1.269-2.835-2.835l0,0c0-1.566,1.269-2.835,2.835-2.835
					h15.011c1.566,0,2.835,1.269,2.835,2.835l0,0C123.439,192.524,122.17,193.793,120.604,193.793z"/>
			</g>
		</g>
		<g>
			<g>
				<path style="fill:#BE1347;" d="M599.429,114.845c-10.336-9.434-16.73-22.47-16.73-36.87c0-28.788,25.553-52.125,57.074-52.125
					c31.521,0,57.074,23.337,57.074,52.125c0,28.788-25.553,52.125-57.074,52.125c-9.384,0-18.23-2.081-26.039-5.746
					c-5.023,3.261-10.381,6.1-15.607,8.979c-1.036,0.571-2.032-0.366-1.858-1.428C597.208,126.2,598.285,120.514,599.429,114.845z"
					/>
				<path style="opacity:0.3;fill:#4A1E43;" d="M694.057,62.428c-19.239,15.361-38.627,30.535-57.689,46.116
					c-6.815,5.571-13.618,11.154-20.355,16.817c7.235,3.034,15.276,4.74,23.759,4.74c31.521,0,57.074-23.337,57.074-52.125
					c0-5.463-0.924-10.727-2.63-15.675C694.163,62.343,694.11,62.386,694.057,62.428z"/>
			</g>
			<g>
				<path style="fill:#F9F2FF;" d="M663.289,55.03h11.251c1.566,0,2.835-1.269,2.835-2.835l0,0c0-1.566-1.269-2.835-2.835-2.835
					h-11.251c-1.566,0-2.835,1.269-2.835,2.835l0,0C660.454,53.761,661.724,55.03,663.289,55.03z"/>
				<path style="fill:#F9F2FF;" d="M608.139,55.03h45.72c1.566,0,2.835-1.269,2.835-2.835l0,0c0-1.566-1.269-2.835-2.835-2.835
					h-45.72c-1.566,0-2.835,1.269-2.835,2.835l0,0C605.304,53.761,606.573,55.03,608.139,55.03z"/>
				<path style="fill:#F9F2FF;" d="M615.659,68.112h64.521c1.566,0,2.835-1.269,2.835-2.835l0,0c0-1.566-1.269-2.835-2.835-2.835
					h-64.521c-1.566,0-2.835,1.269-2.835,2.835l0,0C612.824,66.843,614.094,68.112,615.659,68.112z"/>
				<path style="fill:#F9F2FF;" d="M641.981,81.194h32.559c1.566,0,2.835-1.269,2.835-2.835l0,0c0-1.566-1.269-2.835-2.835-2.835
					h-32.559c-1.566,0-2.835,1.269-2.835,2.835l0,0C639.146,79.925,640.416,81.194,641.981,81.194z"/>
				<path style="fill:#F9F2FF;" d="M599.365,81.194h32.559c1.566,0,2.835-1.269,2.835-2.835l0,0c0-1.566-1.269-2.835-2.835-2.835
					h-32.559c-1.566,0-2.835,1.269-2.835,2.835l0,0C596.53,79.925,597.799,81.194,599.365,81.194z"/>
				<path style="fill:#F9F2FF;" d="M615.659,94.276h64.521c1.566,0,2.835-1.269,2.835-2.835l0,0c0-1.566-1.269-2.835-2.835-2.835
					h-64.521c-1.566,0-2.835,1.269-2.835,2.835l0,0C612.824,93.007,614.094,94.276,615.659,94.276z"/>
				<path style="fill:#F9F2FF;" d="M610.019,107.358h29.425c1.566,0,2.835-1.269,2.835-2.835l0,0c0-1.566-1.269-2.835-2.835-2.835
					h-29.425c-1.566,0-2.835,1.269-2.835,2.835l0,0C607.184,106.089,608.453,107.358,610.019,107.358z"/>
				<path style="fill:#F9F2FF;" d="M648.248,107.358h15.011c1.566,0,2.835-1.269,2.835-2.835l0,0c0-1.566-1.269-2.835-2.835-2.835
					h-15.011c-1.566,0-2.835,1.269-2.835,2.835l0,0C645.413,106.089,646.683,107.358,648.248,107.358z"/>
			</g>
		</g>
	</g>
</g>
<g id="DESIGNED_BY_FREEPIK">
	<g>
		<g>
			<g id="XMLID_319_">
				<g id="XMLID_338_">
					<path id="XMLID_346_" style="fill:#1D262D;" d="M385.104,470.465c-0.433,0.443-0.804,0.931-1.108,1.453l-0.465-0.241
						c-0.066-0.298-0.35-0.502-0.659-0.466c-0.331,0.039-0.567,0.339-0.529,0.67c0.04,0.331,0.339,0.567,0.67,0.528
						c0.065-0.008,0.127-0.025,0.184-0.052l0.451,0.234c-0.251,0.554-0.432,1.139-0.539,1.743l0.747,0.132
						c0.23-1.306,0.85-2.507,1.792-3.473L385.104,470.465z"/>
					<path id="XMLID_345_" style="fill:#1D262D;" d="M390.591,468.164c-0.171,0-0.341,0.006-0.508,0.017l-0.075-0.626
						c0.188-0.149,0.296-0.389,0.267-0.645c-0.047-0.394-0.403-0.674-0.796-0.628c-0.393,0.046-0.675,0.402-0.628,0.795
						c0.031,0.254,0.189,0.462,0.404,0.564l0.074,0.625c-0.715,0.116-1.403,0.332-2.061,0.646l0.327,0.684
						c0.935-0.446,1.941-0.673,2.995-0.673c0.498,0,0.993,0.053,1.476,0.157l0.161-0.74
						C391.692,468.222,391.142,468.164,390.591,468.164z"/>
					<path id="XMLID_344_" style="fill:#1D262D;" d="M397.195,470.711c0.33-0.04,0.566-0.342,0.525-0.672
						c-0.041-0.331-0.342-0.566-0.672-0.526c-0.31,0.038-0.536,0.305-0.531,0.609l-0.416,0.363c-0.418-0.431-0.889-0.813-1.406-1.14
						l-0.404,0.642c1.135,0.715,2.02,1.726,2.563,2.925l0.691-0.313c-0.252-0.554-0.568-1.071-0.943-1.545l0.402-0.351
						C397.066,470.715,397.129,470.718,397.195,470.711z"/>
					<path id="XMLID_343_" style="fill:#1D262D;" d="M390.044,478.372c-0.386,0.023-0.775,0.035-1.157,0.035
						c-0.879,0-1.733-0.061-2.479-0.18c-0.391-0.062-0.846-0.154-1.271-0.292c1.047,1.861,3.07,3.125,5.389,3.125
						c2.856,0,5.264-1.916,5.949-4.504c-0.682,0.45-1.505,0.825-2.458,1.123C392.839,478.047,391.464,478.287,390.044,478.372z"/>
					<path id="XMLID_339_" style="fill:#1D262D;" d="M390.591,469.679c-3.352,0-6.079,2.667-6.079,5.943
						c0,0.426,0.046,0.85,0.138,1.262c0.674,0.482,2.705,0.89,5.347,0.731c2.88-0.174,5.298-0.958,6.673-2.159
						c-0.006-0.194-0.022-0.39-0.045-0.582C396.244,471.913,393.65,469.679,390.591,469.679z M388.433,476.194
						c-1.021,0-1.85-0.829-1.85-1.85c0-1.02,0.829-1.85,1.85-1.85c1.018,0,1.85,0.83,1.85,1.85
						C390.283,475.365,389.452,476.194,388.433,476.194z M393.169,475.286c-0.75,0-1.361-0.609-1.361-1.359s0.611-1.361,1.361-1.361
						c0.751,0,1.36,0.611,1.36,1.361S393.921,475.286,393.169,475.286z"/>
				</g>
				<path id="XMLID_336_" style="fill:#1D262D;" d="M406.595,471.546c-0.295-0.116-0.805-0.309-1.383-0.237
					c-0.551,0.068-0.844,0.341-0.844,1.007v0.866h2.229v1.717h-2.229v5.455h-1.932v-5.455h-1.338v-1.717h1.338v-0.889
					c0-1.68,0.896-2.782,2.568-2.782c0.643,0,1.157,0.121,1.59,0.308V471.546z"/>
				<path id="XMLID_334_" style="fill:#1D262D;" d="M411.298,474.878c-0.178-0.029-0.357-0.046-0.526-0.046
					c-0.895,0-1.51,0.548-1.51,1.613v3.908h-1.933v-7.172h1.873v0.784c0.451-0.673,1.14-0.977,2.021-0.977
					c0.413,0,0.847,0.127,1.094,0.337L411.298,474.878z"/>
				<path id="XMLID_331_" style="fill:#1D262D;" d="M418.966,476.756c0,0.223-0.017,0.489-0.037,0.652h-5.086
					c0.207,1.035,0.933,1.487,1.844,1.487c0.621,0,1.295-0.252,1.813-0.689l1.134,1.243c-0.815,0.748-1.851,1.088-3.058,1.088
					c-2.197,0-3.723-1.495-3.723-3.752c0-2.258,1.48-3.797,3.626-3.797C417.544,472.99,418.958,474.522,418.966,476.756z
					 M413.851,476.09h3.175c-0.177-0.918-0.731-1.436-1.561-1.436C414.554,474.655,414.021,475.203,413.851,476.09z"/>
				<path id="XMLID_328_" style="fill:#1D262D;" d="M426.619,476.756c0,0.223-0.016,0.489-0.037,0.652h-5.085
					c0.208,1.035,0.933,1.487,1.844,1.487c0.622,0,1.296-0.252,1.814-0.689l1.133,1.243c-0.815,0.748-1.852,1.088-3.059,1.088
					c-2.198,0-3.723-1.495-3.723-3.752c0-2.258,1.481-3.797,3.628-3.797C425.197,472.99,426.611,474.522,426.619,476.756z
					 M421.505,476.09h3.174c-0.178-0.918-0.733-1.436-1.562-1.436C422.208,474.655,421.675,475.203,421.505,476.09z"/>
				<path id="XMLID_2_" style="fill:#1D262D;" d="M434.965,476.764c0,2.154-1.495,3.774-3.473,3.774
					c-0.962,0-1.644-0.377-2.109-0.933v3.709h-1.925v-10.133h1.888v0.792c0.467-0.585,1.154-0.984,2.139-0.984
					C433.47,472.99,434.965,474.61,434.965,476.764z M429.287,476.764c0,1.133,0.748,1.977,1.844,1.977
					c1.141,0,1.85-0.881,1.85-1.977s-0.709-1.977-1.85-1.977C430.035,474.788,429.287,475.631,429.287,476.764z"/>
				<path id="XMLID_322_" style="fill:#1D262D;" d="M438.068,470.836c0,0.696-0.541,1.228-1.236,1.228
					c-0.695,0-1.229-0.532-1.229-1.228c0-0.695,0.533-1.243,1.229-1.243C437.527,469.592,438.068,470.14,438.068,470.836z
					 M437.808,480.354h-1.932v-7.172h1.932V480.354z"/>
				<path id="XMLID_320_" style="fill:#1D262D;" d="M441.033,475.736l2.701-2.554h2.369l-3.478,3.375l3.5,3.797h-2.375l-2.717-2.901
					v2.901H439.1v-10.658h1.933V475.736z"/>
			</g>
			<g>
				<path style="fill:#1D262D;" d="M309.413,480.289v-1.055c-0.526,0.718-1.392,1.23-2.388,1.23c-1.846,0-3.149-1.406-3.149-3.705
					c0-2.257,1.29-3.721,3.149-3.721c0.953,0,1.816,0.469,2.388,1.245v-3.765h1.099v9.77H309.413z M309.413,478.37v-3.207
					c-0.396-0.615-1.245-1.143-2.124-1.143c-1.421,0-2.271,1.172-2.271,2.739c0,1.567,0.85,2.724,2.271,2.724
					C308.168,479.483,309.017,478.986,309.413,478.37z"/>
				<path style="fill:#1D262D;" d="M311.933,476.745c0-2.051,1.464-3.706,3.484-3.706c2.139,0,3.398,1.67,3.398,3.793v0.279h-5.726
					c0.087,1.333,1.024,2.445,2.548,2.445c0.807,0,1.627-0.322,2.182-0.894l0.527,0.719c-0.703,0.703-1.654,1.083-2.813,1.083
					C313.441,480.464,311.933,478.956,311.933,476.745z M315.404,473.947c-1.51,0-2.256,1.274-2.314,2.358h4.643
					C317.717,475.25,317.015,473.947,315.404,473.947z"/>
				<path style="fill:#1D262D;" d="M319.607,479.351l0.572-0.79c0.468,0.542,1.361,1.011,2.329,1.011
					c1.083,0,1.669-0.514,1.669-1.217c0-1.713-4.379-0.658-4.379-3.28c0-1.099,0.951-2.036,2.636-2.036
					c1.202,0,2.051,0.454,2.622,1.025l-0.512,0.762c-0.426-0.513-1.202-0.894-2.111-0.894c-0.967,0-1.567,0.483-1.567,1.113
					c0,1.552,4.38,0.527,4.38,3.281c0,1.187-0.952,2.138-2.782,2.138C321.306,480.464,320.325,480.113,319.607,479.351z"/>
				<path style="fill:#1D262D;" d="M326.478,471.471c0-0.41,0.336-0.747,0.732-0.747c0.411,0,0.747,0.337,0.747,0.747
					c0,0.41-0.336,0.732-0.747,0.732C326.814,472.204,326.478,471.881,326.478,471.471z M326.668,480.289v-7.074h1.1v7.074H326.668z
					"/>
				<path style="fill:#1D262D;" d="M329.583,482.105l0.555-0.82c0.586,0.703,1.289,0.967,2.3,0.967c1.172,0,2.271-0.571,2.271-2.124
					v-1.011c-0.513,0.718-1.377,1.26-2.373,1.26c-1.846,0-3.148-1.377-3.148-3.662c0-2.27,1.288-3.676,3.148-3.676
					c0.952,0,1.802,0.469,2.373,1.245v-1.069h1.1v6.87c0,2.343-1.642,3.075-3.37,3.075
					C331.238,483.16,330.417,482.925,329.583,482.105z M334.708,478.253v-3.09c-0.381-0.615-1.23-1.143-2.109-1.143
					c-1.42,0-2.27,1.128-2.27,2.694c0,1.554,0.85,2.695,2.27,2.695C333.478,479.41,334.328,478.869,334.708,478.253z"/>
				<path style="fill:#1D262D;" d="M342.414,480.289v-4.629c0-1.244-0.63-1.64-1.582-1.64c-0.864,0-1.685,0.527-2.094,1.099v5.17
					h-1.1v-7.074h1.1v1.025c0.497-0.586,1.465-1.201,2.519-1.201c1.479,0,2.255,0.747,2.255,2.284v4.966H342.414z"/>
				<path style="fill:#1D262D;" d="M344.933,476.745c0-2.051,1.464-3.706,3.486-3.706c2.139,0,3.397,1.67,3.397,3.793v0.279h-5.726
					c0.086,1.333,1.023,2.445,2.547,2.445c0.807,0,1.626-0.322,2.183-0.894l0.528,0.719c-0.703,0.703-1.656,1.083-2.813,1.083
					C346.441,480.464,344.933,478.956,344.933,476.745z M348.404,473.947c-1.508,0-2.256,1.274-2.313,2.358h4.642
					C350.718,475.25,350.015,473.947,348.404,473.947z"/>
				<path style="fill:#1D262D;" d="M358.35,480.289v-1.055c-0.526,0.718-1.392,1.23-2.388,1.23c-1.846,0-3.15-1.406-3.15-3.705
					c0-2.257,1.29-3.721,3.15-3.721c0.953,0,1.816,0.469,2.388,1.245v-3.765h1.099v9.77H358.35z M358.35,478.37v-3.207
					c-0.396-0.615-1.245-1.143-2.124-1.143c-1.421,0-2.271,1.172-2.271,2.739c0,1.567,0.85,2.724,2.271,2.724
					C357.105,479.483,357.955,478.986,358.35,478.37z"/>
				<path style="fill:#1D262D;" d="M364.692,480.289v-9.77h1.099v3.765c0.572-0.776,1.422-1.245,2.389-1.245
					c1.846,0,3.148,1.464,3.148,3.721c0,2.299-1.303,3.705-3.148,3.705c-0.996,0-1.861-0.513-2.389-1.23v1.055H364.692z
					 M367.9,479.483c1.436,0,2.285-1.156,2.285-2.724c0-1.567-0.849-2.739-2.285-2.739c-0.863,0-1.729,0.527-2.109,1.143v3.207
					C366.171,478.986,367.037,479.483,367.9,479.483z"/>
				<path style="fill:#1D262D;" d="M372.529,482.061c0.162,0.073,0.426,0.117,0.601,0.117c0.483,0,0.805-0.161,1.054-0.747
					l0.47-1.069l-2.959-7.147h1.185l2.358,5.8l2.345-5.8h1.199l-3.544,8.51c-0.425,1.025-1.143,1.421-2.08,1.436
					c-0.233,0-0.601-0.044-0.806-0.103L372.529,482.061z"/>
			</g>
		</g>
	</g>
</g>
</svg>
