<?xml version="1.0" encoding="utf-8"?>
<!-- Generator: Adobe Illustrator 27.5.0, SVG Export Plug-In . SVG Version: 6.00 Build 0)  -->
<svg version="1.1" xmlns="http://www.w3.org/2000/svg" xmlns:xlink="http://www.w3.org/1999/xlink" x="0px" y="0px"
	 viewBox="0 0 500 500" style="enable-background:new 0 0 500 500;" xml:space="preserve">
<g id="BACKGROUND">
	<rect style="fill:#F7DCDC;" width="500" height="500"/>
</g>
<g id="OBJECTS">
	<g>
		<g>
			<g>
				<g>
					<g>
						<g>
							<path style="fill:#FF9489;" d="M52.045,239.559c3.54,6.573,8.585,12.609,15.333,15.803
								c6.748,3.194,15.372,3.044,21.167-1.663c4.214-3.424,6.49-8.806,7.128-14.198c0.638-5.392-0.202-10.847-1.295-16.166
								c-2.268-11.046-5.712-22.037-11.998-31.399c-6.286-9.362-15.702-17.002-26.734-19.337c-2.384-0.505-5.117-0.681-7.011,0.852
								c-1.746,1.414-2.231,3.835-2.575,6.055C42.926,199.747,42.333,221.525,52.045,239.559z"/>
						</g>
					</g>
				</g>
				<g>
					<g>
						<g>
							<path style="fill:#FF9489;" d="M77.949,179.028c4.997,3.227,11.127,5.311,16.906,3.906
								c8.84-2.148,13.966-11.636,15.35-20.627c1.794-11.66-0.856-23.658-5.547-34.482c-4.691-10.825-11.355-20.659-17.979-30.421
								c-1.411-2.079-3.282-4.4-5.791-4.258c-1.885,0.107-3.36,1.604-4.589,3.036c-10.202,11.882-17.469,26.782-17.984,42.435
								S64.793,170.533,77.949,179.028z"/>
						</g>
					</g>
				</g>
				<g>
					<g>
						<g>
							<g>
								<path style="fill:#FF9489;" d="M121.983,76.27c-9.506,9.921-15.75,22.917-17.555,36.538
									c-1.805,13.621,0.84,27.795,7.434,39.849c3.548,6.485,9.284,12.923,16.676,12.941c7.511,0.019,13.306-6.577,16.934-13.155
									c12.525-22.706,11.394-52.298-2.828-73.982c-2.429-3.703-5.754-7.489-10.175-7.756
									C128.389,70.459,124.812,73.317,121.983,76.27z"/>
							</g>
						</g>
					</g>
					<g>
						<path style="fill:#F7DCDC;" d="M106.684,110.518c7.971,4.449,15.883,9.275,23.522,14.341v15.362l-20.58-7.693
							c-0.298-0.105-0.63,0.041-0.743,0.34c-0.112,0.298,0.04,0.63,0.338,0.743l20.985,7.844v12.984
							c-6.396-0.77-12.748-2.121-18.892-4.027c-0.303-0.096-0.628,0.078-0.723,0.38c-0.094,0.305,0.076,0.628,0.38,0.723
							c6.255,1.94,12.724,3.311,19.235,4.089v122.184h1.154V155.264c0.01-0.033,0.027-0.064,0.031-0.1
							c0.01-0.088-0.004-0.172-0.031-0.25v-6.17c5.374-0.406,10.783-1.111,16.084-2.106c0.313-0.059,0.519-0.359,0.461-0.674
							c-0.059-0.313-0.361-0.526-0.674-0.46c-5.231,0.981-10.568,1.677-15.871,2.081v-1.766l16.333-4.248
							c0.309-0.081,0.494-0.395,0.413-0.705c-0.081-0.31-0.404-0.493-0.703-0.413l-16.043,4.173v-21.289l24.423-11.733
							c0.287-0.138,0.408-0.483,0.27-0.77c-0.137-0.289-0.477-0.41-0.77-0.271l-23.923,11.493v-2.645l20.885-15.505
							c0.255-0.189,0.309-0.552,0.119-0.807c-0.189-0.255-0.55-0.308-0.808-0.119l-20.196,14.993v-2.188l0.001-0.001
							c0.106-0.181,0.093-0.392-0.001-0.564v-8.764l16.826-12.865c0.253-0.194,0.302-0.556,0.108-0.809
							c-0.193-0.253-0.555-0.302-0.809-0.108l-16.125,12.329V91.489l12.489-7.699c0.271-0.167,0.355-0.523,0.189-0.794
							c-0.168-0.272-0.521-0.359-0.794-0.189l-11.883,7.325v-6.102c0-0.319-0.258-0.577-0.577-0.577
							c-0.318,0-0.577,0.258-0.577,0.577v10.294c-3.852-4.683-8.038-9.141-12.487-13.245c-0.234-0.215-0.599-0.2-0.816,0.033
							c-0.216,0.234-0.201,0.6,0.033,0.815c4.751,4.382,9.215,9.158,13.27,14.197v3.062c-5.075-5.14-10.745-9.68-16.88-13.489
							c-0.27-0.167-0.627-0.086-0.794,0.185c-0.168,0.272-0.086,0.627,0.186,0.795c6.31,3.919,12.129,8.613,17.297,13.951
							c0.056,0.058,0.122,0.102,0.192,0.131v13.682l-21.672-12.674c-0.278-0.164-0.63-0.069-0.79,0.206
							c-0.161,0.275-0.069,0.628,0.207,0.789l22.255,13.015v7.032c-0.034,0.104-0.029,0.215,0,0.325v0.348
							c-7.467-4.93-15.183-9.632-22.96-13.971c-0.277-0.156-0.63-0.054-0.785,0.222
							C106.306,110.011,106.405,110.363,106.684,110.518z"/>
					</g>
				</g>
				<g>
					<path style="fill:#F7DCDC;" d="M45.938,208.339c8.375,1.908,16.53,4.78,24.258,8.526c0.767,1.913,1.52,3.833,2.255,5.76
						c-8.225-1.611-16.605-1.887-24.921-0.787c-0.316,0.042-0.539,0.332-0.497,0.648c0.041,0.316,0.322,0.534,0.647,0.497
						c8.426-1.114,16.918-0.808,25.243,0.903c0.883,2.336,1.744,4.681,2.579,7.035c-0.032,0.167,0,0.346,0.12,0.485
						c0.021,0.024,0.05,0.035,0.074,0.055c0.051,0.144,0.104,0.287,0.155,0.431c-8.434-0.887-16.988-1.028-25.441-0.396
						c-0.318,0.024-0.556,0.301-0.533,0.619c0.024,0.317,0.307,0.579,0.619,0.532c8.563-0.641,17.23-0.486,25.77,0.447
						c0.349,1.003,0.696,2.007,1.037,3.013c-7.858-0.245-15.811-0.152-23.659,0.297c-0.318,0.018-0.562,0.29-0.543,0.609
						c0.017,0.307,0.272,0.544,0.576,0.544c0.011,0,0.022,0,0.034-0.002c7.957-0.45,16.024-0.544,23.987-0.284
						c4.448,13.281,8.14,26.82,11.077,40.514h1.192c-2.55-11.93-5.682-23.741-9.378-35.369c0.064,0.023,0.13,0.036,0.197,0.036
						c0.167,0,0.333-0.072,0.446-0.212l12.608-15.41c0.202-0.246,0.166-0.61-0.081-0.812c-0.244-0.203-0.611-0.165-0.812,0.081
						l-12.608,15.41c-0.01,0.013-0.013,0.028-0.022,0.042c-0.501-1.564-1.014-3.123-1.536-4.68c0.015-0.048,0.033-0.094,0.035-0.146
						c0.006-0.198-0.094-0.368-0.243-0.477c-0.419-1.243-0.848-2.483-1.28-3.722c-0.007-0.119-0.041-0.233-0.111-0.324
						c-0.124-0.353-0.247-0.707-0.371-1.06l15.359-13.234c0.242-0.209,0.269-0.573,0.061-0.815c-0.209-0.242-0.573-0.266-0.814-0.06
						l-15.024,12.946c-0.674-1.89-1.365-3.774-2.069-5.653c0.055,0.017,0.107,0.05,0.163,0.05c0.184,0,0.365-0.087,0.477-0.251
						c3.83-5.578,7.9-11.108,12.098-16.436c0.198-0.251,0.154-0.613-0.096-0.812c-0.251-0.195-0.615-0.153-0.81,0.096
						c-4.213,5.348-8.299,10.898-12.143,16.499c-0.002,0.003-0.002,0.007-0.004,0.01c-0.804-2.128-1.62-4.25-2.462-6.362
						c0.059-0.05,0.12-0.098,0.157-0.172c0.14-0.286,0.023-0.631-0.262-0.773c-0.114-0.056-0.23-0.108-0.343-0.163
						c-0.928-2.307-1.882-4.602-2.856-6.889c0.025-0.046,0.049-0.094,0.061-0.147c1.746-7.923,4.257-15.72,7.462-23.173
						c0.126-0.293-0.01-0.633-0.303-0.759c-0.291-0.125-0.631,0.009-0.758,0.302c-3.049,7.09-5.466,14.49-7.21,22.012
						c-2.216-5.128-4.552-10.202-6.995-15.22c0.1-0.077,0.177-0.186,0.21-0.318c1.242-4.893,2.714-9.79,4.375-14.555
						c0.105-0.301-0.054-0.63-0.355-0.735c-0.3-0.099-0.631,0.054-0.735,0.356c-1.581,4.532-2.984,9.184-4.189,13.841
						c-0.414-0.841-0.826-1.684-1.247-2.522c0.152-0.1,0.259-0.262,0.264-0.458c0.104-3.923,0.559-7.857,1.351-11.693
						c0.065-0.313-0.136-0.618-0.449-0.682c-0.311-0.063-0.618,0.135-0.682,0.448c-0.729,3.529-1.162,7.139-1.319,10.748
						c-1.217-2.394-2.451-4.778-3.719-7.143c-0.152-0.283-0.498-0.388-0.781-0.236c-0.281,0.15-0.386,0.501-0.236,0.78
						c6.139,11.449,11.663,23.246,16.564,35.308c-7.465-3.517-15.309-6.235-23.357-8.066c-0.305-0.072-0.619,0.123-0.691,0.434
						C45.433,207.96,45.627,208.268,45.938,208.339z"/>
				</g>
				<g>
					<path style="fill:#F7DCDC;" d="M61.231,144.248c9.941,3.926,19.57,8.805,28.619,14.501c0.009,0.006,0.02,0.003,0.03,0.009
						c0.439,3.374,0.87,6.749,1.291,10.127c-7.314-5.028-15.261-9.053-23.656-11.949c-0.302-0.099-0.628,0.057-0.734,0.358
						c-0.104,0.301,0.056,0.63,0.358,0.733c8.617,2.972,16.762,7.14,24.218,12.381c4.405,35.641,7.762,71.505,10.066,107.379h1.157
						c-2.305-35.912-5.665-71.814-10.074-107.493c0.052-0.164,0.033-0.34-0.059-0.484c-0.822-6.637-1.667-13.269-2.561-19.889
						c5.347-5.157,10.199-10.869,14.42-16.985c0.181-0.262,0.115-0.621-0.147-0.803c-0.262-0.182-0.622-0.115-0.803,0.147
						c-4.018,5.821-8.616,11.268-13.668,16.218c-0.371-2.734-0.757-5.465-1.141-8.195c4.481-4.883,7.638-10.863,9.125-17.325
						c0.072-0.31-0.122-0.62-0.433-0.691c-0.31-0.076-0.621,0.122-0.691,0.433c-1.37,5.95-4.21,11.472-8.212,16.07
						c-0.311-2.198-0.625-4.395-0.944-6.591c0.157-0.212,0.161-0.506-0.019-0.714c-0.034-0.039-0.069-0.078-0.103-0.117
						c-0.142-0.973-0.287-1.945-0.43-2.918c2.92-4.991,4.837-10.642,5.537-16.379c0.039-0.316-0.187-0.604-0.503-0.643
						c-0.325-0.046-0.604,0.186-0.643,0.503c-0.622,5.096-2.231,10.121-4.666,14.654c-0.276-1.86-0.541-3.724-0.823-5.582
						c-0.047-0.315-0.338-0.531-0.657-0.484c-0.315,0.048-0.532,0.342-0.484,0.657c0.356,2.351,0.694,4.708,1.041,7.062
						c-0.115,0.222-0.07,0.48,0.097,0.655c0.043,0.295,0.087,0.59,0.131,0.885c-4.943-5.634-10.093-11.186-15.356-16.518
						c-0.225-0.228-0.59-0.229-0.816-0.006c-0.227,0.224-0.23,0.59-0.006,0.816c5.664,5.739,11.206,11.727,16.487,17.805
						c0.399,2.743,0.79,5.489,1.177,8.236c-0.004,0.073,0.006,0.143,0.03,0.213c0.14,0.996,0.278,1.993,0.416,2.989
						c-6.037-6.907-13.52-12.712-21.722-16.801c-0.285-0.142-0.632-0.026-0.774,0.259c-0.143,0.285-0.026,0.632,0.258,0.774
						c8.351,4.163,15.958,10.122,22.001,17.234c0.114,0.134,0.277,0.203,0.44,0.203c0.01,0,0.019-0.005,0.029-0.005
						c0.211,1.529,0.431,3.055,0.638,4.584c-0.079,0.185-0.048,0.4,0.078,0.568c0.322,2.387,0.626,4.778,0.939,7.167
						c-8.884-5.526-18.308-10.281-28.033-14.121c-0.295-0.116-0.631,0.027-0.749,0.325
						C60.789,143.796,60.934,144.131,61.231,144.248z"/>
				</g>
				<g>
					<g>
						<g>
							<path style="fill:#FF9489;" d="M167.983,160.695c0.64-11.03-1.178-22.197-5.283-32.454c-1.028-2.569-2.538-5.376-5.23-6.019
								c-2.199-0.525-4.425,0.6-6.37,1.752c-9.607,5.685-18.429,13.115-24.129,22.712c-5.701,9.597-7.991,21.556-4.521,32.166
								c1.899,5.808,5.683,11.24,11.189,13.89c8.357,4.022,18.945,0.545,25.147-6.351
								C164.986,179.495,167.445,169.954,167.983,160.695z"/>
						</g>
					</g>
				</g>
				<g>
					<path style="fill:#F7DCDC;" d="M137.504,158.788c1.889,3.357,3.842,6.829,5.919,10.681
						c-9.516,30.924-17.736,74.961-22.462,108.281h1.163c4.239-29.848,11.409-69.447,19.564-98.321
						c6.047-1.668,12.27-2.839,18.503-3.471c0.317-0.031,0.548-0.316,0.516-0.633c-0.031-0.317-0.315-0.537-0.632-0.516
						c-6.07,0.615-12.126,1.746-18.027,3.336c0.477-1.671,0.959-3.326,1.447-4.962c0.022,0.003,0.04,0.019,0.063,0.019
						c0.067,0,0.135-0.012,0.201-0.036c6.932-2.586,14.09-4.789,21.277-6.549c0.31-0.077,0.499-0.388,0.423-0.697
						c-0.076-0.311-0.387-0.49-0.698-0.424c-7.048,1.728-14.066,3.883-20.875,6.399c1.163-3.854,2.357-7.598,3.578-11.217
						c0.158-0.136,0.227-0.342,0.184-0.549c0.151-0.446,0.302-0.894,0.455-1.336c0.019,0.002,0.035,0.015,0.054,0.015
						c0.09,0,0.182-0.021,0.267-0.066l15.986-8.375c0.282-0.147,0.391-0.496,0.243-0.779c-0.147-0.283-0.495-0.392-0.779-0.244
						l-14.92,7.818c0-0.061-0.002-0.122-0.022-0.183l-0.092-0.279c1.733-4.911,3.515-9.571,5.35-13.885
						c0.125-0.293-0.012-0.631-0.305-0.756c-0.296-0.125-0.633,0.011-0.757,0.305c-1.669,3.924-3.296,8.124-4.881,12.545
						l-6.903-20.837c-0.101-0.303-0.428-0.471-0.73-0.366c-0.302,0.1-0.466,0.427-0.366,0.73l7.373,22.255
						c-0.217,0.619-0.436,1.229-0.652,1.856c-2.829-6.424-5.965-12.779-9.357-18.903c-0.153-0.278-0.503-0.38-0.785-0.225
						c-0.279,0.155-0.379,0.507-0.225,0.785c3.579,6.46,6.88,13.173,9.823,19.955c-0.856,2.532-1.7,5.114-2.528,7.764
						c-1.878-3.461-3.661-6.636-5.386-9.699c-1.896-3.368-3.855-6.851-5.94-10.719c-0.151-0.281-0.499-0.383-0.782-0.234
						c-0.281,0.152-0.386,0.5-0.235,0.781C133.644,151.93,135.606,155.417,137.504,158.788z"/>
				</g>
			</g>
			<g>
				<g>
					<g>
						<rect x="83.646" y="273.865" style="fill:#FF9489;" width="57.834" height="71.03"/>
					</g>
				</g>
			</g>
			<g>
				<g>
					<g>
						<g>
							<path style="fill:#F7DCDC;" d="M141.164,284.136c-7.732-0.429-15.495-0.28-23.203,0.466
								c-3.901,0.378-7.833,0.906-11.724,0.438c-3.79-0.456-7.4-1.841-11.128-2.663c-3.728-0.821-7.811-1.031-11.189,0.746
								l-0.038,0.004v6.336c10.713-0.522,21.426-1.043,32.14-1.565c8.381-0.408,16.855-0.787,25.143,0.323V284.136z"/>
						</g>
					</g>
				</g>
				<g>
					<g>
						<g>
							<path style="fill:#F7DCDC;" d="M141.164,295.789c-4.186-0.01-8.397,0.317-12.584,0.464
								c-6.616,0.234-13.248-0.005-19.829-0.714c-8.26-0.889-16.682-2.496-24.869-1.848v8.439
								c11.316,0.168,22.643-0.091,33.961-0.359c7.774-0.185,15.548-0.369,23.322-0.554V295.789z"/>
						</g>
					</g>
				</g>
				<g>
					<g>
						<g>
							<path style="fill:#F7DCDC;" d="M141.164,306.92c-9.157,0.254-18.394-0.737-27.568-0.281
								c-9.92,0.494-19.899,2.676-29.715,1.759v4.807c2.148,0.458,4.303,0.855,6.489,0.766c4.618-0.189,8.93-2.525,13.542-2.823
								c4.271-0.276,8.434,1.208,12.661,1.882c8.098,1.291,16.411-0.394,24.592-0.548V306.92z"/>
						</g>
					</g>
				</g>
				<g>
					<g>
						<g>
							<path style="fill:#F7DCDC;" d="M141.164,318.48c-15.923-1.55-32.174,1.375-48.282,1.764c-3,0.072-6.002,0.031-9.001-0.075
								v7.793c0.01-0.001,0.021-0.001,0.031-0.002c4.182-0.32,8.364-0.64,12.551-0.883c7.525-0.436,15.064-0.619,22.602-0.624
								c7.369-0.005,14.738,0.165,22.1,0.501V318.48z"/>
						</g>
					</g>
				</g>
				<g>
					<g>
						<g>
							<path style="fill:#F7DCDC;" d="M141.164,333.669c-8.818,0.32-17.653,0.189-26.47-0.209
								c-7.454-0.336-14.917-0.858-22.37-0.494c-2.822,0.138-5.65,0.409-8.443,0.86v6.312c3.847-0.064,7.677-0.649,11.507-1.085
								c7.451-0.848,14.96-1.003,22.457-1.157c7.771-0.16,15.564-0.317,23.318,0.121V333.669z"/>
						</g>
					</g>
				</g>
			</g>
		</g>
		<path style="fill:#F9F3EF;" d="M457.147,101.608c-2.167-3.641-5.566-6.459-9.368-8.33c-3.829-1.885-8.354-2.846-12.383-1.44
			c-3.595,1.254-6.33,4.209-8.507,7.332c-5.733,8.224-8.599,18.405-8,28.411l0.007,0.052c-6.598,9.795-12.34,20.216-17.147,31.067
			c-3.184-9.91-5.008-20.116-5.451-30.465c3.335-4.291,7.102-8.259,10.044-12.827c3.083-4.786,5.241-10.478,4.437-16.114
			c-0.804-5.636-5.235-10.987-10.91-11.44c-4.878-0.39-9.548,2.904-11.808,7.244c-2.26,4.34-2.437,9.504-1.632,14.33
			c1.059,6.352,3.763,12.417,7.75,17.472c0.36,11.704,2.452,23.236,6.247,34.386c0.026,0.077,0.069,0.141,0.11,0.207
			c-8.974,21.092-14.437,43.706-15.827,66.387h-9.566c1.087-25.395,0.234-50.869-2.535-76.135c4.291-6.28,7.04-13.613,7.878-21.175
			c0.536-4.831,0.203-10.064-2.652-13.999c-3.168-4.364-9.175-6.27-14.411-4.983c-5.237,1.286-9.542,5.487-11.434,10.537
			c-1.892,5.05-1.488,10.814,0.614,15.78c3.248,7.671,10.133,13.21,17.361,17.351c0.287-0.343,0.564-0.694,0.84-1.046
			c2.569,24.456,3.331,49.1,2.275,73.67h-7.984c-1.6-29.906-11.335-59.169-27.73-84.151c1.174-0.713,2.215-1.613,3-2.77
			c1.722-2.538,2.029-5.792,1.763-8.848c-0.75-8.607-5.733-16.589-12.696-21.704c-6.963-5.115-15.741-7.476-24.38-7.371
			l-3.257,1.262c-0.065,9.088,1.126,18.43,5.487,26.404c4.361,7.974,12.353,14.372,21.423,14.947
			c2.282,0.145,4.677-0.163,6.802-0.992c7.122,10.817,12.976,22.45,17.445,34.597c-5.351-3.418-10.436-6.635-15.491-9.711
			c0.19-2.93-0.778-6.011-2.388-8.524c-2.875-4.486-7.54-7.611-12.534-9.47c-4.994-1.859-10.339-2.554-15.647-3.024
			c-2.264,3.375-2.575,7.806-1.492,11.723c1.083,3.917,3.43,7.377,6.132,10.413c3.25,3.652,7.267,6.9,12.047,7.926
			c4.78,1.026,10.389-0.702,12.741-4.988c0.329-0.6,0.576-1.228,0.762-1.872c5.187,3.169,10.414,6.484,15.948,10.023
			c0.172,0.111,0.365,0.163,0.555,0.163c0.107,0,0.211-0.022,0.313-0.054c5.172,14.801,8.283,30.322,9.133,46.022h-28.102v8.272
			h2.177v117.315h77.497V236.154h3.048v-8.272h-30.874c0.811-13.1,2.985-26.177,6.431-38.945c5.033-3.586,9.881-6.746,14.609-9.515
			c4.697,0.16,9.377,0.778,14.07,1.095c5.575,0.377,11.287,0.305,16.593-1.444c5.306-1.749,10.204-5.382,12.401-10.52
			c1.848-4.32,1.595-9.473-0.627-13.614c-2.221-4.14-6.355-7.192-10.956-8.142c-4.543-0.938-9.352,0.124-13.436,2.323
			c-4.085,2.199-7.505,5.471-10.457,9.049c-4.863,5.894-8.613,12.836-10.067,20.328c-3.666,2.197-7.405,4.622-11.246,7.296
			c5.777-20.105,14.687-39.37,26.29-56.67c6.937-0.813,17.056-0.627,23.417-2.324c6.756-1.802,13.426-6.218,15.258-12.965
			C460.166,109.745,459.314,105.25,457.147,101.608z"/>
		<g>
			<g>
				<rect x="97.737" y="166.016" style="fill:#002828;" width="303.488" height="184.201"/>
			</g>
			<g>
				<rect x="107.888" y="348.3" style="fill:#009CA4;" width="279.879" height="4.116"/>
			</g>
			<g>
				<path style="fill:#CFBCB1;" d="M405.921,353.402H94.079c-0.783,0-1.556,0.297-2.164,0.83l-64.619,56.778
					c-2.287,2.009-1.219,5.631,1.666,5.631h442.074c2.885,0,3.953-3.622,1.666-5.631l-64.619-56.778
					C407.477,353.699,406.704,353.402,405.921,353.402z"/>
			</g>
			<g>
				<polygon style="fill:#002828;" points="401.225,350.217 97.737,350.217 33.785,407.364 465.177,407.364 				"/>
			</g>
			<g>
				<polygon style="fill:#CFBCB1;" points="394.75,377.586 370.58,355.988 128.382,355.988 104.212,377.586 				"/>
			</g>
			<g>
				<path style="fill:#937948;" d="M338.326,367.666c0,3.296-12.974,5.969-28.978,5.969c-16.004,0-28.978-2.672-28.978-5.969
					c0-3.296,12.974-5.969,28.978-5.969C325.352,361.698,338.326,364.37,338.326,367.666z"/>
			</g>
			<g>
				<ellipse style="fill:#937948;" cx="140.546" cy="392.219" rx="36.59" ry="8.219"/>
			</g>
			<g>
				<polygon style="fill:#937948;" points="192.389,383.285 184.675,401.594 314.287,401.594 306.573,383.285 				"/>
			</g>
			<g>
				<polygon style="fill:#009CA4;" points="464.474,412.225 34.488,412.225 33.785,407.678 465.177,407.678 				"/>
			</g>
			<g>
				<rect x="102.374" y="175.824" style="fill:#B9EAE7;" width="293.501" height="165.06"/>
			</g>
			<g>
				<rect x="316.056" y="175.824" style="fill:#009CA4;" width="11.398" height="165.06"/>
			</g>
			<g>
				<rect x="102.374" y="175.824" style="fill:#009CA4;" width="293.501" height="9.86"/>
			</g>
			<g>
				<rect x="102.374" y="175.361" style="fill:#247070;" width="293.501" height="2.323"/>
			</g>
			<g>
				<rect x="102.374" y="331.322" style="fill:#FF9489;" width="293.501" height="9.562"/>
			</g>
			<g>
				<rect x="102.374" y="339.107" style="fill:#937948;" width="293.501" height="1.777"/>
			</g>
		</g>
		<g>
			<g>
				<g>
					<path style="fill:#002828;" d="M220.232,135.246V341.77h100.149V135.246c0-6.988-5.243-12.741-12.008-13.567v-0.112H208.224
						v0.112C214.989,122.505,220.232,128.258,220.232,135.246z"/>
				</g>
				<g>
					<path style="fill:#CFBCB1;" d="M308.057,121.711v-0.144H209.58c-7.309-0.19-12.656,7.046-13.679,17.504v189.691h100.149
						V139.072C296.049,130.13,301.292,122.768,308.057,121.711z"/>
				</g>
				<g>
					<g>
						<rect x="259.599" y="139.249" style="fill:#002828;" width="32.059" height="2"/>
					</g>
					<g>
						<rect x="259.599" y="152.247" style="fill:#002828;" width="32.059" height="2"/>
					</g>
					<g>
						<rect x="259.599" y="165.245" style="fill:#002828;" width="32.059" height="2"/>
					</g>
				</g>
				<g>
					<circle style="fill:#FF9489;" cx="230.339" cy="153.687" r="23.355"/>
				</g>
			</g>
			<g>
				<g>
					<path style="fill:#002828;" d="M284.357,314.852V162.463c0-6.988-5.243-12.741-12.008-13.567v-0.112H172.2v0.112
						c6.765,0.826,12.008,6.579,12.008,13.567v152.389c0,8.238,6.679,14.917,14.917,14.917h97.7v-0.218
						C289.754,328.381,284.357,322.255,284.357,314.852z"/>
				</g>
				<g>
					<path style="fill:#F9F3EF;" d="M271.569,148.81v-0.112h-98.477c-7.555,0-13.679,6.124-13.679,13.679v148.242h100.148V162.376
						C259.561,155.389,264.805,149.635,271.569,148.81z"/>
				</g>
				<g>
					<rect x="159.413" y="227.318" style="fill:#F7DCDC;" width="100.148" height="83.301"/>
				</g>
			</g>
			<g>
				
					<ellipse transform="matrix(0.9261 -0.3773 0.3773 0.9261 -54.8759 85.4841)" style="fill:#009CA4;" cx="190.763" cy="182.815" rx="23.355" ry="23.355"/>
			</g>
			<path style="fill:#F9F3EF;" d="M201.125,188.85c-0.358-1.602-1.061-2.954-2.031-3.914c-0.616-0.609-1.333-1.052-2.025-1.482
				c-0.923-0.573-1.796-1.114-2.351-1.988c-0.541-0.852-0.713-1.941-0.806-3.013c0.073-0.082,0.156-0.149,0.225-0.238
				c1.069-1.385,1.459-3.13,1.598-4.349c0.191-1.693,0.032-3.372-0.127-4.646l-0.017-0.134l-0.076-0.112
				c-0.002-0.003-0.005-0.006-0.007-0.009c0.041-1.212-0.716-2.439-1.853-2.887c-0.196-0.623-0.967-0.841-1.62-0.85
				c-2.079-0.027-3.984,1.051-5.918,1.816c-0.413,0.163-0.862,0.338-1.094,0.717c-0.268,0.437-0.158,0.998-0.033,1.495
				c0.194,0.771,0.411,1.537,0.64,2.299c-0.027,0.744-0.019,1.526,0.071,2.312c0.139,1.22,0.529,2.964,1.597,4.349
				c0.068,0.089,0.151,0.156,0.224,0.238c-0.093,1.073-0.266,2.162-0.806,3.013c-0.555,0.874-1.428,1.415-2.351,1.988
				c-0.692,0.43-1.409,0.874-2.025,1.482c-0.97,0.959-1.673,2.313-2.032,3.914c-0.284,1.275-0.356,2.715-0.22,4.403l0.034,0.431
				l0.424,0.083l10.291,0.06l9.83-0.018l0.646-0.124l0.035-0.432C201.482,191.565,201.41,190.124,201.125,188.85z M186.832,173.737
				c-0.067-0.591-0.079-1.181-0.07-1.758c0.362-0.896,0.629-1.831,0.773-2.786c1.144,0.714,2.555,0.872,3.901,0.79
				c1.029-0.063,2.045-0.255,3.067-0.402c0.141,1.181,0.266,2.676,0.098,4.157c-0.122,1.075-0.458,2.605-1.366,3.782
				c-0.057,0.074-0.122,0.135-0.186,0.199l-0.138,0.142c-0.635,0.654-1.372,1.015-2.164,1.015c-0.002,0-0.005,0-0.007,0
				l-0.138,0.002c-0.705,0.001-1.444-0.361-2.081-1.016l-0.188-0.193c-0.044-0.051-0.094-0.093-0.136-0.147
				C187.29,176.343,186.954,174.813,186.832,173.737z M200.244,192.68l-19.055,0.009c-0.078-1.368-0.002-2.547,0.23-3.59
				c0.31-1.388,0.905-2.547,1.72-3.352c0.525-0.519,1.156-0.911,1.825-1.325c0.991-0.616,2.017-1.252,2.711-2.346
				c0.52-0.817,0.762-1.755,0.895-2.705c0.644,0.42,1.341,0.644,2.033,0.644l0.089-0.003l0.138,0.003
				c0.692,0,1.388-0.223,2.033-0.644c0.132,0.949,0.375,1.887,0.895,2.705c0.694,1.094,1.719,1.73,2.711,2.346
				c0.669,0.415,1.299,0.806,1.825,1.325c0.816,0.804,1.41,1.964,1.72,3.352C200.246,190.139,200.322,191.314,200.244,192.68z"/>
			<g>
				<g>
					<circle style="fill:#FF9489;" cx="190.763" cy="269.754" r="23.355"/>
				</g>
			</g>
			<g>
				<g>
					<g>
						<path style="fill:#F9F3EF;" d="M200.645,279.158c-0.358-1.601-1.061-2.954-2.031-3.914c-0.616-0.608-1.333-1.052-2.025-1.482
							c-0.925-0.573-1.797-1.114-2.352-1.988c-0.158-0.249-0.279-0.521-0.382-0.803c0.548,0.468,1.432,0.395,2.022-0.035
							c0.661-0.481,1.019-1.297,1.098-2.111c0.079-0.814-0.092-1.631-0.319-2.416c-0.329-1.139-0.778-2.244-1.334-3.291
							c0.007-0.195,0.009-0.384,0.009-0.575c0.853-1.705,0.5-3.955-0.813-5.372c-1.464-1.58-3.895-2.091-5.951-1.448
							c-1.452,0.454-2.75,1.465-3.421,2.83c-0.619,1.26-0.646,2.813-0.01,4.057c0.001,0.169,0.004,0.336,0.01,0.508
							c-0.556,1.047-1.006,2.151-1.334,3.291c-0.227,0.785-0.398,1.603-0.319,2.416c0.079,0.814,0.437,1.63,1.098,2.111
							c0.59,0.43,1.474,0.503,2.022,0.035c-0.103,0.283-0.224,0.555-0.382,0.803c-0.555,0.873-1.427,1.415-2.351,1.988
							c-0.693,0.43-1.408,0.875-2.025,1.483c-0.971,0.96-1.674,2.314-2.032,3.914c-0.285,1.274-0.357,2.714-0.221,4.404l0.125,0.451
							l0.427,0.081l10.199,0.042l9.835-0.019l0.64-0.122l0.035-0.432C201.001,281.873,200.928,280.432,200.645,279.158z
							 M187.716,267.827c-0.908-1.176-1.244-2.706-1.366-3.782c-0.109-0.952-0.09-1.904-0.029-2.784
							c0.162-0.29,0.405-0.544,0.691-0.716c0.517-0.313,1.131-0.419,1.73-0.496c1.147-0.147,2.305-0.208,3.461-0.182
							c0.673,0.016,1.464,0.16,1.882,0.623c0.109,1.071,0.176,2.316,0.034,3.556c-0.122,1.076-0.459,2.606-1.366,3.782
							c-0.655,0.85-1.552,1.357-2.399,1.357l-0.095-0.002l-0.143,0.002C189.27,269.184,188.372,268.677,187.716,267.827z
							 M199.762,282.987l-19.055,0.011c-0.078-1.37-0.002-2.548,0.231-3.591c0.309-1.387,0.904-2.546,1.72-3.352
							c0.525-0.518,1.156-0.91,1.825-1.324c0.991-0.615,2.017-1.252,2.711-2.345c0.52-0.818,0.762-1.757,0.894-2.705
							c0.014,0.009,0.03,0.015,0.045,0.024v-0.002c0.627,0.389,1.307,0.623,1.983,0.623l0.094-0.004l0.144,0.004
							c0.664,0,1.334-0.225,1.952-0.603c0.025-0.013,0.05-0.026,0.074-0.042c0.132,0.948,0.375,1.886,0.895,2.705
							c0.694,1.094,1.72,1.73,2.712,2.346c0.669,0.415,1.3,0.806,1.825,1.324c0.816,0.806,1.41,1.965,1.72,3.352
							C199.765,280.447,199.84,281.622,199.762,282.987z"/>
					</g>
				</g>
			</g>
			<g>
				<g>
					<g>
						<rect x="219.707" y="167.566" style="fill:#002828;" width="32.058" height="2"/>
					</g>
					<g>
						<rect x="219.707" y="180.564" style="fill:#002828;" width="32.058" height="2"/>
					</g>
					<g>
						<rect x="219.707" y="193.563" style="fill:#002828;" width="32.058" height="2"/>
					</g>
				</g>
				<g>
					<g>
						<rect x="219.707" y="258.926" style="fill:#002828;" width="32.058" height="2"/>
					</g>
					<g>
						<rect x="219.707" y="271.924" style="fill:#002828;" width="32.058" height="2"/>
					</g>
					<g>
						<rect x="219.707" y="284.922" style="fill:#002828;" width="32.058" height="2"/>
					</g>
				</g>
			</g>
		</g>
		<g>
			<g>
				<g>
					<path style="fill:#002828;" d="M352.369,154.809l-1.456-1.86c-0.904-1.156-2.29-1.831-3.757-1.831h-6.528
						c-2.635,0-4.771,2.136-4.771,4.771v22.327c0,2.635,2.136,4.771,4.771,4.771h30.489c2.635,0,4.771-2.136,4.771-4.771v-16.805
						c0-2.635-2.136-4.771-4.771-4.771h-14.99C354.659,156.64,353.273,155.965,352.369,154.809z"/>
				</g>
				<g>
					<path style="fill:#B9EAE7;" d="M349.128,148.412l-1.456-1.86c-0.904-1.156-2.29-1.831-3.757-1.831h-6.528
						c-2.635,0-4.771,2.136-4.771,4.771v22.327c0,2.635,2.136,4.771,4.771,4.771h30.489c2.635,0,4.771-2.136,4.771-4.771v-16.805
						c0-2.635-2.136-4.771-4.771-4.771h-14.99C351.418,150.243,350.032,149.568,349.128,148.412z"/>
				</g>
				<g>
					<path style="fill:#009CA4;" d="M349.128,150.488l-1.456-1.86c-0.904-1.156-2.29-1.831-3.757-1.831h-6.528
						c-2.635,0-4.771,2.136-4.771,4.771v22.327c0,2.635,2.136,4.771,4.771,4.771h30.489c2.635,0,4.771-2.136,4.771-4.771V157.09
						c0-2.635-2.136-4.771-4.771-4.771h-14.99C351.418,152.319,350.032,151.644,349.128,150.488z"/>
				</g>
			</g>
			<g>
				<g>
					<path style="fill:#009CA4;" d="M346.133,241.558l-0.786-1.005c-0.488-0.624-1.237-0.989-2.029-0.989h-3.526
						c-1.423,0-2.577,1.154-2.577,2.577V254.2c0,1.423,1.154,2.577,2.577,2.577h16.466c1.423,0,2.577-1.154,2.577-2.577v-9.076
						c0-1.423-1.154-2.577-2.577-2.577h-8.096C347.37,242.547,346.622,242.182,346.133,241.558z"/>
				</g>
				<g>
					<path style="fill:#F9F3EF;" d="M344.383,239.224l-0.786-1.005c-0.489-0.624-1.237-0.989-2.029-0.989h-3.526
						c-1.423,0-2.577,1.154-2.577,2.577v12.058c0,1.423,1.154,2.577,2.577,2.577h16.467c1.423,0,2.577-1.154,2.577-2.577v-9.076
						c0-1.423-1.154-2.577-2.577-2.577h-8.096C345.62,240.213,344.871,239.848,344.383,239.224z"/>
				</g>
			</g>
			<g>
				<g>
					<path style="fill:#009CA4;" d="M346.133,275.479l-0.786-1.005c-0.488-0.624-1.237-0.989-2.029-0.989h-3.526
						c-1.423,0-2.577,1.154-2.577,2.577v12.058c0,1.423,1.154,2.577,2.577,2.577h16.466c1.423,0,2.577-1.154,2.577-2.577v-9.076
						c0-1.423-1.154-2.577-2.577-2.577h-8.096C347.37,276.467,346.622,276.103,346.133,275.479z"/>
				</g>
				<g>
					<path style="fill:#F9F3EF;" d="M344.383,273.145l-0.786-1.005c-0.489-0.624-1.237-0.989-2.029-0.989h-3.526
						c-1.423,0-2.577,1.154-2.577,2.577v12.058c0,1.423,1.154,2.577,2.577,2.577h16.467c1.423,0,2.577-1.154,2.577-2.577v-9.076
						c0-1.423-1.154-2.577-2.577-2.577h-8.096C345.62,274.134,344.871,273.769,344.383,273.145z"/>
				</g>
			</g>
			<g>
				<g>
					<path style="fill:#009CA4;" d="M346.133,309.4l-0.786-1.005c-0.488-0.624-1.237-0.989-2.029-0.989h-3.526
						c-1.423,0-2.577,1.154-2.577,2.577v12.058c0,1.423,1.154,2.577,2.577,2.577h16.466c1.423,0,2.577-1.154,2.577-2.577v-9.076
						c0-1.423-1.154-2.577-2.577-2.577h-8.096C347.37,310.388,346.622,310.024,346.133,309.4z"/>
				</g>
				<g>
					<path style="fill:#F9F3EF;" d="M344.383,307.066l-0.786-1.005c-0.489-0.624-1.237-0.989-2.029-0.989h-3.526
						c-1.423,0-2.577,1.154-2.577,2.577v12.058c0,1.423,1.154,2.577,2.577,2.577h16.467c1.423,0,2.577-1.154,2.577-2.577v-9.076
						c0-1.423-1.154-2.577-2.577-2.577h-8.096C345.62,308.055,344.871,307.69,344.383,307.066z"/>
				</g>
			</g>
			<g>
				<g>
					<path style="fill:#009CA4;" d="M374.196,292.972l-0.786-1.005c-0.488-0.624-1.237-0.989-2.029-0.989h-3.526
						c-1.423,0-2.577,1.154-2.577,2.577v12.058c0,1.423,1.154,2.577,2.577,2.577h16.467c1.423,0,2.577-1.154,2.577-2.577v-9.076
						c0-1.423-1.154-2.577-2.577-2.577h-8.096C375.433,293.961,374.684,293.596,374.196,292.972z"/>
				</g>
				<g>
					<path style="fill:#F9F3EF;" d="M372.445,290.638l-0.786-1.005c-0.488-0.624-1.237-0.989-2.029-0.989h-3.526
						c-1.423,0-2.577,1.154-2.577,2.577v12.058c0,1.423,1.154,2.577,2.577,2.577h16.466c1.423,0,2.577-1.154,2.577-2.577v-9.076
						c0-1.423-1.154-2.577-2.577-2.577h-8.096C373.682,291.627,372.934,291.262,372.445,290.638z"/>
				</g>
			</g>
			<g>
				<g>
					<g>
						<path style="fill:#002828;" d="M112.145,193.598h-9.965v29.767h9.965c4.417,0,7.997-3.581,7.997-7.997v-13.773
							C120.142,197.179,116.561,193.598,112.145,193.598z"/>
					</g>
				</g>
				<g>
					<g>
						<path style="fill:#009CA4;" d="M107.3,218.176H53.097c-4.417,0-7.997-3.58-7.997-7.997v-13.773
							c0-4.417,3.581-7.997,7.997-7.997H107.3c4.417,0,7.997,3.581,7.997,7.997v13.773
							C115.298,214.595,111.717,218.176,107.3,218.176z"/>
					</g>
				</g>
				<g>
					<g>
						<g>
							<path style="fill:#F9F3EF;" d="M103.91,197.632H55.598c-0.276,0-0.499-0.223-0.499-0.499c0-0.276,0.223-0.499,0.499-0.499
								h48.312c0.276,0,0.499,0.223,0.499,0.499C104.409,197.409,104.186,197.632,103.91,197.632z"/>
						</g>
					</g>
					<g>
						<g>
							<path style="fill:#F9F3EF;" d="M103.91,204.094H55.598c-0.276,0-0.499-0.223-0.499-0.499c0-0.276,0.223-0.499,0.499-0.499
								h48.312c0.276,0,0.499,0.223,0.499,0.499C104.409,203.871,104.186,204.094,103.91,204.094z"/>
						</g>
					</g>
					<g>
						<g>
							<path style="fill:#F9F3EF;" d="M103.91,210.556H55.598c-0.276,0-0.499-0.223-0.499-0.499c0-0.276,0.223-0.499,0.499-0.499
								h48.312c0.276,0,0.499,0.223,0.499,0.499C104.409,210.333,104.186,210.556,103.91,210.556z"/>
						</g>
					</g>
				</g>
			</g>
			<g>
				<g>
					<g>
						<path style="fill:#002828;" d="M396.077,196.013h-43.476c-4.417,0-7.997,3.581-7.997,7.997v13.773
							c0,4.417,3.58,7.997,7.997,7.997h43.476V196.013z"/>
					</g>
				</g>
				<g>
					<g>
						<path style="fill:#009CA4;" d="M406.805,220.081h-54.203c-4.417,0-7.997-3.581-7.997-7.997v-13.773
							c0-4.417,3.581-7.997,7.997-7.997h54.203c4.417,0,7.997,3.58,7.997,7.997v13.773
							C414.802,216.501,411.222,220.081,406.805,220.081z"/>
					</g>
				</g>
				<g>
					<g>
						<g>
							<path style="fill:#F9F3EF;" d="M403.415,199.538h-48.312c-0.276,0-0.499-0.223-0.499-0.499s0.223-0.499,0.499-0.499h48.312
								c0.276,0,0.499,0.223,0.499,0.499S403.69,199.538,403.415,199.538z"/>
						</g>
					</g>
					<g>
						<g>
							<path style="fill:#F9F3EF;" d="M403.415,205.999h-48.312c-0.276,0-0.499-0.223-0.499-0.499c0-0.276,0.223-0.499,0.499-0.499
								h48.312c0.276,0,0.499,0.223,0.499,0.499C403.913,205.776,403.69,205.999,403.415,205.999z"/>
						</g>
					</g>
					<g>
						<g>
							<path style="fill:#F9F3EF;" d="M403.415,212.461h-48.312c-0.276,0-0.499-0.223-0.499-0.499c0-0.276,0.223-0.499,0.499-0.499
								h48.312c0.276,0,0.499,0.223,0.499,0.499C403.913,212.238,403.69,212.461,403.415,212.461z"/>
						</g>
					</g>
				</g>
			</g>
		</g>
		<g>
			<g>
				<g>
					<path style="fill:#FF9489;" d="M141.349,202.346c-2.274-0.248-5.044-1.626-7.25-2.231c-0.617,2.717-2.03,9.631-3.969,12.876
						l-0.752,1.029c5.331,3.777,10.801,5.642,17.134,7.245C143.435,215.438,141.659,208.929,141.349,202.346z"/>
				</g>
				<g>
					<g>
						<path style="fill:#FF9489;" d="M150.113,191.199c0.787,2.621,1.02,5.372,1.248,8.1c0.1,1.2,0.2,2.415-0.007,3.601
							c-0.399,2.281-1.875,4.196-2.997,6.221c-0.501,0.905-1.004,1.913-1.942,2.351c-0.876,0.409-1.908,0.206-2.827-0.092
							c-3.655-1.186-6.795-3.802-8.774-7.095c-1.305-2.171-2.134-4.739-1.729-7.24c0.512-3.16,3.001-5.793,5.979-6.967
							c2.978-1.174,6.359-1.027,9.426-0.11L150.113,191.199z"/>
					</g>
					<g>
						<path style="fill:#002828;" d="M140.586,203.748c3.533-1.767,9.303-4.292,10.31-8.841c-0.181-1.253-0.419-2.495-0.783-3.708
							l-1.623-1.232c-3.067-0.917-6.448-1.064-9.426,0.11c-2.978,1.174-5.467,3.807-5.979,6.967
							c-0.375,2.314,0.313,4.682,1.451,6.744C135.396,204.18,136.694,204.959,140.586,203.748z"/>
					</g>
					<g>
						<path style="fill:#937948;" d="M149.607,184.984c-2.128-2.46-5.171-4.11-8.394-4.551c-1.176-0.161-2.427-0.155-3.486,0.384
							c-1.058,0.538-1.855,1.726-1.628,2.891c-2.777,0.178-5.371,1.804-6.948,4.096c-1.578,2.292-2.175,5.187-1.886,7.954
							c0.178,1.701,0.716,3.437,1.92,4.653c1.575,1.592,2.805,2.999,5.044,3.012c3.633,0.021,8.478-1.825,11.602-3.681
							c3.124-1.855,5.675-4.734,6.91-8.151c0.716-1.981,0.949-4.316-0.177-6.096L149.607,184.984z"/>
					</g>
					<g>
						<path style="fill:#002828;" d="M128.302,190.2c-0.505,1.857-0.584,3.829-0.23,5.721c0.251-0.651,0.502-1.302,0.753-1.953
							c-0.363,0.998-0.293,2.144,0.188,3.09c0.481,0.946,1.365,1.679,2.384,1.974c-0.691-1.46-0.551-3.28,0.353-4.619
							c-0.378,0.34,0.043,1.033,0.551,1.06c0.508,0.027,0.942-0.343,1.297-0.706c2.483-2.531,4.093-5.875,4.653-9.376
							c0.212-1.324,0.213-2.855-0.747-3.792c-0.965-0.943-2.569-0.888-3.788-0.31c-1.313,0.623-2.34,1.745-3.078,2.997
							c-0.738,1.252-1.214,2.639-1.665,4.021L128.302,190.2z"/>
					</g>
					<g>
						<path style="fill:#FF9489;" d="M133.468,190.305c-0.802,0.301-1.796,0.433-2.437-0.135c-0.603-0.535-0.633-1.462-0.511-2.259
							c0.467-3.039,2.592-5.769,5.423-6.969c0.568-0.241,1.248-0.416,1.78-0.102c0.537,0.318,0.708,1.009,0.755,1.631
							C138.723,185.787,136.58,189.139,133.468,190.305z"/>
					</g>
					<g>
						<path style="fill:#FF9489;" d="M148.278,198.903c0.059-0.744,0.103-1.515-0.154-2.216c-0.257-0.701-0.894-1.317-1.641-1.311
							c-0.726,0.006-1.323,0.573-1.729,1.175c-1.027,1.523-1.316,3.521-0.762,5.272c0.139,0.438,0.341,0.879,0.704,1.161
							c0.363,0.281,0.923,0.351,1.273,0.052L148.278,198.903z"/>
					</g>
					<g>
						<path style="fill:#937948;" d="M135.355,176.701c-1.576-0.871-3.516-0.941-5.244-0.433c-1.727,0.507-3.259,1.551-4.57,2.785
							c-2.134,2.009-3.75,4.565-4.65,7.354c-0.557,1.725-0.804,3.74,0.201,5.249c1.011,1.516,3.063,2.069,4.857,1.755
							c1.795-0.314,3.379-1.34,4.832-2.44c3.919-2.968,5.091-3.969,6.809-8.575l0.391-1.291
							C138.063,179.306,136.931,177.572,135.355,176.701z"/>
					</g>
				</g>
			</g>
			<g>
				<g>
					<path style="fill:#FF9489;" d="M173.013,387.188c-5.15-2.518-8.488-6.846-11.329-11.304
						c-5.475-38.626,0.025-34.985-1.781-51.212h-16.35c-0.56,10.184,0.908,20.288,3.41,29.945
						c1.949,7.525,4.485,14.067,7.219,21.267c0.607,1.598,0.762,4.091,0.274,5.77c-0.358,1.233-0.564,2.383,0.111,3.333
						c1.608,2.216,3.191,1.682,6.072,2.612c3.363,1.085,2.671,3.324,9.473,3.495c1.298,0.033,2.675,0.064,3.833-0.646
						c0.407-0.25,0.795-0.62,0.906-1.104C175.097,388.267,173.914,387.629,173.013,387.188z"/>
				</g>
				<g>
					<path style="fill:#FF1D22;" d="M173.013,387.188c-0.508-0.248-0.985-0.527-1.458-0.809c-1.322,1.073-3.211,1.456-5.185,1.238
						c-4.417-0.488-8.325-3.334-11.985-5.702c-0.309,1.134-0.444,2.19,0.182,3.072c1.608,2.216,3.191,1.682,6.072,2.612
						c3.363,1.085,2.671,3.324,9.473,3.495c1.298,0.033,2.675,0.064,3.833-0.646c0.407-0.25,0.795-0.62,0.906-1.104
						C175.097,388.267,173.914,387.629,173.013,387.188z"/>
				</g>
				<g>
					<path style="fill:#002828;" d="M160.225,333.227c0.12-2.325,0.079-4.949-0.322-8.554h-16.35
						c-0.428,7.767,0.331,15.486,1.822,22.998C148.68,341.86,154.165,336.809,160.225,333.227z"/>
				</g>
			</g>
			<g>
				<g>
					<path style="fill:#FF9489;" d="M145.01,393.456c-0.018-0.009-2.758-2.121-2.77-2.137c-1.968-2.575-2.636-5.353-2.205-8.565
						c2.337-17.423,5.09-35.795,8.003-53.016h-16.9c-2.491,18.143-1.831,36.521,1.929,53.667c0.456,2.081,0.504,4.233,0.188,6.34
						c-0.206,1.37-0.384,2.743-0.532,4.117c-0.142,1.314-0.211,2.803,0.555,3.677c0.624,0.712,2.947,0.349,4.767,1.14
						c4.764,2.071,10.149,2.552,13.535,0.871C153.591,398.141,149.284,395.751,145.01,393.456z"/>
				</g>
				<g>
					<path style="fill:#FF1D22;" d="M149.053,395.742c-0.618,0.809-1.606,1.412-2.967,1.729c-1.936,0.451-4.708-0.348-6.523-0.998
						c-2.202-0.789-4.518-2.14-6.843-2.595c-0.141,1.31-0.206,2.792,0.556,3.662c0.624,0.712,2.947,0.349,4.767,1.14
						c4.764,2.071,10.149,2.552,13.535,0.871C152.921,398.611,151.448,397.235,149.053,395.742z"/>
				</g>
				<g>
					<path style="fill:#002828;" d="M146.852,338.668c0.496-3,0.996-5.986,1.502-8.929h-17.203
						c-0.307,2.196-0.565,4.395-0.778,6.595C135.394,339.221,141.431,339.998,146.852,338.668z"/>
				</g>
			</g>
			<g>
				<g>
					<path style="fill:#937948;" d="M159.732,285.652c-11.521,2.375-19.076,2.058-33.085-0.158l-4.768-0.727
						c-0.198,7.625,2.628,14.835,4.512,22.136c2.306,8.939,3.234,18.365,2.724,27.685c13.124,2.534,25.116,1.28,32.125-3.957
						C160.762,317.016,160.682,300.137,159.732,285.652z"/>
				</g>
				<g>
					<path style="fill:#002828;" d="M160.128,293.963c-0.148-3.783-0.161-4.735-0.396-8.311
						c-11.521,2.375-19.076,2.058-33.085-0.158l-4.768-0.727c-0.106,4.082,0.657,8.044,1.676,11.966
						C135.876,300.377,147.949,297.285,160.128,293.963z"/>
				</g>
			</g>
			<g>
				<path style="fill:#FF1D22;" d="M144.878,225.237c-0.401-1.105-0.807-2.243-0.774-3.418c0.033-1.175,0.609-2.413,1.685-2.886
					c0.916-0.402,2.014-0.172,2.858,0.365s1.478,1.341,2.062,2.153c6.796,9.447,8.853,21.612,15.357,31.262
					c-2.894,2.333-5.789,4.666-8.683,6.998C153.215,248.22,149.047,236.729,144.878,225.237z"/>
			</g>
			<g>
				<g>
					<path style="fill:#8E141A;" d="M148.809,290.243c0.756-12.832,1.998-23.203,1.386-36.043
						c-0.612-12.84-1.863-25.781-6.008-37.95c7.655,3.447,11.565,11.762,13.204,19.996c1.639,8.234,1.066,16.725,1.014,25.12
						c-0.059,9.454,0.299,18.541,3.573,28.358C157.954,291.289,153.106,289.812,148.809,290.243z"/>
				</g>
				<g>
					<path style="fill:#002828;" d="M158.406,261.366c0.052-8.395,0.625-16.886-1.014-25.12c-0.016-0.078-0.036-0.156-0.052-0.234
						l-6.997,25.943c-0.029,5.68-0.358,11.048-0.745,16.61l9.652-0.671C158.486,272.363,158.371,266.928,158.406,261.366z"/>
				</g>
				<g>
					<path style="fill:#FF1D22;" d="M122.396,215.957c-2.724,2.635-3.454,6.785-2.999,10.548c0.625,5.173,2.645,10.145,5.283,14.639
						c2.434,4.147,4.391,9.085,3.123,15.079c-0.628,2.97-1.877,5.756-3.028,8.566c-2.942,7.18-4.455,14.942-4.423,22.702
						c0.005,1.266,0.095,2.646,0.94,3.588c0.949,1.057,2.523,1.212,3.942,1.281c10.02,0.486,20.075,0.236,30.058-0.746
						c-0.578-14.562-1.156-29.123-1.734-43.685c-0.276-6.942-0.602-14.101-3.565-20.385c-2.648-5.615-7.377-10.218-13.061-12.713
						C132.206,212.756,126.104,212.37,122.396,215.957z"/>
				</g>
				<g>
					<path style="fill:#8E141A;" d="M134.981,292.184c-0.607-5.456,0.141-9.196,1.005-13.526c0.165-0.824,0.335-1.676,0.503-2.572
						c0.109-0.584,0.266-1.179,0.418-1.754c0.271-1.028,0.551-2.093,0.563-3.111c0.008-0.785-0.051-1.59-0.109-2.367
						c-0.061-0.817-0.123-1.662-0.11-2.503c0.036-2.271,0.621-4.492,1.186-6.64c0.171-0.65,0.342-1.298,0.498-1.948
						c0.581-2.419,1.111-5.553,0.043-8.332c-0.519-1.351-1.403-2.567-2.258-3.744c-0.371-0.51-0.741-1.021-1.087-1.544
						c-1.536-2.325-2.079-4.434-1.612-6.267l0.727,0.185c-0.412,1.621,0.096,3.528,1.511,5.669c0.34,0.514,0.704,1.016,1.068,1.517
						c0.883,1.215,1.797,2.472,2.352,3.915c1.142,2.973,0.592,6.252-0.014,8.777c-0.157,0.655-0.33,1.309-0.502,1.963
						c-0.554,2.105-1.127,4.281-1.161,6.461c-0.013,0.807,0.048,1.635,0.108,2.436c0.059,0.793,0.12,1.614,0.111,2.431
						c-0.012,1.112-0.305,2.222-0.587,3.295c-0.155,0.588-0.301,1.143-0.406,1.701c-0.168,0.899-0.339,1.754-0.504,2.58
						c-0.888,4.445-1.589,7.956-0.996,13.298L134.981,292.184z"/>
				</g>
				<g>
					<path style="fill:#002828;" d="M123.48,221.84c-1.164,1.999-0.075,4.514,1.084,6.515c2.179,3.761,4.648,7.395,7.771,10.417
						c3.123,3.022,6.947,5.42,11.187,6.375c1.373,0.31,2.948,0.424,4.057-0.443c1.076-0.841,1.368-2.364,1.244-3.724
						c-0.204-2.229-1.291-4.27-2.413-6.206c-1.943-3.355-4.08-6.641-6.848-9.356c-2.768-2.715-6.225-4.844-10.047-5.494
						C127.298,219.548,124.611,219.896,123.48,221.84z"/>
				</g>
			</g>
			<g>
				<g>
					<path style="fill:#FF1D22;" d="M159.671,260.272c2.436,0.82,5.124-0.058,7.371-1.305c2.73-1.515,5.149-3.587,7.066-6.052
						c-2.509-1.008-4.456-3.311-5.031-5.953c-1.986,1.029-4.276,1.244-6.466,1.699c-2.19,0.455-4.473,1.27-5.784,3.082
						c-1.021,1.411-1.295,3.326-0.736,4.976C156.65,258.37,158.021,259.717,159.671,260.272z"/>
				</g>
				<g>
					<polygon style="fill:#009CA4;" points="164.209,271.819 151.808,271.819 162.215,230.516 174.617,230.516 					"/>
				</g>
				<g>
					<path style="fill:#FF9489;" d="M174.662,246.653c-0.028-0.471-0.064-0.946-0.194-1.4c-0.493-1.725-2.283-2.968-2.39-4.759
						c-0.429,0.775-0.706,1.633-0.812,2.512c-0.937-0.015-1.885-0.028-2.801,0.173c-0.299,0.066-0.645,0.207-0.701,0.508
						c-0.039,0.212,0.093,0.425,0.27,0.547c0.178,0.122,0.394,0.17,0.604,0.216c-0.303,0.166-0.612,0.337-0.843,0.593
						c-0.232,0.256-0.376,0.618-0.286,0.951s0.47,0.588,0.793,0.466c-0.27,0.222-0.556,0.47-0.63,0.812
						c-0.074,0.342,0.206,0.767,0.547,0.689c-0.351,0.233-0.349,0.772-0.142,1.139c0.207,0.367,0.557,0.627,0.835,0.943
						c0.501,0.569,0.757,1.306,1.121,1.971c0.365,0.665,0.916,1.31,1.664,1.43c0.78,0.126,1.524-0.352,2.121-0.87
						c0.274-0.238,0.542-0.497,0.704-0.821c0.207-0.415,0.223-0.895,0.229-1.359C174.767,249.146,174.737,247.898,174.662,246.653z"
						/>
				</g>
			</g>
			<g>
				<g>
					<path style="fill:#FF9489;" d="M184.321,217.44c-1.604,0.874-2.498,2.617-3.299,4.259c-1.75-1.506-3.5-3.013-5.251-4.519
						c1.576-1.116,2.48-2.943,3.159-4.75s1.213-3.704,2.306-5.295c0.213-0.31,0.469-0.623,0.828-0.735
						c0.306-0.096,0.636-0.029,0.957-0.043c0.746-0.032,1.396-0.491,1.998-0.932c2.256-1.654,4.511-3.308,6.767-4.961
						c0.927,1.702-0.857,2.545-3.842,5.205c0.635-0.065,1.787,0.924,1.776,1.562c-0.011,0.638-0.235,1.295-0.035,1.901
						c0.168,0.508,0.624,1.011,0.407,1.5c-0.121,0.273-0.422,0.428-0.553,0.696c-0.181,0.37,0.016,0.805,0.036,1.217
						c0.033,0.687-0.431,1.287-0.871,1.816c-0.674,0.812-1.371,1.643-2.293,2.156C185.745,216.888,184.99,217.075,184.321,217.44z"
						/>
				</g>
				<g>
					<g>
						<path style="fill:#FF1D22;" d="M177.62,213.862c-6.91,7.189-9.336,9.385-16.246,16.574c-4.755-0.229-9.192-2.432-13.208-4.989
							c-4.016-2.557-7.933-5.26-12.09-7.58c-2.752-1.536-6.141-2.995-9.359-2.354c-3.143,0.626-5.315,3.555-5.531,6.694
							c-0.222,3.236,1.741,5.896,4.074,7.911c2.027,1.75,4.436,2.991,6.86,4.13c11.126,5.226,23.198,8.649,35.483,9.074
							c8.015-9.178,11.222-12.94,16.824-23.76C182.755,216.593,179.628,215.298,177.62,213.862z"/>
					</g>
					<g>
						<path style="fill:#8E141A;" d="M165.537,242.434c-0.901,0-1.789-0.21-2.601-0.403c-9.461-2.242-19.244-4.56-28.47-8.176
							c-4.88-1.913-10.821-4.801-13.474-10.206c-0.091-0.186-0.015-0.41,0.171-0.501c0.185-0.093,0.411-0.014,0.501,0.171
							c2.54,5.172,8.321,7.974,13.075,9.837c9.178,3.598,18.934,5.909,28.37,8.145c1.077,0.255,2.296,0.543,3.408,0.27
							c1.75-0.43,2.922-2.124,3.973-3.822c2.716-4.39,4.31-6.915,5.906-9.442c1.591-2.52,3.183-5.043,5.892-9.419
							c0.109-0.176,0.34-0.231,0.516-0.122c0.176,0.109,0.23,0.34,0.122,0.516c-2.71,4.38-4.304,6.903-5.895,9.425
							c-1.595,2.525-3.188,5.049-5.902,9.436c-1.132,1.831-2.407,3.659-4.432,4.156
							C166.311,242.395,165.923,242.434,165.537,242.434z"/>
					</g>
				</g>
			</g>
		</g>
		<g>
			<g>
				<g>
					<path style="fill:#FF9489;" d="M316.056,208.638c-1.919,1.557-5.908,2.376-8.292,3.029c-0.021,3.751-0.956,7.493-2.701,10.814
						c4.582-0.702,9.211-1.097,13.846-1.179C317.377,216.969,317.588,212.971,316.056,208.638z"/>
				</g>
				<g>
					<path style="fill:#FF9489;" d="M313.355,199.099c-3.04-2.939-10.474-4.045-13.98-1.681c-0.238,2.137-0.96,4.638-0.119,5.877
						c0.209,0.307,0.343,0.571,0.447,0.819c-0.075,2.468-2.171,4.594-2.275,7.094c0.92,0.421,1.877,0.76,2.857,1.012
						c0.024,0.006,0.049,0.011,0.074,0.017c0.461,1.08,0.753,1.691,1.411,3.061c0.417,0.87,0.931,1.813,1.844,2.126
						c0.907,0.312,3.443-0.242,4.309-0.654c3.184-1.514,5.787-3.482,7.658-6.471C317.824,206.716,316.395,202.038,313.355,199.099z"
						/>
				</g>
				<g>
					<path style="fill:#002828;" d="M302.472,203.561c-0.044,0-0.088-0.007-0.131-0.023c-0.81-0.301-1.688-0.402-2.546-0.288
						c-0.21,0.036-0.393-0.118-0.421-0.322c-0.026-0.206,0.117-0.394,0.323-0.421c0.978-0.129,1.981-0.016,2.905,0.328
						c0.194,0.072,0.293,0.288,0.221,0.482C302.767,203.468,302.624,203.561,302.472,203.561z"/>
				</g>
				<g>
					<path style="fill:#002828;" d="M300.292,204.765c-0.001,0.277,0.057,0.555,0.17,0.809c0.096,0.216,0.319,0.443,0.533,0.344
						c0.164-0.076,0.199-0.293,0.184-0.473c-0.024-0.29-0.119-0.574-0.275-0.82c-0.099-0.156-0.283-0.313-0.45-0.232
						C300.325,204.455,300.293,204.622,300.292,204.765z"/>
				</g>
				<g>
					<path style="fill:#002828;" d="M300.054,197.652c-0.206,0.079-0.431,0.19-0.497,0.4c-0.108,0.346,0.277,0.632,0.608,0.779
						c1.521,0.678,3.172,1.095,4.566,2.004c1.353,0.882,2.38,2.173,3.375,3.445c0.996,1.272,2.008,2.571,3.344,3.478
						c1.336,0.908,3.077,1.375,4.593,0.817c-3.116-2.9-4.4-7.512-7.894-9.943C305.827,197.017,302.694,196.638,300.054,197.652z"/>
				</g>
				<g>
					<path style="fill:#937948;" d="M300.684,194.463c-0.695,0.41-1.397,0.869-1.83,1.551c-0.433,0.682-0.524,1.644-0.007,2.264
						c0.784,0.941,2.263,0.569,3.488,0.591c2.616,0.046,4.66,2.221,6.165,4.362c1.505,2.141,2.968,4.555,5.391,5.542
						c1.131,0.461,2.596,0.488,3.406-0.425c0.468-0.526,0.621-1.254,0.746-1.947c0.729-4.033,0.929-8.657-1.778-11.734
						c-1.863-2.118-4.829-3.051-7.647-2.904C305.801,191.911,303.114,193.029,300.684,194.463z"/>
				</g>
			</g>
			<g>
				<g>
					<path style="fill:#FF9489;" d="M258.73,225.706c-3.01-0.142-4.236-0.969-6.176-1.3c-0.286-0.049-0.7-0.039-0.968,0.072
						c-0.269,0.111-0.352,0.338-0.213,0.592c0.081,0.149,0.248,0.227,0.403,0.296c0.995,0.439,3.814,1.194,3.543,1.903
						c-1.422-0.122-3.34-0.567-4.762-0.689c-0.296-0.025-0.746,0.074-0.827,0.359c-0.095,0.335,0.526,0.562,0.864,0.642
						c0.918,0.216,1.974,0.584,2.892,0.801c0.532,0.125,1.385,0.507,1.311,0.771c0.059,0.268-0.664,0.556-1.268,0.613
						c-0.897,0.085-2.58,0.314-3.477,0.399c-0.397,0.038-0.934,0.278-0.794,0.652c0.084,0.224,0.367,0.284,0.604,0.31
						c1.467,0.164,4.095-0.048,5.115,0.415c-0.881,0.507-2.468,1.135-3.632,1.572c-0.166,0.063-0.352,0.144-0.411,0.311
						c-0.073,0.206,0.102,0.432,0.31,0.497c0.208,0.065,0.433,0.015,0.645-0.035c1.379-0.326,2.758-0.653,4.137-0.979
						c1.595-0.377,3.206-0.757,4.845-0.781c1.639-0.023,3.332,0.338,4.647,1.317c0.328-1.331,0.912-2.598,1.712-3.711
						c-1.931-0.342-3.662-1.668-4.495-3.443c-0.767-1.633-0.809-3.583-1.833-5.069c-0.68,0.559-0.983,1.536-0.741,2.382
						c0.163,0.568,0.543,1.179,0.258,1.696C260.121,225.84,259.351,225.735,258.73,225.706z"/>
				</g>
				<g>
					<path style="fill:#937948;" d="M266.985,234.193c-1.347-0.245-2.693-0.49-4.04-0.736c-0.084-2.042,0.243-4.102,0.952-6
						c1.323,0.552,2.7,0.954,4.101,1.197C267.392,230.428,267.049,232.305,266.985,234.193z"/>
				</g>
				<g>
					<path style="fill:#937948;" d="M316.538,220.648c-1.628-1.719-4.187-2.461-6.646-1.786c-1.39,0.382-2.626,1.173-3.861,1.916
						c-5.823,3.505-12.176,6.191-18.838,7.537c-6.662,1.346-13.64,1.328-20.204-0.437c-0.563,1.655-1.869,4.149-1.631,6.286
						c10.306,5.826,23.577,7.298,35.182,4.956c5.192-1.048,10.41-3.06,13.978-6.975c2.064-2.265,4.233-5.104,3.614-8.363
						C317.897,222.542,317.327,221.48,316.538,220.648z"/>
				</g>
				<g>
					<path style="fill:#002828;" d="M318.133,223.782c-0.236-1.24-0.806-2.302-1.594-3.134c-1.628-1.719-4.187-2.461-6.646-1.786
						c-1.39,0.382-2.626,1.173-3.861,1.916c-2.168,1.305-4.409,2.495-6.712,3.546c-5.941,5.447-6.178,11.621-11.115,15.826
						c4.184,0.115,8.358-0.227,12.337-1.03c5.192-1.048,10.41-3.06,13.978-6.975C316.583,229.88,318.752,227.042,318.133,223.782z"
						/>
				</g>
			</g>
			<g>
				<g>
					<g>
						<path style="fill:#F9F3EF;" d="M328.771,352.177l-6.089,2.518c0.255,1.277,0.537,1.952,0.302,2.785
							c2.829,1.278,5.353-0.199,7.093-2.467C329.553,354.117,329.157,353.158,328.771,352.177z"/>
					</g>
					<g>
						<path style="fill:#002828;" d="M322.713,357.439c-0.076,0.269-0.153,0.683-0.357,1.011c-1.197,1.932-3.16,3.796-4.91,5.247
							c-0.744,0.617-1.52,1.241-1.979,2.092c-0.459,0.85-0.518,1.999,0.133,2.714c2.607-0.995,5.213-1.991,7.82-2.986
							c0.673-0.257,1.362-0.523,1.906-0.996c0.514-0.447,0.864-1.049,1.285-1.585s0.966-1.036,1.641-1.134s0.8,0.328,1.461,1.057
							c1.182-0.456,2.338-0.98,3.455-1.64c0.044-1.741-1.125-3.643-2.246-4.976c-0.327-0.388-0.317-1.016-0.566-1.442
							C328.35,355.745,325.542,358.717,322.713,357.439z"/>
					</g>
				</g>
				<g>
					<path style="fill:#247070;" d="M322.534,268.714h-14.683c-0.73,1.17-1.347,2.421-1.815,3.718
						c-2.079,5.757-1.885,12.161-1.334,18.315c2.026,22.629,8.471,44.642,17.579,65.118c2.165,0.944,6.914-1.272,9.289-3.805
						c-5.525-13.389-7.475-26.96-7.605-41.629C323.84,296.502,324.46,282.467,322.534,268.714z"/>
				</g>
				<g>
					<path style="fill:#009CA4;" d="M324.435,354.554c-6.017-14.544-10.27-29.808-12.64-45.366l0.742-0.113
						c2.359,15.5,6.596,30.705,12.591,45.192L324.435,354.554z"/>
				</g>
				<g>
					<path style="fill:#002828;" d="M317.448,279.193c2.105,13.921-5.033,25.535-5.508,41.84
						c-3.324-5.699-1.704-14.602-1.176-21.733S313.322,285.032,317.448,279.193z"/>
				</g>
			</g>
			<g>
				<g>
					<g>
						<path style="fill:#F9F3EF;" d="M307.626,360.668l-6.589,0.03c-0.247,1.279-0.24,2.01-0.773,2.692
							c2.136,2.252,5.031,1.84,7.499,0.397C307.616,362.76,307.612,361.722,307.626,360.668z"/>
					</g>
					<g>
						<path style="fill:#002828;" d="M300.027,363.25c-0.172,0.22-0.4,0.575-0.712,0.801c-1.839,1.336-4.361,2.32-6.529,3.002
							c-0.922,0.29-1.877,0.575-2.623,1.188c-0.746,0.614-1.235,1.655-0.903,2.563c2.789,0.064,5.579,0.127,8.368,0.191
							c0.72,0.016,1.459,0.03,2.141-0.202c0.645-0.22,1.197-0.645,1.789-0.982c0.592-0.337,1.286-0.594,1.948-0.43
							c0.662,0.164,0.617,0.607,0.953,1.532c1.266,0.025,2.535-0.024,3.819-0.213c0.699-1.595,0.336-3.798-0.199-5.456
							c-0.156-0.483,0.09-1.061,0.021-1.549C305.887,363.812,302.164,365.502,300.027,363.25z"/>
					</g>
				</g>
				<g>
					<path style="fill:#009CA4;" d="M317.955,268.793l-19.765-0.079c-0.723,0.105-1.447,0.21-2.17,0.316
						c-3.462,21.983-3.408,44.612,0.161,66.575c1.484,9.132,3.574,18.193,3.99,27.454c2.804-0.226,7.065-0.799,9.869-1.025
						c-0.176-13.66-1.744-26.724-1.311-38.272C309.407,305.677,321.28,287.314,317.955,268.793z"/>
				</g>
				<g>
					<path style="fill:#247070;" d="M303.93,361.962c-4.035-31.15-4.162-60.784-0.377-88.079l0.742,0.103
						c-3.775,27.229-3.647,56.795,0.379,87.88L303.93,361.962z"/>
				</g>
			</g>
			<g>
				<g>
					<polygon style="fill:#002828;" points="323.1,275.521 296.268,275.917 296.664,270.93 322.546,270.772 					"/>
				</g>
				<g>
					<rect x="311.702" y="271.009" style="fill:#009CA4;" width="1.979" height="5.936"/>
				</g>
			</g>
			<g>
				<g>
					<path style="fill:#937948;" d="M293.893,264.044c0.12,1.785-1.548,3.518-1.583,5.303c-0.029,1.499,2.142,3.404,3.641,3.404
						l28.089-0.475c-0.267-0.237,1.859-4.432,1.831-4.512c-2.645-7.311-3.771-11.093-2.78-18.804
						c0.93-7.234,3.219-15.5,0.056-22.508c-0.817-1.81-2.668-5.022-4.62-5.823c-10.223-3.91-20.028,4.49-24.04,13.316
						c-2.114,4.65-2.36,9.94-1.94,15.031C292.966,254.066,293.55,258.948,293.893,264.044z"/>
				</g>
				<g>
					<path style="fill:#937948;" d="M321.184,223.513c-5.428-1.8-11.368-2.029-16.918-0.652c-0.167-0.857-0.335-1.714-0.502-2.571
						c5.051-2.286,10.594-3.475,16.138-3.463C319.761,219.116,320.207,221.439,321.184,223.513z"/>
				</g>
				<g>
					<path style="fill:#002828;" d="M310.696,245.865c0.719-1.701,1.368-3.463,1.797-5.259c1.603-3.47,2.436-7.23,2.112-11.045
						c-0.091-1.077-0.333-2.254-1.19-2.912c-1.176-0.904-2.88-0.396-4.198,0.285c-6.636,3.429-10.962,10.091-14.164,16.84
						c-1.195,2.52-2.301,5.227-2.051,8.004c0.107,1.181,0.548,2.43,1.503,3.098c-0.521,1.699,0.61,3.503,1.349,5.176
						c0.929,2.102,1.226,4.478,0.843,6.743c-0.166,0.98-0.456,1.952-0.424,2.946c0.032,0.994,0.473,2.057,1.374,2.477
						c0.695,0.324,1.507,0.206,2.264,0.08c2.189-0.362,4.378-0.724,6.567-1.086c0.824-0.136,1.736-0.324,2.225-1.002
						c0.866-1.201-0.196-2.785-0.949-4.059c-1.811-3.063-1.82-6.909-0.957-10.362C307.66,252.337,309.31,249.143,310.696,245.865z"
						/>
				</g>
			</g>
			<g>
				<g>
					<path style="fill:#FF9489;" d="M266.863,257.94c-1.174-0.031-2.512,0.239-3.35-0.56c-0.88-0.838-1.907-1.712-3.122-1.684
						c-0.45,0.01-0.963,0.219-1.066,0.657c-0.076,0.325,0.101,0.67,0.02,0.994c-0.095,0.379-0.496,0.583-0.854,0.739
						c-0.838,0.365-1.676,0.73-2.514,1.095c-0.262,0.114-0.532,0.233-0.733,0.436c-0.202,0.203-0.323,0.513-0.224,0.782
						c0.088,0.239,0.331,0.406,0.382,0.656c0.096,0.472-0.534,0.82-0.539,1.301c-0.005,0.467,0.557,0.734,0.714,1.174
						c0.094,0.264,0.03,0.553,0.006,0.832c-0.024,0.279,0.012,0.6,0.237,0.768c0.337,0.251,0.915,0.021,1.18,0.348
						c0.204,0.251,0.055,0.652,0.218,0.931c0.175,0.299,0.596,0.31,0.942,0.283c1.022-0.08,2.045-0.159,3.067-0.239
						c0.292-0.023,0.647-0.093,0.734-0.372c0.035-0.113,0.015-0.238,0.045-0.353c0.079-0.301,0.514-0.357,0.764-0.457
						c1.049-0.42,2.064-0.92,3.088-1.397c0.864-0.403,1.82-0.582,2.752-0.78L266.863,257.94z"/>
				</g>
				<g>
					<path style="fill:#937948;" d="M266.674,257.634c-0.073,0.112-0.067,0.257-0.055,0.391c0.162,1.92,0.724,3.806,1.641,5.502
						c1.417-0.341,2.834-0.682,4.251-1.023c-0.775-1.934-1.279-3.976-1.494-6.049c-1.314,0.322-2.627,0.643-3.941,0.965
						C266.924,257.457,266.759,257.504,266.674,257.634z"/>
				</g>
				<g>
					<path style="fill:#937948;" d="M313.448,222.367c-1.465-1.435-3.87-1.521-5.754-0.712c-1.884,0.81-3.348,2.348-4.676,3.91
						c-4.823,5.677-8.551,11.974-13.795,17.266c-6.191,6.248-10.206,9.308-19.585,12.632c0.475,3.799,0.799,4.833,2.256,8.074
						c6.767-0.712,12.8-4.496,19.356-8.423c6.555-3.926,12.639-8.755,17.417-14.718c2.836-3.539,5.238-7.572,6.025-12.039
						C315.06,226.266,314.966,223.854,313.448,222.367z"/>
				</g>
			</g>
		</g>
		<g>
			<path style="fill:#CFBCB1;" d="M152.331,186.154c-1.008,0.162-2.072,0.079-3.12-0.222c-2.536-0.729-5.349-3.346-8.054-3.139
				c-0.081,0.607-0.163,1.213-0.244,1.82c0.511-0.299,1.044-0.606,1.634-0.656c0.59-0.05,1.253,0.236,1.44,0.798
				c0.148,0.447,0.015,1.045,0.403,1.31c0.536,0.366,1.279-0.426,1.87-0.157c0.569,0.26,0.48,1.275,1.077,1.463
				c0.517,0.162,1.156-0.463,1.555-0.097c0.316,0.29,0.069,0.913,0.399,1.187c0.165,0.137,0.405,0.121,0.609,0.187
				c0.63,0.205,1.43,1.202,1.392,1.864C152.395,189.409,152.718,187.853,152.331,186.154z"/>
		</g>
		<g>
			<path style="fill:#FF9489;" d="M308.094,204.483c0.429-0.371,1.161-1.118,1.22-1.682c0.06-0.564,0.173-1.195,0.638-1.519
				c0.54-0.376,1.333-0.132,1.762,0.367c0.429,0.499,0.578,1.174,0.683,1.824c0.125,0.773,0.206,1.568,0.052,2.335
				c-0.154,0.768-0.575,1.513-1.255,1.901c-0.68,0.388-1.633,0.33-2.159-0.25L308.094,204.483z"/>
		</g>
		<g>
			<path style="fill:#937948;" d="M305.659,199.21c0.941,2.129,1.424,4.459,1.406,6.787c0.39,0.027,0.78,0.054,1.17,0.081
				c0.268-1.486,0.759-2.055,1.027-3.541C308.389,201.44,306.98,199.678,305.659,199.21z"/>
		</g>
	</g>
</g>
</svg>
