<?xml version="1.0" encoding="utf-8"?>
<!-- Generator: Adobe Illustrator 27.5.0, SVG Export Plug-In . SVG Version: 6.00 Build 0)  -->
<svg version="1.1" id="Ñëîé_1" xmlns="http://www.w3.org/2000/svg" xmlns:xlink="http://www.w3.org/1999/xlink" x="0px" y="0px"
	 viewBox="0 0 500 500" style="enable-background:new 0 0 500 500;" xml:space="preserve">
<rect style="fill:#B3E0FF;" width="500" height="500"/>
<g style="opacity:0.4;">
	<path style="fill:#FFFFFF;" d="M409.723,231.326l-31.284-18.063l31.284-18.063l31.284,18.063L409.723,231.326z M380.653,213.264
		l29.069,16.783l29.069-16.783l-29.069-16.783L380.653,213.264z"/>
	<path style="fill:#FFFFFF;" d="M349.369,231.325l-0.276-0.16l-31.009-17.902l31.284-18.063l31.285,18.063L349.369,231.325z
		 M320.299,213.263l29.07,16.783l29.069-16.782l-29.07-16.784L320.299,213.263z"/>
	<path style="fill:#FFFFFF;" d="M379.547,248.749l-31.285-18.064l31.284-18.061l31.284,18.063L379.547,248.749z M350.476,230.686
		l29.07,16.784l29.068-16.783l-29.069-16.783L350.476,230.686z"/>
	<path style="fill:#FFFFFF;" d="M409.724,266.172l-31.284-18.063l31.283-18.063l0.276,0.16l31.009,17.902L409.724,266.172z
		 M380.654,248.109l29.069,16.783l29.069-16.783l-29.07-16.783L380.654,248.109z"/>
	<path style="fill:#FFFFFF;" d="M289.014,231.325l-0.276-0.16l-31.009-17.902l31.284-18.063l0.276,0.16l31.009,17.902
		L289.014,231.325z M259.944,213.263l29.07,16.783l29.069-16.783l-29.07-16.783L259.944,213.263z"/>
	<path style="fill:#FFFFFF;" d="M319.192,248.748l-0.276-0.16l-31.009-17.902l31.284-18.063l0.276,0.16l31.009,17.902
		L319.192,248.748z M290.122,230.686l29.07,16.783l29.069-16.783l-29.07-16.783L290.122,230.686z"/>
	<path style="fill:#FFFFFF;" d="M349.37,266.171l-0.276-0.16l-31.009-17.902l31.284-18.063l31.285,18.063L349.37,266.171z
		 M320.3,248.109l29.07,16.783l29.069-16.782l-29.07-16.784L320.3,248.109z"/>
	<path style="fill:#FFFFFF;" d="M379.547,283.594l-31.284-18.063l31.284-18.062l31.284,18.063L379.547,283.594z M350.477,265.531
		l29.069,16.783l29.069-16.782l-29.069-16.783L350.477,265.531z"/>
	<path style="fill:#FFFFFF;" d="M409.724,301.018l-31.285-18.063l31.284-18.062l0.276,0.16l31.009,17.902L409.724,301.018z
		 M380.654,282.954l29.07,16.784l29.069-16.783l-29.07-16.783L380.654,282.954z"/>
	<path style="fill:#FFFFFF;" d="M228.66,231.324l-0.276-0.16l-31.009-17.902l31.284-18.063l31.285,18.063L228.66,231.324z
		 M199.59,213.262l29.07,16.783l29.069-16.782l-29.07-16.784L199.59,213.262z"/>
	<path style="fill:#FFFFFF;" d="M258.838,248.747l-0.276-0.16l-31.009-17.902l31.284-18.061l0.276,0.16l31.009,17.902
		L258.838,248.747z M229.768,230.685l29.07,16.783l29.069-16.782l-29.07-16.783L229.768,230.685z"/>
	<path style="fill:#FFFFFF;" d="M289.016,266.171l-31.285-18.064l31.284-18.062l0.276,0.16l31.009,17.902L289.016,266.171z
		 M259.945,248.108l29.07,16.784l29.069-16.783l-29.07-16.783L259.945,248.108z"/>
	<path style="fill:#FFFFFF;" d="M319.193,283.594l-0.276-0.16l-31.009-17.902l31.284-18.063l0.276,0.16l31.009,17.902
		L319.193,283.594z M290.123,265.531l29.07,16.783l29.069-16.783l-29.07-16.783L290.123,265.531z"/>
	<path style="fill:#FFFFFF;" d="M349.37,301.017l-31.284-18.063l31.284-18.063l31.284,18.063L349.37,301.017z M320.301,282.954
		l29.069,16.783l29.069-16.783l-29.069-16.783L320.301,282.954z"/>
	<path style="fill:#FFFFFF;" d="M379.548,318.44l-0.276-0.16l-31.009-17.902l31.284-18.063l31.285,18.064L379.548,318.44z
		 M350.477,300.377l29.07,16.783l29.069-16.782l-29.07-16.784L350.477,300.377z"/>
	<path style="fill:#FFFFFF;" d="M409.725,335.862l-0.276-0.16L378.44,317.8l31.284-18.062l0.276,0.16l31.009,17.902L409.725,335.862
		z M380.655,317.8l29.07,16.783l29.069-16.782l-29.07-16.783L380.655,317.8z"/>
	<path style="fill:#FFFFFF;" d="M168.305,231.324l-0.276-0.16l-31.009-17.902l31.284-18.063l0.276,0.16l31.009,17.902
		L168.305,231.324z M139.235,213.262l29.07,16.783l29.069-16.783l-29.07-16.783L139.235,213.262z"/>
	<path style="fill:#FFFFFF;" d="M198.483,248.747l-0.276-0.16l-31.009-17.902l31.284-18.063l0.276,0.16l31.009,17.902
		L198.483,248.747z M169.413,230.685l29.07,16.783l29.069-16.783l-29.07-16.783L169.413,230.685z"/>
	<path style="fill:#FFFFFF;" d="M228.661,266.17l-0.276-0.16l-31.009-17.902l31.284-18.063l0.276,0.16l31.009,17.902L228.661,266.17
		z M199.591,248.108l29.07,16.783l29.069-16.783l-29.07-16.783L199.591,248.108z"/>
	<path style="fill:#FFFFFF;" d="M258.839,283.593l-0.276-0.16l-31.009-17.902l31.284-18.063l31.285,18.064L258.839,283.593z
		 M229.768,265.53l29.07,16.783l29.069-16.782l-29.07-16.784L229.768,265.53z"/>
	<path style="fill:#FFFFFF;" d="M289.017,301.017l-31.285-18.064l31.284-18.061l0.276,0.16l31.009,17.902L289.017,301.017z
		 M259.946,282.953l29.07,16.784l29.069-16.783l-29.07-16.783L259.946,282.953z"/>
	<path style="fill:#FFFFFF;" d="M319.193,318.44l-31.284-18.063l31.284-18.063l31.284,18.063L319.193,318.44z M290.124,300.377
		l29.069,16.783l29.069-16.783l-29.069-16.783L290.124,300.377z"/>
	<path style="fill:#FFFFFF;" d="M349.371,335.862l-0.276-0.16L318.086,317.8l31.284-18.063l0.276,0.16l31.009,17.902
		L349.371,335.862z M320.301,317.8l29.07,16.783L378.44,317.8l-29.07-16.783L320.301,317.8z"/>
	<path style="fill:#FFFFFF;" d="M379.549,353.285l-0.276-0.16l-31.009-17.902l31.284-18.063l0.276,0.16l31.009,17.902
		L379.549,353.285z M350.478,335.223l29.07,16.783l29.069-16.783l-29.07-16.783L350.478,335.223z"/>
	<path style="fill:#FFFFFF;" d="M409.726,370.708l-0.276-0.16l-31.009-17.902l31.284-18.063l31.285,18.063L409.726,370.708z
		 M380.656,352.646l29.07,16.783l29.069-16.782l-29.07-16.784L380.656,352.646z"/>
	<path style="fill:#FFFFFF;" d="M107.951,231.323l-0.276-0.16l-31.009-17.902l31.284-18.063l31.285,18.064L107.951,231.323z
		 M78.881,213.261l29.07,16.783l29.069-16.782l-29.07-16.784L78.881,213.261z"/>
	<path style="fill:#FFFFFF;" d="M138.129,248.746l-0.276-0.16l-31.009-17.902l31.284-18.062l0.276,0.16l31.009,17.902
		L138.129,248.746z M109.059,230.684l29.07,16.783l29.069-16.782l-29.07-16.783L109.059,230.684z"/>
	<path style="fill:#FFFFFF;" d="M168.307,266.17l-31.285-18.064l31.284-18.061l0.276,0.16l31.009,17.902L168.307,266.17z
		 M139.236,248.107l29.07,16.784l29.069-16.783l-29.07-16.783L139.236,248.107z"/>
	<path style="fill:#FFFFFF;" d="M198.484,283.593l-0.276-0.16l-31.009-17.902l31.284-18.063l0.276,0.16l31.009,17.902
		L198.484,283.593z M169.414,265.53l29.07,16.783l29.069-16.783l-29.07-16.783L169.414,265.53z"/>
	<path style="fill:#FFFFFF;" d="M228.662,301.016l-0.276-0.16l-31.009-17.902l31.284-18.063l0.276,0.16l31.009,17.902
		L228.662,301.016z M199.592,282.953l29.07,16.783l29.069-16.783l-29.07-16.783L199.592,282.953z"/>
	<path style="fill:#FFFFFF;" d="M258.84,318.439l-0.276-0.16l-31.009-17.902l31.284-18.063l31.285,18.064L258.84,318.439z
		 M229.769,300.376l29.07,16.783l29.069-16.782l-29.07-16.784L229.769,300.376z"/>
	<path style="fill:#FFFFFF;" d="M289.017,335.862l-0.276-0.16l-31.009-17.902l31.284-18.062l31.284,18.063L289.017,335.862z
		 M259.947,317.799l29.07,16.783l29.068-16.782l-29.069-16.783L259.947,317.799z"/>
	<path style="fill:#FFFFFF;" d="M319.194,353.285l-31.284-18.064l31.283-18.061l0.276,0.16l31.009,17.902L319.194,353.285z
		 M290.125,335.222l29.069,16.784l29.069-16.783l-29.07-16.783L290.125,335.222z"/>
	<path style="fill:#FFFFFF;" d="M349.372,370.708l-0.276-0.16l-31.009-17.902l31.284-18.063l0.276,0.16l31.009,17.902
		L349.372,370.708z M320.302,352.646l29.07,16.783l29.069-16.783l-29.07-16.783L320.302,352.646z"/>
	<path style="fill:#FFFFFF;" d="M379.55,388.131l-0.276-0.16l-31.009-17.902l31.284-18.063l0.276,0.16l31.009,17.902L379.55,388.131
		z M350.479,370.069l29.07,16.783l29.069-16.783l-29.07-16.783L350.479,370.069z"/>
	<path style="fill:#FFFFFF;" d="M409.727,405.554l-0.276-0.16l-31.009-17.902l31.284-18.063l31.285,18.064L409.727,405.554z
		 M380.657,387.491l29.07,16.783l29.069-16.782l-29.07-16.784L380.657,387.491z"/>
	<path style="fill:#FFFFFF;" d="M107.952,266.169l-0.276-0.16l-31.009-17.902l31.284-18.063l0.276,0.16l31.009,17.902
		L107.952,266.169z M78.882,248.107l29.07,16.783l29.069-16.783l-29.07-16.783L78.882,248.107z"/>
	<path style="fill:#FFFFFF;" d="M138.13,283.592l-0.276-0.16l-31.009-17.902l31.284-18.063l31.285,18.063L138.13,283.592z
		 M109.059,265.53l29.07,16.783l29.069-16.782l-29.07-16.784L109.059,265.53z"/>
	<path style="fill:#FFFFFF;" d="M168.307,301.016l-31.285-18.064l31.284-18.061l0.276,0.16l31.009,17.902L168.307,301.016z
		 M139.237,282.952l29.07,16.784l29.069-16.783l-29.07-16.783L139.237,282.952z"/>
	<path style="fill:#FFFFFF;" d="M198.485,318.439l-0.276-0.16L167.2,300.376l31.284-18.063l0.276,0.16l31.009,17.902
		L198.485,318.439z M169.415,300.376l29.07,16.783l29.069-16.783l-29.07-16.783L169.415,300.376z"/>
	<path style="fill:#FFFFFF;" d="M228.663,335.862l-0.276-0.16l-31.009-17.902l31.284-18.063l0.276,0.16l31.009,17.902
		L228.663,335.862z M199.593,317.799l29.07,16.783l29.069-16.783l-29.07-16.783L199.593,317.799z"/>
	<path style="fill:#FFFFFF;" d="M258.841,353.284l-0.276-0.16l-31.009-17.902l31.284-18.063l0.276,0.16l31.009,17.902
		L258.841,353.284z M229.77,335.222l29.07,16.783l29.069-16.783l-29.07-16.783L229.77,335.222z"/>
	<path style="fill:#FFFFFF;" d="M289.017,370.707l-31.284-18.063l31.284-18.063l31.284,18.063L289.017,370.707z M259.948,352.645
		l29.069,16.783l29.069-16.782l-29.069-16.784L259.948,352.645z"/>
	<path style="fill:#FFFFFF;" d="M319.195,388.131l-31.285-18.064l31.284-18.061l0.276,0.16l31.009,17.902L319.195,388.131z
		 M290.125,370.068l29.07,16.784l29.069-16.783l-29.07-16.783L290.125,370.068z"/>
	<path style="fill:#FFFFFF;" d="M349.373,405.554l-0.276-0.16l-31.009-17.902l31.284-18.063l0.276,0.16l31.009,17.902
		L349.373,405.554z M320.303,387.491l29.07,16.783l29.069-16.783l-29.07-16.783L320.303,387.491z"/>
	<path style="fill:#FFFFFF;" d="M379.551,422.977l-0.276-0.16l-31.009-17.902l31.284-18.063l0.276,0.16l31.009,17.902
		L379.551,422.977z M350.48,404.914l29.07,16.783l29.069-16.783l-29.07-16.783L350.48,404.914z"/>
	<path style="fill:#FFFFFF;" d="M409.728,440.4l-0.276-0.16l-31.009-17.902l31.284-18.063l0.276,0.16l31.009,17.902L409.728,440.4z
		 M380.658,422.337l29.07,16.783l29.069-16.783l-29.07-16.783L380.658,422.337z"/>
	<path style="fill:#FFFFFF;" d="M107.953,301.015l-0.276-0.16l-31.009-17.902l31.284-18.063l0.276,0.16l31.009,17.902
		L107.953,301.015z M78.883,282.952l29.07,16.783l29.069-16.783l-29.07-16.783L78.883,282.952z"/>
	<path style="fill:#FFFFFF;" d="M138.131,318.438l-0.276-0.16l-31.009-17.902l31.284-18.063l31.285,18.063L138.131,318.438z
		 M109.06,300.375l29.07,16.783l29.069-16.782l-29.07-16.784L109.06,300.375z"/>
	<path style="fill:#FFFFFF;" d="M168.309,335.861l-0.276-0.16l-31.009-17.902l31.284-18.061l0.276,0.16l31.009,17.902
		L168.309,335.861z M139.238,317.798l29.07,16.783l29.069-16.782l-29.07-16.783L139.238,317.798z"/>
	<path style="fill:#FFFFFF;" d="M198.486,353.284l-31.285-18.063l31.284-18.062l0.276,0.16l31.009,17.902L198.486,353.284z
		 M169.416,335.221l29.07,16.784l29.069-16.783l-29.07-16.783L169.416,335.221z"/>
	<path style="fill:#FFFFFF;" d="M228.664,370.707l-0.276-0.16l-31.009-17.902l31.284-18.063l0.276,0.16l31.009,17.902
		L228.664,370.707z M199.594,352.645l29.07,16.783l29.069-16.783l-29.07-16.783L199.594,352.645z"/>
	<path style="fill:#FFFFFF;" d="M258.841,388.13l-31.284-18.063l31.284-18.063l31.284,18.063L258.841,388.13z M229.771,370.068
		l29.069,16.783l29.069-16.783l-29.069-16.783L229.771,370.068z"/>
	<path style="fill:#FFFFFF;" d="M289.018,405.553l-0.276-0.16l-31.009-17.902l31.284-18.063l31.285,18.064L289.018,405.553z
		 M259.948,387.49l29.07,16.783l29.069-16.782l-29.07-16.784L259.948,387.49z"/>
	<path style="fill:#FFFFFF;" d="M319.196,422.976l-0.276-0.16l-31.009-17.902l31.284-18.062l0.276,0.16l31.009,17.902
		L319.196,422.976z M290.126,404.913l29.07,16.783l29.069-16.782l-29.07-16.783L290.126,404.913z"/>
	<path style="fill:#FFFFFF;" d="M349.374,440.4l-31.285-18.064l31.284-18.061l0.276,0.16l31.009,17.902L349.374,440.4z
		 M320.304,422.336l29.07,16.784l29.069-16.783l-29.07-16.783L320.304,422.336z"/>
	<path style="fill:#FFFFFF;" d="M107.954,335.861l-0.276-0.16l-31.009-17.902l31.284-18.063l0.276,0.16l31.009,17.902
		L107.954,335.861z M78.884,317.798l29.07,16.783l29.069-16.783l-29.07-16.783L78.884,317.798z"/>
	<path style="fill:#FFFFFF;" d="M138.132,353.283l-0.276-0.16l-31.009-17.902l31.284-18.063l0.276,0.16l31.009,17.902
		L138.132,353.283z M109.061,335.221l29.07,16.783l29.069-16.783l-29.07-16.783L109.061,335.221z"/>
	<path style="fill:#FFFFFF;" d="M168.309,370.706l-0.276-0.16l-31.009-17.902l31.284-18.063l31.285,18.064L168.309,370.706z
		 M139.239,352.644l29.07,16.783l29.069-16.782l-29.07-16.784L139.239,352.644z"/>
	<path style="fill:#FFFFFF;" d="M198.487,388.129l-0.276-0.16l-31.009-17.902l31.284-18.062l0.276,0.16l31.009,17.902
		L198.487,388.129z M169.417,370.067l29.07,16.783l29.069-16.782l-29.07-16.783L169.417,370.067z"/>
	<path style="fill:#FFFFFF;" d="M228.665,405.553l-31.285-18.063l31.284-18.062l31.284,18.063L228.665,405.553z M199.595,387.489
		l29.07,16.784l29.068-16.783l-29.069-16.783L199.595,387.489z"/>
	<path style="fill:#FFFFFF;" d="M258.842,422.976l-31.284-18.063l31.283-18.063l0.276,0.16l31.009,17.902L258.842,422.976z
		 M229.772,404.913l29.069,16.783l29.069-16.783l-29.07-16.783L229.772,404.913z"/>
	<path style="fill:#FFFFFF;" d="M289.019,440.399l-0.276-0.16l-31.009-17.902l31.284-18.063l0.276,0.16l31.009,17.902
		L289.019,440.399z M259.949,422.336l29.07,16.783l29.069-16.783l-29.07-16.783L259.949,422.336z"/>
	<path style="fill:#FFFFFF;" d="M107.955,370.706l-0.276-0.16L76.67,352.644l31.284-18.063l0.276,0.16l31.009,17.902
		L107.955,370.706z M78.885,352.644l29.07,16.783l29.069-16.783l-29.07-16.783L78.885,352.644z"/>
	<path style="fill:#FFFFFF;" d="M138.133,388.129l-0.276-0.16l-31.009-17.902l31.284-18.063l0.276,0.16l31.009,17.902
		L138.133,388.129z M109.062,370.067l29.07,16.783l29.069-16.783l-29.07-16.783L109.062,370.067z"/>
	<path style="fill:#FFFFFF;" d="M168.31,405.552l-0.276-0.16l-31.009-17.902l31.284-18.063l0.276,0.16l31.009,17.902L168.31,405.552
		z M139.24,387.489l29.07,16.783l29.069-16.783l-29.07-16.783L139.24,387.489z"/>
	<path style="fill:#FFFFFF;" d="M198.488,422.975l-0.276-0.16l-31.009-17.902l31.284-18.063l31.285,18.064L198.488,422.975z
		 M169.418,404.912l29.07,16.783l29.069-16.782l-29.07-16.784L169.418,404.912z"/>
	<path style="fill:#FFFFFF;" d="M228.665,440.399l-31.284-18.063l31.284-18.062l31.284,18.063L228.665,440.399z M199.596,422.335
		l29.069,16.784l29.069-16.783l-29.069-16.783L199.596,422.335z"/>
	<path style="fill:#FFFFFF;" d="M107.956,405.552l-31.285-18.064l31.284-18.061l0.276,0.16l31.009,17.902L107.956,405.552z
		 M78.886,387.488l29.07,16.784l29.069-16.783l-29.07-16.783L78.886,387.488z"/>
	<path style="fill:#FFFFFF;" d="M138.134,422.975l-0.276-0.16l-31.009-17.902l31.284-18.063l0.276,0.16l31.009,17.902
		L138.134,422.975z M109.063,404.912l29.07,16.783l29.069-16.783l-29.07-16.783L109.063,404.912z"/>
	<path style="fill:#FFFFFF;" d="M168.311,440.398l-0.276-0.16l-31.009-17.902l31.284-18.063l0.276,0.16l31.009,17.902
		L168.311,440.398z M139.241,422.335l29.07,16.783l29.069-16.783l-29.07-16.783L139.241,422.335z"/>
	<path style="fill:#FFFFFF;" d="M107.957,440.397l-0.276-0.16l-31.009-17.902l31.284-18.061l0.276,0.16l31.009,17.902
		L107.957,440.397z M78.887,422.334l29.07,16.783l29.069-16.782l-29.07-16.783L78.887,422.334z"/>
</g>
<g>
	<path style="fill:#FFFFFF;" d="M375.207,383.756c-0.529,0.306-1.04,0.688-1.528,1.12c-0.211-6.877-5.179-9.612-11.292-6.083
		c-4.978,2.874-9.196,9.028-10.708,15.06c-1.23-0.165-2.673,0.154-4.223,1.049c-4.457,2.573-8.069,8.83-8.069,13.976
		c0,5.146,3.613,7.232,8.069,4.659l27.752-16.023c3.29-1.9,5.958-6.519,5.958-10.319
		C381.165,383.396,378.498,381.856,375.207,383.756z"/>
	<path style="fill:#FFFFFF;" d="M271.512,61.216c-0.922,0.533-1.79,1.296-2.556,2.197c-0.12-5.04-3.736-7.054-8.19-4.482
		c-1.427,0.824-2.768,2.02-3.936,3.435c-1.983-3.465-6.09-4.27-10.85-1.522c-6.694,3.865-12.12,13.263-12.12,20.992
		c0,0.638,0.05,1.233,0.121,1.807c-0.955-0.247-2.125-0.048-3.394,0.685c-3.203,1.849-5.799,6.346-5.799,10.044
		c0,3.698,2.596,5.197,5.799,3.348l40.925-23.628c3.079-1.778,5.575-6.101,5.575-9.656S274.591,59.438,271.512,61.216z"/>
	<g>
		<path style="fill:#FFFFFF;" d="M98.389,137.131c0,1.669-1.172,3.698-2.617,4.532c-1.445,0.834-2.617,0.158-2.617-1.511
			c0-1.669,1.171-3.698,2.617-4.532C97.217,134.786,98.389,135.462,98.389,137.131z"/>
		<path style="fill:#FFFFFF;" d="M106.87,132.234c0,1.669-1.172,3.698-2.617,4.532c-1.445,0.834-2.617,0.158-2.617-1.511
			c0-1.669,1.171-3.698,2.617-4.532C105.699,129.889,106.87,130.565,106.87,132.234z"/>
		<path style="fill:#FFFFFF;" d="M115.351,127.337c0,1.669-1.172,3.698-2.617,4.532c-1.445,0.834-2.617,0.158-2.617-1.511
			c0-1.669,1.172-3.698,2.617-4.532C114.18,124.992,115.351,125.669,115.351,127.337z"/>
		<path style="fill:#FFFFFF;" d="M123.833,122.44c0,1.669-1.172,3.698-2.617,4.532c-1.445,0.834-2.617,0.158-2.617-1.511
			s1.172-3.698,2.617-4.532C122.661,120.095,123.833,120.772,123.833,122.44z"/>
	</g>
	<g>
		<polygon style="fill:#FFFFFF;" points="411.865,163.864 406.632,166.886 406.632,160.843 411.865,157.822 		"/>
		<polygon style="fill:#FFFFFF;" points="419.128,159.619 413.895,162.64 413.895,156.598 419.128,153.576 		"/>
		<polygon style="fill:#FFFFFF;" points="411.91,171.704 406.677,174.726 406.677,168.683 411.91,165.662 		"/>
		<polygon style="fill:#FFFFFF;" points="419.128,167.537 413.895,170.558 413.895,164.516 419.128,161.494 		"/>
	</g>
	<path style="opacity:0.4;fill:#FFFFFF;" d="M150.043,358.674c-0.977,0.564-1.896,1.373-2.707,2.326
		c-0.127-5.337-3.956-7.469-8.672-4.746c-1.511,0.872-2.931,2.139-4.168,3.637c-2.099-3.669-6.449-4.521-11.489-1.611
		c-7.088,4.092-12.833,14.044-12.833,22.228c0,0.676,0.053,1.305,0.129,1.913c-1.011-0.262-2.25-0.051-3.594,0.725
		c-3.391,1.958-6.14,6.72-6.14,10.635s2.749,5.503,6.14,3.545l43.334-25.019c3.26-1.882,5.903-6.46,5.903-10.225
		C155.947,358.317,153.304,356.792,150.043,358.674z"/>
	<g>
		<path style="fill:#7DC3EA;" d="M281.99,281.801c-1.521-0.229-2.961-0.682-4.153-1.37c-3.572-2.062-3.572-5.405,0-7.467
			c3.571-2.062,9.362-2.062,12.934,0c1.192,0.688,1.976,1.52,2.373,2.398l24.714-14.268l-52.584-30.359
			c-4.418-2.551-11.58-2.551-15.998,0l-52.582,30.358l24.216,13.981c-0.936,0.253-1.817,0.597-2.59,1.043
			c-3.572,2.062-3.572,5.405,0,7.467c3.572,2.062,9.362,2.062,12.934,0c0.773-0.446,1.368-0.955,1.807-1.495l24.216,13.981
			L281.99,281.801z"/>
		<path style="fill:#7DC3EA;" d="M399.671,313.841l-52.584-30.359l-24.714,14.268c-0.396-0.878-1.181-1.71-2.373-2.398
			c-3.572-2.062-9.362-2.062-12.934,0c-3.572,2.062-3.571,5.405,0,7.467c1.192,0.688,2.632,1.141,4.153,1.37l-24.714,14.268
			l25.442,14.689c0.136-1.237,1.013-2.453,2.651-3.398c3.571-2.062,9.362-2.062,12.934,0c3.572,2.062,3.572,5.405,0,7.467
			c-1.638,0.946-3.743,1.452-5.886,1.53l25.442,14.689l52.582-30.358C404.089,320.527,404.089,316.392,399.671,313.841z"/>
		<path style="fill:#7DC3EA;" d="M206.857,334.951c-1.167-0.674-2.573-1.123-4.059-1.357l24.678-14.248l-24.216-13.981
			c-0.439,0.54-1.034,1.049-1.807,1.495c-3.572,2.062-9.362,2.062-12.934,0c-3.572-2.062-3.572-5.405,0-7.467
			c0.773-0.446,1.654-0.79,2.59-1.043l-24.216-13.981l-52.582,30.358c-4.418,2.551-4.418,6.686,0,9.237l52.584,30.359l24.678-14.248
			c0.404,0.858,1.183,1.669,2.35,2.343c3.572,2.062,9.362,2.062,12.934,0C210.429,340.356,210.429,337.013,206.857,334.951z"/>
		<path style="fill:#7DC3EA;" d="M290.512,358.152c2.027-0.074,4.018-0.553,5.567-1.448c3.378-1.95,3.378-5.112,0-7.063
			c-3.378-1.95-8.855-1.951-12.233,0c-1.549,0.894-2.379,2.044-2.507,3.214l-24.063-13.893l-23.341,13.476
			c1.406,0.221,2.735,0.646,3.839,1.283c3.378,1.95,3.378,5.113,0,7.063c-3.378,1.95-8.855,1.95-12.233,0
			c-1.104-0.637-1.84-1.405-2.223-2.216l-23.341,13.476l49.735,28.714c4.179,2.413,10.953,2.413,15.132,0l49.733-28.714
			L290.512,358.152z"/>
		<g>
			<g>
				<linearGradient id="SVGID_1_" gradientUnits="userSpaceOnUse" x1="183.8971" y1="231.6229" x2="330.6534" y2="231.6229">
					<stop  offset="0" style="stop-color:#FF2C9C"/>
					<stop  offset="0.312" style="stop-color:#FB289B"/>
					<stop  offset="0.6016" style="stop-color:#F01D97"/>
					<stop  offset="0.8814" style="stop-color:#DD0A91"/>
					<stop  offset="1" style="stop-color:#D3008D"/>
				</linearGradient>
				<path style="fill:url(#SVGID_1_);" d="M314.222,220.499l-47.259-27.285c-5.351-3.089-14.027-3.089-19.378,0l-49.572,28.62
					l-14.117-5.766v13.916l22.967,13.26v9.25c-0.097,1.706,0.971,3.43,3.227,4.733c4.326,2.498,11.34,2.498,15.666,0
					c0.937-0.541,1.658-1.156,2.189-1.811l29.331,16.934l29.934-17.282h0v-12.363c3.679-0.554,7.753-0.005,10.635,1.659
					c1.443,0.833,2.394,1.841,2.874,2.904l29.934-17.282v-13.916L314.222,220.499z"/>
				<path style="fill:#FFFFFF;" d="M284.417,242.216l-0.484,0.659l0.272,0.012l-26.928,15.547l-29.331-16.934
					c-0.531,0.655-1.252,1.271-2.189,1.811c-4.326,2.498-11.34,2.497-15.666,0c-1.751-1.011-2.78-2.276-3.114-3.59
					c-0.491,1.932,0.539,3.968,3.114,5.455c4.326,2.498,11.34,2.498,15.666,0c0.937-0.541,1.658-1.157,2.189-1.811l29.331,16.934
					l29.934-17.282v-1.865L284.417,242.216z"/>
				
					<radialGradient id="SVGID_00000178890276671997166470000013949881115101264265_" cx="259.6085" cy="259.3735" r="85.0711" fx="181.7675" fy="293.6937" gradientUnits="userSpaceOnUse">
					<stop  offset="0" style="stop-color:#D3008D"/>
					<stop  offset="0.0595" style="stop-color:#D8058F"/>
					<stop  offset="0.3894" style="stop-color:#ED1A96"/>
					<stop  offset="0.708" style="stop-color:#FB289A"/>
					<stop  offset="1" style="stop-color:#FF2C9C"/>
				</radialGradient>
				<path style="fill:url(#SVGID_00000178890276671997166470000013949881115101264265_);" d="M287.21,241.151
					c-1.842-0.277-3.587-0.826-5.03-1.659c-4.326-2.498-4.326-6.547,0-9.045c4.326-2.497,11.34-2.497,15.666,0
					c1.443,0.833,2.394,1.84,2.874,2.904l29.934-17.282l-63.69-36.772c-5.351-3.089-14.027-3.09-19.377,0l-63.689,36.771
					l29.331,16.934c-1.134,0.307-2.201,0.723-3.137,1.264c-4.326,2.498-4.326,6.547,0,9.045c4.326,2.498,11.34,2.498,15.666,0
					c0.937-0.541,1.658-1.156,2.189-1.811l29.331,16.934L287.21,241.151z"/>
				<g>
					<path style="fill:#FFFFFF;" d="M213.228,233.002l-29.331-16.934v1.865l27.336,15.783
						C211.868,233.439,212.528,233.191,213.228,233.002z"/>
					<path style="fill:#FFFFFF;" d="M300.72,233.351c-0.48-1.063-1.431-2.071-2.874-2.904c-4.326-2.498-11.34-2.498-15.666,0
						c-2.575,1.487-3.605,3.523-3.114,5.455c0.334-1.313,1.363-2.579,3.114-3.59c4.326-2.498,11.34-2.497,15.666,0
						c1.443,0.833,2.394,1.84,2.874,2.904l29.934-17.282v-1.865L300.72,233.351z"/>
				</g>
			</g>
			<g>
				
					<linearGradient id="SVGID_00000108304142761375057690000009321856586509336235_" gradientUnits="userSpaceOnUse" x1="274.205" y1="286.1224" x2="415.2803" y2="286.1224">
					<stop  offset="0" style="stop-color:#86B8E0"/>
					<stop  offset="0.1163" style="stop-color:#98C4E7"/>
					<stop  offset="0.3255" style="stop-color:#B2D6F2"/>
					<stop  offset="0.5401" style="stop-color:#C5E2F9"/>
					<stop  offset="0.7615" style="stop-color:#D0EAFE"/>
					<stop  offset="1" style="stop-color:#D4ECFF"/>
				</linearGradient>
				<path style="fill:url(#SVGID_00000108304142761375057690000009321856586509336235_);" d="M404.603,276.678l-57.02-32.921
					l-29.934,17.282c-0.48-1.064-1.431-2.071-2.874-2.904c-1.513-0.873-3.356-1.434-5.296-1.697c-0.964-1.256-4.19-5.107-4.51-5.199
					c-0.377-0.108-9.098-2.629-9.098-2.629v13.971c-0.034,1.662,1.042,3.33,3.238,4.598c1.443,0.833,3.188,1.382,5.03,1.659
					l-15.061,8.696l-14.873-5.329v13.916l30.815,17.791c0.165-1.498,1.227-2.97,3.211-4.115c2.342-1.352,5.473-1.966,8.538-1.853
					l0,12.752l30.816,17.792l63.689-36.771c2.735-1.579,4.063-3.66,4.002-5.73l0.006,0.003v-13.641L404.603,276.678z"/>
				<path style="fill:#173D7A;" d="M305.021,279.18v24.728c0.167-1.497,1.229-2.967,3.21-4.111c4.326-2.497,11.34-2.497,15.666,0
					c0.929,0.536,1.646,1.147,2.176,1.796c2.306-0.723,4.725-1.133,7.194-1.258V279.18H305.021z"/>
				<path style="fill:#173D7A;" d="M347.582,243.758l-0.22,0.127v84.474l0.223,0.129l63.689-36.771
					c2.735-1.579,4.063-3.66,4.002-5.73l0.006,0.003v-13.641l-10.678,4.329L347.582,243.758z"/>
				<polygon style="fill:#396CAA;" points="316.768,300.807 316.768,296.78 320.256,298.793 				"/>
				<path style="fill:#FFFFFF;" d="M415.18,273.14c-0.348,1.703-1.643,3.354-3.907,4.661l-63.689,36.771l-26.86-15.508
					c-0.03-0.422-0.154-1.274-0.154-1.274l-3.801-1.01v1.865l30.816,17.792l63.689-36.771
					C414.36,277.884,415.655,275.463,415.18,273.14z"/>
				
					<linearGradient id="SVGID_00000015328112553151328660000016628424201046075284_" gradientUnits="userSpaceOnUse" x1="274.205" y1="272.2065" x2="415.2858" y2="272.2065">
					<stop  offset="0" style="stop-color:#86B8E0"/>
					<stop  offset="0.1163" style="stop-color:#98C4E7"/>
					<stop  offset="0.3255" style="stop-color:#B2D6F2"/>
					<stop  offset="0.5401" style="stop-color:#C5E2F9"/>
					<stop  offset="0.7615" style="stop-color:#D0EAFE"/>
					<stop  offset="1" style="stop-color:#D4ECFF"/>
				</linearGradient>
				<path style="fill:url(#SVGID_00000015328112553151328660000016628424201046075284_);" d="M411.272,266.613l-63.69-36.772
					l-29.934,17.282c-0.48-1.064-1.431-2.071-2.874-2.904c-4.326-2.498-11.34-2.498-15.666,0c-4.326,2.498-4.326,6.547,0,9.045
					c1.443,0.833,3.188,1.382,5.03,1.659l-29.934,17.282l30.816,17.792c0.164-1.499,1.227-2.971,3.211-4.116
					c4.326-2.497,11.34-2.497,15.666,0c4.326,2.498,4.326,6.547,0,9.044c-1.984,1.145-4.533,1.759-7.129,1.854l30.816,17.792
					l63.689-36.771C416.624,274.711,416.623,269.703,411.272,266.613z"/>
				<g>
					<path style="fill:#FFFFFF;" d="M299.109,255.129c0.817,0.472,1.737,0.842,2.71,1.134l2.32-1.339
						c-1.842-0.277-3.587-0.826-5.03-1.659c-1.751-1.011-2.78-2.277-3.114-3.59C295.504,251.606,296.533,253.642,299.109,255.129z"
						/>
					<path style="fill:#FFFFFF;" d="M327.011,291.336c0.491-1.932-0.539-3.968-3.114-5.455c-4.326-2.498-11.34-2.498-15.666,0
						c-1.984,1.145-3.047,2.617-3.211,4.116l-30.816-17.792v1.865l30.816,17.791c0.164-1.499,1.227-2.971,3.211-4.116
						c4.326-2.497,11.34-2.497,15.666,0C325.648,288.757,326.678,290.023,327.011,291.336z"/>
				</g>
			</g>
			<g>
				<path style="fill:#173D7A;" d="M240.061,286.122v-13.916l-14.625,5.472l-14.706-8.49c-0.531,0.655-1.252,1.271-2.189,1.811
					c-4.326,2.498-11.34,2.498-15.666,0c-4.227-2.44-4.312-6.358-0.28-8.866l3.417,1.912v-17.27h-10.585l-1.049,7.199
					l-17.697-10.218l-56.338,32.527l-11.364-4.077v13.915h0c0,2.024,1.338,4.049,4.013,5.593l63.69,36.772l29.891-17.257
					c0.49,1.039,1.433,2.022,2.846,2.838c4.326,2.498,11.34,2.498,15.666,0c2.246-1.297,3.315-3.011,3.229-4.71v-10.68
					L240.061,286.122z"/>
				<path style="fill:#396CAA;" d="M166.682,243.756l-56.338,32.527l-11.364-4.077v13.915h0c0,2.024,1.338,4.049,4.013,5.593
					l63.69,36.772v-84.729L166.682,243.756z"/>
				<path style="fill:#FFFFFF;" d="M193.489,246.839l-0.365,0.942l0.087,0.084c-0.113,0.057-0.228,0.111-0.336,0.173
					c-2.575,1.487-3.605,3.523-3.114,5.455c0.334-1.313,1.363-2.579,3.114-3.59c0.937-0.541,2.003-0.957,3.137-1.263v-1.865
					L193.489,246.839z"/>
				
					<linearGradient id="SVGID_00000050630306279027182170000008271595309557481347_" gradientUnits="userSpaceOnUse" x1="98.9799" y1="272.2053" x2="240.0608" y2="272.2053">
					<stop  offset="0" style="stop-color:#699DD1"/>
					<stop  offset="0.2662" style="stop-color:#6396CC"/>
					<stop  offset="0.6412" style="stop-color:#5184BD"/>
					<stop  offset="1" style="stop-color:#396CAA"/>
				</linearGradient>
				<path style="fill:url(#SVGID_00000050630306279027182170000008271595309557481347_);" d="M215.086,291.106
					c-1.414-0.816-3.116-1.36-4.916-1.643l29.891-17.257l-29.331-16.934c-0.531,0.655-1.252,1.271-2.189,1.811
					c-4.326,2.498-11.34,2.498-15.666,0c-4.326-2.498-4.326-6.547,0-9.045c0.937-0.541,2.003-0.957,3.137-1.264l-29.331-16.934
					l-63.688,36.771c-5.351,3.089-5.351,8.098,0,11.188l63.69,36.772l29.891-17.257c0.49,1.039,1.433,2.022,2.846,2.838
					c4.326,2.498,11.34,2.498,15.666,0C219.412,297.654,219.412,293.604,215.086,291.106z"/>
				<g>
					<path style="fill:#FFFFFF;" d="M215.086,300.151c-4.326,2.497-11.34,2.497-15.666,0c-1.414-0.816-2.356-1.799-2.846-2.838
						l-29.891,17.257l-63.69-36.772c-2.264-1.307-3.559-2.958-3.907-4.662c-0.475,2.323,0.82,4.744,3.907,6.527l63.69,36.772
						l29.891-17.257c0.49,1.039,1.433,2.022,2.846,2.838c4.326,2.498,11.34,2.498,15.666,0c2.575-1.487,3.605-3.523,3.114-5.455
						C217.866,297.875,216.837,299.14,215.086,300.151z"/>
					<path style="fill:#FFFFFF;" d="M210.17,289.463c0.793,0.125,1.562,0.309,2.301,0.536l27.589-15.929v-1.865L210.17,289.463z"/>
				</g>
			</g>
			<g>
				
					<linearGradient id="SVGID_00000127766328356355960050000000008933719098304161_" gradientUnits="userSpaceOnUse" x1="183.8991" y1="340.9077" x2="330.6556" y2="340.9077">
					<stop  offset="0" style="stop-color:#FF2C9C"/>
					<stop  offset="0.312" style="stop-color:#FB289B"/>
					<stop  offset="0.6016" style="stop-color:#F01D97"/>
					<stop  offset="0.8814" style="stop-color:#DD0A91"/>
					<stop  offset="1" style="stop-color:#D3008D"/>
				</linearGradient>
				<path style="fill:url(#SVGID_00000127766328356355960050000000008933719098304161_);" d="M316.343,334.283l-16.503-9.528
					c2.596-0.095,5.145-0.708,7.129-1.854c1.81-1.045,2.852-2.362,3.147-3.724l0.095,0.064v-0.834c0-0.019,0-0.038,0-0.057v-13.95
					l-13.958,5.426l3.211,2.166c-2.943-0.05-5.914,0.567-8.161,1.864c-1.984,1.145-3.046,2.617-3.211,4.116l-30.816-17.792
					l-18.107,10.454l-1.879-6.278l-9.904-0.835v15.468l3.026-0.768c0.667,0.245,1.307,0.523,1.89,0.859
					c4.326,2.498,4.326,6.547,0,9.045c-4.326,2.497-11.34,2.497-15.666,0c-1.413-0.816-2.356-1.799-2.846-2.838l-16.545,9.552
					l-13.346-6.211v13.916l63.69,36.771c5.351,3.09,14.027,3.09,19.378,0l63.689-36.771v-13.916L316.343,334.283z"/>
				<path style="fill:#FFFFFF;" d="M232.301,305.166c-0.678-0.392-1.437-0.702-2.228-0.967l-0.27-0.528l-2.418-0.148v1.865
					c1.8,0.283,3.502,0.827,4.916,1.643c1.751,1.011,2.78,2.277,3.114,3.59C235.906,308.689,234.877,306.653,232.301,305.166z"/>
				
					<linearGradient id="SVGID_00000089571402916214261660000016475291548121634744_" gradientUnits="userSpaceOnUse" x1="183.8991" y1="326.9918" x2="330.6556" y2="326.9918">
					<stop  offset="0" style="stop-color:#FF2C9C"/>
					<stop  offset="0.312" style="stop-color:#FB289B"/>
					<stop  offset="0.6016" style="stop-color:#F01D97"/>
					<stop  offset="0.8814" style="stop-color:#DD0A91"/>
					<stop  offset="1" style="stop-color:#D3008D"/>
				</linearGradient>
				<path style="fill:url(#SVGID_00000089571402916214261660000016475291548121634744_);" d="M299.84,310.839
					c2.596-0.095,5.145-0.708,7.129-1.854c4.326-2.497,4.326-6.547,0-9.044c-4.326-2.498-11.34-2.498-15.666,0
					c-1.984,1.145-3.047,2.617-3.211,4.116l-30.816-17.791l-29.891,17.257c1.8,0.283,3.502,0.827,4.916,1.643
					c4.326,2.498,4.326,6.547,0,9.045c-4.326,2.497-11.34,2.497-15.666,0c-1.413-0.816-2.356-1.799-2.846-2.838l-29.891,17.257
					l63.69,36.772c5.351,3.089,14.027,3.089,19.378,0l63.689-36.771L299.84,310.839z"/>
				<g>
					<path style="fill:#FFFFFF;" d="M310.083,305.396c-0.334,1.313-1.363,2.579-3.114,3.589c-1.984,1.145-4.533,1.759-7.129,1.854
						l2.712,1.566c1.615-0.299,3.135-0.814,4.417-1.555C309.544,309.364,310.574,307.328,310.083,305.396z"/>
					<path style="fill:#FFFFFF;" d="M266.967,365.401c-5.351,3.089-14.027,3.089-19.378,0l-63.69-36.772v1.865l63.69,36.772
						c5.351,3.09,14.027,3.09,19.378,0l63.689-36.771v-1.865L266.967,365.401z"/>
				</g>
			</g>
			<g>
				<ellipse style="fill:#396CAA;" cx="167.096" cy="275.7" rx="23.914" ry="13.807"/>
				<g>
					<path style="fill:#FF2C9C;" d="M153.045,102.214c0,0,0.639,13.175,1.642,22.03c1.003,8.854,22.327-6.801,22.327-6.801v-10.081
						L153.045,102.214z"/>
					<g>
						<path style="fill:#173D7A;" d="M164.403,266.138c0.32,0.801,5.845,7.527,11.371,9.209c2.402,0.731,4.018,0.827,5.076,0.701
							c1.062-0.126,1.719-1.221,1.36-2.229c-0.951-2.676-3.676-8.252-10.6-11.684C162.241,257.49,164.403,266.138,164.403,266.138z"
							/>
						<path style="fill:#173D7A;" d="M162.561,268.722c0,0,2.082,4.885,2.723,8.968c0.391,2.491-0.976,5.727-2.102,7.872
							c-0.699,1.331-2.469,1.63-3.583,0.62c-1.806-1.638-4.104-4.485-4.485-8.572c-0.641-6.887,0-8.088,0-8.088L162.561,268.722z"/>
						
							<radialGradient id="SVGID_00000085945369091020335670000002212201561088984999_" cx="167.0394" cy="269.4031" r="73.9642" gradientUnits="userSpaceOnUse">
							<stop  offset="0" style="stop-color:#86B8E0"/>
							<stop  offset="0.171" style="stop-color:#9BC6E8"/>
							<stop  offset="0.4661" style="stop-color:#B9DAF4"/>
							<stop  offset="0.7188" style="stop-color:#CBE7FB"/>
							<stop  offset="0.8977" style="stop-color:#D2EBFE"/>
							<stop  offset="1" style="stop-color:#D4ECFF"/>
						</radialGradient>
						<path style="fill:url(#SVGID_00000085945369091020335670000002212201561088984999_);" d="M149.251,185.488
							c0,0-0.721,8.687,0,18.296c0.721,9.609,3.301,54.547,3.781,65.357c0,0-0.24,3.273,6.096,2.552
							c6.336-0.721,5.826-4.354,5.826-4.354s8.898-0.12,9.179-5.365c0.28-5.245,9.113-62.632,9.113-83.264L149.251,185.488z"/>
						<g>
							<path style="fill:#FFC2B0;" d="M186.537,140.572l4.36,6.753l14.985,18.101c0,0-0.515,1.68-2.381,2.119
								c-1.457,0.343-14.061-11.682-19.505-16.958c-1.446-1.402-1.687-3.633-0.574-5.312L186.537,140.572z"/>
							<path style="fill:#5793CE;" d="M178.032,112.856c0,0,6.925-0.179,9.336,9.829c2.411,10.009,4.297,22.541,2.199,23.582
								c-6.294,3.126-10.277-0.532-10.277-0.532L178.032,112.856z"/>
							<path style="fill:#5793CE;" d="M180.105,113.282c-1.182-0.493-2.507-0.559-3.738-0.206c-5.9,1.694-28.084,8.205-31.74,11.33
								c-4.224,3.611,6.335,23.9,6.183,30.552c-0.152,6.652-0.902,14.494-1.49,21.726c-0.588,7.232-1.383,11.196,4.531,14.271
								c5.915,3.074,16.014,3.217,23.573-2.544c7.56-5.76,6.188-9.701,5.874-13.883c-0.315-4.182-2.889-22.268-2.666-27.401
								c0,0,2.663-1.962,4.637-5.327c1.973-3.365-1.512-9.551-2.959-13.572c-1.447-4.021,0.816-8.62,0.368-11.901
								C182.447,114.636,181.368,113.809,180.105,113.282z"/>
							<path style="fill:#FFFFFF;" d="M163.148,126.95l2.522,2.891c0.327,0.375,0.475,0.874,0.404,1.367l-2.204,15.394
								c-0.062,0.432,0.046,0.87,0.302,1.224l5.391,7.463c0.239,0.331,0.752,0.256,0.886-0.13l3.302-9.494
								c0.125-0.359,0.124-0.751-0.002-1.11l-4.974-14.171c-0.109-0.31-0.126-0.645-0.05-0.965l0.884-3.697L163.148,126.95z"/>
							<path style="fill:#FFFFFF;" d="M173.013,120.199c0.468,3.654-2.884,7.094-7.487,7.684s-8.714-1.895-9.182-5.549
								c-0.468-3.654,2.884-7.094,7.487-7.684C168.434,114.06,172.545,116.545,173.013,120.199z"/>
							<path style="fill:#FFC2B0;" d="M170.635,120.503c0.335,2.612-2.061,5.071-5.351,5.492c-3.29,0.421-6.228-1.354-6.563-3.966
								c-0.335-2.612,2.061-5.07,5.351-5.492C167.362,116.116,170.301,117.891,170.635,120.503z"/>
							<path style="fill:#FFC2B0;" d="M167.365,111.928c0,0-4.004-3.294-4.791-1.625c-0.787,1.668-1.435,8.826-1.435,8.826
								l7.953,2.137l-1.207-7.253C167.885,114.013,169.477,112.663,167.365,111.928z"/>
							<path style="fill:#FFC2B0;" d="M179.795,104.084c-0.387,6.546-6.007,11.54-12.554,11.153
								c-6.546-0.387-11.54-6.007-11.153-12.554c0.387-6.547,6.007-11.54,12.554-11.153
								C175.188,91.917,180.181,97.537,179.795,104.084z"/>
							<path style="fill:#EA9C92;" d="M162.02,112.378c-0.071,0.374-0.138,0.775-0.202,1.184c0.799,4.131,6.981,5.94,6.981,5.94
								l-0.913-5.489c0,0,0.749-0.636,0.537-1.272C165.979,111.97,162.9,111.287,162.02,112.378z"/>
							<path style="fill:#FFC2B0;" d="M179.795,104.084c-0.387,6.546-6.007,11.54-12.554,11.153
								c-6.546-0.387-11.54-6.007-11.153-12.554c0.387-6.547,6.007-11.54,12.554-11.153
								C175.188,91.917,180.181,97.537,179.795,104.084z"/>
							<polygon style="fill:#FFC2B0;" points="138.685,153.646 140.014,185.422 144.659,185.901 147.683,157.296 							"/>
							<path style="fill:#396CAA;" d="M153.951,150.99c-0.251-1.106-2.285-2.016-2.595-3.459
								c-1.595-7.402-1.979-18.317-1.979-18.317l-1.298,14.91c1.498,4.422,2.784,8.481,2.73,10.833
								c-0.089,3.904-0.386,8.22-0.734,12.581l0,0.013C150.076,167.552,155.488,157.775,153.951,150.99z"/>
							<path style="fill:#5793CE;" d="M145.514,123.755c0,0-3.715,1.42-5.817,12.829c-2.102,11.41-3.675,22.839,0.073,24.312
								c3.748,1.473,6.88,2.581,7.982-0.471c1.102-3.052,1.785-17.756,1.923-23.045C149.813,132.091,150.015,124.8,145.514,123.755z
								"/>
							<path style="fill:#FFC2B0;" d="M204.771,164.102c0,0,2.012,0.739,3.466,2.323c1.193,1.299,1.846,2.401,2.368,3.179
								c1.157,1.726,2.133,5.457,1.428,5.921c-0.705,0.465-4.741-6.247-5.391-4.686s0.006,3.004-0.829,3.027
								c-0.834,0.023-3.734-6.746-6.014-8.845C197.516,162.924,204.771,164.102,204.771,164.102z"/>
						</g>
						<path style="fill:#396CAA;" d="M164.953,267.339c0,0,1.103-0.016,2.543-0.263l0,0l1.742-69.854L164.953,267.339z"/>
					</g>
					<g>
						<path style="fill:#396CAA;" d="M158.229,229.606l-2.472-3.227l-25.994-15.05c-0.833-0.482-1.508-1.775-1.506-2.887
							l0.022-21.281l-1.495-1.951l1.404-0.813l0.001,0.002c0.269-0.173,0.626-0.169,1.019,0.059l29.459,17.056
							c0.833,0.482,1.508,1.775,1.507,2.887l-0.025,23.176c-0.001,0.625-0.215,1.061-0.551,1.236l0,0L158.229,229.606z"/>
						<path style="fill:#396CAA;" d="M140.254,217.403l-1.847-1.069l-10.137-17.608l0.011-11.564l-1.495-1.951l1.404-0.813
							l0.001,0.002c0.269-0.173,0.626-0.169,1.019,0.059l29.459,17.056c0.44,0.255,0.835,0.737,1.11,1.298L140.254,217.403z"/>
						<path style="fill:#396CAA;" d="M127.449,186.076l-0.663-0.866l1.404-0.813l0.001,0.002c0.269-0.173,0.626-0.169,1.019,0.059
							l0.519,0.301L127.449,186.076z"/>
						<path style="fill:#396CAA;" d="M158.937,201.702c0.654,0.535,1.161,1.547,1.23,2.481l-2.879,1.662l-1.379-2.396
							L158.937,201.702z"/>
						
							<radialGradient id="SVGID_00000031189686231261055800000012857977086515438758_" cx="155.3674" cy="230.2356" r="47.1471" gradientUnits="userSpaceOnUse">
							<stop  offset="0" style="stop-color:#86B8E0"/>
							<stop  offset="0.171" style="stop-color:#9BC6E8"/>
							<stop  offset="0.4661" style="stop-color:#B9DAF4"/>
							<stop  offset="0.7188" style="stop-color:#CBE7FB"/>
							<stop  offset="0.8977" style="stop-color:#D2EBFE"/>
							<stop  offset="1" style="stop-color:#D4ECFF"/>
						</radialGradient>
						<path style="fill:url(#SVGID_00000031189686231261055800000012857977086515438758_);" d="M157.266,202.326l-29.459-17.056
							c-0.833-0.482-1.51,0.028-1.511,1.14l-0.025,23.176c-0.001,1.112,0.673,2.404,1.507,2.887l29.458,17.056
							c0.833,0.482,1.51-0.028,1.511-1.14l0.025-23.177C158.774,204.101,158.1,202.808,157.266,202.326z"/>
						<path style="fill:#FFFFFF;" d="M157.711,202.059l-29.459-17.056c-0.491-0.285-0.924-0.216-1.2,0.109
							c0.223-0.044,0.479-0.003,0.756,0.157l29.458,17.056c0.833,0.482,1.508,1.775,1.507,2.887l-0.025,23.176
							c-0.001,0.456-0.119,0.804-0.311,1.03c0.449-0.089,0.755-0.554,0.756-1.297l0.025-23.176
							C159.219,203.834,158.544,202.542,157.711,202.059z"/>
					</g>
					<polygon style="fill:#FFFFFF;" points="151.215,218.949 149.812,218.139 149.812,206.085 151.215,206.895 					"/>
					<polygon style="fill:#FFFFFF;" points="147.937,217.056 146.534,216.246 146.534,204.192 147.937,205.002 					"/>
					<polygon style="fill:#FFFFFF;" points="144.659,215.164 143.256,214.354 143.256,202.3 144.659,203.11 					"/>
					<path style="fill:#FFC2B0;" d="M140.051,185.156c0,0-1.228,7.417-1.043,9.792c0.185,2.376,1.456,6.294,2.421,6.211
						c0.965-0.083,0.032-9.553,1.727-8.609c1.695,0.943,1.873,2.561,2.64,1.99s-1.339-8.666-0.777-12.176
						C145.581,178.854,140.051,185.156,140.051,185.156z"/>
					<path style="fill:#EA9C92;" d="M172.501,104.42c5.956,2.116,7.116,0.825,7.173,0.756c0.054-0.359,0.098-0.723,0.12-1.092
						c0.078-1.315-0.071-2.589-0.396-3.794l-15.454-2.086C163.945,98.203,166.385,102.248,172.501,104.42z"/>
					<path style="fill:#FF2C9C;" d="M180.223,92.254c-1.404-1.203-6.47-7.153-15.544-5.749c-5.672,0.877-10.452,4.746-11.513,13.572
						c-0.714,5.947,1.468,11.804,5.489,16.134c0.218-0.101,0.443-0.193,0.645-0.326c2.273-1.496,2.518-2.318,2.518-2.326
						l0.502-4.504c-0.016-0.639-0.494-1.208-1.132-1.248c-0.493-0.031-1.093-0.268-1.663-1.014
						c-1.304-1.705-0.702-4.362,1.905-4.462c1.362-0.052,1.889-0.789,2.083-1.481c0.168-0.602,0.803-0.937,1.391-0.724
						c2.966,1.073,10.273,3.387,14.977,2.054C185.895,100.476,181.626,93.457,180.223,92.254z"/>
					<path style="fill:#FFFFFF;" d="M173.456,109.784l3.632-0.998c0,0-1.734,2.728-4.266,3.423
						c-2.532,0.696-2.926-1.447-2.926-1.447L173.456,109.784z"/>
					<polygon style="fill:#396CAA;" points="146.227,194.309 143.132,192.537 144.294,194.435 145.859,195.013 					"/>
				</g>
				<path style="fill:#FFFFFF;" d="M161.007,107.088c0,0.68-0.551,1.231-1.231,1.231c-0.68,0-1.231-0.551-1.231-1.231
					s0.551-1.231,1.231-1.231C160.456,105.856,161.007,106.408,161.007,107.088z"/>
			</g>
			<g>
				<g>
					<ellipse style="opacity:0.5;fill:#092E63;" cx="347.15" cy="271.701" rx="23.149" ry="13.365"/>
					<g>
						<g>
							<g>
								<path style="fill:#173D7A;" d="M348.842,262.927c-0.322,0.804-5.871,7.559-11.419,9.248
									c-2.413,0.734-4.035,0.83-5.098,0.704c-1.067-0.127-1.726-1.226-1.366-2.239c0.955-2.688,3.692-8.287,10.645-11.734
									C351.013,254.242,348.842,262.927,348.842,262.927z"/>
								<path style="fill:#173D7A;" d="M350.692,265.522c0,0-2.091,4.905-2.734,9.007c-0.392,2.502,0.98,5.752,2.111,7.906
									c0.702,1.337,2.48,1.637,3.598,0.623c1.813-1.645,4.122-4.504,4.504-8.609c0.643-6.916,0-8.122,0-8.122L350.692,265.522z"/>
								
									<radialGradient id="SVGID_00000122713603285812893620000004382321060286827908_" cx="347.1495" cy="269.2527" r="91.4334" gradientUnits="userSpaceOnUse">
									<stop  offset="0" style="stop-color:#86B8E0"/>
									<stop  offset="0.171" style="stop-color:#9BC6E8"/>
									<stop  offset="0.4661" style="stop-color:#B9DAF4"/>
									<stop  offset="0.7188" style="stop-color:#CBE7FB"/>
									<stop  offset="0.8977" style="stop-color:#D2EBFE"/>
									<stop  offset="1" style="stop-color:#D4ECFF"/>
								</radialGradient>
								<path style="fill:url(#SVGID_00000122713603285812893620000004382321060286827908_);" d="M364.059,181.933
									c0,0,0.724,8.724,0,18.374c-0.724,9.65-3.315,54.78-3.797,65.636c0,0,0.241,3.287-6.122,2.563
									c-6.363-0.724-5.85-4.373-5.85-4.373s-8.936-0.121-9.218-5.388c-0.281-5.267-9.152-62.9-9.152-83.62L364.059,181.933z"/>
								<path style="fill:#396CAA;" d="M348.289,264.133c0,0-1.107-0.016-2.553-0.265l0,0l-1.75-70.152L348.289,264.133z"/>
								<path style="fill:#5793CE;" d="M354.608,117.918c14.436,5.985,14.147,14.518,14.147,14.518s-2.828,31.284-1.863,52.178
									c0.403,8.734-46.405,9.401-39.424-13.901c8.231-27.475,5.146-49.717,8.999-53.072
									C340.319,114.286,350.874,116.369,354.608,117.918z"/>
								<path style="fill:#FFC2B0;" d="M359.252,125.484c-0.755,2.931-4.595,4.476-8.577,3.45c-3.982-1.026-6.598-4.233-5.843-7.164
									c0.755-2.931,4.595-4.476,8.577-3.45C357.391,119.345,360.007,122.553,359.252,125.484z"/>
								<path style="fill:#FFFFFF;" d="M353.138,130.159c-0.884,0-1.791-0.115-2.69-0.348c-2.111-0.543-3.949-1.67-5.174-3.172
									c-1.291-1.583-1.76-3.393-1.32-5.097c0.877-3.41,5.221-5.253,9.682-4.102c2.112,0.544,3.95,1.671,5.175,3.173
									c1.29,1.582,1.759,3.393,1.319,5.097c-0.438,1.704-1.724,3.062-3.618,3.823C355.479,129.949,354.33,130.159,353.138,130.159
									z M350.931,118.907c-2.581,0-4.73,1.183-5.222,3.089c-0.291,1.131,0.054,2.373,0.971,3.497
									c0.981,1.204,2.48,2.114,4.221,2.563c1.738,0.446,3.492,0.377,4.934-0.204c1.346-0.541,2.247-1.462,2.539-2.594l0,0
									c0.291-1.131-0.053-2.373-0.97-3.497c-0.982-1.204-2.482-2.114-4.222-2.563C352.417,119,351.657,118.907,350.931,118.907z"
									/>
								<path style="fill:#FFC2B0;" d="M348.82,117.267c0,0,0.125,0.579-0.125,5.154c-0.079,1.438,4.957,2.782,6.259,1.48
									c1.302-1.302,0.781-2.655,1.093-7.55C356.359,111.456,348.82,117.267,348.82,117.267z"/>
								<path style="fill:#EA9C92;" d="M356.047,116.35c0,0-1.24,4.538-7.353,6.279l0.093-4.125L356.047,116.35z"/>
								<path style="fill:#FFC2B0;" d="M359.919,104.82c1.536,5.942-2.035,12.004-7.977,13.54
									c-5.942,1.536-12.004-2.035-13.54-7.977c-1.536-5.942,2.035-12.004,7.977-13.54
									C352.321,95.307,358.383,98.879,359.919,104.82z"/>
								<path style="fill:#EA9C92;" d="M351.713,108.009c0,0-6.118,2.621-10.354,2.651c-4.236,0.03-3.303-3.518-3.303-3.518
									l12.575-1.817L351.713,108.009z"/>
								<path style="fill:#FF2C9C;" d="M340.096,108.7c0,0,5.329-2.262,10.005-1.319c1.099,0.222,2.118,0.81,2.825,1.679
									c0.231,0.284,0.523,0.543,0.855,0.618c0.829,0.188,2.186-3.252,3.798-3.33c1.612-0.078,2.687,1.063,1.366,3.178
									c-1.321,2.115-0.875,4.483-0.267,4.822c0.608,0.339,7.056-4.599,1.368-15.867c-5.688-11.268-20.137-5.199-22.384-2.915
									c0,0-2.368,2.063-4.293,0.227C333.369,95.793,331.211,111.959,340.096,108.7z"/>
								<path style="fill:#FFC2B0;" d="M329.405,115.356l-7.763-3.346c-0.889-0.383-1.577-1.124-1.892-2.039l-7.665-22.214
									l-3.552,0.618l6.196,27.643c0.289,1.29,1.113,2.397,2.266,3.045l12.925,7.259L329.405,115.356z"/>
							</g>
							<path style="fill:#FFC2B0;" d="M410.167,118.969l1.781-0.817c1.517-0.696,2.901-1.652,4.088-2.825l1.24-1.224
								c0.699-0.69,0.908-1.737,0.526-2.642l0,0c-0.298-0.707-1.133-1.014-1.817-0.668l-3.72,1.879c0,0,0.582-1.647,0.302-2.075
								c-0.28-0.428-3.158,2.749-4.49,5.002C406.745,117.853,410.167,118.969,410.167,118.969z"/>
							<path style="fill:#FFC2B0;" d="M379.187,127.854l6.64-0.742c1.57-0.175,3.088-0.667,4.463-1.445l17.787-10.067l2.09,3.369
								l-18.186,14.041c-0.562,0.434-1.176,0.794-1.828,1.073l-10.846,4.637L379.187,127.854z"/>
							<path style="fill:#FFC2B0;" d="M308.532,88.374l-0.677-0.782c-0.78-0.9-1.286-2.004-1.459-3.183l-0.474-3.24
								c-0.148-1.008,0.247-2.033,1.066-2.639c0.03-0.022,0.06-0.043,0.09-0.064c0.86-0.594,2.06-0.164,2.459,0.802l1.597,3.86
								c0,0-0.504-1.999,0.142-2.22c0.473-0.162,1.37,2.318,0.84,3.698c-0.53,1.379-0.03,3.15-0.03,3.15L308.532,88.374z"/>
							<path style="fill:#FFFFFF;" d="M344.752,115.253l-2.869-0.788c0,0,1.37,2.155,3.369,2.704c2,0.549,2.311-1.143,2.311-1.143
								L344.752,115.253z"/>
						</g>
					</g>
					<path style="fill:#5793CE;" d="M340.449,116.045c0,0-12.967-2.562-16.926-3.765c-3.96-1.203-5.614,9.673-5.313,12.43
						c0.301,2.757,13.784,5.833,15.388,10.56C335.201,139.997,340.449,116.045,340.449,116.045z"/>
					<path style="fill:#5793CE;" d="M360.276,120.818c0,0,9.478,4.067,25.337,6.048c0.645,0.08,1.198,0.507,1.411,1.121
						c0.611,1.756,1.655,5.59,0.84,9.534c-0.336,1.626-1.808,2.767-3.469,2.755c-4.965-0.035-15.65,0.442-17.384,5.083
						C364.739,151.441,360.276,120.818,360.276,120.818z"/>
					<path style="fill:#FFFFFF;" d="M354.7,129.368l-2.599,2.822c-0.337,0.366-0.498,0.861-0.441,1.356l1.786,15.448
						c0.05,0.433-0.07,0.869-0.335,1.215l-5.591,7.314c-0.248,0.324-0.758,0.235-0.882-0.154l-3.044-9.58
						c-0.115-0.363-0.104-0.754,0.032-1.109l5.355-14.031c0.117-0.307,0.143-0.641,0.076-0.963l-0.784-3.72L354.7,129.368z"/>
				</g>
				<path style="fill:#396CAA;" d="M383.087,137.401c-2.836,0.33-9.798,0.929-15.153,1.376c-3.068,0.256-5.106,3.214-4.33,6.194
					c2.853,10.96-0.925,28.577-0.243,34.54c0.816,7.136-3.508,9.895-3.531,9.909c4.27-0.922,7.163-2.608,7.062-4.807
					c-0.593-12.833,0.245-29.575,0.98-40.591c3.118-3.403,12.162-3.779,16.578-3.744c1.684,0.013,3.102-1.193,3.432-2.844
					c0.41-2.055,0.316-4.067,0.05-5.776C387.932,131.768,387.929,136.839,383.087,137.401z"/>
			</g>
			<g>
				<ellipse style="fill:#D3008D;" cx="261.099" cy="330.184" rx="26.179" ry="15.114"/>
				<g>
					<path style="fill:#173D7A;" d="M240.178,319.737c-2.379,1.016-3.876,3.668-3.678,6.517c0.093,1.345,0.256,2.598,0.536,3.186
						c0.757,1.589,3.237,3.769,7.197,2.204c3.959-1.565,12.752-9.826,13.081-15.234
						C257.927,306.366,246.441,317.062,240.178,319.737z"/>
					<path style="fill:#173D7A;" d="M263.44,336.351c0,0-0.95,5.792-0.488,6.853c0.461,1.061,3.217,3.327,7.288,2.837
						s15.783-4.528,18.391-12.247c4.043-11.966-22.607,0.898-22.607,0.898L263.44,336.351z"/>
					
						<radialGradient id="SVGID_00000060010703490952367360000009066060574215714468_" cx="253.2826" cy="335.7605" r="108.5282" gradientUnits="userSpaceOnUse">
						<stop  offset="0" style="stop-color:#86B8E0"/>
						<stop  offset="0.171" style="stop-color:#9BC6E8"/>
						<stop  offset="0.4661" style="stop-color:#B9DAF4"/>
						<stop  offset="0.7188" style="stop-color:#CBE7FB"/>
						<stop  offset="0.8977" style="stop-color:#D2EBFE"/>
						<stop  offset="1" style="stop-color:#D4ECFF"/>
					</radialGradient>
					<path style="fill:url(#SVGID_00000060010703490952367360000009066060574215714468_);" d="M274.884,243.764l0.906,90.413
						c-0.095,3.145-2.155,5.801-4.925,6.268c-0.342,0.058-0.709,0.105-1.101,0.139c-2.805,0.245-4.439-0.958-5.371-2.222
						c-0.755-1.024-1.152-2.322-1.209-3.65l-1.154-38.596l-5.762-34.509l-7.972,61.077c-0.128,1.652-0.919,3.179-2.191,4.021
						c-0.879,0.582-2.071,1.033-3.635,0.986c-2.282-0.069-3.867-1.29-4.833-2.38c-0.766-0.864-1.17-2.051-1.154-3.27l3.16-36.749
						l1.176-46.873L274.884,243.764z"/>
					<path style="fill:#FFC2B0;" d="M263.176,162.834l-1.429,8.239c0,0-0.053,2.811,3.085,3.59c3.138,0.779,4.109-1.247,4.109-1.247
						l1.419-9.278L263.176,162.834z"/>
					<path style="fill:#FFC2B0;" d="M280.473,158.321c-2.228,7.058-9.123,11.154-15.4,9.149c-6.277-2.005-9.56-9.352-7.332-16.409
						c2.228-7.058,9.123-11.154,15.4-9.149C279.419,143.917,282.701,151.263,280.473,158.321z"/>
					<path style="fill:#5793CE;" d="M263.549,171.223c-0.217-0.088-13.316-8.522-18.158,0.304
						c-7.895,14.391-2.12,30.892-4.937,66.718c-0.471,5.995,8.068,9.648,12.105,11.954c3.592,2.052,7.612,3.309,11.749,3.342
						c4.093,0.033,11.942-3.606,11.657-8.957c-1.31-24.611,0.866-45.356,2.875-65.485
						C278.841,179.1,276.329,176.396,263.549,171.223z"/>
					<path style="fill:#396CAA;" d="M256.268,261.607l-7.972,61.077c-0.128,1.652-0.919,3.179-2.191,4.021
						c-0.208,0.138-0.437,0.266-0.681,0.384c1.655-1.241,6.487-52.506,7.381-58.208
						C253.701,263.174,256.268,261.607,256.268,261.607z"/>
				</g>
				<polygon style="fill:#FFC2B0;" points="306.021,178.679 316.988,156.912 313.547,154.739 302.181,171.319 				"/>
				<polygon style="fill:#FFC2B0;" points="233.688,155.566 239.023,131.296 243.271,131.343 241.676,151.471 				"/>
				<path style="fill:#5793CE;" d="M278.841,179.1c0,0,12.266,4.838,22.804-8.456c0.928-1.171,2.835-1.04,3.385,0.222
					c0.948,2.179,2.135,5.471,0.695,8.561c-6.37,13.67-28.102,13.194-33.338,20.857C267.151,207.946,278.841,179.1,278.841,179.1z"
					/>
				<path style="fill:#5793CE;" d="M255.241,168.199c0,0-10.128,0.778-11.585-7.987c-0.751-4.514-0.976-7.21-1.018-8.763
					c-0.029-1.052-0.942-1.848-1.986-1.719c-2.425,0.301-6.18,1.025-6.69,2.65c-0.76,2.427-2.191,14.33,7.812,32.595
					C248.328,196.941,255.241,168.199,255.241,168.199z"/>
				<path style="fill:#FFC2B0;" d="M239.001,131.356l0.097-2.767c0.034-0.977,0.319-1.929,0.827-2.764l2.805-4.608l0.732-0.922
					c0.676-0.851,1.884-1.058,2.804-0.479l0.645,0.406c0.823,0.517,1.296,1.443,1.234,2.413l-1.451,3.938l1.835-0.356
					c0.357-0.069,0.701,0.167,0.765,0.524l0,0c0.055,0.303-0.111,0.604-0.397,0.719l-2.997,1.209l-2.721,3.852L239.001,131.356z"/>
				<path style="fill:#FFC2B0;" d="M317.069,157.05l1.283-2.454c0.453-0.866,0.676-1.834,0.646-2.811l-0.161-5.392l-0.181-1.163
					c-0.167-1.074-1.115-1.85-2.201-1.802l-0.761,0.034c-0.971,0.043-1.84,0.614-2.265,1.488l-0.685,4.141l-1.419-1.216
					c-0.276-0.236-0.692-0.201-0.924,0.078l0,0c-0.197,0.237-0.202,0.58-0.01,0.822l2.008,2.532l0.52,5.275L317.069,157.05z"/>
				<path style="fill:#396CAA;" d="M270.842,197.542c-1.066,4.861,5.356,41.529-1.785,54.939c3.571-1.447,7.1-4.278,6.908-7.897
					c-0.937-17.6-0.089-33.218,1.204-48.052c6.107-3.094,15.649-4.939,22.398-9.881
					C292.331,189.318,271.794,193.203,270.842,197.542z"/>
				<path style="fill:#FFFFFF;" d="M258.839,168.896l1.819-1.868c0,0,2.992,3.057,5.395,3.587c0,0,2.893,0.82,4.307,0.89
					l1.171,3.229C271.531,174.733,262.004,174.051,258.839,168.896z"/>
				<path style="fill:#173D7A;" d="M271.929,158.54c0.502-0.009,0.968-0.237,1.254-0.65c0.497-0.72,0.183-4.03,1.715-4.576
					c2.396-0.855,8.077,2.143,8.685-6.498c0.316-4.491-1.87-5.684-1.861-8.145c0,0,0.189,1.234-11.367,0.466
					c-11.556-0.768-15.313,9.494-15.587,14.382c-0.273,4.888,2.092,12.924,9.99,14.027c1.309,0.183,6.81-4.24,6.668-4.82
					c-0.142-0.58-2.218-0.548-1.918-2.236C269.758,159.083,270.615,158.565,271.929,158.54z"/>
			</g>
		</g>
	</g>
	<g>
		<g>
			<path style="fill:#5793CE;" d="M106.146,213.295l-29.184-16.849c-0.578-0.333-1.1-0.346-1.509-0.121
				c0-0.002,0.002-0.019,0.002-0.019l-2.831,1.635c0,0,1.253,0.457,1.989,0.727v21.253c0,1.729,1.051,3.738,2.348,4.486
				l27.894,16.105v2.494l2.86-1.647l-0.015-0.005c0.483-0.295,0.793-0.942,0.793-1.872v-21.7
				C108.494,216.052,107.443,214.044,106.146,213.295z"/>
			
				<radialGradient id="SVGID_00000029027566473459052650000000273276230493766328_" cx="101.9925" cy="248.4868" r="60.7711" gradientUnits="userSpaceOnUse">
				<stop  offset="0" style="stop-color:#86B8E0"/>
				<stop  offset="0.2735" style="stop-color:#A6CEED"/>
				<stop  offset="0.548" style="stop-color:#BFDEF7"/>
				<stop  offset="0.7981" style="stop-color:#CFE8FD"/>
				<stop  offset="1" style="stop-color:#D4ECFF"/>
			</radialGradient>
			<path style="fill:url(#SVGID_00000029027566473459052650000000273276230493766328_);" d="M103.263,242.918l-29.184-16.849
				c-1.297-0.749-2.348-2.757-2.348-4.486v-21.7c0-1.729,1.051-2.524,2.348-1.775l29.184,16.849
				c1.297,0.749,2.348,2.757,2.348,4.486v21.7C105.611,242.872,104.56,243.667,103.263,242.918z"/>
			<path style="fill:#FFFFFF;" d="M103.263,214.956l-29.184-16.849c-0.737-0.426-1.387-0.338-1.818,0.122
				c0.314-0.026,0.662,0.048,1.036,0.264l29.184,16.85c1.297,0.749,2.348,2.757,2.348,4.486v21.7c0,0.746-0.204,1.304-0.53,1.654
				c0.775-0.064,1.312-0.808,1.312-2.039v-21.7C105.611,217.714,104.56,215.705,103.263,214.956z"/>
		</g>
		<g>
			<path style="fill:#FFFFFF;" d="M83.894,218.591c0,1.256-0.882,1.765-1.969,1.137c-1.088-0.628-1.969-2.155-1.969-3.411
				s0.882-1.765,1.969-1.137S83.894,217.335,83.894,218.591z"/>
			<path style="fill:#FFFFFF;" d="M89.859,222.035c0,1.256-0.882,1.765-1.969,1.137c-1.088-0.628-1.969-2.155-1.969-3.411
				s0.882-1.765,1.969-1.137S89.859,220.779,89.859,222.035z"/>
			<path style="fill:#FFFFFF;" d="M95.824,225.479c0,1.256-0.882,1.765-1.969,1.137c-1.088-0.628-1.969-2.155-1.969-3.411
				s0.882-1.765,1.969-1.137C94.942,222.696,95.824,224.223,95.824,225.479z"/>
		</g>
	</g>
	<g>
		<g>
			<path style="fill:#D3008D;" d="M423.445,212.913l-28.533-16.473c-0.565-0.326-1.075-0.338-1.475-0.118
				c0-0.002,0.002-0.018,0.002-0.018l-2.768,1.599c0,0,1.225,0.447,1.945,0.711v20.778c0,1.691,1.028,3.654,2.296,4.387
				l27.272,15.745v2.438l2.796-1.61l-0.015-0.005c0.472-0.288,0.776-0.921,0.776-1.83v-21.216
				C425.74,215.608,424.712,213.645,423.445,212.913z"/>
			
				<linearGradient id="SVGID_00000052094179741403066980000002196089625365954494_" gradientUnits="userSpaceOnUse" x1="389.798" y1="219.9695" x2="422.9219" y2="219.9695">
				<stop  offset="0" style="stop-color:#FF2C9C"/>
				<stop  offset="0.312" style="stop-color:#FB289B"/>
				<stop  offset="0.6016" style="stop-color:#F01D97"/>
				<stop  offset="0.8814" style="stop-color:#DD0A91"/>
				<stop  offset="1" style="stop-color:#D3008D"/>
			</linearGradient>
			<path style="fill:url(#SVGID_00000052094179741403066980000002196089625365954494_);" d="M420.626,241.875l-28.533-16.473
				c-1.268-0.732-2.296-2.696-2.296-4.386v-21.216c0-1.691,1.028-2.467,2.296-1.736l28.533,16.473
				c1.268,0.732,2.296,2.696,2.296,4.386v21.216C422.922,241.83,421.894,242.607,420.626,241.875z"/>
			<path style="fill:#FFFFFF;" d="M421.327,214.033l-28.533-16.473c-0.803-0.464-1.507-0.319-1.917,0.276
				c0.354-0.092,0.769-0.031,1.217,0.228l28.533,16.473c1.268,0.732,2.296,2.696,2.296,4.386v21.216c0,0.62-0.141,1.114-0.378,1.459
				c0.646-0.169,1.078-0.871,1.078-1.964v-21.216C423.622,216.729,422.594,214.765,421.327,214.033z"/>
		</g>
		<g>
			<path style="fill:#FFFFFF;" d="M401.689,218.091c0,1.228-0.862,1.725-1.925,1.111c-1.063-0.614-1.925-2.107-1.925-3.334
				c0-1.228,0.862-1.725,1.925-1.111C400.827,215.37,401.689,216.863,401.689,218.091z"/>
			<path style="fill:#FFFFFF;" d="M407.521,221.458c0,1.228-0.862,1.725-1.925,1.111c-1.063-0.614-1.925-2.107-1.925-3.334
				c0-1.228,0.862-1.725,1.925-1.111C406.659,218.737,407.521,220.23,407.521,221.458z"/>
			<path style="fill:#FFFFFF;" d="M413.353,224.825c0,1.228-0.862,1.725-1.925,1.111c-1.063-0.614-1.925-2.107-1.925-3.334
				c0-1.228,0.862-1.725,1.925-1.111C412.491,222.104,413.353,223.597,413.353,224.825z"/>
		</g>
	</g>
</g>
</svg>
