<?xml version="1.0" encoding="utf-8"?>
<!-- Generator: Adobe Illustrator 27.5.0, SVG Export Plug-In . SVG Version: 6.00 Build 0)  -->
<svg version="1.1" xmlns="http://www.w3.org/2000/svg" xmlns:xlink="http://www.w3.org/1999/xlink" x="0px" y="0px"
	 viewBox="0 0 500 500" style="enable-background:new 0 0 500 500;" xml:space="preserve">
<g id="BACKGROUND">
	<rect style="fill:#7EB0E9;" width="500" height="500"/>
</g>
<g id="OBJECTS">
	
		<line style="fill:none;stroke:#0E0108;stroke-linecap:round;stroke-linejoin:round;stroke-miterlimit:10;" x1="481.829" y1="445.484" x2="18.171" y2="445.484"/>
	<g>
		<g>
			<g>
				<path style="fill:#FFFFFF;" d="M454.018,152.224c-2.922-40.125-38.283-70.139-78.554-66.251
					c-38.291,3.696-67.117,37.521-64.724,75.915c0.809,12.99,5.016,24.943,11.693,35.059c14.944,22.64,23.315,48.984,25.285,76.04
					l1.128,15.494c0.418,5.737,5.453,10.089,11.19,9.671l64.889-4.726c5.737-0.418,10.089-5.453,9.671-11.19l-0.969-13.309
					c-2.037-27.963,2.439-56.164,14.107-81.658C452.593,176.649,454.926,164.693,454.018,152.224z"/>
				<path style="fill:#3F3F3F;" d="M349.248,290.526c7.31,17.335,25.046,28.91,44.85,27.467
					c19.804-1.442,35.676-15.465,40.396-33.676L349.248,290.526z"/>
				<path style="fill:#FCA44A;" d="M415.388,187.709c-0.379-1.259-0.901-2.471-1.544-3.618c-0.691-1.235-1.588-2.555-2.918-3.165
					c-2.899-1.329-5.656,1.747-6.88,4.054c-1.324,2.493-1.705,5.378-1.822,8.16c-0.142,3.396,0.083,6.815,0.184,10.21
					c0.08,2.686,0.16,5.373,0.239,8.059c-0.577,0.204-1.161,0.392-1.76,0.541c-6.819,1.699-14.479-0.318-19.412-5.307
					c0.096-0.161,0.195-0.321,0.288-0.484c3.333-5.816,4.965-12.887,4.293-19.568c-0.288-2.86-0.872-6.295-3.447-8.038
					c-1.065-0.721-2.34-0.863-3.468-0.187c-1.231,0.737-1.958,2.332-2.556,3.58c-2.494,5.203-2.84,11.342-1.181,16.847
					c0.891,2.955,2.404,5.657,4.399,7.938c-3.439,5.436-8.711,9.943-15.22,10.408c-1.984,0.142-3.938-0.158-5.791-0.776
					c-1.68-5.354-3.536-10.654-5.566-15.885c-1.04-2.681-2.332-5.502-4.901-7.052c-1.043-0.629-2.331-0.888-3.488-0.414
					c-0.252,0.103-0.542,0.232-0.754,0.406c-0.36,0.296-0.257,0.781-0.243,1.197c0.026,0.85,0.083,1.7,0.172,2.546
					c0.68,6.47,3.287,12.917,8.421,17.115c1.646,1.345,3.488,2.398,5.434,3.116c0.821,2.636,1.611,5.282,2.346,7.943
					c3.626,13.126,6.219,26.53,7.724,40.065c0.847,7.619,1.263,15.263,1.665,22.914c0.024,0.452,0.686,0.39,0.693-0.051
					c0.102-7.485-0.439-14.986-1.23-22.427c-0.792-7.446-1.911-14.857-3.352-22.205c-1.444-7.366-3.206-14.668-5.294-21.878
					c-0.379-1.308-0.78-2.609-1.18-3.911c3.13,0.875,6.472,0.874,9.682-0.219c4.97-1.692,8.989-5.484,11.841-9.839
					c1.47,1.463,3.164,2.709,5.052,3.67c4.897,2.492,10.736,3.096,16.034,1.638c0.283-0.078,0.562-0.165,0.84-0.256l0.419,14.122
					c0.234,7.905,0.469,15.81,0.704,23.716c0.233,7.869,0.467,15.738,0.7,23.607c0.113,3.807,0.227,7.615,0.339,11.423
					c0.025,0.837,1.322,0.741,1.297-0.095c-0.336-11.387-0.67-22.773-1.005-34.16c-0.333-11.314-0.665-22.628-0.998-33.942
					c-0.05-1.717-0.101-3.433-0.151-5.15c4.293-1.753,7.797-5.013,9.913-9.201C416.291,198.438,416.916,192.788,415.388,187.709z
					 M352.815,212.951c-3.587-3.083-5.828-7.382-6.931-11.938c-0.536-2.212-0.786-4.486-0.846-6.759
					c2.141-1.1,4.271,1.305,5.345,2.95c0.769,1.177,1.258,2.464,1.764,3.767c0.624,1.609,1.232,3.224,1.824,4.844
					c1.208,3.31,2.344,6.646,3.413,10.003C355.734,215.098,354.186,214.129,352.815,212.951z M379.76,204.65
					c-4.869-6.637-5.416-16.153-1.38-23.32c0.467-0.83,1.032-1.906,2.07-2.076c0.818-0.134,1.57,0.441,2.09,1.007
					c1.497,1.632,1.859,3.925,2.099,6.043c0.572,5.058-0.278,10.242-2.095,14.978c-0.554,1.444-1.24,2.891-2.043,4.294
					C380.247,205.274,379.995,204.97,379.76,204.65z M414.757,195.627c-0.427,3.745-1.87,7.393-4.259,10.322
					c-1.771,2.17-4.023,3.829-6.547,4.943c-0.102-3.452-0.203-6.905-0.305-10.358c-0.127-4.314-0.556-8.892,0.789-13.072
					c0.595-1.85,1.647-3.618,3.227-4.79c0.941-0.698,2.038-1.027,3.075-0.332c0.854,0.573,1.435,1.503,1.935,2.379
					C414.538,187.99,415.181,191.906,414.757,195.627z"/>
			</g>
			<g>
				
					<rect x="87.875" y="87.062" transform="matrix(0.9836 0.1804 -0.1804 0.9836 29.1971 -30.2928)" style="fill:#0161B8;" width="186.584" height="116.671"/>
				
					<rect x="182.026" y="2.779" transform="matrix(0.1804 -0.9836 0.9836 0.1804 61.4082 265.8343)" style="fill:#BED2E9;" width="16.373" height="186.584"/>
				
					<rect x="101.91" y="104.734" transform="matrix(0.9836 0.1804 -0.1804 0.9836 21.1305 -21.0174)" style="fill:#FFFFFF;" width="48.443" height="1.892"/>
				
					<rect x="99.726" y="116.646" transform="matrix(0.9836 0.1804 -0.1804 0.9836 23.2433 -20.428)" style="fill:#FFFFFF;" width="48.443" height="1.892"/>
				<g>
					<g>
						<path style="fill:#FFFFFF;" d="M195.979,129.996c12.523,2.296,19.534,10.246,20.172,21.304l-9.022-1.654
							c-0.637-6.393-4.991-11.19-12.45-12.558c-9.206-1.688-17.215,3.6-19.478,15.939c-2.296,12.519,3.316,20.305,12.522,21.993
							c7.459,1.368,13.087-1.312,16.097-7.33l9.022,1.654c-4.419,9.565-13.897,15.064-26.42,12.768
							c-14.359-2.633-22.724-14.635-19.786-30.655C169.541,135.616,181.619,127.362,195.979,129.996z"/>
					</g>
					
						<ellipse transform="matrix(0.7071 -0.7071 0.7071 0.7071 -54.4498 180.4168)" style="fill:none;stroke:#FFFFFF;stroke-miterlimit:10;" cx="190.557" cy="155.935" rx="36.851" ry="36.851"/>
				</g>
			</g>
			<g>
				<g>
					<path style="fill:#C32732;" d="M172.63,225.044l-90.512,21.584l-13.4-56.193c-1.839-7.713,2.939-15.486,10.653-17.325
						l62.533-14.912c7.714-1.84,15.486,2.94,17.325,10.653L172.63,225.044z M87.929,237.178l75.251-17.945l-11.581-48.563
						c-0.836-3.506-4.369-5.679-7.875-4.842L81.19,180.74c-3.506,0.836-5.678,4.369-4.842,7.875L87.929,237.178z"/>
				</g>
				<path style="fill:#C32732;" d="M206.248,230.292l-30.542-14.906c-30.099,15.873-47.129-9.018-47.129-9.018l-11.215,2.674
					l-1.841,0.439l-11.215,2.674c0,0-3.965,29.898-37.988,29.316L45.79,268.556c0,0,36.907,133.691,111.981,118.098l0.007,0.028
					c0.309-0.074,0.612-0.155,0.917-0.232c0.308-0.069,0.615-0.133,0.924-0.207l-0.007-0.028
					C233.644,366.252,206.248,230.292,206.248,230.292z"/>
				<path style="fill:#AA0B1E;" d="M198.597,237.82l-27.14-13.246c-26.746,14.105-41.879-8.014-41.879-8.014l-9.966,2.376
					l-1.636,0.39l-9.965,2.376c0,0-3.523,26.568-33.756,26.05l-18.242,24.068c0,0,32.795,118.798,99.507,104.942l0.006,0.025
					c0.275-0.065,0.544-0.138,0.815-0.207c0.274-0.061,0.546-0.118,0.821-0.184l-0.006-0.025
					C222.942,358.633,198.597,237.82,198.597,237.82z"/>
				<path style="fill:#B51524;" d="M155.523,376.777l0.062-0.003c0.254-0.062,0.504-0.128,0.756-0.192
					c0.274-0.061,0.546-0.118,0.821-0.183l-0.006-0.025c65.785-17.74,41.441-138.554,41.441-138.554l-27.14-13.246
					c-26.746,14.105-41.879-8.014-41.879-8.014l-9.966,2.376l-1.636,0.39l37.543,157.437L155.523,376.777z"/>
				<path style="fill:#3F3F3F;" d="M149.175,279.598c-1.931-8.098-10.062-13.098-18.16-11.166
					c-8.098,1.931-13.097,10.061-11.166,18.16c1.5,6.289,6.742,10.691,12.8,11.448l-0.732,19.845l22.131-5.277l-10.223-17.675
					C148.297,291.408,150.583,285.5,149.175,279.598z"/>
				<path style="fill:#2B2828;" d="M143.825,294.932c4.472-3.524,6.757-9.432,5.35-15.334c-1.931-8.098-10.062-13.098-18.16-11.166
					l9.95,47.295l13.083-3.12L143.825,294.932z"/>
			</g>
			<g>
				<path style="fill:#BED2E9;" d="M188.38,395.498h154.903c12.077,0,21.868-9.791,21.868-21.868V200.852
					c0-12.077-9.791-21.868-21.868-21.868H188.38V395.498z"/>
				<g>
					<path style="fill:#FFFFFF;" d="M176.011,407.866h154.903c12.077,0,21.868-9.791,21.868-21.868V213.221
						c0-12.077-9.791-21.868-21.868-21.868H176.011V407.866z"/>
					<g>
						<path style="fill:none;" d="M344.747,403.09c0.173-0.185,0.328-0.387,0.494-0.578c-0.123,0.106-0.243,0.215-0.368,0.319
							C344.829,402.917,344.791,403.005,344.747,403.09z"/>
						<path style="fill:none;" d="M339.019,407.457c1.041-0.544,2.024-1.178,2.956-1.879c0.307-0.407,0.595-0.829,0.873-1.257
							c-0.993,0.648-2.042,1.218-3.139,1.7C339.493,406.508,339.267,406.988,339.019,407.457z"/>
						<path style="fill:none;" d="M335.422,408.945c0.674-0.207,1.335-0.446,1.979-0.716c0.33-0.533,0.63-1.087,0.914-1.649
							c-0.724,0.26-1.466,0.481-2.223,0.665C335.889,407.821,335.669,408.39,335.422,408.945z"/>
						<path style="fill:none;" d="M333.58,412.281c0.375-0.167,0.743-0.346,1.106-0.534c0.625-0.655,1.202-1.351,1.741-2.081
							c-0.522,0.18-1.05,0.345-1.589,0.486C334.456,410.886,334.038,411.598,333.58,412.281z"/>
						<path style="fill:none;" d="M337.383,410.084c0.739-0.534,1.441-1.113,2.105-1.734c-0.45,0.235-0.909,0.457-1.377,0.661
							C337.879,409.376,337.636,409.733,337.383,410.084z"/>
						<path style="fill:#3F3F3F;" d="M337.36,227.077c0-12.334-10.034-22.368-22.368-22.368h-138.98v1h138.98
							c11.782,0,21.368,9.586,21.368,21.368v172.777c0,2.696-0.522,5.266-1.443,7.64c0.396-0.073,0.788-0.156,1.175-0.25
							c0.815-2.315,1.268-4.8,1.268-7.39V227.077z"/>
						<path style="fill:#3F3F3F;" d="M341.612,224.242c0-12.334-10.034-22.368-22.368-22.368H176.011v1h143.232
							c11.782,0,21.368,9.586,21.368,21.368v172.777c0,3.441-0.841,6.681-2.297,9.56c0.473-0.17,0.937-0.358,1.394-0.559
							c1.218-2.756,1.903-5.799,1.903-9.001V224.242z"/>
						<path style="fill:#3F3F3F;" d="M347.281,219.99c0-12.334-10.034-22.368-22.368-22.368H176.011v1h148.902
							c11.782,0,21.368,9.586,21.368,21.368v172.777c0,4.26-1.273,8.219-3.434,11.553c0.704-0.459,1.381-0.954,2.025-1.489
							c1.534-3.028,2.408-6.444,2.408-10.064V219.99z"/>
						<path style="fill:#3F3F3F;" d="M351.533,215.738c0-12.334-10.034-22.368-22.368-22.368H176.011v1h153.153
							c11.782,0,21.368,9.586,21.368,21.368v172.777c0,5.362-2.016,10.242-5.292,13.997c1.876-1.629,3.47-3.57,4.704-5.745
							c1.019-2.555,1.588-5.337,1.588-8.251V215.738z"/>
					</g>
				</g>
				<polygon style="fill:#C32732;" points="304.798,252.103 304.798,164.525 295.853,176.567 285.015,165.729 285.015,252.759 				
					"/>
				<path style="fill:#BED2E9;" d="M155.836,420.305H310.74c12.077,0,21.868-9.791,21.868-21.868V225.659
					c0-12.077-9.791-21.868-21.868-21.868H155.836V420.305z"/>
				<polygon style="fill:#ADC7E0;" points="176.011,203.53 176.523,420.044 155.836,420.044 155.836,203.53 				"/>
				<rect x="176.011" y="203.53" style="fill:#3F3F3F;" width="5.155" height="216.775"/>
				<g>
					<polygon style="fill:#3F3F3F;" points="155.836,219.496 155.836,239.16 176.096,239.16 176.049,219.496 					"/>
					<polygon style="fill:#3F3F3F;" points="176.702,339.992 176.702,330.161 176.311,330.161 176.334,339.992 					"/>
					<polygon style="fill:#3F3F3F;" points="155.836,339.992 176.334,339.992 176.311,330.161 155.836,330.161 					"/>
					<polygon style="fill:#3F3F3F;" points="176.702,362.237 176.702,352.405 176.364,352.405 176.387,362.237 					"/>
					<polygon style="fill:#3F3F3F;" points="155.836,362.237 176.387,362.237 176.364,352.405 155.836,352.405 					"/>
				</g>
				<path style="fill:#BED2E9;" d="M155.836,203.53c0,0.261,32.544-24.546,32.544-24.546h20.444l-30.492,24.546H155.836z"/>
				<text transform="matrix(1 0 0 1 186.9243 245.1523)"><tspan x="0" y="0" style="fill:#FFFFFF; font-family:'Montserrat-ExtraBoldItalic'; font-size:31.6327px;">PATENT</tspan><tspan x="26.746" y="37.959" style="fill:#FFFFFF; font-family:'Montserrat-ExtraBoldItalic'; font-size:31.6327px;">LAW</tspan></text>
				<line style="fill:none;stroke:#3F3F3F;stroke-miterlimit:10;" x1="358.864" y1="330.849" x2="358.864" y2="330.849"/>
			</g>
		</g>
		<g>
			<g>
				<rect x="63.425" y="301.355" style="fill:#3F3F3F;" width="4.775" height="119.337"/>
				<rect x="186.217" y="301.355" style="fill:#3F3F3F;" width="4.775" height="119.337"/>
				<rect x="309.008" y="301.355" style="fill:#3F3F3F;" width="4.775" height="119.337"/>
				<rect x="431.8" y="301.355" style="fill:#3F3F3F;" width="4.775" height="119.337"/>
			</g>
			<path style="fill:#0161B8;" d="M437.292,300.429c-0.634-0.728-1.88-0.906-2.786-0.395c-29.18,16.5-60.341,15.637-81.342,12.005
				c-22.905-3.959-39.085-11.973-39.246-12.053c-0.381-0.191-0.809-0.26-1.223-0.232c-0.444-0.027-0.901,0.058-1.295,0.28
				c-29.181,16.5-60.34,15.637-81.342,12.005c-22.904-3.959-39.085-11.973-39.245-12.053c-0.509-0.255-1.101-0.297-1.632-0.168
				c-0.567-0.138-1.202-0.079-1.725,0.216c-29.18,16.5-60.341,15.637-81.342,12.005c-22.905-3.959-39.085-11.973-39.246-12.053
				c-0.938-0.47-2.172-0.238-2.754,0.518c-0.583,0.757-0.296,1.75,0.642,2.221c0.676,0.339,16.834,8.354,40.387,12.446
				c7.514,1.306,16.279,2.269,25.788,2.269c17.935,0,38.507-3.439,58.274-14.468c2.956,1.42,18.313,8.452,39.881,12.199
				c7.514,1.306,16.279,2.269,25.789,2.269c17.816,0,38.235-3.4,57.882-14.256c3.846,1.808,18.803,8.403,39.436,11.987
				c7.514,1.306,16.279,2.269,25.789,2.269c18.1,0,38.887-3.492,58.821-14.763C437.707,302.164,437.926,301.158,437.292,300.429z"/>
			<ellipse style="fill:#3F3F3F;" cx="65.812" cy="296.207" rx="9.529" ry="7.684"/>
			<path style="fill:#3F3F3F;" d="M75.21,422.254c0.079-0.398,0.131-0.803,0.131-1.219c0-4.244-4.266-7.684-9.529-7.684
				s-9.529,3.44-9.529,7.684c0,0.416,0.052,0.821,0.131,1.219H75.21z"/>
			<path style="fill:#3F3F3F;" d="M198.002,422.254c0.079-0.398,0.131-0.803,0.131-1.219c0-4.244-4.266-7.684-9.529-7.684
				s-9.529,3.44-9.529,7.684c0,0.416,0.052,0.821,0.131,1.219H198.002z"/>
			<path style="fill:#3F3F3F;" d="M320.794,422.254c0.079-0.398,0.131-0.803,0.131-1.219c0-4.244-4.266-7.684-9.529-7.684
				c-5.263,0-9.529,3.44-9.529,7.684c0,0.416,0.052,0.821,0.131,1.219H320.794z"/>
			<path style="fill:#3F3F3F;" d="M443.586,422.254c0.079-0.398,0.131-0.803,0.131-1.219c0-4.244-4.266-7.684-9.529-7.684
				c-5.263,0-9.529,3.44-9.529,7.684c0,0.416,0.052,0.821,0.131,1.219H443.586z"/>
			<ellipse style="fill:#3F3F3F;" cx="188.604" cy="296.207" rx="9.529" ry="7.684"/>
			<ellipse style="fill:#3F3F3F;" cx="311.396" cy="296.207" rx="9.529" ry="7.684"/>
			<ellipse style="fill:#3F3F3F;" cx="434.188" cy="296.207" rx="9.529" ry="7.684"/>
		</g>
		<g>
			<g>
				<g>
					<path style="fill:#3F3F3F;" d="M323.936,424.397v16.986c0,0-18.622-5.075-18.622,11.996h29.788v-28.981H323.936z"/>
					<rect x="305.313" y="453.378" style="fill:#0E0108;" width="29.575" height="7.745"/>
				</g>
				<g>
					<path style="fill:#3F3F3F;" d="M371.754,424.397v16.986c0,0,18.622-5.075,18.622,11.996h-29.788v-28.981H371.754z"/>
					
						<rect x="360.802" y="453.378" transform="matrix(-1 -1.224647e-16 1.224647e-16 -1 751.1786 914.5007)" style="fill:#0E0108;" width="29.575" height="7.745"/>
				</g>
				<g>
					<path style="fill:#0E0108;" d="M338.118,258.806h17.008c2.831,0,5.147-2.316,5.147-5.147v-14.094
						c0-6.679-5.465-12.144-12.144-12.144h-3.014c-6.679,0-12.144,5.465-12.144,12.144v14.094
						C332.971,256.49,335.287,258.806,338.118,258.806z"/>
					<g>
						<path style="fill:#D8948F;" d="M346.975,265.466h1.138c2.522,0,4.586-2.064,4.586-4.586v-11.563
							c0-2.522-2.064-4.586-4.586-4.586h-1.138c-2.522,0-4.586,2.064-4.586,4.586v11.563
							C342.389,263.402,344.453,265.466,346.975,265.466z"/>
						<path style="fill:#B26E6D;" d="M347.105,244.732h0.878c2.594,0,4.716,2.122,4.716,4.716v3.696
							c-3.268,2.779-7.839,4.394-10.31,4.164v-7.86C342.389,246.854,344.511,244.732,347.105,244.732z"/>
					</g>
					<path style="fill:#D8948F;" d="M334.246,238.739c0.003-1.204,0.213-2.358,0.583-3.438c0.011-0.047,0.02-0.081,0.025-0.097
						c0,0,0.009,0,0.011-0.001c1.47-4.165,5.431-7.155,10.099-7.155c5.489,0,10.007,4.128,10.637,9.447
						c0.001,0.005,0.005,0.009,0.007,0.014c0.636,2.275-1.009,7.528-2.02,10.39c-0.459,1.299-1.266,2.441-2.338,3.306
						c-3.638,2.932-12.392,7.675-15.5,3.274C332.951,250.517,333.579,243.574,334.246,238.739z"/>
					
						<path style="fill:none;stroke:#0E0108;stroke-width:0.75;stroke-linecap:round;stroke-linejoin:round;stroke-miterlimit:10;" d="
						M337.526,247.104c0,0,1.187,1.145,2.99,0"/>
					<g>
						<path style="fill:#0E0108;" d="M348.682,242.035c0.056,0,0.112-0.017,0.161-0.052c0.124-0.089,0.153-0.262,0.064-0.386
							c-1.563-2.19-4.517-0.894-4.547-0.88c-0.139,0.063-0.201,0.226-0.139,0.366c0.063,0.139,0.226,0.202,0.366,0.139
							c0.104-0.047,2.571-1.121,3.869,0.697C348.51,241.995,348.595,242.035,348.682,242.035z"/>
					</g>
					<path style="fill:#0E0108;" d="M333.978,240.891c0.021-0.187,0.042-0.371,0.064-0.555c1.158-0.071,2.182,0.373,2.199,0.381
						c0.139,0.063,0.202,0.227,0.139,0.366c-0.063,0.139-0.226,0.201-0.366,0.139C335.997,241.215,335.026,240.791,333.978,240.891z
						"/>
					<path style="fill:#FFFFFF;" d="M337.327,251.031c0,0,3.482,2.594,6.621-0.251"/>
					<path style="fill:#0E0108;" d="M334.277,238.061c0.065-0.96,0.253-1.885,0.552-2.76c0.011-0.047,0.02-0.081,0.025-0.097
						c0,0,0.009,0,0.011-0.001c1.47-4.165,5.431-7.155,10.099-7.155c5.489,0,10.007,4.128,10.637,9.447
						c0.001,0.005,0.005,0.009,0.007,0.014c0.28,1.001,0.114,2.581-0.241,4.278c0.078,0.09,0.051,0.27-0.087,0.317
						c-0.859,0.295-1.725-0.171-2.282-0.825c-0.603-0.709-0.985-1.621-1.242-2.508c-0.471-1.63-0.52-3.343-0.487-5.032
						c-0.58,0.622-1.659,2.069-1.954,4.494L334.277,238.061z"/>
					
						<line style="fill:none;stroke:#0E0108;stroke-width:0.75;stroke-linecap:round;stroke-linejoin:round;stroke-miterlimit:10;" x1="341.48" y1="243.857" x2="337.863" y2="243.857"/>
					<g>
						<path style="fill:#0E0108;" d="M332.964,243.857c0-1.744,1.414-3.158,3.158-3.158c1.744,0,3.158,1.414,3.158,3.158
							c0,1.744-1.414,3.158-3.158,3.158C334.378,247.015,332.964,245.601,332.964,243.857z"/>
						<path style="fill:#3F3F3F;" d="M333.446,243.857c0-1.478,1.198-2.677,2.677-2.677c1.478,0,2.677,1.198,2.677,2.677
							c0,1.478-1.198,2.677-2.677,2.677C334.644,246.533,333.446,245.335,333.446,243.857z"/>
						<g>
							<path style="fill:#878787;" d="M337.715,241.705c-0.134-0.099-0.276-0.18-0.421-0.25l-2.36,4.794
								c0.233,0.116,0.477,0.19,0.726,0.234l2.288-4.565C337.872,241.846,337.802,241.769,337.715,241.705z"/>
							<path style="fill:#878787;" d="M336.135,241.188l-2.118,4.303c0.147,0.189,0.311,0.367,0.513,0.517
								c0.017,0.013,0.037,0.02,0.054,0.032l2.364-4.717C336.682,241.236,336.409,241.189,336.135,241.188z"/>
						</g>
					</g>
					<g>
						<path style="fill:#0E0108;" d="M341.468,243.857c0-1.744,1.414-3.158,3.158-3.158c1.744,0,3.158,1.414,3.158,3.158
							c0,1.744-1.414,3.158-3.158,3.158C342.882,247.015,341.468,245.601,341.468,243.857z"/>
						<path style="fill:#3F3F3F;" d="M341.949,243.857c0-1.478,1.199-2.677,2.677-2.677s2.677,1.198,2.677,2.677
							c0,1.478-1.198,2.677-2.677,2.677S341.949,245.335,341.949,243.857z"/>
						<g>
							<path style="fill:#878787;" d="M346.219,241.705c-0.134-0.099-0.276-0.18-0.421-0.25l-2.36,4.794
								c0.233,0.116,0.477,0.19,0.726,0.234l2.288-4.565C346.376,241.846,346.305,241.769,346.219,241.705z"/>
							<path style="fill:#878787;" d="M344.639,241.188l-2.118,4.303c0.147,0.189,0.311,0.367,0.513,0.517
								c0.017,0.013,0.037,0.02,0.054,0.032l2.364-4.717C345.186,241.236,344.914,241.189,344.639,241.188z"/>
						</g>
					</g>
					
						<line style="fill:none;stroke:#0E0108;stroke-width:0.75;stroke-linecap:round;stroke-linejoin:round;stroke-miterlimit:10;" x1="355.28" y1="242.105" x2="347.544" y2="243.113"/>
					<g>
						<path style="fill:#D8948F;" d="M358.708,244.72c0-2.202-1.785-3.988-3.988-3.988c-2.202,0-3.988,1.785-3.988,3.988
							c0,2.202,1.785,3.987,3.988,3.987C356.922,248.708,358.708,246.923,358.708,244.72z"/>
						
							<path style="fill:none;stroke:#0E0108;stroke-width:0.75;stroke-linecap:round;stroke-linejoin:round;stroke-miterlimit:10;" d="
							M352.901,245.102c0,0,1.278-3.25,4.716-2.528"/>
					</g>
				</g>
				<g>
					<path style="fill:#0E0108;" d="M350.764,261.636c0,0,16.766,5.02,20.46,14.019l-7.088,34.222h-35.327l-4.568-37.443
						c0,0,8.052-9.188,20.081-10.799H350.764z"/>
					<path style="fill:#0E0108;" d="M353.415,262.598c0,0,12.116,1.437,35.164,28.729c0,0,4.39,3.805,0,7.756
						c-4.39,3.951-22.828,17.853-22.828,17.853l-3.219-4.829l16.123-16.39l-13.489-9.512L353.415,262.598z"/>
					<path style="fill:#0E0108;" d="M340.644,262.598c0,0-12.116,1.437-35.164,28.729c0,0-4.39,3.805,0,7.756
						c4.39,3.951,22.828,17.853,22.828,17.853l3.219-4.829l-16.123-16.39l13.489-9.512L340.644,262.598z"/>
					<path style="fill:#0E0108;" d="M353.415,262.598l0.806-3.005c0.234-0.874-0.445-1.724-1.349-1.687l-11.818,0.474
						c-0.89,0.036-1.499,0.914-1.22,1.76l0.81,2.459H353.415z"/>
					<g>
						<polyline style="fill:none;stroke:#FFFFFF;stroke-linecap:round;stroke-linejoin:round;stroke-miterlimit:10;" points="
							340.644,262.598 346.737,287.58 353.415,262.598 						"/>
						
							<rect x="343.73" y="286.349" transform="matrix(-1 -1.224647e-16 1.224647e-16 -1 694.2777 585.9758)" style="fill:#FFFFFF;" width="6.818" height="13.278"/>
						
							<rect x="344.413" y="287.58" transform="matrix(-1 -1.224647e-16 1.224647e-16 -1 694.3921 579.8981)" style="fill:#AA0B1E;" width="5.567" height="4.738"/>
						
							<rect x="344.573" y="293.217" transform="matrix(-1 -1.224647e-16 1.224647e-16 -1 694.392 586.6808)" style="fill:#AA0B1E;" width="5.246" height="0.247"/>
					</g>
				</g>
				<g>
					<path style="fill:#D8948F;" d="M363.201,313.362l6.301,8.232l3.674-0.321c0.331-0.029,0.47,0.412,0.183,0.578l-4.3,2.491
						L363.201,313.362z"/>
					<path style="fill:#D8948F;" d="M330.974,313.688l-5.159,8.991l-3.684,0.167c-0.332,0.015-0.412,0.47-0.105,0.597l4.591,1.902
						L330.974,313.688z"/>
				</g>
				<path style="fill:#7C656D;" d="M357.963,305.777"/>
				<g>
					<path style="fill:#0E0108;" d="M334.595,309.877h26.988c0,0,11.929,11.925,11.929,38.566s4.96,85.364,4.96,85.364h-23.428
						l-6.954-95.934l-8.371,95.934h-22.011c0,0,4.96-58.723,4.96-85.364S334.595,309.877,334.595,309.877z"/>
					<polygon style="fill:#3F3F3F;" points="364.317,314.049 328.344,314.049 328.809,309.877 364.136,309.877 					"/>
					<path style="fill:none;stroke:#3F3F3F;stroke-linecap:round;stroke-linejoin:round;stroke-miterlimit:10;" d="M344.065,314.031
						v15.414c0,0,2.06,2.574,3.98,0l0.044,8.428"/>
					
						<circle style="fill:none;stroke:#3F3F3F;stroke-linecap:round;stroke-linejoin:round;stroke-miterlimit:10;" cx="346.055" cy="315.784" r="0.682"/>
				</g>
				<circle style="fill:#FCA44A;" cx="346.055" cy="311.519" r="5.742"/>
			</g>
			<g>
				<g>
					<path style="fill:#3F3F3F;" d="M176.064,424.397v16.986c0,0,18.622-5.075,18.622,11.996h-29.788v-28.981H176.064z"/>
					
						<rect x="165.112" y="453.378" transform="matrix(-1 -1.224647e-16 1.224647e-16 -1 359.7989 914.5007)" style="fill:#0E0108;" width="29.575" height="7.745"/>
				</g>
				<g>
					<path style="fill:#3F3F3F;" d="M128.246,424.397v16.986c0,0-18.622-5.075-18.622,11.996h29.788v-28.981H128.246z"/>
					<rect x="109.623" y="453.378" style="fill:#0E0108;" width="29.575" height="7.745"/>
				</g>
				<g>
					<g>
						<path style="fill:#D8948F;" d="M153.025,265.466h-1.138c-2.522,0-4.586-2.064-4.586-4.586v-11.563
							c0-2.522,2.064-4.586,4.586-4.586h1.138c2.522,0,4.586,2.064,4.586,4.586v11.563
							C157.611,263.402,155.547,265.466,153.025,265.466z"/>
						<path style="fill:#B26E6D;" d="M152.895,244.732h-0.878c-2.594,0-4.716,2.122-4.716,4.716v3.696
							c3.268,2.779,7.839,4.394,10.31,4.164v-7.86C157.611,246.854,155.489,244.732,152.895,244.732z"/>
					</g>
					<path style="fill:#D8948F;" d="M165.754,238.739c-0.003-1.204-0.213-2.358-0.583-3.438c-0.011-0.047-0.02-0.081-0.025-0.097
						c0,0-0.009,0-0.011-0.001c-1.471-4.165-5.431-7.155-10.099-7.155c-5.489,0-10.007,4.128-10.637,9.447
						c-0.002,0.005-0.005,0.009-0.007,0.014c-0.636,2.275,1.009,7.528,2.02,10.39c0.459,1.299,1.266,2.441,2.338,3.306
						c3.637,2.932,12.392,7.675,15.5,3.274C167.049,250.517,166.421,243.574,165.754,238.739z"/>
					
						<path style="fill:none;stroke:#0E0108;stroke-width:0.75;stroke-linecap:round;stroke-linejoin:round;stroke-miterlimit:10;" d="
						M162.474,247.104c0,0-1.187,1.145-2.99,0"/>
					<g>
						<path style="fill:#0E0108;" d="M151.318,242.035c-0.056,0-0.112-0.017-0.161-0.052c-0.124-0.089-0.153-0.262-0.064-0.386
							c1.563-2.19,4.517-0.894,4.546-0.88c0.14,0.063,0.201,0.226,0.139,0.366c-0.063,0.139-0.226,0.202-0.366,0.139
							c-0.104-0.047-2.571-1.121-3.869,0.697C151.49,241.995,151.405,242.035,151.318,242.035z"/>
					</g>
					<path style="fill:#0E0108;" d="M166.022,240.891c-0.021-0.187-0.042-0.371-0.064-0.555c-1.158-0.071-2.182,0.373-2.199,0.381
						c-0.139,0.063-0.202,0.227-0.139,0.366c0.063,0.139,0.226,0.201,0.366,0.139C164.003,241.215,164.974,240.791,166.022,240.891z
						"/>
					
						<path style="fill:none;stroke:#0E0108;stroke-width:0.75;stroke-linecap:round;stroke-linejoin:round;stroke-miterlimit:10;" d="
						M162.673,251.031c0,0-3.482,2.594-6.621-0.251"/>
					
						<line style="fill:none;stroke:#0E0108;stroke-width:0.75;stroke-linecap:round;stroke-linejoin:round;stroke-miterlimit:10;" x1="158.52" y1="243.857" x2="162.137" y2="243.857"/>
					<g>
						<path style="fill:#0E0108;" d="M167.036,243.857c0-1.744-1.414-3.158-3.158-3.158c-1.744,0-3.158,1.414-3.158,3.158
							c0,1.744,1.414,3.158,3.158,3.158C165.622,247.015,167.036,245.601,167.036,243.857z"/>
						<path style="fill:#3F3F3F;" d="M166.554,243.857c0-1.478-1.198-2.677-2.677-2.677c-1.478,0-2.677,1.198-2.677,2.677
							c0,1.478,1.198,2.677,2.677,2.677C165.356,246.533,166.554,245.335,166.554,243.857z"/>
						<g>
							<path style="fill:#878787;" d="M162.285,241.705c0.134-0.099,0.276-0.18,0.421-0.25l2.36,4.794
								c-0.233,0.116-0.477,0.19-0.726,0.234l-2.288-4.565C162.128,241.846,162.199,241.769,162.285,241.705z"/>
							<path style="fill:#878787;" d="M163.865,241.188l2.118,4.303c-0.147,0.189-0.311,0.367-0.513,0.517
								c-0.017,0.013-0.037,0.02-0.054,0.032l-2.364-4.717C163.318,241.236,163.59,241.189,163.865,241.188z"/>
						</g>
					</g>
					<g>
						<path style="fill:#0E0108;" d="M158.532,243.857c0-1.744-1.414-3.158-3.158-3.158c-1.744,0-3.158,1.414-3.158,3.158
							c0,1.744,1.414,3.158,3.158,3.158C157.118,247.015,158.532,245.601,158.532,243.857z"/>
						<path style="fill:#3F3F3F;" d="M158.051,243.857c0-1.478-1.199-2.677-2.677-2.677s-2.677,1.198-2.677,2.677
							c0,1.478,1.199,2.677,2.677,2.677S158.051,245.335,158.051,243.857z"/>
						<g>
							<path style="fill:#878787;" d="M153.781,241.705c0.134-0.099,0.276-0.18,0.421-0.25l2.36,4.794
								c-0.233,0.116-0.477,0.19-0.726,0.234l-2.288-4.565C153.624,241.846,153.695,241.769,153.781,241.705z"/>
							<path style="fill:#878787;" d="M155.361,241.188l2.118,4.303c-0.147,0.189-0.311,0.367-0.513,0.517
								c-0.017,0.013-0.037,0.02-0.054,0.032l-2.364-4.717C154.814,241.236,155.087,241.189,155.361,241.188z"/>
						</g>
					</g>
					
						<line style="fill:none;stroke:#0E0108;stroke-width:0.75;stroke-linecap:round;stroke-linejoin:round;stroke-miterlimit:10;" x1="144.72" y1="242.105" x2="152.456" y2="243.113"/>
					<g>
						<path style="fill:#D8948F;" d="M141.292,244.72c0-2.202,1.785-3.988,3.988-3.988c2.202,0,3.988,1.785,3.988,3.988
							c0,2.202-1.785,3.987-3.988,3.987C143.077,248.708,141.292,246.923,141.292,244.72z"/>
						
							<path style="fill:none;stroke:#0E0108;stroke-width:0.75;stroke-linecap:round;stroke-linejoin:round;stroke-miterlimit:10;" d="
							M147.099,245.102c0,0-1.278-3.25-4.715-2.528"/>
					</g>
				</g>
				<g>
					<path style="fill:#0E0108;" d="M149.236,261.636c0,0-16.766,5.02-20.46,14.019l7.088,34.222h35.327l4.568-37.443
						c0,0-8.051-9.188-20.081-10.799H149.236z"/>
					<path style="fill:#0E0108;" d="M146.585,262.598c0,0-12.116,1.437-35.164,28.729c0,0-4.39,3.805,0,7.756
						c4.39,3.951,22.828,17.853,22.828,17.853l3.219-4.829l-16.123-16.39l13.489-9.512L146.585,262.598z"/>
					<path style="fill:#0E0108;" d="M159.356,262.598c0,0,12.116,1.437,35.164,28.729c0,0,4.39,3.805,0,7.756
						c-4.39,3.951-22.828,17.853-22.828,17.853l-3.219-4.829l16.123-16.39l-13.489-9.512L159.356,262.598z"/>
					<path style="fill:#0E0108;" d="M146.585,262.598l-0.805-3.005c-0.234-0.874,0.445-1.724,1.349-1.687l11.818,0.474
						c0.89,0.036,1.499,0.914,1.22,1.76l-0.81,2.459H146.585z"/>
					<g>
						<polyline style="fill:none;stroke:#FFFFFF;stroke-linecap:round;stroke-linejoin:round;stroke-miterlimit:10;" points="
							159.356,262.598 153.263,287.58 146.585,262.598 						"/>
						<rect x="149.452" y="286.349" style="fill:#FFFFFF;" width="6.818" height="13.278"/>
						<rect x="150.02" y="287.58" style="fill:#AA0B1E;" width="5.567" height="4.738"/>
						<rect x="150.181" y="293.217" style="fill:#AA0B1E;" width="5.246" height="0.247"/>
					</g>
				</g>
				<g>
					<path style="fill:#D8948F;" d="M136.799,313.362l-6.301,8.232l-3.674-0.321c-0.331-0.029-0.47,0.412-0.183,0.578l4.3,2.491
						L136.799,313.362z"/>
					<path style="fill:#D8948F;" d="M169.025,313.688l5.159,8.991l3.684,0.167c0.332,0.015,0.412,0.47,0.105,0.597l-4.592,1.902
						L169.025,313.688z"/>
				</g>
				<path style="fill:#7C656D;" d="M142.037,305.777"/>
				<g>
					<path style="fill:#0E0108;" d="M168.744,309.877h-30.833c0,0-10.006,11.925-10.006,38.566s-4.96,85.364-4.96,85.364h23.428
						l6.954-95.934l8.371,95.934h22.011c0,0-4.96-58.723-4.96-85.364S168.744,309.877,168.744,309.877z"/>
					<polygon style="fill:#3F3F3F;" points="135.683,314.049 171.656,314.049 171.191,309.877 135.864,309.877 					"/>
					<path style="fill:none;stroke:#3F3F3F;stroke-linecap:round;stroke-linejoin:round;stroke-miterlimit:10;" d="M157.352,314.031
						v15.414c0,0-2.06,2.574-3.98,0l-0.044,8.428"/>
					
						<circle style="fill:none;stroke:#3F3F3F;stroke-linecap:round;stroke-linejoin:round;stroke-miterlimit:10;" cx="155.362" cy="315.784" r="0.682"/>
				</g>
			</g>
		</g>
	</g>
</g>
</svg>
